<?xml version="1.0" encoding="utf-8"?>
<!-- Generator: Adobe Illustrator 24.0.1, SVG Export Plug-In . SVG Version: 6.00 Build 0)  -->
<svg version="1.1" id="svgwrapper_svg" xmlns="http://www.w3.org/2000/svg" xmlns:xlink="http://www.w3.org/1999/xlink" x="0px"
	 y="0px" width="820px" height="860px" viewBox="0 0 820 860" style="enable-background:new 0 0 820 860;" xml:space="preserve">
<style type="text/css">
	.st0{display:none;fill:none;stroke:#999999;}
	.st1{fill-opacity:0;}
	.st2{fill:none;stroke:#BABABA;stroke-dasharray:5;}
	.st3{enable-background:new    ;}
	.st4{fill:#444444;}
	.st5{fill:#CEE3FF;}
	.st6{fill:#00A4FF;}
	.st7{fill:none;stroke:#888888;}
	.st8{fill-rule:evenodd;clip-rule:evenodd;fill:#888888;}
	.st9{fill:none;stroke:#FF0000;stroke-width:15;stroke-opacity:0;}
	.st10{opacity:0.6;fill:#BBBBBB;enable-background:new    ;}
	.st11{fill:#FFFFFF;stroke:#E5E5E5;}
	.st12{fill:#878787;}
</style>
<path class="st0" d="M488.1,175.5l0.9,1"/>
<g id="DashRectGroup32" transform="translate(85.0859375,456.5)">
	<rect x="0" y="53.5" class="st1" width="466" height="341"/>
	<path class="st2" d="M0,53.5h466v341H0V53.5"/>
	<g transform="translate(10 10)">
		<g class="st3">
			<path class="st4" d="M2.5,57.5v10H1v-10H2.5z"/>
			<path class="st4" d="M8.2,57.5c1.6,0,2.8,0.4,3.7,1.4c0.8,0.8,1.2,2.1,1.2,3.6c0,1.6-0.4,2.8-1.2,3.7c-0.8,0.9-2.1,1.3-3.7,1.3
				H4.5v-10H8.2z M6,66.2h1.8c1.3,0,2.2-0.3,2.8-0.9c0.6-0.6,0.9-1.5,0.9-2.8c0-1.3-0.3-2.2-0.9-2.8c-0.6-0.6-1.5-0.9-2.8-0.9H6
				V66.2z"/>
			<path class="st4" d="M21.8,58.3c0.7,0.6,1.2,1.4,1.3,2.4h-1.5c-0.2-0.7-0.5-1.2-1-1.5s-1.1-0.5-1.8-0.5c-1.1,0-1.9,0.4-2.4,1.1
				c-0.5,0.7-0.8,1.6-0.8,2.8c0,1.2,0.3,2.1,0.8,2.8c0.5,0.7,1.4,1.1,2.5,1.1c0.7,0,1.3-0.2,1.8-0.5c0.5-0.4,0.9-1,1.1-1.8h1.5
				c-0.2,1.2-0.7,2.1-1.6,2.7c-0.8,0.6-1.7,0.9-2.8,0.9c-1.6,0-2.9-0.5-3.7-1.6c-0.7-0.9-1.1-2.1-1.1-3.6c0-1.5,0.4-2.7,1.1-3.6
				c0.8-1.1,2-1.6,3.6-1.6C20.1,57.3,21,57.6,21.8,58.3z"/>
		</g>
	</g>
</g>
<g id="DashRectGroup18" transform="translate(92.0859375,48)">
	<rect x="0" y="-26.5" class="st1" width="459" height="339"/>
	<path class="st2" d="M0-26.5h459v339H0V-26.5"/>
	<g transform="translate(10 10)">
		<g class="st3">
			<path class="st4" d="M13.3-19.4v1.3H6.7c-1.2,2.4-2.3,4.1-3.2,5.2c2.3-0.1,4.6-0.4,6.9-0.7C10-14.4,9.5-15.2,8.9-16l1.1-0.7
				c1.3,1.9,2.3,3.5,3,4.9l-1.2,0.8c-0.2-0.5-0.4-1-0.7-1.4c-2.8,0.4-5.9,0.7-9.2,0.9l-0.4-1.4c0.1,0,0.3-0.1,0.3-0.1
				c0.9-0.6,2-2.4,3.4-5.1H0.7v-1.3H13.3z M12.1-23.2v1.3H2v-1.3H12.1z"/>
			<path class="st4" d="M19-13c-1.3,0.5-2.7,0.9-4.2,1.2l-0.3-1.3c0.8-0.1,1.6-0.3,2.4-0.5c0.3-2,0.5-4.1,0.6-6.3l1.2,0.2
				c-0.2,2.1-0.4,4-0.7,5.8l1-0.3V-13z M16.3-21.7c-0.2-0.7-0.4-1.3-0.6-1.8l1.3-0.2c0.2,0.6,0.4,1.3,0.5,2.1h1.5v1.3h-4.5v-1.3
				H16.3z M16.6-14.4l-1.1,0.3c-0.2-1.8-0.4-3.6-0.7-5.4l1.1-0.3C16.2-18.2,16.4-16.4,16.6-14.4z M27.3-19.3v1.2h-3.6
				c-0.1,0.4-0.2,0.7-0.3,1.1H27v4.7c0,0.8-0.3,1.2-1,1.2h-0.6l-0.3-1.2l0.6,0.1c0.1,0,0.2-0.1,0.2-0.3v-3.3h-1v4.5h-1.1v-4.5h-0.9
				v4.5h-1.1v-4.5h-0.9v4.7h-1.2V-17h2.5c0.1-0.4,0.2-0.7,0.3-1.1h-3.1v-1.2H27.3z M25.5-23.4h1.3v3.2h-6.9v-3.2h1.3v2h1.5v-2.6h1.3
				v2.6h1.6V-23.4z"/>
		</g>
	</g>
</g>
<g id="BlueRectGroup2" transform="translate(193,61)">
	<rect y="-26.5" class="st5" width="193" height="106"/>
	<g transform="translate(10 10)">
		<g transform="translate(0 2)">
		</g>
		<g class="st3">
			<path class="st6" d="M9.3-22.5l-4.4,4.3l5.1,5.7h-2l-4.1-4.7l-1.3,1.2v3.5H1v-10h1.5v4.8l4.8-4.8H9.3z"/>
			<path class="st6" d="M16.6-21.8c0.6,0.5,0.8,1.1,0.8,1.9c0,0.5-0.1,1-0.3,1.3c-0.3,0.4-0.6,0.7-1.1,0.9v0
				c0.5,0.1,0.9,0.4,1.2,0.8c0.4,0.5,0.6,1,0.6,1.7c0,0.9-0.3,1.6-1,2.2c-0.7,0.5-1.6,0.8-2.8,0.8c-1.2,0-2.1-0.3-2.8-0.8
				c-0.6-0.6-1-1.3-1-2.2c0-0.6,0.2-1.2,0.6-1.7c0.3-0.4,0.7-0.7,1.2-0.8v0c-0.5-0.2-0.9-0.5-1.1-0.9c-0.2-0.3-0.3-0.8-0.3-1.3
				c0-0.7,0.3-1.4,0.8-1.9c0.6-0.6,1.5-0.8,2.5-0.8S16-22.4,16.6-21.8z M12.5-16.6c-0.4,0.3-0.6,0.8-0.6,1.3c0,0.5,0.2,0.9,0.6,1.3
				c0.4,0.3,0.9,0.5,1.6,0.5c0.7,0,1.3-0.2,1.7-0.5c0.4-0.3,0.5-0.7,0.5-1.3c0-0.6-0.2-1-0.5-1.3c-0.4-0.4-0.9-0.5-1.7-0.5
				S12.8-16.9,12.5-16.6z M12.6-20.9c-0.3,0.3-0.5,0.6-0.5,1.1c0,0.5,0.1,0.9,0.4,1.1c0.3,0.3,0.8,0.5,1.6,0.5
				c0.7,0,1.2-0.2,1.6-0.5c0.3-0.3,0.4-0.7,0.4-1.1c0-0.4-0.2-0.8-0.5-1.1c-0.4-0.3-0.9-0.5-1.5-0.5S13-21.3,12.6-20.9z"/>
			<path class="st6" d="M24.9-17.6h-1.4c-0.1-0.4-0.3-0.7-0.5-0.8c-0.3-0.2-0.6-0.3-1.1-0.3c-0.4,0-0.8,0.1-1,0.2
				c-0.3,0.1-0.4,0.4-0.4,0.6c0,0.3,0.2,0.5,0.6,0.6c0.3,0.1,0.7,0.3,1.5,0.4c0.8,0.2,1.4,0.4,1.8,0.7c0.6,0.4,0.9,0.9,0.9,1.5
				c0,1.5-1.1,2.3-3.2,2.3c-2,0-3.1-0.9-3.2-2.5h1.5c0.1,0.5,0.3,0.8,0.5,1c0.3,0.2,0.6,0.3,1.2,0.3c1.1,0,1.7-0.3,1.7-1
				c0-0.4-0.2-0.6-0.6-0.8c-0.2-0.1-0.7-0.3-1.5-0.4c-0.9-0.2-1.5-0.4-1.8-0.6c-0.6-0.4-0.8-0.8-0.8-1.5c0-0.7,0.3-1.2,0.8-1.5
				c0.5-0.4,1.3-0.6,2.1-0.6C23.7-19.9,24.8-19.1,24.9-17.6z"/>
			<path class="st6" d="M26.9-19.2l-0.8-1c1.2-1.1,2.1-2.3,2.6-3.8l1.2,0.3c-0.1,0.3-0.3,0.7-0.4,1h2.7c-0.2-0.4-0.4-0.8-0.6-1.1
				l1.4-0.2c0.2,0.4,0.4,0.8,0.5,1.3H38v1.1h-4.3v0.7h3.8v1h-3.8v0.7h3.8v1h-3.8v0.7h4.6v1.1H27.8v-3.7
				C27.5-19.8,27.2-19.5,26.9-19.2z M26.5-14.3v-1.2H32v-0.6h1.3v0.6h5.4v1.2h-3.8c0.9,0.7,2.3,1.3,4,1.8l-0.6,1.2
				c-2.2-0.8-3.8-1.7-4.8-2.9h-0.2v3.3H32v-3.3h-0.2c-0.9,1.1-2.5,2.2-4.7,3l-0.7-1.1c1.9-0.6,3.3-1.2,4.1-1.9H26.5z M32.4-21.6H29
				v0.7h3.3V-21.6z M32.4-19.9H29v0.7h3.3V-19.9z M32.4-18.2H29v0.7h3.3V-18.2z"/>
			<path class="st6" d="M42.9-17.4c-0.1,0.4-0.2,0.7-0.3,1.1h3.6v5.2H45v-0.8h-1.9v0.8h-1.2v-3.7c-0.3,0.6-0.7,1.2-1.2,1.7l-0.7-1.1
				c0.7-0.8,1.3-1.8,1.6-3.1h-1v-1.1h1.2c0.1-0.4,0.1-0.9,0.2-1.3h-1.8V-21h1.9c0-0.4,0-0.9,0.1-1.3h-1.5v-1.1h5v2.5h0.7v1.2h-0.7
				v2.5H42.9z M45-13v-2h-1.9v2H45z M43.1-18.5h1.4v-1.3h-1.2C43.3-19.4,43.2-18.9,43.1-18.5z M43.4-21h1.1v-1.3h-1.1
				C43.5-21.9,43.5-21.4,43.4-21z M46.8-20.1v-1.3h1.4c-0.3-0.7-0.7-1.4-1-2l1.1-0.5c0.4,0.6,0.8,1.4,1.1,2.2l-0.8,0.4H50
				c0.4-0.8,0.7-1.7,1-2.7l1.2,0.4c-0.3,0.8-0.6,1.6-0.9,2.2h1.3v1.3h-2.2v1.7h1.9v1.2h-1.9v1.7H53v1.3h-2.5v3.1h-1.3v-3.1h-2.5
				v-1.3h2.5v-1.7h-2.1v-1.2h2.1v-1.7H46.8z"/>
		</g>
	</g>
</g>
<g id="BlueRectGroup5" transform="translate(194,204)">
	<rect y="-26.5" class="st5" width="193" height="159"/>
	<g transform="translate(10 10)">
		<g transform="translate(0 2)">
		</g>
		<g class="st3">
			<path class="st6" d="M9.3-22.5l-4.4,4.3l5.1,5.7h-2l-4.1-4.7l-1.3,1.2v3.5H1v-10h1.5v4.8l4.8-4.8H9.3z"/>
			<path class="st6" d="M16.6-21.8c0.6,0.5,0.8,1.1,0.8,1.9c0,0.5-0.1,1-0.3,1.3c-0.3,0.4-0.6,0.7-1.1,0.9v0
				c0.5,0.1,0.9,0.4,1.2,0.8c0.4,0.5,0.6,1,0.6,1.7c0,0.9-0.3,1.6-1,2.2c-0.7,0.5-1.6,0.8-2.8,0.8c-1.2,0-2.1-0.3-2.8-0.8
				c-0.6-0.6-1-1.3-1-2.2c0-0.6,0.2-1.2,0.6-1.7c0.3-0.4,0.7-0.7,1.2-0.8v0c-0.5-0.2-0.9-0.5-1.1-0.9c-0.2-0.3-0.3-0.8-0.3-1.3
				c0-0.7,0.3-1.4,0.8-1.9c0.6-0.6,1.5-0.8,2.5-0.8S16-22.4,16.6-21.8z M12.5-16.6c-0.4,0.3-0.6,0.8-0.6,1.3c0,0.5,0.2,0.9,0.6,1.3
				c0.4,0.3,0.9,0.5,1.6,0.5c0.7,0,1.3-0.2,1.7-0.5c0.4-0.3,0.5-0.7,0.5-1.3c0-0.6-0.2-1-0.5-1.3c-0.4-0.4-0.9-0.5-1.7-0.5
				S12.8-16.9,12.5-16.6z M12.6-20.9c-0.3,0.3-0.5,0.6-0.5,1.1c0,0.5,0.1,0.9,0.4,1.1c0.3,0.3,0.8,0.5,1.6,0.5
				c0.7,0,1.2-0.2,1.6-0.5c0.3-0.3,0.4-0.7,0.4-1.1c0-0.4-0.2-0.8-0.5-1.1c-0.4-0.3-0.9-0.5-1.5-0.5S13-21.3,12.6-20.9z"/>
			<path class="st6" d="M24.9-17.6h-1.4c-0.1-0.4-0.3-0.7-0.5-0.8c-0.3-0.2-0.6-0.3-1.1-0.3c-0.4,0-0.8,0.1-1,0.2
				c-0.3,0.1-0.4,0.4-0.4,0.6c0,0.3,0.2,0.5,0.6,0.6c0.3,0.1,0.7,0.3,1.5,0.4c0.8,0.2,1.4,0.4,1.8,0.7c0.6,0.4,0.9,0.9,0.9,1.5
				c0,1.5-1.1,2.3-3.2,2.3c-2,0-3.1-0.9-3.2-2.5h1.5c0.1,0.5,0.3,0.8,0.5,1c0.3,0.2,0.6,0.3,1.2,0.3c1.1,0,1.7-0.3,1.7-1
				c0-0.4-0.2-0.6-0.6-0.8c-0.2-0.1-0.7-0.3-1.5-0.4c-0.9-0.2-1.5-0.4-1.8-0.6c-0.6-0.4-0.8-0.8-0.8-1.5c0-0.7,0.3-1.2,0.8-1.5
				c0.5-0.4,1.3-0.6,2.1-0.6C23.7-19.9,24.8-19.1,24.9-17.6z"/>
			<path class="st6" d="M26.9-19.2l-0.8-1c1.2-1.1,2.1-2.3,2.6-3.8l1.2,0.3c-0.1,0.3-0.3,0.7-0.4,1h2.7c-0.2-0.4-0.4-0.8-0.6-1.1
				l1.4-0.2c0.2,0.4,0.4,0.8,0.5,1.3H38v1.1h-4.3v0.7h3.8v1h-3.8v0.7h3.8v1h-3.8v0.7h4.6v1.1H27.8v-3.7
				C27.5-19.8,27.2-19.5,26.9-19.2z M26.5-14.3v-1.2H32v-0.6h1.3v0.6h5.4v1.2h-3.8c0.9,0.7,2.3,1.3,4,1.8l-0.6,1.2
				c-2.2-0.8-3.8-1.7-4.8-2.9h-0.2v3.3H32v-3.3h-0.2c-0.9,1.1-2.5,2.2-4.7,3l-0.7-1.1c1.9-0.6,3.3-1.2,4.1-1.9H26.5z M32.4-21.6H29
				v0.7h3.3V-21.6z M32.4-19.9H29v0.7h3.3V-19.9z M32.4-18.2H29v0.7h3.3V-18.2z"/>
			<path class="st6" d="M42.9-17.4c-0.1,0.4-0.2,0.7-0.3,1.1h3.6v5.2H45v-0.8h-1.9v0.8h-1.2v-3.7c-0.3,0.6-0.7,1.2-1.2,1.7l-0.7-1.1
				c0.7-0.8,1.3-1.8,1.6-3.1h-1v-1.1h1.2c0.1-0.4,0.1-0.9,0.2-1.3h-1.8V-21h1.9c0-0.4,0-0.9,0.1-1.3h-1.5v-1.1h5v2.5h0.7v1.2h-0.7
				v2.5H42.9z M45-13v-2h-1.9v2H45z M43.1-18.5h1.4v-1.3h-1.2C43.3-19.4,43.2-18.9,43.1-18.5z M43.4-21h1.1v-1.3h-1.1
				C43.5-21.9,43.5-21.4,43.4-21z M46.8-20.1v-1.3h1.4c-0.3-0.7-0.7-1.4-1-2l1.1-0.5c0.4,0.6,0.8,1.4,1.1,2.2l-0.8,0.4H50
				c0.4-0.8,0.7-1.7,1-2.7l1.2,0.4c-0.3,0.8-0.6,1.6-0.9,2.2h1.3v1.3h-2.2v1.7h1.9v1.2h-1.9v1.7H53v1.3h-2.5v3.1h-1.3v-3.1h-2.5
				v-1.3h2.5v-1.7h-2.1v-1.2h2.1v-1.7H46.8z"/>
		</g>
	</g>
</g>
<g id="BlueRectGroup24" transform="translate(193,476)">
	<rect y="53.5" class="st5" width="193" height="106"/>
	<g transform="translate(10 10)">
		<g transform="translate(0 2)">
		</g>
		<g class="st3">
			<path class="st6" d="M9.3,57.5l-4.4,4.3l5.1,5.7h-2l-4.1-4.7l-1.3,1.2v3.5H1v-10h1.5v4.8l4.8-4.8H9.3z"/>
			<path class="st6" d="M16.6,58.2c0.6,0.5,0.8,1.1,0.8,1.9c0,0.5-0.1,1-0.3,1.3c-0.3,0.4-0.6,0.7-1.1,0.9v0
				c0.5,0.1,0.9,0.4,1.2,0.8c0.4,0.5,0.6,1,0.6,1.7c0,0.9-0.3,1.6-1,2.2c-0.7,0.5-1.6,0.8-2.8,0.8c-1.2,0-2.1-0.3-2.8-0.8
				c-0.6-0.6-1-1.3-1-2.2c0-0.6,0.2-1.2,0.6-1.7c0.3-0.4,0.7-0.7,1.2-0.8v0c-0.5-0.2-0.9-0.5-1.1-0.9c-0.2-0.3-0.3-0.8-0.3-1.3
				c0-0.7,0.3-1.4,0.8-1.9c0.6-0.6,1.5-0.8,2.5-0.8S16,57.6,16.6,58.2z M12.5,63.4c-0.4,0.3-0.6,0.8-0.6,1.3c0,0.5,0.2,0.9,0.6,1.3
				c0.4,0.3,0.9,0.5,1.6,0.5c0.7,0,1.3-0.2,1.7-0.5c0.4-0.3,0.5-0.7,0.5-1.3c0-0.6-0.2-1-0.5-1.3c-0.4-0.4-0.9-0.5-1.7-0.5
				S12.8,63.1,12.5,63.4z M12.6,59.1c-0.3,0.3-0.5,0.6-0.5,1.1c0,0.5,0.1,0.9,0.4,1.1c0.3,0.3,0.8,0.5,1.6,0.5
				c0.7,0,1.2-0.2,1.6-0.5c0.3-0.3,0.4-0.7,0.4-1.1c0-0.4-0.2-0.8-0.5-1.1c-0.4-0.3-0.9-0.5-1.5-0.5S13,58.7,12.6,59.1z"/>
			<path class="st6" d="M24.9,62.4h-1.4c-0.1-0.4-0.3-0.7-0.5-0.8c-0.3-0.2-0.6-0.3-1.1-0.3c-0.4,0-0.8,0.1-1,0.2
				c-0.3,0.1-0.4,0.4-0.4,0.6c0,0.3,0.2,0.5,0.6,0.6c0.3,0.1,0.7,0.3,1.5,0.4c0.8,0.2,1.4,0.4,1.8,0.7c0.6,0.4,0.9,0.9,0.9,1.5
				c0,1.5-1.1,2.3-3.2,2.3c-2,0-3.1-0.9-3.2-2.5h1.5c0.1,0.5,0.3,0.8,0.5,1c0.3,0.2,0.6,0.3,1.2,0.3c1.1,0,1.7-0.3,1.7-1
				c0-0.4-0.2-0.6-0.6-0.8c-0.2-0.1-0.7-0.3-1.5-0.4c-0.9-0.2-1.5-0.4-1.8-0.6c-0.6-0.4-0.8-0.8-0.8-1.5c0-0.7,0.3-1.2,0.8-1.5
				c0.5-0.4,1.3-0.6,2.1-0.6C23.7,60.1,24.8,60.9,24.9,62.4z"/>
			<path class="st6" d="M26.9,60.8l-0.8-1c1.2-1.1,2.1-2.3,2.6-3.8l1.2,0.3c-0.1,0.3-0.3,0.7-0.4,1h2.7c-0.2-0.4-0.4-0.8-0.6-1.1
				l1.4-0.2c0.2,0.4,0.4,0.8,0.5,1.3H38v1.1h-4.3v0.7h3.8v1h-3.8v0.7h3.8v1h-3.8v0.7h4.6v1.1H27.8v-3.7
				C27.5,60.2,27.2,60.5,26.9,60.8z M26.5,65.7v-1.2H32v-0.6h1.3v0.6h5.4v1.2h-3.8c0.9,0.7,2.3,1.3,4,1.8l-0.6,1.2
				c-2.2-0.8-3.8-1.7-4.8-2.9h-0.2V69H32v-3.3h-0.2c-0.9,1.1-2.5,2.2-4.7,3l-0.7-1.1c1.9-0.6,3.3-1.2,4.1-1.9H26.5z M32.4,58.3H29
				v0.7h3.3V58.3z M32.4,60.1H29v0.7h3.3V60.1z M32.4,61.8H29v0.7h3.3V61.8z"/>
			<path class="st6" d="M42.9,62.6c-0.1,0.4-0.2,0.7-0.3,1.1h3.6v5.2H45v-0.8h-1.9v0.8h-1.2v-3.7c-0.3,0.6-0.7,1.2-1.2,1.7l-0.7-1.1
				c0.7-0.8,1.3-1.8,1.6-3.1h-1v-1.1h1.2c0.1-0.4,0.1-0.9,0.2-1.3h-1.8V59h1.9c0-0.4,0-0.9,0.1-1.3h-1.5v-1.1h5V59h0.7v1.2h-0.7v2.5
				H42.9z M45,67v-2h-1.9v2H45z M43.1,61.5h1.4v-1.3h-1.2C43.3,60.6,43.2,61.1,43.1,61.5z M43.4,59h1.1v-1.3h-1.1
				C43.5,58.1,43.5,58.6,43.4,59z M46.8,59.9v-1.3h1.4c-0.3-0.7-0.7-1.4-1-2l1.1-0.5c0.4,0.6,0.8,1.4,1.1,2.2l-0.8,0.4H50
				c0.4-0.8,0.7-1.7,1-2.7l1.2,0.4c-0.3,0.8-0.6,1.6-0.9,2.2h1.3v1.3h-2.2v1.7h1.9v1.2h-1.9v1.7H53v1.3h-2.5V69h-1.3v-3.1h-2.5v-1.3
				h2.5v-1.7h-2.1v-1.2h2.1v-1.7H46.8z"/>
		</g>
	</g>
</g>
<g id="BlueRectGroup27" transform="translate(193,619)">
	<rect y="53.5" class="st5" width="193" height="159"/>
	<g transform="translate(10 10)">
		<g transform="translate(0 2)">
		</g>
		<g class="st3">
			<path class="st6" d="M9.3,57.5l-4.4,4.3l5.1,5.7h-2l-4.1-4.7l-1.3,1.2v3.5H1v-10h1.5v4.8l4.8-4.8H9.3z"/>
			<path class="st6" d="M16.6,58.2c0.6,0.5,0.8,1.1,0.8,1.9c0,0.5-0.1,1-0.3,1.3c-0.3,0.4-0.6,0.7-1.1,0.9v0
				c0.5,0.1,0.9,0.4,1.2,0.8c0.4,0.5,0.6,1,0.6,1.7c0,0.9-0.3,1.6-1,2.2c-0.7,0.5-1.6,0.8-2.8,0.8c-1.2,0-2.1-0.3-2.8-0.8
				c-0.6-0.6-1-1.3-1-2.2c0-0.6,0.2-1.2,0.6-1.7c0.3-0.4,0.7-0.7,1.2-0.8v0c-0.5-0.2-0.9-0.5-1.1-0.9c-0.2-0.3-0.3-0.8-0.3-1.3
				c0-0.7,0.3-1.4,0.8-1.9c0.6-0.6,1.5-0.8,2.5-0.8S16,57.6,16.6,58.2z M12.5,63.4c-0.4,0.3-0.6,0.8-0.6,1.3c0,0.5,0.2,0.9,0.6,1.3
				c0.4,0.3,0.9,0.5,1.6,0.5c0.7,0,1.3-0.2,1.7-0.5c0.4-0.3,0.5-0.7,0.5-1.3c0-0.6-0.2-1-0.5-1.3c-0.4-0.4-0.9-0.5-1.7-0.5
				S12.8,63.1,12.5,63.4z M12.6,59.1c-0.3,0.3-0.5,0.6-0.5,1.1c0,0.5,0.1,0.9,0.4,1.1c0.3,0.3,0.8,0.5,1.6,0.5
				c0.7,0,1.2-0.2,1.6-0.5c0.3-0.3,0.4-0.7,0.4-1.1c0-0.4-0.2-0.8-0.5-1.1c-0.4-0.3-0.9-0.5-1.5-0.5S13,58.7,12.6,59.1z"/>
			<path class="st6" d="M24.9,62.4h-1.4c-0.1-0.4-0.3-0.7-0.5-0.8c-0.3-0.2-0.6-0.3-1.1-0.3c-0.4,0-0.8,0.1-1,0.2
				c-0.3,0.1-0.4,0.4-0.4,0.6c0,0.3,0.2,0.5,0.6,0.6c0.3,0.1,0.7,0.3,1.5,0.4c0.8,0.2,1.4,0.4,1.8,0.7c0.6,0.4,0.9,0.9,0.9,1.5
				c0,1.5-1.1,2.3-3.2,2.3c-2,0-3.1-0.9-3.2-2.5h1.5c0.1,0.5,0.3,0.8,0.5,1c0.3,0.2,0.6,0.3,1.2,0.3c1.1,0,1.7-0.3,1.7-1
				c0-0.4-0.2-0.6-0.6-0.8c-0.2-0.1-0.7-0.3-1.5-0.4c-0.9-0.2-1.5-0.4-1.8-0.6c-0.6-0.4-0.8-0.8-0.8-1.5c0-0.7,0.3-1.2,0.8-1.5
				c0.5-0.4,1.3-0.6,2.1-0.6C23.7,60.1,24.8,60.9,24.9,62.4z"/>
			<path class="st6" d="M26.9,60.8l-0.8-1c1.2-1.1,2.1-2.3,2.6-3.8l1.2,0.3c-0.1,0.3-0.3,0.7-0.4,1h2.7c-0.2-0.4-0.4-0.8-0.6-1.1
				l1.4-0.2c0.2,0.4,0.4,0.8,0.5,1.3H38v1.1h-4.3v0.7h3.8v1h-3.8v0.7h3.8v1h-3.8v0.7h4.6v1.1H27.8v-3.7
				C27.5,60.2,27.2,60.5,26.9,60.8z M26.5,65.7v-1.2H32v-0.6h1.3v0.6h5.4v1.2h-3.8c0.9,0.7,2.3,1.3,4,1.8l-0.6,1.2
				c-2.2-0.8-3.8-1.7-4.8-2.9h-0.2V69H32v-3.3h-0.2c-0.9,1.1-2.5,2.2-4.7,3l-0.7-1.1c1.9-0.6,3.3-1.2,4.1-1.9H26.5z M32.4,58.3H29
				v0.7h3.3V58.3z M32.4,60.1H29v0.7h3.3V60.1z M32.4,61.8H29v0.7h3.3V61.8z"/>
			<path class="st6" d="M42.9,62.6c-0.1,0.4-0.2,0.7-0.3,1.1h3.6v5.2H45v-0.8h-1.9v0.8h-1.2v-3.7c-0.3,0.6-0.7,1.2-1.2,1.7l-0.7-1.1
				c0.7-0.8,1.3-1.8,1.6-3.1h-1v-1.1h1.2c0.1-0.4,0.1-0.9,0.2-1.3h-1.8V59h1.9c0-0.4,0-0.9,0.1-1.3h-1.5v-1.1h5V59h0.7v1.2h-0.7v2.5
				H42.9z M45,67v-2h-1.9v2H45z M43.1,61.5h1.4v-1.3h-1.2C43.3,60.6,43.2,61.1,43.1,61.5z M43.4,59h1.1v-1.3h-1.1
				C43.5,58.1,43.5,58.6,43.4,59z M46.8,59.9v-1.3h1.4c-0.3-0.7-0.7-1.4-1-2l1.1-0.5c0.4,0.6,0.8,1.4,1.1,2.2l-0.8,0.4H50
				c0.4-0.8,0.7-1.7,1-2.7l1.2,0.4c-0.3,0.8-0.6,1.6-0.9,2.2h1.3v1.3h-2.2v1.7h1.9v1.2h-1.9v1.7H53v1.3h-2.5V69h-1.3v-3.1h-2.5v-1.3
				h2.5v-1.7h-2.1v-1.2h2.1v-1.7H46.8z"/>
		</g>
	</g>
</g>
<g id="Link39" transform="translate(0,0)">
	<path class="st7" d="M55.5,409V172h47"/>
	<g transform="translate(0.5, 0)">
		<polygon class="st8" points="97.5,176.5 103.5,172 97.5,167.5 		"/>
	</g>
	<path class="st9" d="M55.5,409V172"/>
	<path class="st9" d="M55.5,172h47"/>
</g>
<g id="Link40" transform="translate(0,0)">
	<path class="st7" d="M55.5,457v212h47"/>
	<g transform="translate(0.5, 0)">
		<polygon class="st8" points="97.5,673.5 103.5,669 97.5,664.5 		"/>
	</g>
	<path class="st9" d="M55.5,457v212"/>
	<path class="st9" d="M55.5,669h47"/>
</g>
<g id="Link43" transform="translate(0,0)">
	<path class="st7" d="M137.5,146V87h51"/>
	<g transform="translate(0.5, 0)">
		<polygon class="st8" points="183.5,91.5 189.5,87 183.5,82.5 		"/>
	</g>
	<path class="st9" d="M137.5,146V87"/>
	<path class="st9" d="M137.5,87h51"/>
</g>
<g id="Link44" transform="translate(0,0)">
	<path class="st7" d="M137.5,197v60h51"/>
	<g transform="translate(0.5, 0)">
		<polygon class="st8" points="183.5,261.5 189.5,257 183.5,252.5 		"/>
	</g>
	<path class="st9" d="M137.5,197v60"/>
	<path class="st9" d="M137.5,257h51"/>
</g>
<g id="Link52" transform="translate(0,0)">
	<path class="st7" d="M394.5,87h27v170h-30"/>
	<g transform="translate(-0.5, 0)">
		<polygon class="st8" points="396.5,252.5 390.5,257 396.5,261.5 		"/>
	</g>
	<path class="st9" d="M395.5,87h26"/>
	<path class="st9" d="M421.5,87v170"/>
	<path class="st9" d="M421.5,257h-30"/>
</g>
<g id="Link51" transform="translate(0,0)">
	<path class="st7" d="M504.5,385V87h-113"/>
	<g transform="translate(-0.5, 0)">
		<polygon class="st8" points="396.5,82.5 390.5,87 396.5,91.5 		"/>
	</g>
	<path class="st9" d="M504.5,385V87"/>
	<path class="st9" d="M504.5,87h-113"/>
</g>
<g id="Link45" transform="translate(0,0)">
	<path class="st7" d="M137.5,643v-61h50"/>
	<g transform="translate(0.5, 0)">
		<polygon class="st8" points="182.5,586.5 188.5,582 182.5,577.5 		"/>
	</g>
	<path class="st9" d="M137.5,643v-61"/>
	<path class="st9" d="M137.5,582h50"/>
</g>
<g id="Link46" transform="translate(0,0)">
	<path class="st7" d="M137.5,694v58h50"/>
	<g transform="translate(0.5, 0)">
		<polygon class="st8" points="182.5,756.5 188.5,752 182.5,747.5 		"/>
	</g>
	<path class="st9" d="M137.5,694v58"/>
	<path class="st9" d="M137.5,752h50"/>
</g>
<g id="Link53" transform="translate(0,0)">
	<path class="st7" d="M504.5,482v270h-114"/>
	<g transform="translate(-0.5, 0)">
		<polygon class="st8" points="395.5,747.5 389.5,752 395.5,756.5 		"/>
	</g>
	<path class="st9" d="M504.5,482v270"/>
	<path class="st9" d="M504.5,752h-114"/>
</g>
<g id="Link54" transform="translate(0,0)">
	<path class="st7" d="M392.5,582h28v170h-30"/>
	<g transform="translate(-0.5, 0)">
		<polygon class="st8" points="395.5,747.5 389.5,752 395.5,756.5 		"/>
	</g>
	<path class="st9" d="M391.5,582h29"/>
	<path class="st9" d="M420.5,582v170"/>
	<path class="st9" d="M420.5,752h-30"/>
</g>
<g id="RectEndPoint3" transform="translate(217,100)">
	<rect x="2" y="-24.5" class="st10" width="67.2" height="44"/>
	<rect y="-26.5" class="st11" width="67.2" height="44"/>
	<g transform="translate(20 9)">
		<g class="st3">
			<path class="st4" d="M5.6-15.5l3.9,10H7.8L6.9-8H2.6L1.6-5.5H0l3.9-10H5.6z M6.4-9.3l-1.7-4.5H4.7L3-9.3H6.4z"/>
			<path class="st4" d="M14.6-15.5c2.4,0,3.6,1,3.6,3c0,2-1.2,3.1-3.6,3.1h-2.6v3.9h-1.5v-10H14.6z M11.9-10.7h2.5
				c0.8,0,1.3-0.1,1.7-0.4c0.3-0.3,0.5-0.7,0.5-1.3s-0.2-1.1-0.5-1.3c-0.4-0.3-0.9-0.4-1.6-0.4h-2.5V-10.7z"/>
			<path class="st4" d="M23.7-15.5c2.4,0,3.6,1,3.6,3c0,2-1.2,3.1-3.6,3.1h-2.6v3.9h-1.5v-10H23.7z M21.1-10.7h2.5
				c0.8,0,1.3-0.1,1.7-0.4c0.3-0.3,0.5-0.7,0.5-1.3s-0.2-1.1-0.5-1.3c-0.4-0.3-0.9-0.4-1.6-0.4h-2.5V-10.7z"/>
		</g>
	</g>
</g>
<g id="RectEndPoint4" transform="translate(301,100)">
	<rect x="2" y="-24.5" class="st10" width="67.2" height="44"/>
	<rect y="-26.5" class="st11" width="67.2" height="44"/>
	<g transform="translate(20 9)">
		<g class="st3">
			<path class="st4" d="M5.6-15.5l3.9,10H7.8L6.9-8H2.6L1.6-5.5H0l3.9-10H5.6z M6.4-9.3l-1.7-4.5H4.7L3-9.3H6.4z"/>
			<path class="st4" d="M14.6-15.5c2.4,0,3.6,1,3.6,3c0,2-1.2,3.1-3.6,3.1h-2.6v3.9h-1.5v-10H14.6z M11.9-10.7h2.5
				c0.8,0,1.3-0.1,1.7-0.4c0.3-0.3,0.5-0.7,0.5-1.3s-0.2-1.1-0.5-1.3c-0.4-0.3-0.9-0.4-1.6-0.4h-2.5V-10.7z"/>
			<path class="st4" d="M23.7-15.5c2.4,0,3.6,1,3.6,3c0,2-1.2,3.1-3.6,3.1h-2.6v3.9h-1.5v-10H23.7z M21.1-10.7h2.5
				c0.8,0,1.3-0.1,1.7-0.4c0.3-0.3,0.5-0.7,0.5-1.3s-0.2-1.1-0.5-1.3c-0.4-0.3-0.9-0.4-1.6-0.4h-2.5V-10.7z"/>
		</g>
	</g>
</g>
<g id="RectEndPoint6" transform="translate(301,242)">
	<rect x="2" y="-24.5" class="st10" width="67.2" height="44"/>
	<rect y="-26.5" class="st11" width="67.2" height="44"/>
	<g transform="translate(20 9)">
		<g class="st3">
			<path class="st4" d="M5.6-15.5l3.9,10H7.8L6.9-8H2.6L1.6-5.5H0l3.9-10H5.6z M6.4-9.3l-1.7-4.5H4.7L3-9.3H6.4z"/>
			<path class="st4" d="M14.6-15.5c2.4,0,3.6,1,3.6,3c0,2-1.2,3.1-3.6,3.1h-2.6v3.9h-1.5v-10H14.6z M11.9-10.7h2.5
				c0.8,0,1.3-0.1,1.7-0.4c0.3-0.3,0.5-0.7,0.5-1.3s-0.2-1.1-0.5-1.3c-0.4-0.3-0.9-0.4-1.6-0.4h-2.5V-10.7z"/>
			<path class="st4" d="M23.7-15.5c2.4,0,3.6,1,3.6,3c0,2-1.2,3.1-3.6,3.1h-2.6v3.9h-1.5v-10H23.7z M21.1-10.7h2.5
				c0.8,0,1.3-0.1,1.7-0.4c0.3-0.3,0.5-0.7,0.5-1.3s-0.2-1.1-0.5-1.3c-0.4-0.3-0.9-0.4-1.6-0.4h-2.5V-10.7z"/>
		</g>
	</g>
</g>
<g id="RectEndPoint7" transform="translate(217,242)">
	<rect x="2" y="-24.5" class="st10" width="67.2" height="44"/>
	<rect y="-26.5" class="st11" width="67.2" height="44"/>
	<g transform="translate(20 9)">
		<g class="st3">
			<path class="st4" d="M5.6-15.5l3.9,10H7.8L6.9-8H2.6L1.6-5.5H0l3.9-10H5.6z M6.4-9.3l-1.7-4.5H4.7L3-9.3H6.4z"/>
			<path class="st4" d="M14.6-15.5c2.4,0,3.6,1,3.6,3c0,2-1.2,3.1-3.6,3.1h-2.6v3.9h-1.5v-10H14.6z M11.9-10.7h2.5
				c0.8,0,1.3-0.1,1.7-0.4c0.3-0.3,0.5-0.7,0.5-1.3s-0.2-1.1-0.5-1.3c-0.4-0.3-0.9-0.4-1.6-0.4h-2.5V-10.7z"/>
			<path class="st4" d="M23.7-15.5c2.4,0,3.6,1,3.6,3c0,2-1.2,3.1-3.6,3.1h-2.6v3.9h-1.5v-10H23.7z M21.1-10.7h2.5
				c0.8,0,1.3-0.1,1.7-0.4c0.3-0.3,0.5-0.7,0.5-1.3s-0.2-1.1-0.5-1.3c-0.4-0.3-0.9-0.4-1.6-0.4h-2.5V-10.7z"/>
		</g>
	</g>
</g>
<g id="RectEndPoint8" transform="translate(301,303)">
	<rect x="2" y="-24.5" class="st10" width="67.2" height="44"/>
	<rect y="-26.5" class="st11" width="67.2" height="44"/>
	<g transform="translate(20 9)">
		<g class="st3">
			<path class="st4" d="M5.6-15.5l3.9,10H7.8L6.9-8H2.6L1.6-5.5H0l3.9-10H5.6z M6.4-9.3l-1.7-4.5H4.7L3-9.3H6.4z"/>
			<path class="st4" d="M14.6-15.5c2.4,0,3.6,1,3.6,3c0,2-1.2,3.1-3.6,3.1h-2.6v3.9h-1.5v-10H14.6z M11.9-10.7h2.5
				c0.8,0,1.3-0.1,1.7-0.4c0.3-0.3,0.5-0.7,0.5-1.3s-0.2-1.1-0.5-1.3c-0.4-0.3-0.9-0.4-1.6-0.4h-2.5V-10.7z"/>
			<path class="st4" d="M23.7-15.5c2.4,0,3.6,1,3.6,3c0,2-1.2,3.1-3.6,3.1h-2.6v3.9h-1.5v-10H23.7z M21.1-10.7h2.5
				c0.8,0,1.3-0.1,1.7-0.4c0.3-0.3,0.5-0.7,0.5-1.3s-0.2-1.1-0.5-1.3c-0.4-0.3-0.9-0.4-1.6-0.4h-2.5V-10.7z"/>
		</g>
	</g>
</g>
<g id="RectEndPoint9" transform="translate(217,303)">
	<rect x="2" y="-24.5" class="st10" width="67.2" height="44"/>
	<rect y="-26.5" class="st11" width="67.2" height="44"/>
	<g transform="translate(20 9)">
		<g class="st3">
			<path class="st4" d="M5.6-15.5l3.9,10H7.8L6.9-8H2.6L1.6-5.5H0l3.9-10H5.6z M6.4-9.3l-1.7-4.5H4.7L3-9.3H6.4z"/>
			<path class="st4" d="M14.6-15.5c2.4,0,3.6,1,3.6,3c0,2-1.2,3.1-3.6,3.1h-2.6v3.9h-1.5v-10H14.6z M11.9-10.7h2.5
				c0.8,0,1.3-0.1,1.7-0.4c0.3-0.3,0.5-0.7,0.5-1.3s-0.2-1.1-0.5-1.3c-0.4-0.3-0.9-0.4-1.6-0.4h-2.5V-10.7z"/>
			<path class="st4" d="M23.7-15.5c2.4,0,3.6,1,3.6,3c0,2-1.2,3.1-3.6,3.1h-2.6v3.9h-1.5v-10H23.7z M21.1-10.7h2.5
				c0.8,0,1.3-0.1,1.7-0.4c0.3-0.3,0.5-0.7,0.5-1.3s-0.2-1.1-0.5-1.3c-0.4-0.3-0.9-0.4-1.6-0.4h-2.5V-10.7z"/>
		</g>
	</g>
</g>
<g id="RectEndPoint22" transform="translate(108,173)">
	<rect x="2" y="-24.5" class="st10" width="59" height="51"/>
	<rect y="-26.5" class="st11" width="59" height="51"/>
	<g transform="translate(20 9)">
		<g class="st3">
			<path class="st4" d="M2.5-15.5v8.7H8v1.3H1v-10H2.5z"/>
			<path class="st4" d="M13.8-15.5c1,0,1.7,0.2,2.3,0.7c0.5,0.4,0.8,1.1,0.8,1.8c0,0.6-0.1,1-0.4,1.4c-0.3,0.4-0.7,0.6-1.2,0.8
				c0.7,0.1,1.2,0.4,1.5,0.8s0.5,1,0.5,1.6c0,1-0.3,1.7-1,2.2c-0.6,0.4-1.4,0.6-2.5,0.6H9.3v-10H13.8z M10.8-11.2h2.6
				c0.7,0,1.2-0.1,1.5-0.4c0.3-0.3,0.5-0.6,0.5-1.2c0-0.5-0.2-0.9-0.5-1.1c-0.3-0.2-0.8-0.4-1.5-0.4h-2.7V-11.2z M10.8-6.7h2.8
				c0.6,0,1.1-0.1,1.5-0.3c0.4-0.3,0.7-0.7,0.7-1.3c0-0.6-0.2-1-0.5-1.3c-0.4-0.3-0.9-0.4-1.6-0.4h-2.9V-6.7z"/>
		</g>
	</g>
</g>
<g id="RectEndPoint23" transform="translate(431.0859375,172)">
	<rect x="2" y="-24.5" class="st10" width="114" height="52"/>
	<rect x="0" y="-26.5" class="st11" width="114" height="52"/>
	<g transform="translate(20 9)">
		<g class="st3">
			<path class="st4" d="M3.4-16.7c-0.1,0.4-0.2,0.8-0.3,1.2h2.2v1.3H2.7c-0.2,0.6-0.4,1.1-0.7,1.6h3.1v1.2H3.8v1.4h1.7v1.2H3.8V-6
				C4.2-6.1,4.6-6.4,5-6.7l0.2,1.1C4.5-5.1,3.6-4.7,2.6-4.4L2.1-5.5C2.4-5.6,2.5-5.7,2.5-6v-2.8H0.9V-10h1.6v-1.4H1.9v-0.9
				c-0.1,0.3-0.3,0.5-0.4,0.7l-1.1-0.7c0.8-1.4,1.4-3,1.7-4.6L3.4-16.7z M12.4-11.9v4.6H11v1.5c0,0.3,0.2,0.5,0.5,0.5h0.4
				c0.2,0,0.3-0.1,0.4-0.2c0.1-0.2,0.2-0.6,0.2-1.3l1.1,0.3c-0.1,1.1-0.3,1.8-0.5,2c-0.2,0.2-0.6,0.3-1,0.3h-0.9
				c-0.9,0-1.4-0.4-1.4-1.3v-1.8H8.8C8.6-6.5,8.3-5.8,7.9-5.3C7.4-4.7,6.6-4.3,5.4-3.9L4.9-5c0.9-0.2,1.6-0.6,2-1
				c0.3-0.3,0.5-0.7,0.6-1.2H6.3v-4.6H12.4z M8.6-16c-0.1-0.3-0.3-0.6-0.4-0.9l1.3-0.2c0.1,0.3,0.2,0.7,0.3,1.1h2.9v1.1h-1.1
				c-0.1,0.4-0.2,0.8-0.4,1.2h1.9v1.1H5.6v-1.1h1.9c-0.1-0.4-0.3-0.9-0.4-1.2H6V-16H8.6z M11.2-10.1v-0.8H7.6v0.8H11.2z M11.2-9.1
				H7.6v0.8h3.6V-9.1z M10.5-14.9H8.3c0.1,0.4,0.2,0.8,0.3,1.2H10C10.2-14,10.4-14.5,10.5-14.9z"/>
			<path class="st4" d="M14.9-10l-0.4-1.4c1.2-1.6,2.1-3.5,2.7-5.6l1.2,0.6c-0.3,1-0.6,1.9-1.1,2.7V-4H16v-7.4
				C15.7-11,15.3-10.5,14.9-10z M18.5-13.2l-0.8-1c1.3-0.7,2.4-1.7,3.3-2.9l1.3,0.3l-0.5,0.7h3.4v0.8c-0.3,0.4-0.6,0.7-0.9,1h2.4
				v3.3h-4c0.5,0.5,0.9,1.1,1.1,1.7c0.9-0.4,1.6-0.9,2.2-1.4l0.9,1c-0.4,0.3-0.8,0.6-1.3,0.9c0.4,1.2,1,2.2,1.9,3.1l-0.9,1.1
				c-0.9-1.1-1.6-2.4-2-3.7l-0.4,0.2c0.1,0.4,0.2,0.9,0.2,1.4c0,1-0.2,1.7-0.5,2.1c-0.3,0.3-0.8,0.5-1.6,0.6c-0.3,0-0.5,0-0.8,0
				l-0.4-1.2c0.4,0,0.8,0,1.1,0c0.3,0,0.5-0.1,0.7-0.3c0.2-0.2,0.2-0.6,0.2-1.2c0-0.1,0-0.1,0-0.2c-1.1,1-2.6,1.8-4.5,2.5L18-5.5
				C20.1-6.2,21.8-7,23-8.1c-0.1-0.2-0.1-0.4-0.2-0.6c-1,0.9-2.4,1.6-4,2.2l-0.6-1.1c1.8-0.5,3.2-1.2,4.2-2
				c-0.1-0.2-0.3-0.4-0.4-0.5c-0.8,0.7-1.9,1.2-3.3,1.5l-0.5-1.1c1.2-0.2,2.1-0.6,2.8-1.2h-2.1v-2.4C18.7-13.3,18.6-13.2,18.5-13.2z
				 M23.6-15.1h-2.7c-0.3,0.3-0.6,0.6-1,0.9h2.7C23-14.5,23.3-14.8,23.6-15.1z M22.2-13.1h-2.2v1.1h1.7C22-12.4,22.1-12.7,22.2-13.1
				z M25.4-13.1h-1.9c-0.1,0.4-0.2,0.8-0.3,1.1h2.3V-13.1z"/>
			<path class="st4" d="M35.5-16.9c1.7,2,3.7,3.6,6,4.7l-0.7,1.2c-2.3-1.2-4.2-2.8-5.8-4.7c-1.5,1.8-3.4,3.4-5.8,4.8l-0.7-1.2
				c2.4-1.3,4.4-2.9,6-4.8H35.5z M32.7-10.8v4.5c0,0.5,0.2,0.8,0.7,0.8h3.9c0.8,0,1.3-0.1,1.5-0.4c0.2-0.3,0.3-0.9,0.4-1.8l1.2,0.4
				c-0.2,1.4-0.4,2.3-0.8,2.6c-0.4,0.3-1,0.4-2,0.4h-4.9c-1,0-1.5-0.5-1.5-1.5V-12h7.2v3.3c0,0.9-0.4,1.4-1.3,1.5
				c-0.7,0-1.4,0-2-0.1l-0.4-1.2c0.7,0.1,1.3,0.1,1.8,0.1c0.3,0,0.5-0.3,0.5-0.7v-1.7H32.7z"/>
			<path class="st4" d="M50.3-15.8h5v1.3H45v3c0,3.1-0.5,5.6-1.4,7.5l-1.1-1c0.7-1.6,1.1-3.7,1.1-6.5v-4.3h5.2
				c-0.2-0.4-0.4-0.7-0.6-1l1.5-0.3C49.9-16.7,50.1-16.3,50.3-15.8z M49.7-14c-0.1,0.3-0.2,0.6-0.3,0.9h5.3v1.2h-5.7
				c-0.3,0.8-0.7,1.5-1.1,2.1H50v-1.5h1.3v1.5h3v1.2h-3v1.3h4.1v1.2h-4.1V-4H50v-2.1h-4.9v-1.2H50v-1.3h-3.5l-0.3-1.2
				c0.5-0.6,0.9-1.3,1.3-2.2h-1.9v-1.2H48c0.1-0.4,0.3-0.8,0.4-1.2L49.7-14z"/>
			<path class="st4" d="M57.7-4l-1-0.9c0.6-1.2,0.8-2.8,0.9-4.7v-6.9h4.4v11c0,1-0.4,1.4-1.3,1.4h-1.1l-0.3-1.2
				c0.4,0,0.7,0.1,1.1,0.1c0.3,0,0.4-0.3,0.4-0.8v-2.8h-2C58.6-6.8,58.2-5.2,57.7-4z M60.7-15.2h-2v2.1h2V-15.2z M58.7-9.9h2v-2h-2
				V-9.9z M64.1-4h-1.2v-12.4h5.9c0,1.8-0.1,3-0.3,3.6c-0.2,0.6-0.7,0.9-1.6,0.9h-1.2l-0.4-1.1c0.2,0,0.5,0,0.9,0
				c0.3,0,0.5,0,0.7-0.1c0.1,0,0.3-0.2,0.3-0.4c0.1-0.2,0.1-0.8,0.2-1.8h-3.4v4h4.7v1.1c-0.3,1.4-0.7,2.5-1.3,3.5
				c0.6,0.5,1.2,1,2,1.5L68.9-4c-0.8-0.5-1.5-1-2.1-1.6c-0.6,0.6-1.3,1.2-2,1.6l-0.7-1V-4z M64.1-5.1c0.7-0.4,1.3-0.9,1.9-1.5
				c-0.8-1-1.4-2.2-1.7-3.5h-0.2V-5.1z M66.6-7.6c0.4-0.7,0.7-1.6,1-2.5h-2.2C65.7-9.2,66.1-8.4,66.6-7.6z"/>
			<path class="st4" d="M76-16.8c-0.1,0.3-0.3,0.7-0.5,1h6v1.1c-0.8,1-1.9,1.8-3.1,2.5c1.5,0.6,3.2,0.9,5,1.1l-0.6,1.2
				c-2.2-0.3-4.1-0.8-5.9-1.6c-1.7,0.8-3.6,1.3-5.9,1.6l-0.6-1.2c1.9-0.2,3.6-0.6,5-1.2c-0.7-0.4-1.3-0.8-1.9-1.3
				c-0.5,0.4-1,0.8-1.6,1.1l-0.8-1.1c1.6-0.9,2.7-2.1,3.3-3.4L76-16.8z M77.3-10.7c0,0.5,0,1-0.1,1.4H82c0,2.5-0.2,3.9-0.6,4.4
				c-0.4,0.5-1.1,0.7-2.1,0.7c-0.5,0-1.1,0-1.7-0.1l-0.3-1.2c0.7,0,1.3,0.1,1.8,0.1c0.7,0,1.2-0.2,1.3-0.4c0.2-0.3,0.3-1.1,0.3-2.3
				h-3.8c-0.1,0.3-0.3,0.7-0.4,1c-0.7,1.3-2.3,2.3-4.9,3.1l-0.9-1.1c2.3-0.7,3.8-1.5,4.5-2.5c0.1-0.2,0.2-0.4,0.3-0.5h-3.9v-1.2h4.3
				c0.1-0.4,0.1-0.9,0.1-1.4H77.3z M79.6-14.6h-4.9c0,0-0.1,0.1-0.1,0.1c0.7,0.6,1.5,1.1,2.4,1.6C78-13.4,78.8-14,79.6-14.6z"/>
		</g>
	</g>
</g>
<g id="RectEndPoint25" transform="translate(216,515)">
	<rect x="2" y="55.5" class="st10" width="67.2" height="44"/>
	<rect y="53.5" class="st11" width="67.2" height="44"/>
	<g transform="translate(20 9)">
		<g class="st3">
			<path class="st4" d="M5.6,64.5l3.9,10H7.8L6.9,72H2.6l-0.9,2.6H0l3.9-10H5.6z M6.4,70.7l-1.7-4.5H4.7L3,70.7H6.4z"/>
			<path class="st4" d="M14.6,64.5c2.4,0,3.6,1,3.6,3c0,2-1.2,3.1-3.6,3.1h-2.6v3.9h-1.5v-10H14.6z M11.9,69.3h2.5
				c0.8,0,1.3-0.1,1.7-0.4c0.3-0.3,0.5-0.7,0.5-1.3s-0.2-1.1-0.5-1.3c-0.4-0.3-0.9-0.4-1.6-0.4h-2.5V69.3z"/>
			<path class="st4" d="M23.7,64.5c2.4,0,3.6,1,3.6,3c0,2-1.2,3.1-3.6,3.1h-2.6v3.9h-1.5v-10H23.7z M21.1,69.3h2.5
				c0.8,0,1.3-0.1,1.7-0.4c0.3-0.3,0.5-0.7,0.5-1.3s-0.2-1.1-0.5-1.3c-0.4-0.3-0.9-0.4-1.6-0.4h-2.5V69.3z"/>
		</g>
	</g>
</g>
<g id="RectEndPoint26" transform="translate(300,515)">
	<rect x="2" y="55.5" class="st10" width="67.2" height="44"/>
	<rect y="53.5" class="st11" width="67.2" height="44"/>
	<g transform="translate(20 9)">
		<g class="st3">
			<path class="st4" d="M5.6,64.5l3.9,10H7.8L6.9,72H2.6l-0.9,2.6H0l3.9-10H5.6z M6.4,70.7l-1.7-4.5H4.7L3,70.7H6.4z"/>
			<path class="st4" d="M14.6,64.5c2.4,0,3.6,1,3.6,3c0,2-1.2,3.1-3.6,3.1h-2.6v3.9h-1.5v-10H14.6z M11.9,69.3h2.5
				c0.8,0,1.3-0.1,1.7-0.4c0.3-0.3,0.5-0.7,0.5-1.3s-0.2-1.1-0.5-1.3c-0.4-0.3-0.9-0.4-1.6-0.4h-2.5V69.3z"/>
			<path class="st4" d="M23.7,64.5c2.4,0,3.6,1,3.6,3c0,2-1.2,3.1-3.6,3.1h-2.6v3.9h-1.5v-10H23.7z M21.1,69.3h2.5
				c0.8,0,1.3-0.1,1.7-0.4c0.3-0.3,0.5-0.7,0.5-1.3s-0.2-1.1-0.5-1.3c-0.4-0.3-0.9-0.4-1.6-0.4h-2.5V69.3z"/>
		</g>
	</g>
</g>
<g id="RectEndPoint28" transform="translate(300,657)">
	<rect x="2" y="55.5" class="st10" width="67.2" height="44"/>
	<rect y="53.5" class="st11" width="67.2" height="44"/>
	<g transform="translate(20 9)">
		<g class="st3">
			<path class="st4" d="M5.6,64.5l3.9,10H7.8L6.9,72H2.6l-0.9,2.6H0l3.9-10H5.6z M6.4,70.7l-1.7-4.5H4.7L3,70.7H6.4z"/>
			<path class="st4" d="M14.6,64.5c2.4,0,3.6,1,3.6,3c0,2-1.2,3.1-3.6,3.1h-2.6v3.9h-1.5v-10H14.6z M11.9,69.3h2.5
				c0.8,0,1.3-0.1,1.7-0.4c0.3-0.3,0.5-0.7,0.5-1.3s-0.2-1.1-0.5-1.3c-0.4-0.3-0.9-0.4-1.6-0.4h-2.5V69.3z"/>
			<path class="st4" d="M23.7,64.5c2.4,0,3.6,1,3.6,3c0,2-1.2,3.1-3.6,3.1h-2.6v3.9h-1.5v-10H23.7z M21.1,69.3h2.5
				c0.8,0,1.3-0.1,1.7-0.4c0.3-0.3,0.5-0.7,0.5-1.3s-0.2-1.1-0.5-1.3c-0.4-0.3-0.9-0.4-1.6-0.4h-2.5V69.3z"/>
		</g>
	</g>
</g>
<g id="RectEndPoint29" transform="translate(216,657)">
	<rect x="2" y="55.5" class="st10" width="67.2" height="44"/>
	<rect y="53.5" class="st11" width="67.2" height="44"/>
	<g transform="translate(20 9)">
		<g class="st3">
			<path class="st4" d="M5.6,64.5l3.9,10H7.8L6.9,72H2.6l-0.9,2.6H0l3.9-10H5.6z M6.4,70.7l-1.7-4.5H4.7L3,70.7H6.4z"/>
			<path class="st4" d="M14.6,64.5c2.4,0,3.6,1,3.6,3c0,2-1.2,3.1-3.6,3.1h-2.6v3.9h-1.5v-10H14.6z M11.9,69.3h2.5
				c0.8,0,1.3-0.1,1.7-0.4c0.3-0.3,0.5-0.7,0.5-1.3s-0.2-1.1-0.5-1.3c-0.4-0.3-0.9-0.4-1.6-0.4h-2.5V69.3z"/>
			<path class="st4" d="M23.7,64.5c2.4,0,3.6,1,3.6,3c0,2-1.2,3.1-3.6,3.1h-2.6v3.9h-1.5v-10H23.7z M21.1,69.3h2.5
				c0.8,0,1.3-0.1,1.7-0.4c0.3-0.3,0.5-0.7,0.5-1.3s-0.2-1.1-0.5-1.3c-0.4-0.3-0.9-0.4-1.6-0.4h-2.5V69.3z"/>
		</g>
	</g>
</g>
<g id="RectEndPoint30" transform="translate(300,718)">
	<rect x="2" y="55.5" class="st10" width="67.2" height="44"/>
	<rect y="53.5" class="st11" width="67.2" height="44"/>
	<g transform="translate(20 9)">
		<g class="st3">
			<path class="st4" d="M5.6,64.5l3.9,10H7.8L6.9,72H2.6l-0.9,2.6H0l3.9-10H5.6z M6.4,70.7l-1.7-4.5H4.7L3,70.7H6.4z"/>
			<path class="st4" d="M14.6,64.5c2.4,0,3.6,1,3.6,3c0,2-1.2,3.1-3.6,3.1h-2.6v3.9h-1.5v-10H14.6z M11.9,69.3h2.5
				c0.8,0,1.3-0.1,1.7-0.4c0.3-0.3,0.5-0.7,0.5-1.3s-0.2-1.1-0.5-1.3c-0.4-0.3-0.9-0.4-1.6-0.4h-2.5V69.3z"/>
			<path class="st4" d="M23.7,64.5c2.4,0,3.6,1,3.6,3c0,2-1.2,3.1-3.6,3.1h-2.6v3.9h-1.5v-10H23.7z M21.1,69.3h2.5
				c0.8,0,1.3-0.1,1.7-0.4c0.3-0.3,0.5-0.7,0.5-1.3s-0.2-1.1-0.5-1.3c-0.4-0.3-0.9-0.4-1.6-0.4h-2.5V69.3z"/>
		</g>
	</g>
</g>
<g id="RectEndPoint31" transform="translate(216,718)">
	<rect x="2" y="55.5" class="st10" width="67.2" height="44"/>
	<rect y="53.5" class="st11" width="67.2" height="44"/>
	<g transform="translate(20 9)">
		<g class="st3">
			<path class="st4" d="M5.6,64.5l3.9,10H7.8L6.9,72H2.6l-0.9,2.6H0l3.9-10H5.6z M6.4,70.7l-1.7-4.5H4.7L3,70.7H6.4z"/>
			<path class="st4" d="M14.6,64.5c2.4,0,3.6,1,3.6,3c0,2-1.2,3.1-3.6,3.1h-2.6v3.9h-1.5v-10H14.6z M11.9,69.3h2.5
				c0.8,0,1.3-0.1,1.7-0.4c0.3-0.3,0.5-0.7,0.5-1.3s-0.2-1.1-0.5-1.3c-0.4-0.3-0.9-0.4-1.6-0.4h-2.5V69.3z"/>
			<path class="st4" d="M23.7,64.5c2.4,0,3.6,1,3.6,3c0,2-1.2,3.1-3.6,3.1h-2.6v3.9h-1.5v-10H23.7z M21.1,69.3h2.5
				c0.8,0,1.3-0.1,1.7-0.4c0.3-0.3,0.5-0.7,0.5-1.3s-0.2-1.1-0.5-1.3c-0.4-0.3-0.9-0.4-1.6-0.4h-2.5V69.3z"/>
		</g>
	</g>
</g>
<g id="RectEndPoint33" transform="translate(108,590)">
	<rect x="2" y="55.5" class="st10" width="59" height="51"/>
	<rect y="53.5" class="st11" width="59" height="51"/>
	<g transform="translate(20 9)">
		<g class="st3">
			<path class="st4" d="M2.5,64.5v8.7H8v1.3H1v-10H2.5z"/>
			<path class="st4" d="M13.8,64.5c1,0,1.7,0.2,2.3,0.7c0.5,0.4,0.8,1.1,0.8,1.8c0,0.6-0.1,1-0.4,1.4c-0.3,0.4-0.7,0.6-1.2,0.8
				c0.7,0.1,1.2,0.4,1.5,0.8s0.5,1,0.5,1.6c0,1-0.3,1.7-1,2.2c-0.6,0.4-1.4,0.6-2.5,0.6H9.3v-10H13.8z M10.8,68.8h2.6
				c0.7,0,1.2-0.1,1.5-0.4c0.3-0.3,0.5-0.6,0.5-1.2c0-0.5-0.2-0.9-0.5-1.1c-0.3-0.2-0.8-0.3-1.5-0.3h-2.7V68.8z M10.8,73.3h2.8
				c0.6,0,1.1-0.1,1.5-0.3c0.4-0.3,0.7-0.7,0.7-1.3c0-0.6-0.2-1-0.5-1.3c-0.4-0.3-0.9-0.4-1.6-0.4h-2.9V73.3z"/>
		</g>
	</g>
</g>
<g id="RectEndPoint34" transform="translate(430.0859375,582)">
	<rect x="2" y="55.5" class="st10" width="115" height="51"/>
	<rect x="0" y="53.5" class="st11" width="115" height="51"/>
	<g transform="translate(20 9)">
		<g class="st3">
			<path class="st4" d="M3.4,63.3c-0.1,0.4-0.2,0.8-0.3,1.2h2.2v1.3H2.7c-0.2,0.6-0.4,1.1-0.7,1.6h3.1v1.2H3.8V70h1.7v1.2H3.8V74
				c0.4-0.2,0.8-0.4,1.2-0.8l0.2,1.1c-0.8,0.5-1.7,0.9-2.7,1.2l-0.5-1.1c0.3-0.1,0.4-0.3,0.4-0.5v-2.8H0.9V70h1.6v-1.4H1.9v-0.9
				c-0.1,0.3-0.3,0.5-0.4,0.7l-1.1-0.7c0.8-1.4,1.4-3,1.7-4.6L3.4,63.3z M12.4,68.1v4.6H11v1.5c0,0.3,0.2,0.5,0.5,0.5h0.4
				c0.2,0,0.3-0.1,0.4-0.2c0.1-0.2,0.2-0.6,0.2-1.3l1.1,0.3c-0.1,1.1-0.3,1.8-0.5,2c-0.2,0.2-0.6,0.3-1,0.3h-0.9
				c-0.9,0-1.4-0.4-1.4-1.3v-1.8H8.8c-0.2,0.8-0.5,1.4-0.9,1.9c-0.5,0.6-1.3,1.1-2.5,1.4L4.9,75c0.9-0.2,1.6-0.6,2-1
				c0.3-0.3,0.5-0.7,0.6-1.2H6.3v-4.6H12.4z M8.6,64c-0.1-0.3-0.3-0.6-0.4-0.9l1.3-0.2c0.1,0.3,0.2,0.7,0.3,1.1h2.9v1.1h-1.1
				c-0.1,0.4-0.2,0.8-0.4,1.2h1.9v1.1H5.6v-1.1h1.9c-0.1-0.4-0.3-0.9-0.4-1.2H6V64H8.6z M11.2,69.9v-0.8H7.6v0.8H11.2z M11.2,70.9
				H7.6v0.8h3.6V70.9z M10.5,65.1H8.3c0.1,0.4,0.2,0.8,0.3,1.2H10C10.2,66,10.4,65.5,10.5,65.1z"/>
			<path class="st4" d="M14.9,70l-0.4-1.4c1.2-1.6,2.1-3.5,2.7-5.6l1.2,0.6c-0.3,1-0.6,1.9-1.1,2.7V76H16v-7.4
				C15.7,69,15.3,69.5,14.9,70z M18.5,66.8l-0.8-1c1.3-0.7,2.4-1.7,3.3-2.9l1.3,0.3l-0.5,0.7h3.4v0.8c-0.3,0.4-0.6,0.7-0.9,1h2.4
				v3.3h-4c0.5,0.5,0.9,1.1,1.1,1.7c0.9-0.4,1.6-0.9,2.2-1.4l0.9,1c-0.4,0.3-0.8,0.6-1.3,0.9c0.4,1.2,1,2.2,1.9,3.1l-0.9,1.1
				c-0.9-1.1-1.6-2.4-2-3.7l-0.4,0.2c0.1,0.4,0.2,0.9,0.2,1.4c0,1-0.2,1.7-0.5,2.1c-0.3,0.3-0.8,0.5-1.6,0.6c-0.3,0-0.5,0-0.8,0
				l-0.4-1.2c0.4,0,0.8,0,1.1,0c0.3,0,0.5-0.1,0.7-0.3c0.2-0.2,0.2-0.6,0.2-1.2c0-0.1,0-0.1,0-0.2c-1.1,1-2.6,1.8-4.5,2.5L18,74.5
				c2.1-0.7,3.8-1.5,4.9-2.6c-0.1-0.2-0.1-0.4-0.2-0.6c-1,0.9-2.4,1.6-4,2.2l-0.6-1.1c1.8-0.5,3.2-1.2,4.2-2
				c-0.1-0.2-0.3-0.4-0.4-0.5c-0.8,0.7-1.9,1.2-3.3,1.5l-0.5-1.1c1.2-0.2,2.1-0.6,2.8-1.2h-2.1v-2.4C18.7,66.7,18.6,66.8,18.5,66.8z
				 M23.6,64.9h-2.7c-0.3,0.3-0.6,0.6-1,0.9h2.7C23,65.5,23.3,65.2,23.6,64.9z M22.2,66.9h-2.2V68h1.7C22,67.6,22.1,67.3,22.2,66.9z
				 M25.4,66.9h-1.9c-0.1,0.4-0.2,0.8-0.3,1.1h2.3V66.9z"/>
			<path class="st4" d="M35.5,63.1c1.7,2,3.7,3.6,6,4.7l-0.7,1.2c-2.3-1.2-4.2-2.8-5.8-4.7c-1.5,1.8-3.4,3.4-5.8,4.8l-0.7-1.2
				c2.4-1.3,4.4-2.9,6-4.8H35.5z M32.7,69.2v4.5c0,0.5,0.2,0.8,0.7,0.8h3.9c0.8,0,1.3-0.1,1.5-0.4c0.2-0.3,0.3-0.9,0.4-1.8l1.2,0.4
				c-0.2,1.4-0.4,2.3-0.8,2.6c-0.4,0.3-1,0.4-2,0.4h-4.9c-1,0-1.5-0.5-1.5-1.5V68h7.2v3.3c0,0.9-0.4,1.4-1.3,1.5c-0.7,0-1.4,0-2-0.1
				l-0.4-1.2c0.7,0.1,1.3,0.1,1.8,0.1c0.3,0,0.5-0.3,0.5-0.7v-1.7H32.7z"/>
			<path class="st4" d="M50.3,64.2h5v1.3H45v3c0,3.1-0.5,5.6-1.4,7.5l-1.1-1c0.7-1.6,1.1-3.7,1.1-6.5v-4.3h5.2
				c-0.2-0.4-0.4-0.7-0.6-1l1.5-0.3C49.9,63.3,50.1,63.7,50.3,64.2z M49.7,66c-0.1,0.3-0.2,0.6-0.3,0.9h5.3v1.2h-5.7
				c-0.3,0.8-0.7,1.5-1.1,2.1H50v-1.5h1.3v1.5h3v1.2h-3v1.3h4.1v1.2h-4.1V76H50v-2.1h-4.9v-1.2H50v-1.3h-3.5l-0.3-1.2
				c0.5-0.6,0.9-1.3,1.3-2.2h-1.9v-1.2H48c0.1-0.4,0.3-0.8,0.4-1.2L49.7,66z"/>
			<path class="st4" d="M57.7,76l-1-0.9c0.6-1.2,0.8-2.8,0.9-4.7v-6.9h4.4v11c0,1-0.4,1.4-1.3,1.4h-1.1l-0.3-1.2
				c0.4,0,0.7,0.1,1.1,0.1c0.3,0,0.4-0.3,0.4-0.8v-2.8h-2C58.6,73.2,58.2,74.8,57.7,76z M60.7,64.8h-2v2.1h2V64.8z M58.7,70.1h2v-2
				h-2V70.1z M64.1,76h-1.2V63.6h5.9c0,1.8-0.1,3-0.3,3.6c-0.2,0.6-0.7,0.9-1.6,0.9h-1.2l-0.4-1.1c0.2,0,0.5,0,0.9,0
				c0.3,0,0.5,0,0.7-0.1c0.1,0,0.3-0.2,0.3-0.4c0.1-0.2,0.1-0.8,0.2-1.8h-3.4v4h4.7v1.1c-0.3,1.4-0.7,2.5-1.3,3.5
				c0.6,0.5,1.2,1,2,1.5L68.9,76c-0.8-0.5-1.5-1-2.1-1.6c-0.6,0.6-1.3,1.2-2,1.6l-0.7-1V76z M64.1,74.9c0.7-0.4,1.3-0.9,1.9-1.5
				c-0.8-1-1.4-2.2-1.7-3.5h-0.2V74.9z M66.6,72.4c0.4-0.7,0.7-1.6,1-2.5h-2.2C65.7,70.8,66.1,71.6,66.6,72.4z"/>
			<path class="st4" d="M76,63.2c-0.1,0.3-0.3,0.7-0.5,1h6v1.1c-0.8,1-1.9,1.8-3.1,2.5c1.5,0.6,3.2,0.9,5,1.1l-0.6,1.2
				c-2.2-0.3-4.1-0.8-5.9-1.6c-1.7,0.8-3.6,1.3-5.9,1.6l-0.6-1.2c1.9-0.2,3.6-0.6,5-1.2c-0.7-0.4-1.3-0.8-1.9-1.3
				c-0.5,0.4-1,0.8-1.6,1.1l-0.8-1.1c1.6-0.9,2.7-2.1,3.3-3.4L76,63.2z M77.3,69.3c0,0.5,0,1-0.1,1.4H82c0,2.5-0.2,3.9-0.6,4.4
				c-0.4,0.5-1.1,0.7-2.1,0.7c-0.5,0-1.1,0-1.7-0.1l-0.3-1.2c0.7,0,1.3,0.1,1.8,0.1c0.7,0,1.2-0.2,1.3-0.4c0.2-0.3,0.3-1.1,0.3-2.3
				h-3.8c-0.1,0.3-0.3,0.7-0.4,1c-0.7,1.3-2.3,2.3-4.9,3.1l-0.9-1.1c2.3-0.7,3.8-1.5,4.5-2.5c0.1-0.2,0.2-0.4,0.3-0.5h-3.9v-1.2h4.3
				c0.1-0.4,0.1-0.9,0.1-1.4H77.3z M79.6,65.4h-4.9c0,0-0.1,0.1-0.1,0.1c0.7,0.6,1.5,1.1,2.4,1.6C78,66.6,78.8,66,79.6,65.4z"/>
		</g>
	</g>
</g>
<g id="RectEndPoint47" transform="translate(656,400)">
	<rect x="2" y="9.9" class="st10" width="159" height="49"/>
	<rect y="7.9" class="st11" width="159" height="49"/>
	<g transform="translate(20 9)">
		<g>
			<g>
				<path class="st12" d="M12,13.1c2.2,0,4,1.8,4,4s-1.8,4-4,4s-4-1.8-4-4S9.8,13.1,12,13.1 M12,11.1c-3.3,0-6,2.7-6,6s2.7,6,6,6
					s6-2.7,6-6S15.3,11.1,12,11.1z"/>
				<path class="st12" d="M16,27.1c3.3,0,6,2.7,6,6v1H2v-1c0-3.3,2.7-6,6-6H16 M16,25.1H8c-4.4,0-8,3.6-8,8v3h24v-3
					C24,28.6,20.4,25.1,16,25.1z"/>
				<path class="st12" d="M25,25h-3c0.8,0.6,1.4,1.2,2,2h1c2.2,0,4,1.8,4,4v1h-3c0,0.3,0,0.7,0,1v1h5v-3C31,27.7,28.3,25,25,25z"/>
				<path class="st12" d="M21,12c-0.8,0-1.6,0.2-2.3,0.6c0.4,0.6,0.7,1.2,0.9,1.8c1.4-0.8,3.3-0.3,4.1,1.1s0.3,3.3-1.1,4.1
					c-0.9,0.5-2,0.5-3,0c-0.2,0.6-0.5,1.2-0.9,1.8c0.7,0.4,1.5,0.6,2.3,0.6c2.8,0,5-2.2,5-5S23.8,12,21,12z"/>
			</g>
		</g>
		<g class="st3">
			<path class="st4" d="M49.5,30.1c-0.9,0-1.6-0.1-2.2-0.2c-0.6-0.2-1-0.5-1.5-1c-0.2-0.2-0.4-0.4-0.5-0.4c-0.3,0-0.8,0.6-1.5,1.9
				l-1-0.9c0.7-1.1,1.3-1.8,1.9-2.1v-4h-1.9v-1.2H46v5.3c0.1,0.1,0.1,0.1,0.2,0.2c0.3,0.4,0.7,0.7,1,0.8c0.4,0.2,1,0.3,1.8,0.4
				c0.8,0,1.7,0,2.8,0c0.7,0,1.4,0,2.1,0c0.7,0,1.2,0,1.6-0.1l-0.3,1.3h-3.2C51.2,30.1,50.3,30.1,49.5,30.1z M46.3,19.8l-1,0.9
				C44.8,20,44,19.3,43,18.4l0.9-0.9C44.8,18.3,45.6,19,46.3,19.8z M55.3,21.3v1.3H51c-0.7,1.7-1.3,2.9-1.9,3.8
				c1.6-0.2,2.9-0.4,4-0.7c-0.3-0.7-0.6-1.4-1-2l1.1-0.3c0.7,1.3,1.4,2.7,2,4.4L53.9,28c-0.1-0.4-0.3-0.8-0.4-1.2
				c-1.5,0.4-3.5,0.7-5.9,0.9l-0.3-1.1c0.6-0.2,1.4-1.5,2.4-4.1h-2.8v-1.3H55.3z M54.3,18.1v1.2h-6.6v-1.2H54.3z"/>
			<path class="st4" d="M60.1,17.9c-0.6,1.7-1.2,3-1.9,4.1c0.4-0.1,0.9-0.1,1.3-0.2c0.2-0.5,0.5-1.1,0.7-1.6l1.2,0.4
				c-1.1,2.2-1.9,3.9-2.7,4.9c0.8-0.2,1.6-0.5,2.5-0.9v1.2c-1.4,0.6-2.7,1-4,1.2l-0.4-1.2c0.2-0.1,0.4-0.2,0.6-0.4
				c0.4-0.5,0.9-1.3,1.5-2.4c-0.6,0.1-1.3,0.2-2,0.3l-0.3-1.2c0.2-0.1,0.4-0.3,0.6-0.5c0.6-1.3,1.1-2.7,1.6-4.2L60.1,17.9z
				 M61.5,28.6c-1.4,0.5-2.9,0.9-4.7,1.3l-0.2-1.3c1.9-0.3,3.5-0.7,4.9-1.2V28.6z M63.7,30.3h-1.3v-7.8c-0.3,0.5-0.7,1-1.1,1.6
				l-0.4-1.3c1-1.6,1.8-3.3,2.2-5.2l1.3,0.3c-0.2,0.7-0.4,1.3-0.6,2h2.2c-0.2-0.7-0.5-1.3-0.8-2l1.3-0.4c0.3,0.9,0.6,1.6,0.7,2.3h2
				V21h-2.1v1.6H69v1.2h-1.8v1.6H69v1.2h-1.8v1.8h2.4v1.2h-5.8V30.3z M63.7,21v1.6h2.2V21H63.7z M63.7,25.4h2.2v-1.6h-2.2V25.4z
				 M63.7,28.4h2.2v-1.8h-2.2V28.4z"/>
			<path class="st4" d="M82.5,18.2v1.3h-2.2v3.4h3v1.3h-3v6.1H79v-6.1h-3.8c-0.1,1.4-0.4,2.6-0.8,3.5c-0.5,1.2-1.4,2.1-2.7,2.7
				L71,29.2c1.1-0.7,1.9-1.5,2.3-2.5c0.3-0.7,0.4-1.6,0.6-2.6h-3.1v-1.3H74c0-0.1,0-0.2,0-0.3v-3.1h-2.5v-1.3H82.5z M75.3,22.5
				c0,0.1,0,0.2,0,0.3H79v-3.4h-3.7V22.5z"/>
			<path class="st4" d="M86.5,17.8l1.3,0.2l-0.7,2.6h2.1c0.3-1,0.5-2.1,0.6-3.3l1.4,0.2c-0.2,1.1-0.4,2.1-0.6,3.1H97v1.3h-6.8
				c-0.1,0.5-0.3,0.9-0.4,1.3h5.6v1.1c-0.4,1.1-1.1,2.2-2.1,3.1c1.1,0.6,2.4,1.1,3.9,1.6l-0.7,1.3c-1.7-0.6-3.1-1.3-4.3-2
				c-1.1,0.8-2.5,1.5-4.1,2.1l-0.7-1.3c1.4-0.5,2.6-1.1,3.6-1.7c-0.9-0.7-1.6-1.5-2-2.3c-1,2.1-2.3,3.7-3.8,5l-0.7-1.2
				c1.9-1.7,3.4-4,4.3-7h-3.4L86.5,17.8z M92.2,26.8c0.9-0.7,1.5-1.5,1.9-2.3H90C90.5,25.3,91.2,26.1,92.2,26.8z M96,19.6l-1,1
				c-0.6-0.7-1.3-1.5-2.4-2.3l0.9-0.9C94.5,18.1,95.4,18.9,96,19.6z"/>
			<path class="st4" d="M105.5,20.6c0.8,3.7,2.8,6.6,6,8.5l-0.9,1.2c-2.7-1.8-4.6-4.2-5.6-7.2c-0.9,2.9-2.9,5.3-5.8,7.2l-0.8-1.2
				c3.8-2.3,5.7-5.4,5.8-9.5c0-0.9,0-1.7,0-2.2h1.3C105.6,18.7,105.6,19.7,105.5,20.6z"/>
			<path class="st4" d="M119.8,24.5c-0.2,2.1-0.6,3.5-1.3,4.2c-0.7,0.9-2.4,1.4-5.1,1.7l-0.5-1.2c2.3-0.1,3.8-0.5,4.5-1.3
				c0.6-0.7,1-1.9,1.1-3.5L119.8,24.5z M123.8,27.8h-1.3v-4.1h-7V28h-1.3v-5.5h9.7V27.8z M123,17.9v3.7h-8v-3.7H123z M121.7,19h-5.4
				v1.4h5.4V19z M125.1,29.3l-0.7,1.1c-1.6-0.8-3.2-1.4-4.9-1.9l0.7-1C121.9,28.1,123.6,28.6,125.1,29.3z"/>
		</g>
	</g>
</g>
<g id="textgroup" transform="translate(0,0)">
</g>
<g id="assistantgroup" transform="translate(0,0)">
</g>
<g id="Link39_1_" transform="translate(0,0)">
	<path class="st7" d="M582.3,433.4H656"/>
	<g transform="translate(0.5, 0)">
		<polygon class="st8" points="586.3,428.9 580.3,433.4 586.3,437.9 		"/>
	</g>
	<path class="st9" d="M662.3,433.4"/>
</g>
<path class="st7" d="M420.5,661.2h9.4"/>
<path class="st7" d="M421.2,170.9h9.4"/>
<g transform="translate(0.5, 0)">
	<polygon class="st8" points="394.1,577.5 388.1,582 394.1,586.5 	"/>
</g>
<g>
	<rect x="433.5" y="385.4" class="st10" width="144.2" height="98"/>
	<rect x="431.5" y="383.4" class="st11" width="144.2" height="98"/>
	<path class="st4" d="M478.5,397.4l-0.8-1c1.2-1.1,2.1-2.3,2.6-3.8l1.2,0.3c-0.1,0.3-0.3,0.7-0.4,1h2.7c-0.2-0.4-0.4-0.8-0.6-1.1
		l1.4-0.2c0.2,0.4,0.4,0.8,0.5,1.3h4.4v1.1h-4.3v0.7h3.8v1h-3.8v0.7h3.8v1h-3.8v0.7h4.6v1.1h-10.5v-3.7
		C479.2,396.8,478.9,397.1,478.5,397.4z M478.2,402.3v-1.2h5.5v-0.6h1.3v0.6h5.4v1.2h-3.8c0.9,0.7,2.3,1.3,4,1.8l-0.6,1.2
		c-2.2-0.8-3.8-1.7-4.8-2.9h-0.2v3.3h-1.3v-3.3h-0.2c-0.9,1.1-2.5,2.2-4.7,3l-0.7-1.1c1.9-0.6,3.3-1.2,4.1-1.9H478.2z M484,394.9
		h-3.3v0.7h3.3V394.9z M484,396.7h-3.3v0.7h3.3V396.7z M484,398.3h-3.3v0.7h3.3V398.3z"/>
	<path class="st4" d="M494.5,399.2c-0.1,0.4-0.2,0.7-0.3,1.1h3.6v5.2h-1.2v-0.8h-1.9v0.8h-1.2v-3.7c-0.3,0.6-0.7,1.2-1.2,1.7
		l-0.7-1.1c0.7-0.8,1.3-1.8,1.6-3.1h-1v-1.1h1.2c0.1-0.4,0.1-0.9,0.2-1.3H492v-1.2h1.9c0-0.4,0-0.9,0.1-1.3h-1.5v-1.1h5v2.5h0.7v1.2
		h-0.7v2.5H494.5z M496.6,403.5v-2h-1.9v2H496.6z M494.8,398.1h1.4v-1.3H495C494.9,397.2,494.9,397.7,494.8,398.1z M495.1,395.6h1.1
		v-1.3h-1.1C495.1,394.7,495.1,395.1,495.1,395.6z M498.4,396.5v-1.3h1.4c-0.3-0.7-0.7-1.4-1-2l1.1-0.5c0.4,0.6,0.8,1.4,1.1,2.2
		l-0.8,0.4h1.3c0.4-0.8,0.7-1.7,1-2.7l1.2,0.4c-0.3,0.8-0.6,1.6-0.9,2.2h1.3v1.3h-2.2v1.7h1.9v1.2h-1.9v1.7h2.5v1.3h-2.5v3.1h-1.3
		v-3.1h-2.5v-1.3h2.5v-1.7h-2.1v-1.2h2.1v-1.7H498.4z"/>
	<path class="st4" d="M507.1,396.1l-1.2-0.7c0.8-0.9,1.4-1.8,1.7-2.8l1.3,0.3c-0.1,0.2-0.2,0.5-0.3,0.7h3.5v1.2h-2.1
		c0.3,0.4,0.5,0.7,0.6,1l-1.2,0.5c-0.2-0.5-0.5-1-0.8-1.5h-0.6C507.8,395.2,507.5,395.7,507.1,396.1z M518.3,399.1H517v-1.6h-9.4
		v1.6h-1.3v-2.7h5.4c-0.1-0.3-0.2-0.5-0.4-0.8l1.2-0.2l-0.2-0.2c0.6-0.8,1.1-1.7,1.4-2.7l1.3,0.3c-0.1,0.2-0.2,0.5-0.2,0.7h3.9v1.2
		h-2.3c0.2,0.3,0.4,0.6,0.6,0.9l-1.2,0.4c-0.2-0.4-0.5-0.9-0.8-1.3h-0.7c-0.2,0.5-0.5,0.9-0.8,1.3l-0.7-0.4c0.1,0.3,0.2,0.5,0.3,0.8
		h5.3V399.1z M516.3,401.1h-6.8v0.7h7.5v3.7h-1.3v-0.5h-6.1v0.5h-1.3v-7.4h8.2V401.1z M515,400v-0.8h-5.5v0.8H515z M515.7,403.9v-1
		h-6.1v1H515.7z"/>
	<path class="st4" d="M521.5,397.7v-3h-1.6v-1.3h4.5v1.3h-1.6v3h1.4v1.3h-1.4v2.8c0.5-0.2,1-0.4,1.5-0.6v1.3c-1.3,0.6-2.8,1-4.3,1.4
		l-0.3-1.3c0.6-0.1,1.2-0.2,1.7-0.4V399h-1.4v-1.3H521.5z M532,393.1v6.7h-2.8v1.4h3v1.2h-3v1.4h3.4v1.3h-8.1v-1.3h3.4v-1.4h-3v-1.2
		h3v-1.4h-2.8v-6.7H532z M527.9,395.9v-1.6h-1.5v1.6H527.9z M527.9,397h-1.5v1.6h1.5V397z M529.2,395.9h1.5v-1.6h-1.5V395.9z
		 M530.8,397h-1.5v1.6h1.5V397z"/>
	<path class="st4" d="M480.6,409.7c-0.1,0.4-0.2,0.8-0.3,1.2h2.2v1.3h-2.6c-0.2,0.6-0.4,1.1-0.7,1.6h3.1v1.2H481v1.4h1.7v1.2H481
		v2.8c0.4-0.2,0.8-0.4,1.2-0.8l0.2,1.1c-0.8,0.5-1.7,0.9-2.7,1.2l-0.5-1.1c0.3-0.1,0.4-0.3,0.4-0.5v-2.8h-1.6v-1.2h1.6v-1.4h-0.6
		V414c-0.1,0.3-0.3,0.5-0.4,0.7l-1.1-0.7c0.8-1.4,1.4-3,1.7-4.6L480.6,409.7z M489.6,414.5v4.6h-1.4v1.5c0,0.3,0.2,0.5,0.5,0.5h0.4
		c0.2,0,0.3-0.1,0.4-0.2c0.1-0.2,0.2-0.6,0.2-1.3l1.1,0.3c-0.1,1.1-0.3,1.8-0.5,2c-0.2,0.2-0.6,0.3-1,0.3h-0.9
		c-0.9,0-1.4-0.4-1.4-1.3v-1.8H486c-0.2,0.8-0.5,1.4-0.9,1.9c-0.5,0.6-1.3,1.1-2.5,1.4l-0.5-1.1c0.9-0.2,1.6-0.6,2-1
		c0.3-0.3,0.5-0.7,0.6-1.2h-1.2v-4.6H489.6z M485.9,410.4c-0.1-0.3-0.3-0.6-0.4-0.9l1.3-0.2c0.1,0.3,0.2,0.7,0.3,1.1h2.9v1.1h-1.1
		c-0.1,0.4-0.2,0.8-0.4,1.2h1.9v1.1h-7.6v-1.1h1.9c-0.1-0.4-0.3-0.9-0.4-1.2h-1.1v-1.1H485.9z M488.4,416.3v-0.8h-3.6v0.8H488.4z
		 M488.4,417.3h-3.6v0.8h3.6V417.3z M487.7,411.5h-2.1c0.1,0.4,0.2,0.8,0.3,1.2h1.3C487.5,412.3,487.6,411.9,487.7,411.5z"/>
	<path class="st4" d="M492.1,416.4l-0.4-1.4c1.2-1.6,2.1-3.5,2.7-5.6l1.2,0.6c-0.3,1-0.6,1.9-1.1,2.7v9.7h-1.3v-7.4
		C492.9,415.4,492.5,415.9,492.1,416.4z M495.7,413.2l-0.8-1c1.3-0.7,2.4-1.7,3.3-2.9l1.3,0.3l-0.5,0.7h3.4v0.8
		c-0.3,0.4-0.6,0.7-0.9,1h2.4v3.3h-4c0.5,0.5,0.9,1.1,1.1,1.7c0.9-0.4,1.6-0.9,2.2-1.4l0.9,1c-0.4,0.3-0.8,0.6-1.3,0.9
		c0.4,1.2,1,2.2,1.9,3.1l-0.9,1.1c-0.9-1.1-1.6-2.4-2-3.7l-0.4,0.2c0.1,0.4,0.2,0.9,0.2,1.4c0,1-0.2,1.7-0.5,2.1
		c-0.3,0.3-0.8,0.5-1.6,0.6c-0.3,0-0.5,0-0.8,0l-0.4-1.2c0.4,0,0.8,0,1.1,0c0.3,0,0.5-0.1,0.7-0.3c0.2-0.2,0.2-0.6,0.2-1.2
		c0-0.1,0-0.1,0-0.2c-1.1,1-2.6,1.8-4.5,2.5l-0.7-1.1c2.1-0.7,3.8-1.5,4.9-2.6c-0.1-0.2-0.1-0.4-0.2-0.6c-1,0.9-2.4,1.6-4,2.2
		l-0.6-1.1c1.8-0.5,3.2-1.2,4.2-2c-0.1-0.2-0.3-0.4-0.4-0.5c-0.8,0.7-1.9,1.2-3.3,1.5l-0.5-1.1c1.2-0.2,2.1-0.6,2.8-1.2H496V413
		C495.9,413.1,495.8,413.2,495.7,413.2z M500.9,411.3h-2.7c-0.3,0.3-0.6,0.6-1,0.9h2.7C500.2,411.9,500.6,411.6,500.9,411.3z
		 M499.5,413.2h-2.2v1.1h1.7C499.2,414,499.4,413.6,499.5,413.2z M502.7,413.2h-1.9c-0.1,0.4-0.2,0.8-0.3,1.1h2.3V413.2z"/>
	<path class="st4" d="M507.1,412.9l-1.2-0.7c0.8-0.9,1.4-1.8,1.7-2.8l1.3,0.3c-0.1,0.2-0.2,0.5-0.3,0.7h3.5v1.2h-2.1
		c0.3,0.4,0.5,0.7,0.6,1l-1.2,0.5c-0.2-0.5-0.5-1-0.8-1.5h-0.6C507.8,412,507.5,412.5,507.1,412.9z M518.3,415.9H517v-1.6h-9.4v1.6
		h-1.3v-2.7h5.4c-0.1-0.3-0.2-0.5-0.4-0.8l1.2-0.2l-0.2-0.2c0.6-0.8,1.1-1.7,1.4-2.7l1.3,0.3c-0.1,0.2-0.2,0.5-0.2,0.7h3.9v1.2h-2.3
		c0.2,0.3,0.4,0.6,0.6,0.9l-1.2,0.4c-0.2-0.4-0.5-0.9-0.8-1.3h-0.7c-0.2,0.5-0.5,0.9-0.8,1.3l-0.7-0.4c0.1,0.3,0.2,0.5,0.3,0.8h5.3
		V415.9z M516.3,417.9h-6.8v0.7h7.5v3.7h-1.3v-0.5h-6.1v0.5h-1.3v-7.4h8.2V417.9z M515,416.8V416h-5.5v0.8H515z M515.7,420.7v-1
		h-6.1v1H515.7z"/>
	<path class="st4" d="M521.5,414.5v-3h-1.6v-1.3h4.5v1.3h-1.6v3h1.4v1.3h-1.4v2.8c0.5-0.2,1-0.4,1.5-0.6v1.3c-1.3,0.6-2.8,1-4.3,1.4
		l-0.3-1.3c0.6-0.1,1.2-0.2,1.7-0.4v-3.2h-1.4v-1.3H521.5z M532,409.9v6.7h-2.8v1.4h3v1.2h-3v1.4h3.4v1.3h-8.1v-1.3h3.4v-1.4h-3V418
		h3v-1.4h-2.8v-6.7H532z M527.9,412.7v-1.6h-1.5v1.6H527.9z M527.9,413.8h-1.5v1.6h1.5V413.8z M529.2,412.7h1.5v-1.6h-1.5V412.7z
		 M530.8,413.8h-1.5v1.6h1.5V413.8z"/>
	<g>
		<path class="st4" d="M482.9,425.7v11h1.7v-11h1.3v11h4.1v1.3h-12.5v-1.3h4.1v-11H482.9z M480.8,434.7l-1.2,0.3
			c-0.5-2.2-1.1-4.3-1.8-6.4l1.1-0.4C479.6,430.1,480.2,432.3,480.8,434.7z M489.7,428.6c-0.5,2.4-1.2,4.5-2.1,6.3l-1.2-0.4
			c0.8-1.6,1.5-3.7,2.1-6.2L489.7,428.6z"/>
		<path class="st4" d="M496.7,425.7c-0.1,0.3-0.3,0.7-0.5,1h6v1.1c-0.8,1-1.9,1.8-3.1,2.5c1.5,0.6,3.2,0.9,5,1.1l-0.6,1.2
			c-2.2-0.3-4.1-0.8-5.9-1.6c-1.7,0.8-3.6,1.3-5.9,1.6l-0.6-1.2c1.9-0.2,3.6-0.6,5-1.2c-0.7-0.4-1.3-0.8-1.9-1.3
			c-0.5,0.4-1,0.8-1.6,1.1L492,429c1.6-0.9,2.7-2.1,3.3-3.4L496.7,425.7z M498,431.9c0,0.5,0,1-0.1,1.4h4.8c0,2.5-0.2,3.9-0.6,4.4
			c-0.4,0.5-1.1,0.7-2.1,0.7c-0.5,0-1.1,0-1.7-0.1l-0.3-1.2c0.7,0,1.3,0.1,1.8,0.1c0.7,0,1.2-0.2,1.3-0.4c0.2-0.3,0.3-1.1,0.3-2.3
			h-3.8c-0.1,0.3-0.3,0.7-0.4,1c-0.7,1.3-2.3,2.3-4.9,3.1l-0.9-1.1c2.3-0.7,3.8-1.5,4.5-2.5c0.1-0.2,0.2-0.4,0.3-0.5h-3.9v-1.2h4.3
			c0.1-0.4,0.1-0.9,0.1-1.4H498z M500.3,427.9h-4.9c0,0-0.1,0.1-0.1,0.1c0.7,0.6,1.5,1.1,2.4,1.6
			C498.7,429.1,499.5,428.6,500.3,427.9z"/>
		<path class="st4" d="M506.6,429.1l-1.2-0.7c0.8-0.9,1.4-1.8,1.7-2.8l1.3,0.3c-0.1,0.2-0.2,0.5-0.3,0.7h3.5v1.2h-2.1
			c0.3,0.4,0.5,0.7,0.6,1l-1.2,0.5c-0.2-0.5-0.5-1-0.8-1.5h-0.6C507.3,428.2,506.9,428.6,506.6,429.1z M517.7,432h-1.3v-1.6H507v1.6
			h-1.3v-2.7h5.4c-0.1-0.3-0.2-0.5-0.4-0.8l1.2-0.2l-0.2-0.2c0.6-0.8,1.1-1.7,1.4-2.7l1.3,0.3c-0.1,0.2-0.2,0.5-0.2,0.7h3.9v1.2
			h-2.3c0.2,0.3,0.4,0.6,0.6,0.9l-1.2,0.4c-0.2-0.4-0.5-0.9-0.8-1.3h-0.7c-0.2,0.5-0.5,0.9-0.8,1.3l-0.7-0.4
			c0.1,0.3,0.2,0.5,0.3,0.8h5.3V432z M515.8,434H509v0.7h7.5v3.7h-1.3V438H509v0.5h-1.3v-7.4h8.2V434z M514.5,433v-0.8H509v0.8
			H514.5z M515.1,436.8v-1H509v1H515.1z"/>
		<path class="st4" d="M521,430.7v-3h-1.6v-1.3h4.5v1.3h-1.6v3h1.4v1.3h-1.4v2.8c0.5-0.2,0.9-0.3,1.4-0.5v1.3
			c-1.3,0.5-2.7,0.9-4.1,1.3l-0.3-1.3c0.6-0.1,1.2-0.2,1.7-0.4v-3.2h-1.4v-1.3H521z M531.5,426.1v6.7h-2.9v1.4h3.1v1.2h-3.1v1.5h3.5
			v1.3h-8.5v-1.3h3.6v-1.5h-3.1v-1.2h3.1v-1.4h-2.9v-6.7H531.5z M527.3,428.8v-1.6h-1.6v1.6H527.3z M527.3,430h-1.6v1.6h1.6V430z
			 M528.6,428.8h1.6v-1.6h-1.6V428.8z M530.2,430h-1.6v1.6h1.6V430z"/>
		<path class="st4" d="M477.7,442.9c-0.2,0.2-0.4,0.4-0.6,0.6h3.7v1c-1.5,2.7-4.3,4.2-8.4,4.6l-0.6-1.2c1.2-0.1,2.2-0.2,3.2-0.5
			c-0.4-0.5-0.8-0.9-1.2-1.3l1.1-0.5c0.5,0.4,0.9,0.9,1.3,1.4c1.3-0.5,2.3-1.3,3.1-2.3h-3.8c-1.1,0.6-2.4,1.1-3.8,1.4l-0.8-1.2
			c2.5-0.4,4.3-1.3,5.5-2.6L477.7,442.9z M477.7,452.7c1.4-0.6,2.5-1.4,3.3-2.5h-3.8c-1.2,0.6-2.6,1-4.3,1.3l-0.8-1.2
			c3.1-0.3,5.3-1.2,6.7-2.7l1.1,0.6c-0.3,0.3-0.5,0.5-0.8,0.7h3.6v1c-2,3.3-5.7,5-11.2,5.1l-0.5-1.3c2.1,0,3.9-0.2,5.5-0.7
			c-0.4-0.6-0.9-1.1-1.3-1.5l1.2-0.6C476.8,451.6,477.3,452.1,477.7,452.7z"/>
		<path class="st4" d="M486.6,446.1v-1.8c-0.6,0.1-1.2,0.2-1.8,0.2l-0.3-1.2c1.8-0.2,3.3-0.4,4.7-0.9l0.5,1.2
			c-0.6,0.2-1.2,0.3-1.8,0.4v2h1.8v1.3h-1.8v0.6c0.7,0.6,1.3,1.2,2,1.9l-0.7,1.1c-0.5-0.7-0.9-1.3-1.2-1.7v6h-1.3v-6
			c-0.5,1.2-1.2,2.3-1.9,3.3l-0.5-1.4c1.1-1.2,1.9-2.5,2.4-3.9h-2v-1.3H486.6z M496.1,453.5h1.1v1.3h-7.9v-1.3h1.2v-10.7h5.6V453.5z
			 M494.7,446.4v-2.3h-3v2.3H494.7z M494.7,449.9v-2.3h-3v2.3H494.7z M494.7,453.5v-2.4h-3v2.4H494.7z"/>
		<path class="st4" d="M499.1,455.4l-1-0.9c1.1-1.5,1.6-3.5,1.6-5.9V444h4.5c-0.2-0.5-0.5-1-0.8-1.5l1.4-0.2
			c0.2,0.5,0.5,1.1,0.7,1.7h4.4v5h-9C501,451.4,500.3,453.6,499.1,455.4z M501,445.3v2.4h7.6v-2.4H501z"/>
		<path class="st4" d="M513.6,445.9l-1.2-0.7c0.8-0.9,1.4-1.8,1.7-2.8l1.3,0.3c-0.1,0.2-0.2,0.5-0.3,0.7h3.5v1.2h-2.1
			c0.3,0.4,0.5,0.7,0.6,1l-1.2,0.5c-0.2-0.5-0.5-1-0.8-1.5h-0.6C514.3,445,513.9,445.4,513.6,445.9z M524.7,448.8h-1.3v-1.6H514v1.6
			h-1.3v-2.7h5.4c-0.1-0.3-0.2-0.5-0.4-0.8l1.2-0.2l-0.2-0.2c0.6-0.8,1.1-1.7,1.4-2.7l1.3,0.3c-0.1,0.2-0.2,0.5-0.2,0.7h3.9v1.2
			h-2.3c0.2,0.3,0.4,0.6,0.6,0.9l-1.2,0.4c-0.2-0.4-0.5-0.9-0.8-1.3h-0.7c-0.2,0.5-0.5,0.9-0.8,1.3l-0.7-0.4
			c0.1,0.3,0.2,0.5,0.3,0.8h5.3V448.8z M522.8,450.8H516v0.7h7.5v3.7h-1.3v-0.5H516v0.5h-1.3v-7.4h8.2V450.8z M521.5,449.8V449H516
			v0.8H521.5z M522.1,453.6v-1H516v1H522.1z"/>
		<path class="st4" d="M528,447.5v-3h-1.6v-1.3h4.5v1.3h-1.6v3h1.4v1.3h-1.4v2.8c0.5-0.2,0.9-0.3,1.4-0.5v1.3
			c-1.3,0.5-2.7,0.9-4.1,1.3l-0.3-1.3c0.6-0.1,1.2-0.2,1.7-0.4v-3.2h-1.4v-1.3H528z M538.5,442.9v6.7h-2.9v1.4h3.1v1.2h-3.1v1.5h3.5
			v1.3h-8.5v-1.3h3.6v-1.5h-3.1V451h3.1v-1.4h-2.9v-6.7H538.5z M534.3,445.6V444h-1.6v1.6H534.3z M534.3,446.8h-1.6v1.6h1.6V446.8z
			 M535.6,445.6h1.6V444h-1.6V445.6z M537.2,446.8h-1.6v1.6h1.6V446.8z"/>
		<path class="st4" d="M484.2,471.8c-0.9,0-1.6-0.1-2.2-0.2c-0.6-0.2-1-0.5-1.5-1c-0.2-0.2-0.4-0.4-0.5-0.4c-0.3,0-0.8,0.6-1.5,1.9
			l-1-0.9c0.7-1.1,1.3-1.8,1.9-2.1v-4h-1.9v-1.2h3.1v5.3c0.1,0.1,0.1,0.1,0.2,0.2c0.3,0.4,0.7,0.7,1,0.8c0.4,0.2,1,0.3,1.8,0.4
			c0.8,0,1.7,0,2.8,0c0.7,0,1.4,0,2.1,0c0.7,0,1.2,0,1.6-0.1l-0.3,1.3h-3.2C485.9,471.9,485,471.9,484.2,471.8z M481,461.5l-1,0.9
			c-0.5-0.7-1.3-1.4-2.3-2.3l0.9-0.9C479.5,460,480.3,460.8,481,461.5z M490,463v1.3h-4.3c-0.7,1.7-1.3,2.9-1.9,3.8
			c1.6-0.2,2.9-0.4,4-0.7c-0.3-0.7-0.6-1.4-1-2l1.1-0.3c0.7,1.3,1.4,2.7,2,4.4l-1.2,0.3c-0.1-0.4-0.3-0.8-0.4-1.2
			c-1.5,0.4-3.5,0.7-5.9,0.9l-0.3-1.1c0.6-0.2,1.4-1.5,2.4-4.1h-2.8V463H490z M489,459.9v1.2h-6.6v-1.2H489z"/>
		<path class="st4" d="M494.8,459.6c-0.6,1.7-1.2,3-1.9,4.1c0.4-0.1,0.9-0.1,1.3-0.2c0.2-0.5,0.5-1.1,0.7-1.6l1.2,0.4
			c-1.1,2.2-1.9,3.9-2.7,4.9c0.8-0.2,1.6-0.5,2.5-0.9v1.2c-1.4,0.6-2.7,1-4,1.2l-0.4-1.2c0.2-0.1,0.4-0.2,0.6-0.4
			c0.4-0.5,0.9-1.3,1.5-2.4c-0.6,0.1-1.3,0.2-2,0.3l-0.3-1.2c0.2-0.1,0.4-0.3,0.6-0.5c0.6-1.3,1.1-2.7,1.6-4.2L494.8,459.6z
			 M496.2,470.4c-1.4,0.5-2.9,0.9-4.7,1.3l-0.2-1.3c1.9-0.3,3.5-0.7,4.9-1.2V470.4z M498.4,472.1h-1.3v-7.8c-0.3,0.5-0.7,1-1.1,1.6
			l-0.4-1.3c1-1.6,1.8-3.3,2.2-5.2l1.3,0.3c-0.2,0.7-0.4,1.3-0.6,2h2.2c-0.2-0.7-0.5-1.3-0.8-2l1.3-0.4c0.3,0.9,0.6,1.6,0.7,2.3h2
			v1.3h-2.1v1.6h1.8v1.2h-1.8v1.6h1.8v1.2h-1.8v1.8h2.4v1.2h-5.8V472.1z M498.4,462.7v1.6h2.2v-1.6H498.4z M498.4,467.1h2.2v-1.6
			h-2.2V467.1z M498.4,470.1h2.2v-1.8h-2.2V470.1z"/>
		<path class="st4" d="M506.6,462.7l-1.2-0.7c0.8-0.9,1.4-1.8,1.7-2.8l1.3,0.3c-0.1,0.2-0.2,0.5-0.3,0.7h3.5v1.2h-2.1
			c0.3,0.4,0.5,0.7,0.6,1l-1.2,0.5c-0.2-0.5-0.5-1-0.8-1.5h-0.6C507.3,461.8,506.9,462.2,506.6,462.7z M517.7,465.6h-1.3v-1.6H507
			v1.6h-1.3v-2.7h5.4c-0.1-0.3-0.2-0.5-0.4-0.8l1.2-0.2l-0.2-0.2c0.6-0.8,1.1-1.7,1.4-2.7l1.3,0.3c-0.1,0.2-0.2,0.5-0.2,0.7h3.9v1.2
			h-2.3c0.2,0.3,0.4,0.6,0.6,0.9l-1.2,0.4c-0.2-0.4-0.5-0.9-0.8-1.3h-0.7c-0.2,0.5-0.5,0.9-0.8,1.3l-0.7-0.4
			c0.1,0.3,0.2,0.5,0.3,0.8h5.3V465.6z M515.8,467.6H509v0.7h7.5v3.7h-1.3v-0.5H509v0.5h-1.3v-7.4h8.2V467.6z M514.5,466.6v-0.8H509
			v0.8H514.5z M515.1,470.4v-1H509v1H515.1z"/>
		<path class="st4" d="M521,464.3v-3h-1.6V460h4.5v1.3h-1.6v3h1.4v1.3h-1.4v2.8c0.5-0.2,0.9-0.3,1.4-0.5v1.3
			c-1.3,0.5-2.7,0.9-4.1,1.3l-0.3-1.3c0.6-0.1,1.2-0.2,1.7-0.4v-3.2h-1.4v-1.3H521z M531.5,459.7v6.7h-2.9v1.4h3.1v1.2h-3.1v1.5h3.5
			v1.3h-8.5v-1.3h3.6V469h-3.1v-1.2h3.1v-1.4h-2.9v-6.7H531.5z M527.3,462.4v-1.6h-1.6v1.6H527.3z M527.3,463.6h-1.6v1.6h1.6V463.6z
			 M528.6,462.4h1.6v-1.6h-1.6V462.4z M530.2,463.6h-1.6v1.6h1.6V463.6z"/>
	</g>
</g>
<g id="RectEndPoint20" transform="translate(6,396)">
	<rect x="2" y="14.4" class="st10" width="100" height="48"/>
	<rect y="12.4" class="st11" width="100" height="48"/>
	<g transform="translate(20 9)">
		<g>
			<g>
				<path class="st12" d="M12,17.6c2.2,0,4,1.8,4,4s-1.8,4-4,4s-4-1.8-4-4S9.8,17.6,12,17.6 M12,15.6c-3.3,0-6,2.7-6,6s2.7,6,6,6
					s6-2.7,6-6S15.3,15.6,12,15.6z"/>
				<path class="st12" d="M16,31.6c3.3,0,6,2.7,6,6v1H2v-1c0-3.3,2.7-6,6-6H16 M16,29.6H8c-4.4,0-8,3.6-8,8v3h24v-3
					C24,33.1,20.4,29.6,16,29.6z"/>
				<path class="st12" d="M25,29.5h-3c0.8,0.6,1.4,1.2,2,2h1c2.2,0,4,1.8,4,4v1h-3c0,0.3,0,0.7,0,1v1h5v-3
					C31,32.2,28.3,29.5,25,29.5z"/>
				<path class="st12" d="M21,16.5c-0.8,0-1.6,0.2-2.3,0.6c0.4,0.6,0.7,1.2,0.9,1.8c1.4-0.8,3.3-0.3,4.1,1.1
					c0.8,1.4,0.3,3.3-1.1,4.1c-0.9,0.5-2,0.5-3,0c-0.2,0.6-0.5,1.2-0.9,1.8c0.7,0.4,1.5,0.6,2.3,0.6c2.8,0,5-2.2,5-5
					S23.8,16.5,21,16.5z"/>
			</g>
		</g>
		<g class="st3">
			<path class="st4" d="M48.4,24.5c-0.2,0.3-0.4,0.5-0.5,0.7h5v1.1c-0.5,0.7-1.2,1.4-2.2,1.9c1.4,0.5,3,0.8,4.7,0.9l-0.3,1.2
				c-2.2-0.1-4.2-0.6-5.9-1.4c-1.6,0.7-3.7,1.2-6.2,1.7l-0.5-1.2c2.1-0.3,3.9-0.7,5.3-1.2c-0.6-0.4-1.1-0.8-1.6-1.2
				c-0.5,0.4-1.1,0.9-1.6,1.2l-0.9-1c1.3-0.7,2.4-1.7,3.3-3L48.4,24.5z M54.8,25.7h-1.3v-1.6h-8.9v1.6h-1.3v-2.8h5
				c-0.1-0.3-0.3-0.6-0.4-0.8l1.5-0.2c0.1,0.3,0.3,0.6,0.4,1h5.2V25.7z M53.2,34.9h-1.3v-0.5h-5.6v0.5H45v-4.6h8.2V34.9z M51.9,33.2
				v-1.6h-5.6v1.6H51.9z M51.2,26.4h-4.1c0.6,0.5,1.3,0.9,2.1,1.3C50.1,27.3,50.7,26.9,51.2,26.4z"/>
			<path class="st4" d="M57.4,34.9l-1-0.9c1.1-1.5,1.6-3.5,1.6-5.9v-4.6h4.5c-0.2-0.5-0.5-1-0.8-1.5l1.4-0.2
				c0.2,0.5,0.5,1.1,0.7,1.7h4.4v5h-9C59.2,31,58.6,33.1,57.4,34.9z M59.3,24.9v2.4H67v-2.4H59.3z"/>
		</g>
	</g>
</g>
</svg>
