<?xml version="1.0" encoding="utf-8"?>
<!-- Generator: Adobe Illustrator 24.0.1, SVG Export Plug-In . SVG Version: 6.00 Build 0)  -->
<svg version="1.1" id="svgwrapper_svg" xmlns="http://www.w3.org/2000/svg" xmlns:xlink="http://www.w3.org/1999/xlink" x="0px"
	 y="0px" width="820px" height="630px" viewBox="0 0 820 630" style="enable-background:new 0 0 820 630;" xml:space="preserve">
<style type="text/css">
	.st0{fill:none;stroke:#878787;stroke-miterlimit:10;}
	.st1{display:none;fill:none;stroke:#999999;}
	.st2{fill:none;stroke:#BABABA;stroke-dasharray:5;}
	.st3{enable-background:new    ;}
	.st4{fill:#444444;}
	.st5{fill-opacity:0;}
	.st6{fill:#CEE3FF;}
	.st7{fill:none;stroke:#888888;}
	.st8{fill-rule:evenodd;clip-rule:evenodd;fill:#888888;}
	.st9{fill:none;stroke:#FF0000;stroke-width:15;stroke-opacity:0;}
	.st10{opacity:0.6;fill:#BBBBBB;enable-background:new    ;}
	.st11{fill:#FFFFFF;stroke:#E5E5E5;}
	.st12{fill:#878787;}
</style>
<line class="st0" x1="403.6" y1="166.37" x2="403.6" y2="141.07"/>
<polyline class="st0" points="181.21,195.37 181.21,166.37 625.51,166.37 625.51,195.57 "/>
<path class="st1" d="M520,377.75L520,377.75"/>
<path class="st2" d="M2,203.8h816v414H2V203.8"/>
<g transform="translate(10 10)">
	<g class="st3">
		<path class="st4" d="M15.77,207.75l-4.43,4.3l5.07,5.7h-2.04l-4.06-4.71l-1.3,1.25v3.46H7.48v-10h1.53v4.83l4.83-4.83H15.77z"/>
		<path class="st4" d="M23.15,208.39c0.56,0.5,0.84,1.13,0.84,1.88c0,0.52-0.11,0.95-0.34,1.3c-0.25,0.38-0.63,0.66-1.13,0.85v0.04
			c0.48,0.11,0.9,0.39,1.23,0.84c0.39,0.48,0.59,1.02,0.59,1.65c0,0.88-0.32,1.6-0.97,2.16c-0.66,0.55-1.58,0.83-2.76,0.83
			c-1.19,0-2.12-0.28-2.76-0.83c-0.64-0.56-0.97-1.28-0.97-2.16c0-0.63,0.2-1.18,0.59-1.65c0.34-0.45,0.74-0.73,1.23-0.84v-0.04
			c-0.5-0.2-0.88-0.48-1.13-0.85c-0.22-0.35-0.34-0.78-0.34-1.3c0-0.74,0.28-1.37,0.84-1.88c0.62-0.56,1.47-0.84,2.54-0.84
			S22.52,207.83,23.15,208.39z M18.96,213.63c-0.38,0.34-0.56,0.77-0.56,1.33c0,0.52,0.18,0.94,0.57,1.26
			c0.38,0.32,0.92,0.49,1.64,0.49c0.7,0,1.26-0.17,1.67-0.49c0.36-0.32,0.55-0.74,0.55-1.26c0-0.56-0.18-1-0.55-1.32
			c-0.39-0.36-0.94-0.55-1.67-0.55S19.33,213.27,18.96,213.63z M19.14,209.26c-0.32,0.28-0.48,0.65-0.48,1.06
			c0,0.48,0.13,0.85,0.39,1.13c0.32,0.34,0.84,0.5,1.55,0.5c0.7,0,1.22-0.17,1.55-0.5c0.25-0.28,0.39-0.66,0.39-1.13
			c0-0.42-0.17-0.78-0.48-1.06c-0.36-0.34-0.85-0.49-1.47-0.49S19.51,208.93,19.14,209.26z"/>
		<path class="st4" d="M31.44,212.6H30c-0.11-0.39-0.28-0.66-0.52-0.81c-0.25-0.17-0.64-0.25-1.15-0.25c-0.45,0-0.78,0.06-1.01,0.2
			c-0.27,0.14-0.39,0.36-0.39,0.64c0,0.25,0.2,0.46,0.59,0.64c0.25,0.11,0.73,0.25,1.46,0.43c0.83,0.2,1.44,0.43,1.83,0.69
			c0.57,0.36,0.87,0.87,0.87,1.51c0,1.53-1.08,2.3-3.22,2.3c-1.99,0-3.05-0.85-3.22-2.54h1.46c0.08,0.49,0.27,0.84,0.52,1.04
			c0.25,0.18,0.64,0.28,1.2,0.28c1.15,0,1.74-0.34,1.74-0.98c0-0.35-0.22-0.63-0.64-0.83c-0.22-0.11-0.71-0.25-1.46-0.42
			c-0.85-0.2-1.46-0.41-1.79-0.63c-0.56-0.35-0.84-0.84-0.84-1.46c0-0.66,0.27-1.18,0.81-1.54c0.55-0.38,1.26-0.56,2.13-0.56
			C30.23,210.31,31.27,211.07,31.44,212.6z"/>
		<path class="st4" d="M33.38,211.01L32.61,210c1.18-1.06,2.06-2.34,2.65-3.8l1.25,0.28c-0.13,0.34-0.27,0.67-0.42,0.98h2.69
			c-0.18-0.39-0.38-0.76-0.59-1.09l1.36-0.22c0.18,0.39,0.36,0.83,0.55,1.32h4.41v1.09h-4.34v0.71h3.78v1.01h-3.78v0.69h3.78v1.01
			h-3.78v0.74h4.61v1.11H34.29v-3.74C34.01,210.4,33.7,210.7,33.38,211.01z M33.02,215.9v-1.22h5.46v-0.56h1.32v0.56h5.38v1.22
			h-3.84c0.92,0.73,2.25,1.32,4.01,1.76l-0.57,1.18c-2.23-0.76-3.82-1.74-4.79-2.94H39.8v3.31h-1.32v-3.31H38.3
			c-0.88,1.15-2.46,2.16-4.73,3l-0.7-1.13c1.91-0.56,3.28-1.19,4.09-1.86L33.02,215.9L33.02,215.9z M38.86,208.56h-3.33v0.71h3.33
			V208.56z M38.86,210.28h-3.33v0.69h3.33V210.28z M38.86,211.98h-3.33v0.74h3.33V211.98z"/>
		<path class="st4" d="M49.4,212.85c-0.1,0.36-0.21,0.73-0.32,1.06h3.57v5.17h-1.18v-0.76h-1.88v0.78h-1.18v-3.67
			c-0.34,0.63-0.73,1.18-1.16,1.65l-0.7-1.11c0.71-0.79,1.26-1.82,1.62-3.14H47.2v-1.13h1.23c0.07-0.43,0.14-0.88,0.2-1.33h-1.77
			v-1.18h1.86c0.03-0.45,0.04-0.88,0.06-1.33h-1.5v-1.13h4.97v2.47h0.7v1.18h-0.7v2.47L49.4,212.85L49.4,212.85z M51.47,217.16
			v-2.05h-1.88v2.05H51.47z M49.65,211.71h1.42v-1.33h-1.22C49.79,210.85,49.72,211.29,49.65,211.71z M49.94,209.21h1.12v-1.33H50
			C49.99,208.32,49.97,208.77,49.94,209.21z M53.28,210.1v-1.27h1.44c-0.32-0.74-0.67-1.41-1.04-2.02l1.12-0.53
			c0.39,0.64,0.77,1.37,1.13,2.16l-0.8,0.39h1.34c0.39-0.84,0.73-1.72,1.01-2.66l1.25,0.43c-0.28,0.83-0.57,1.57-0.9,2.23h1.34v1.27
			h-2.21v1.71h1.92v1.23h-1.92v1.72h2.52v1.29h-2.52v3.12h-1.3v-3.12h-2.49v-1.29h2.49v-1.72H53.6v-1.23h2.06v-1.71L53.28,210.1
			L53.28,210.1z"/>
	</g>
</g>
<rect x="20" y="208.75" class="st5" width="381" height="356"/>
<path class="st2" d="M9.28,248.75h376v356h-376L9.28,248.75"/>
<g transform="translate(10 10)">
	<g class="st3">
		<path class="st4" d="M16.04,252.72c0.7,0.53,1.14,1.32,1.32,2.38h-1.52c-0.14-0.64-0.44-1.12-0.91-1.44
			c-0.47-0.33-1.1-0.49-1.87-0.49c-0.95,0-1.71,0.31-2.27,0.95c-0.61,0.67-0.9,1.59-0.9,2.76c0,1.15,0.26,2.02,0.81,2.64
			c0.58,0.67,1.49,1,2.71,1c0.48,0,0.94-0.07,1.36-0.17c0.41-0.11,0.77-0.27,1.1-0.47v-2.06h-2.71v-1.24h4.22v4
			c-0.51,0.39-1.1,0.68-1.78,0.89c-0.72,0.21-1.5,0.32-2.36,0.32c-1.57,0-2.78-0.48-3.65-1.44c-0.81-0.89-1.21-2.05-1.21-3.46
			c0-1.43,0.4-2.6,1.21-3.52c0.85-0.99,2.01-1.47,3.46-1.47C14.32,251.9,15.31,252.16,16.04,252.72z"/>
		<path class="st4" d="M23.28,252.08c2.34,0,3.51,0.96,3.51,2.89c0,1.94-1.19,2.92-3.54,2.92H20.7v3.7h-1.5v-9.51L23.28,252.08
			L23.28,252.08z M20.7,256.65h2.45c0.74,0,1.28-0.13,1.63-0.4c0.33-0.27,0.51-0.69,0.51-1.28s-0.18-1.01-0.52-1.25
			c-0.34-0.27-0.88-0.4-1.61-0.4H20.7V256.65z"/>
		<path class="st4" d="M29.69,252.08V258c0,0.85,0.19,1.48,0.61,1.89c0.41,0.41,1.06,0.63,1.96,0.63c0.88,0,1.53-0.21,1.94-0.63
			c0.4-0.41,0.61-1.04,0.61-1.89v-5.91h1.5v5.89c0,1.24-0.36,2.18-1.06,2.84c-0.7,0.64-1.69,0.97-2.99,0.97
			c-1.31,0-2.3-0.32-2.99-0.96c-0.72-0.67-1.07-1.61-1.07-2.85v-5.89h1.49V252.08z"/>
		<path class="st4" d="M38.9,262.99l-0.99-0.87c0.55-1.16,0.83-2.64,0.84-4.44v-6.54h4.29v10.42c0,0.91-0.43,1.36-1.27,1.36h-1.1
			l-0.32-1.12c0.39,0.04,0.73,0.07,1.06,0.07c0.29,0,0.44-0.24,0.44-0.72v-2.66h-1.96C39.79,260.3,39.46,261.81,38.9,262.99z
			 M41.85,252.3h-1.93v1.97h1.93V252.3z M39.92,257.35h1.93v-1.94h-1.93V257.35z M45.19,262.98h-1.23v-11.83h5.8
			c0,1.73-0.08,2.88-0.25,3.45c-0.17,0.56-0.69,0.84-1.57,0.84h-1.16l-0.34-1.07c0.22,0,0.52,0.01,0.91,0.01
			c0.29,0,0.51-0.03,0.65-0.07c0.14-0.04,0.25-0.16,0.33-0.35c0.08-0.23,0.14-0.79,0.17-1.68h-3.31v3.76h4.66v1.07
			c-0.25,1.31-0.66,2.42-1.24,3.34c0.56,0.52,1.23,0.99,1.97,1.41l-0.65,1.07c-0.79-0.45-1.47-0.96-2.05-1.5
			c-0.56,0.61-1.24,1.12-2.01,1.52l-0.68-0.99V262.98z M45.19,261.93c0.72-0.37,1.32-0.85,1.83-1.41c-0.8-0.99-1.35-2.1-1.65-3.34
			h-0.18V261.93z M47.74,259.53c0.41-0.69,0.73-1.48,0.95-2.36h-2.2C46.76,258.04,47.18,258.82,47.74,259.53z"/>
		<path class="st4" d="M56.95,250.81c-0.14,0.32-0.29,0.63-0.46,0.91h5.9v1.03c-0.83,0.92-1.83,1.72-3,2.38
			c1.47,0.53,3.11,0.89,4.93,1.05l-0.59,1.19c-2.14-0.24-4.06-0.75-5.77-1.53c-1.65,0.72-3.58,1.24-5.76,1.56l-0.61-1.19
			c1.85-0.23,3.5-0.6,4.93-1.12c-0.66-0.37-1.27-0.8-1.83-1.25c-0.47,0.39-0.98,0.75-1.54,1.08l-0.8-1.01
			c1.61-0.89,2.7-1.98,3.27-3.28L56.95,250.81z M58.25,256.64c0,0.48-0.04,0.93-0.11,1.36h4.75c-0.03,2.33-0.23,3.73-0.62,4.18
			c-0.39,0.45-1.07,0.69-2.04,0.69c-0.47,0-1.05-0.03-1.71-0.07l-0.33-1.15c0.72,0.03,1.3,0.05,1.74,0.08
			c0.7-0.01,1.14-0.16,1.32-0.43c0.18-0.28,0.29-1.01,0.33-2.18h-3.73c-0.12,0.32-0.26,0.63-0.43,0.91c-0.69,1.2-2.3,2.18-4.85,2.97
			l-0.87-1.03c2.25-0.64,3.72-1.41,4.41-2.33c0.11-0.17,0.22-0.35,0.3-0.52h-3.87V258h4.27c0.08-0.43,0.14-0.88,0.14-1.36H58.25z
			 M60.48,252.9h-4.84c-0.04,0.04-0.07,0.07-0.08,0.09c0.72,0.57,1.52,1.08,2.38,1.51C58.89,254.04,59.73,253.51,60.48,252.9z"/>
		<path class="st4" d="M76.92,251.11v3.46h-1.64c0.26,0.35,0.5,0.71,0.69,1.08h1.87v1.12h-3.4c0.87,0.67,2.09,1.19,3.67,1.59
			l-0.52,1.07c-0.28-0.09-0.52-0.19-0.76-0.27v3.82h-1.16v-0.52h-2.23v0.52h-1.16v-4.36h3.29c-1.1-0.55-1.97-1.16-2.58-1.85h-2.23
			c-0.69,0.72-1.57,1.35-2.65,1.85h3.04v4.36H70v-0.52h-2v0.52h-1.14v-3.85c-0.3,0.11-0.61,0.2-0.91,0.29l-0.59-1.03
			c1.54-0.43,2.77-0.97,3.68-1.62h-3.43v-1.12h4.6c0.23-0.31,0.43-0.63,0.56-0.95l1.25,0.13c-0.12,0.28-0.26,0.55-0.41,0.81h3.07
			c-0.17-0.28-0.34-0.53-0.52-0.76l1.02-0.32h-2.81v-3.46L76.92,251.11L76.92,251.11z M71.09,251.11v3.46h-4.42v-3.46H71.09z
			 M69.91,252.19h-2.05v1.33h2.05V252.19z M70,261.38v-1.72h-2v1.72H70z M75.67,261.38v-1.72h-2.23v1.72H75.67z M75.74,252.19h-2.18
			v1.33h2.18V252.19z"/>
	</g>
</g>
<rect x="17.95" y="296.5" class="st6" width="184.8" height="159.74"/>
<g transform="translate(10 10)">
	<g class="st3">
		<path class="st4" d="M24.35,299.74c0.65,0.53,1.06,1.26,1.19,2.17h-1.33c-0.15-0.6-0.44-1.06-0.87-1.35s-0.95-0.43-1.61-0.43
			c-0.97,0-1.7,0.33-2.19,0.99c-0.46,0.6-0.69,1.44-0.69,2.48c0,1.08,0.23,1.91,0.68,2.5c0.48,0.63,1.22,0.94,2.22,0.94
			c0.65,0,1.21-0.16,1.63-0.49c0.45-0.35,0.77-0.88,0.94-1.59h1.33c-0.2,1.04-0.67,1.86-1.41,2.45c-0.69,0.55-1.52,0.83-2.49,0.83
			c-1.47,0-2.57-0.48-3.32-1.41c-0.65-0.81-0.97-1.89-0.97-3.25c0-1.33,0.33-2.42,1-3.26c0.75-0.96,1.83-1.42,3.27-1.42
			C22.8,298.92,23.67,299.19,24.35,299.74z"/>
		<path class="st4" d="M32.28,302.39c0.58,0.64,0.88,1.46,0.88,2.45c0,0.98-0.29,1.8-0.87,2.43c-0.6,0.65-1.39,0.99-2.37,0.99
			s-1.77-0.34-2.37-0.99c-0.58-0.63-0.87-1.45-0.87-2.43c0-0.99,0.29-1.81,0.88-2.45c0.59-0.65,1.38-0.98,2.36-0.98
			S31.69,301.73,32.28,302.39z M28.48,303.23c-0.3,0.42-0.44,0.96-0.44,1.61s0.14,1.18,0.44,1.6c0.34,0.48,0.82,0.73,1.43,0.73
			s1.09-0.25,1.44-0.73c0.3-0.43,0.45-0.96,0.45-1.6c0-0.65-0.15-1.2-0.45-1.61c-0.35-0.49-0.83-0.73-1.44-0.73
			S28.82,302.74,28.48,303.23z"/>
		<path class="st4" d="M40.14,304.07v4.02h-1.33v-3.9c0-1.11-0.52-1.66-1.52-1.66c-0.38,0-0.72,0.13-0.99,0.4
			c-0.3,0.3-0.49,0.72-0.54,1.25v3.92h-1.33v-6.51h1.33v0.81c0.25-0.33,0.54-0.57,0.87-0.73c0.33-0.18,0.69-0.25,1.09-0.25
			C39.33,301.4,40.14,302.28,40.14,304.07z"/>
		<path class="st4" d="M43.64,301.58h1.48v1.11h-1.48v3.78c0,0.18,0.04,0.3,0.11,0.39c0.08,0.08,0.19,0.13,0.35,0.13h0.85v1.11
			h-1.07c-0.55,0-0.97-0.15-1.22-0.44c-0.25-0.28-0.36-0.67-0.36-1.18v-3.78h-1.2v-1.11h1.21v-1.55l1.33-0.55V301.58z"/>
		<path class="st4" d="M51.22,302.12c0.39,0.42,0.59,1.02,0.59,1.81v4.15h-1.23v-0.92c-0.25,0.33-0.57,0.59-0.94,0.78
			c-0.43,0.2-0.93,0.31-1.51,0.31c-0.68,0-1.21-0.18-1.58-0.52c-0.41-0.34-0.62-0.78-0.62-1.32c0-0.73,0.29-1.3,0.87-1.69
			c0.53-0.38,1.28-0.57,2.24-0.59l1.46-0.04v-0.26c0-0.91-0.49-1.36-1.47-1.36c-0.41,0-0.75,0.08-1,0.23
			c-0.3,0.18-0.49,0.44-0.56,0.81l-1.32-0.11c0.14-0.7,0.49-1.23,1.04-1.56c0.48-0.3,1.13-0.44,1.93-0.44
			C50.07,301.4,50.77,301.64,51.22,302.12z M49.13,305.12c-1.22,0.02-1.82,0.45-1.82,1.26c0,0.25,0.1,0.45,0.31,0.62
			c0.2,0.16,0.48,0.25,0.82,0.25c0.56,0,1.04-0.18,1.44-0.52s0.62-0.77,0.62-1.27v-0.38L49.13,305.12z"/>
		<path class="st4" d="M54.95,299.23c0.18,0.16,0.26,0.38,0.26,0.64s-0.1,0.48-0.28,0.65c-0.18,0.16-0.4,0.25-0.65,0.25
			c-0.26,0-0.48-0.09-0.65-0.25c-0.18-0.18-0.26-0.4-0.26-0.65c0-0.26,0.09-0.48,0.26-0.64c0.18-0.18,0.39-0.25,0.65-0.25
			S54.77,299.05,54.95,299.23z M54.95,301.58v6.51h-1.33v-6.51H54.95z"/>
		<path class="st4" d="M62.46,304.07v4.02h-1.33v-3.9c0-1.11-0.51-1.66-1.52-1.66c-0.38,0-0.72,0.13-0.99,0.4
			c-0.3,0.3-0.49,0.72-0.54,1.25v3.92h-1.33v-6.51h1.33v0.81c0.25-0.33,0.54-0.57,0.87-0.73c0.33-0.18,0.69-0.25,1.09-0.25
			C61.64,301.4,62.46,302.28,62.46,304.07z"/>
		<path class="st4" d="M69.15,302.49c0.5,0.65,0.77,1.56,0.78,2.72h-4.92c0.05,0.63,0.21,1.12,0.52,1.46c0.3,0.33,0.72,0.5,1.24,0.5
			c0.46,0,0.84-0.11,1.13-0.33c0.23-0.18,0.41-0.47,0.59-0.84h1.33c-0.15,0.6-0.44,1.12-0.89,1.52c-0.56,0.49-1.28,0.74-2.15,0.74
			c-0.95,0-1.72-0.3-2.27-0.89c-0.6-0.63-0.9-1.47-0.9-2.54c0-0.97,0.28-1.78,0.85-2.43c0.55-0.67,1.32-0.99,2.27-0.99
			C67.79,301.4,68.6,301.76,69.15,302.49z M65.57,302.94c-0.28,0.29-0.46,0.71-0.54,1.26h3.5c-0.13-1.13-0.72-1.7-1.77-1.7
			C66.27,302.5,65.88,302.64,65.57,302.94z"/>
		<path class="st4" d="M74.92,301.57v1.33c-0.33-0.1-0.64-0.14-0.94-0.14c-0.4,0-0.77,0.16-1.08,0.49c-0.34,0.35-0.5,0.82-0.5,1.38
			v3.45h-1.33v-6.51h1.33v0.98c0.16-0.35,0.38-0.62,0.63-0.79c0.3-0.25,0.65-0.37,1.06-0.37C74.41,301.4,74.7,301.45,74.92,301.57z"
			/>
	</g>
</g>
<g id="middlegroup" transform="translate(0,0)">
	<g id="Link3" transform="translate(0,0)">
		<path class="st7" d="M402.5,59.25v25"/>
		<g transform="translate(0, 0.5)">
			<polygon class="st8" points="398,79.25 402.5,85.25 407,79.25 			"/>
		</g>
		<path class="st9" d="M402.5,59.25v25"/>
	</g>
</g>
<g id="RectEndPoint1" transform="translate(359,10)">
	<rect x="-3" y="1.75" class="st10" width="97" height="50"/>
	<rect x="-5" y="-0.25" class="st11" width="97" height="50"/>
	<g transform="translate(20 9)">
		<g class="st3">
			<path class="st4" d="M1.15,9.38v11.01h1.68V9.38h1.33v11.01h4.09v1.3H-4.24v-1.3h4.06V9.38H1.15z M-0.92,18.38l-1.22,0.31
				c-0.48-2.2-1.09-4.33-1.82-6.37l1.13-0.36C-2.11,13.83-1.48,15.97-0.92,18.38z M7.96,12.32c-0.53,2.41-1.22,4.51-2.06,6.32
				l-1.19-0.42c0.78-1.62,1.49-3.71,2.07-6.23L7.96,12.32z"/>
			<path class="st4" d="M15,9.4c-0.14,0.34-0.29,0.66-0.46,0.95h6v1.08c-0.84,0.97-1.86,1.81-3.05,2.51
				c1.5,0.56,3.17,0.94,5.01,1.11l-0.6,1.25c-2.17-0.25-4.13-0.79-5.87-1.61c-1.68,0.76-3.64,1.3-5.85,1.64l-0.62-1.25
				c1.88-0.24,3.56-0.63,5.01-1.18c-0.67-0.39-1.29-0.84-1.86-1.32c-0.48,0.41-1,0.78-1.57,1.13l-0.81-1.06
				c1.64-0.94,2.75-2.09,3.32-3.45L15,9.4z M16.31,15.54c0,0.5-0.04,0.98-0.11,1.43h4.83c-0.03,2.45-0.24,3.92-0.63,4.4
				s-1.09,0.73-2.07,0.73c-0.48,0-1.06-0.03-1.74-0.07l-0.34-1.2c0.73,0.03,1.32,0.06,1.76,0.08c0.71-0.01,1.16-0.17,1.34-0.45
				c0.18-0.29,0.29-1.06,0.34-2.3h-3.8c-0.13,0.34-0.27,0.66-0.43,0.95c-0.7,1.26-2.34,2.3-4.93,3.12l-0.88-1.08
				c2.28-0.67,3.78-1.48,4.48-2.45c0.11-0.18,0.22-0.36,0.31-0.55H10.5v-1.19h4.34c0.08-0.45,0.14-0.92,0.14-1.43h1.33V15.54z
				 M18.58,11.6h-4.92c-0.04,0.04-0.07,0.07-0.08,0.1c0.73,0.6,1.54,1.13,2.42,1.58C16.97,12.81,17.83,12.25,18.58,11.6z"/>
			<path class="st4" d="M26.82,14.78l-0.94,0.94c-0.53-0.64-1.27-1.33-2.23-2.07l0.95-0.92C25.49,13.41,26.24,14.1,26.82,14.78z
				 M26.92,16.95c-0.53,1.79-1.12,3.47-1.78,5.06l-1.22-0.55c0.7-1.61,1.32-3.26,1.82-4.96L26.92,16.95z M27.12,11.2l-0.94,0.94
				c-0.53-0.56-1.26-1.18-2.2-1.82l0.97-0.92C25.8,9.98,26.53,10.58,27.12,11.2z M29.51,15.78c-0.06,1.85-0.24,3.19-0.55,4.06
				c-0.34,0.9-0.91,1.67-1.69,2.34l-0.85-1.05c0.64-0.53,1.09-1.16,1.36-1.89c0.25-0.7,0.39-1.85,0.45-3.46
				C28.23,15.78,29.51,15.78,29.51,15.78z M27.47,14.18c0.11-0.04,0.21-0.08,0.27-0.11c0.49-0.29,1.11-1.06,1.86-2.3h-2.21v-1.19
				h3.74c-0.17-0.45-0.35-0.87-0.55-1.26l1.36-0.22c0.18,0.45,0.36,0.94,0.55,1.48h3.59v1.19h-5.1c-0.56,0.98-1.05,1.74-1.5,2.27
				c1.4-0.1,2.82-0.22,4.22-0.38c-0.27-0.35-0.53-0.7-0.81-1.05l1.08-0.66c0.97,1.15,1.71,2.16,2.21,3.03l-1.11,0.77
				c-0.2-0.34-0.41-0.69-0.63-1.02c-2.04,0.24-4.27,0.43-6.67,0.57L27.47,14.18z M31.85,15.78v6.14h-1.34v-6.14
				C30.51,15.78,31.85,15.78,31.85,15.78z M34.47,22.05c-0.95,0-1.42-0.42-1.42-1.23v-5.04h1.26v4.79c0,0.15,0.07,0.25,0.21,0.28
				h0.5c0.18-0.03,0.28-0.22,0.31-0.56c0.03-0.36,0.06-0.9,0.06-1.57l1.16,0.43c0,1.32-0.1,2.13-0.28,2.42
				c-0.18,0.28-0.57,0.43-1.19,0.48C35.08,22.05,34.47,22.05,34.47,22.05z"/>
			<path class="st4" d="M50.31,13.62v0.95H37.7v-0.95H50.31z M49,15.15v3.64h-4.36v0.62h4.64v0.85h-4.64v0.66h5.66v1.01H37.7v-1.01
				h5.63v-0.66h-4.58v-0.85h4.58v-0.62h-4.3v-3.64C39.03,15.15,49,15.15,49,15.15z M48.71,9.47v3.56h-9.37V9.47H48.71z M43.33,16.6
				v-0.67h-3.04v0.67H43.33z M43.33,17.33h-3.04V18h3.04V17.33z M47.44,10.87v-0.63h-6.82v0.63H47.44z M47.44,11.63h-6.82v0.64h6.82
				V11.63z M44.65,16.6h3.1v-0.67h-3.1V16.6z M47.74,17.33h-3.1V18h3.1V17.33z"/>
		</g>
	</g>
</g>
<g id="RectEndPoint2" transform="translate(376.5,90)">
	<rect x="-3" y="1.75" class="st10" width="62" height="50"/>
	<rect x="-5" y="-0.25" class="st11" width="62" height="50"/>
	<g transform="translate(20 9)">
		<g class="st3">
			<path class="st4" d="M-2.51,10.75v8.7H3v1.3h-7.02v-10H-2.51z"/>
			<path class="st4" d="M8.82,10.75c0.98,0,1.74,0.22,2.3,0.7c0.53,0.45,0.8,1.05,0.8,1.82c0,0.56-0.14,1.04-0.42,1.43
				c-0.28,0.36-0.66,0.64-1.16,0.83c0.66,0.13,1.16,0.39,1.5,0.8s0.5,0.95,0.5,1.62c0,1.01-0.35,1.74-1.04,2.21
				c-0.59,0.39-1.42,0.59-2.48,0.59H4.25v-10H8.82z M5.78,14.99h2.63c0.7,0,1.21-0.13,1.51-0.36c0.31-0.25,0.46-0.64,0.46-1.18
				c0-0.5-0.15-0.87-0.46-1.09c-0.31-0.24-0.81-0.35-1.48-0.35H5.78V14.99z M5.78,19.49h2.83c0.64,0,1.15-0.11,1.51-0.31
				c0.45-0.27,0.69-0.69,0.69-1.26c0-0.59-0.18-1.02-0.53-1.29c-0.35-0.27-0.9-0.39-1.62-0.39H5.78V19.49z"/>
		</g>
	</g>
</g>
<g id="RectEndPoint8" transform="translate(59,313)">
	<rect x="-28" y="21.75" class="st10" width="88.91" height="50"/>
	<rect x="-30" y="19.75" class="st11" width="88.91" height="50"/>
	<g transform="translate(20 9)">
		<g class="st3">
			<path class="st4" d="M-35.04,22.75v1.3h-3.33v8.7h-1.51v-8.7h-3.35v-1.3H-35.04z"/>
			<path class="st4" d="M-28.21,26.52c0.56,0.73,0.85,1.74,0.87,3.03h-5.49c0.06,0.7,0.24,1.25,0.57,1.62
				c0.34,0.36,0.8,0.56,1.39,0.56c0.52,0,0.94-0.13,1.26-0.36c0.25-0.2,0.46-0.52,0.66-0.94h1.48c-0.17,0.67-0.49,1.25-0.99,1.7
				c-0.63,0.55-1.43,0.83-2.4,0.83c-1.06,0-1.92-0.34-2.54-1c-0.67-0.7-1.01-1.64-1.01-2.83c0-1.08,0.31-1.98,0.95-2.7
				c0.62-0.74,1.47-1.11,2.54-1.11C-29.74,25.31-28.83,25.7-28.21,26.52z M-32.2,27.02c-0.31,0.32-0.52,0.79-0.6,1.4h3.91
				c-0.14-1.26-0.8-1.89-1.98-1.89C-31.43,26.53-31.87,26.68-32.2,27.02z"/>
			<path class="st4" d="M-19.71,28.28v4.47h-1.48v-4.34c0-1.23-0.57-1.85-1.69-1.85c-0.42,0-0.8,0.14-1.11,0.45
				c-0.34,0.34-0.55,0.8-0.6,1.39v4.36h-1.48v-7.24h1.48v0.9c0.28-0.36,0.6-0.63,0.97-0.81c0.36-0.2,0.77-0.28,1.22-0.28
				C-20.62,25.31-19.71,26.29-19.71,28.28z"/>
			<path class="st4" d="M-12.24,27.6h-1.44c-0.11-0.39-0.28-0.66-0.52-0.81c-0.25-0.17-0.64-0.25-1.15-0.25
				c-0.45,0-0.78,0.06-1.01,0.2c-0.27,0.14-0.39,0.36-0.39,0.64c0,0.25,0.2,0.46,0.59,0.64c0.25,0.11,0.73,0.25,1.46,0.43
				c0.83,0.2,1.44,0.43,1.83,0.69C-12.3,29.5-12,30.01-12,30.65c0,1.53-1.08,2.3-3.22,2.3c-1.99,0-3.05-0.85-3.22-2.54h1.46
				c0.08,0.49,0.27,0.84,0.52,1.04c0.25,0.18,0.64,0.28,1.2,0.28c1.15,0,1.74-0.34,1.74-0.98c0-0.35-0.22-0.63-0.64-0.83
				c-0.22-0.11-0.71-0.25-1.46-0.42c-0.85-0.2-1.46-0.41-1.79-0.63c-0.56-0.35-0.84-0.84-0.84-1.46c0-0.66,0.27-1.18,0.81-1.54
				c0.55-0.38,1.26-0.56,2.13-0.56C-13.44,25.31-12.4,26.07-12.24,27.6z"/>
			<path class="st4" d="M-4.77,26.4c0.64,0.71,0.98,1.62,0.98,2.73c0,1.09-0.32,2-0.97,2.7c-0.67,0.73-1.55,1.11-2.65,1.11
				s-1.98-0.38-2.65-1.11c-0.64-0.7-0.97-1.61-0.97-2.7c0-1.11,0.32-2.02,0.98-2.73c0.66-0.73,1.54-1.09,2.63-1.09
				S-5.43,25.68-4.77,26.4z M-9,27.34c-0.34,0.46-0.49,1.06-0.49,1.79s0.15,1.32,0.49,1.78c0.38,0.53,0.91,0.81,1.6,0.81
				s1.22-0.28,1.61-0.81c0.34-0.48,0.5-1.06,0.5-1.78c0-0.73-0.17-1.33-0.5-1.79c-0.39-0.55-0.92-0.81-1.61-0.81S-8.63,26.8-9,27.34
				z"/>
			<path class="st4" d="M1.92,25.49v1.48c-0.36-0.11-0.71-0.15-1.05-0.15c-0.45,0-0.85,0.18-1.2,0.55
				c-0.38,0.39-0.56,0.91-0.56,1.54v3.84h-1.48v-7.24h1.48v1.09c0.18-0.39,0.42-0.69,0.7-0.88c0.34-0.28,0.73-0.41,1.18-0.41
				C1.34,25.31,1.66,25.37,1.92,25.49z"/>
			<path class="st4" d="M9.76,22.75v1.3H4.49v2.91h4.97v1.3H4.49v4.48H2.96v-10h6.8V22.75z"/>
			<path class="st4" d="M12.61,22.55v10.2h-1.48v-10.2H12.61z"/>
			<path class="st4" d="M20.43,26.4c0.64,0.71,0.98,1.62,0.98,2.73c0,1.09-0.32,2-0.97,2.7c-0.67,0.73-1.55,1.11-2.65,1.11
				c-1.09,0-1.97-0.38-2.65-1.11c-0.64-0.7-0.97-1.61-0.97-2.7c0-1.11,0.32-2.02,0.98-2.73c0.66-0.73,1.54-1.09,2.63-1.09
				C18.88,25.31,19.77,25.68,20.43,26.4z M16.2,27.34c-0.34,0.46-0.49,1.06-0.49,1.79s0.15,1.32,0.49,1.78
				c0.38,0.53,0.91,0.81,1.6,0.81s1.22-0.28,1.61-0.81c0.34-0.48,0.5-1.06,0.5-1.78c0-0.73-0.17-1.33-0.5-1.79
				c-0.39-0.55-0.92-0.81-1.61-0.81S16.57,26.8,16.2,27.34z"/>
			<path class="st4" d="M23.68,25.51l1.53,5.48l1.49-5.48h1.37l1.48,5.48l1.53-5.48h1.64l-2.45,7.24H28.9l-1.51-5.42l-1.51,5.42
				H24.5l-2.45-7.24H23.68z"/>
			<path class="st4" d="M-8.76,39.32h5.04v1.29h-10.27v2.94c-0.04,3.11-0.49,5.59-1.36,7.45l-1.12-1c0.73-1.54,1.11-3.7,1.13-6.46
				v-4.23h5.08c-0.2-0.39-0.42-0.77-0.66-1.11l1.48-0.25C-9.2,38.37-8.97,38.82-8.76,39.32z M-8.13,49.16
				c0.83-1.96,1.54-4.36,2.16-7.19l1.32,0.35c-0.56,2.55-1.23,4.83-2.05,6.83h2.76v1.29h-9.97v-1.29L-8.13,49.16L-8.13,49.16z
				 M-10.68,47.77l-1.26,0.32c-0.36-1.76-0.83-3.45-1.39-5.07l1.15-0.36C-11.62,44.14-11.13,45.84-10.68,47.77z M-8.2,46.92
				l-1.26,0.31c-0.31-1.79-0.71-3.53-1.19-5.21l1.16-0.38C-9.02,43.18-8.58,44.94-8.2,46.92z"/>
			<path class="st4" d="M-1.46,50.89l-1.02-0.91c0.84-1.21,1.27-2.73,1.3-4.58v-6.86H9.56v10.55c0,1.05-0.55,1.58-1.61,1.58H6.34
				l-0.35-1.3c0.55,0.04,1.05,0.07,1.53,0.07c0.45,0,0.69-0.28,0.69-0.83v-2.09H4.73v3.99H3.39v-3.99H0.1
				C-0.07,48.29-0.59,49.75-1.46,50.89z M0.17,39.83v2.1h3.22v-2.1H0.17z M0.17,45.29h3.22v-2.14H0.17V45.29z M8.21,39.83H4.73v2.1
				H8.2v-2.1H8.21z M8.21,43.15H4.73v2.14H8.2v-2.14H8.21z"/>
		</g>
	</g>
</g>
<g id="RectEndPoint9" transform="translate(224,313)">
	<rect x="-95.06" y="21.75" class="st10" width="61.91" height="50"/>
	<rect x="-97.06" y="19.75" class="st11" width="61.91" height="50"/>
	<g transform="translate(20 9)">
		<g class="st3">
			<path class="st4" d="M-96.79,23.48c0.73,0.59,1.18,1.4,1.33,2.41h-1.48c-0.17-0.67-0.49-1.18-0.97-1.5s-1.06-0.48-1.79-0.48
				c-1.08,0-1.89,0.36-2.44,1.11c-0.52,0.67-0.77,1.6-0.77,2.76c0,1.2,0.25,2.13,0.76,2.79c0.53,0.7,1.36,1.05,2.48,1.05
				c0.73,0,1.34-0.18,1.82-0.55c0.5-0.39,0.85-0.98,1.05-1.76h1.48c-0.22,1.16-0.74,2.07-1.57,2.73c-0.77,0.62-1.69,0.92-2.77,0.92
				c-1.64,0-2.87-0.53-3.7-1.57c-0.73-0.9-1.08-2.1-1.08-3.61c0-1.49,0.36-2.69,1.12-3.63c0.84-1.06,2.05-1.58,3.64-1.58
				C-98.51,22.57-97.54,22.87-96.79,23.48z"/>
			<path class="st4" d="M-88.3,26.13c0.43,0.46,0.66,1.13,0.66,2.02v4.62h-1.37v-1.02c-0.28,0.36-0.63,0.66-1.05,0.87
				c-0.48,0.22-1.04,0.35-1.68,0.35c-0.76,0-1.34-0.2-1.77-0.57c-0.46-0.38-0.69-0.87-0.69-1.47c0-0.81,0.32-1.44,0.97-1.88
				c0.59-0.42,1.43-0.63,2.49-0.66l1.62-0.04v-0.29c0-1.01-0.55-1.51-1.64-1.51c-0.46,0-0.84,0.08-1.12,0.25
				c-0.34,0.2-0.55,0.49-0.63,0.9l-1.47-0.13c0.15-0.78,0.55-1.37,1.16-1.74c0.53-0.34,1.26-0.49,2.16-0.49
				C-89.59,25.33-88.81,25.6-88.3,26.13z M-90.64,29.46c-1.36,0.03-2.03,0.5-2.03,1.4c0,0.28,0.11,0.5,0.35,0.69
				c0.22,0.18,0.53,0.28,0.91,0.28c0.63,0,1.16-0.2,1.61-0.57s0.69-0.85,0.69-1.42v-0.42L-90.64,29.46z"/>
			<path class="st4" d="M-81.58,22.77v1.26h-1.3c-0.24,0-0.42,0.06-0.53,0.18c-0.11,0.11-0.17,0.31-0.17,0.57v0.74h2.93v-0.78
				c0-0.62,0.17-1.11,0.5-1.44c0.34-0.36,0.83-0.53,1.47-0.53h1.5v1.26h-1.3c-0.22,0-0.41,0.06-0.52,0.18
				c-0.11,0.11-0.17,0.31-0.17,0.57v0.74h1.89v1.22h-1.89v6.02h-1.48v-6.02h-2.93v6.02h-1.47v-6.02h-1.67v-1.22h1.67v-0.78
				c0-0.62,0.17-1.11,0.5-1.44c0.34-0.36,0.81-0.53,1.46-0.53C-83.09,22.77-81.58,22.77-81.58,22.77z"/>
			<path class="st4" d="M-70.51,26.54c0.56,0.73,0.85,1.74,0.87,3.03h-5.49c0.06,0.7,0.24,1.25,0.57,1.62
				c0.34,0.36,0.8,0.56,1.39,0.56c0.52,0,0.94-0.13,1.26-0.36c0.25-0.2,0.46-0.52,0.66-0.94h1.48c-0.17,0.67-0.49,1.25-0.99,1.7
				c-0.63,0.55-1.43,0.83-2.4,0.83c-1.06,0-1.92-0.34-2.54-1c-0.67-0.7-1.01-1.64-1.01-2.83c0-1.08,0.31-1.98,0.95-2.7
				c0.62-0.74,1.47-1.11,2.54-1.11C-72.04,25.33-71.13,25.72-70.51,26.54z M-74.5,27.04c-0.31,0.32-0.52,0.79-0.6,1.4h3.91
				c-0.14-1.26-0.8-1.89-1.97-1.89C-73.73,26.55-74.17,26.7-74.5,27.04z"/>
			<path class="st4" d="M-90.54,39.34h5.04v1.29h-10.27v2.94c-0.04,3.11-0.49,5.59-1.36,7.45l-1.12-1c0.73-1.54,1.11-3.7,1.13-6.46
				v-4.23h5.08c-0.2-0.39-0.42-0.77-0.66-1.11l1.48-0.25C-90.98,38.39-90.75,38.84-90.54,39.34z M-89.91,49.18
				c0.83-1.96,1.54-4.36,2.16-7.19l1.32,0.35c-0.56,2.55-1.23,4.83-2.05,6.83h2.76v1.29h-9.97v-1.29h5.78V49.18z M-92.46,47.79
				l-1.26,0.32c-0.36-1.76-0.83-3.45-1.39-5.07l1.15-0.36C-93.4,44.16-92.91,45.86-92.46,47.79z M-89.98,46.94l-1.26,0.31
				c-0.31-1.79-0.71-3.53-1.19-5.21l1.16-0.38C-90.8,43.2-90.36,44.96-89.98,46.94z"/>
			<path class="st4" d="M-83.24,50.91L-84.26,50c0.84-1.21,1.27-2.73,1.3-4.58v-6.86h10.74v10.55c0,1.05-0.55,1.58-1.61,1.58h-1.61
				l-0.35-1.3c0.55,0.04,1.05,0.07,1.53,0.07c0.45,0,0.69-0.28,0.69-0.83v-2.09h-3.47v3.99h-1.34v-3.99h-3.29
				C-81.85,48.31-82.37,49.77-83.24,50.91z M-81.61,39.85v2.1h3.22v-2.1H-81.61z M-81.61,45.31h3.22v-2.14h-3.22V45.31z
				 M-73.57,39.85h-3.47v2.1h3.47V39.85z M-73.57,43.17h-3.47v2.14h3.47V43.17z"/>
		</g>
	</g>
</g>
<g id="RectEndPoint10" transform="translate(59,379.5)">
	<rect x="-28" y="14.75" class="st10" width="159.91" height="49"/>
	<rect x="-30" y="12.75" class="st11" width="159.91" height="49"/>
	<g transform="translate(20 9)">
		<g class="st3">
			<path class="st4" d="M14.84,26.51l1.82,5.39l1.82-5.39h1.61l-2.69,7.24h-1.48l-2.69-7.24H14.84z"/>
			<path class="st4" d="M28.5,24.42c0.71,0.56,1.16,1.39,1.34,2.51H28.3c-0.14-0.67-0.45-1.18-0.92-1.51
				c-0.48-0.35-1.12-0.52-1.91-0.52c-0.97,0-1.74,0.32-2.31,0.99c-0.62,0.7-0.91,1.67-0.91,2.9c0,1.21,0.27,2.13,0.83,2.77
				c0.59,0.7,1.51,1.05,2.76,1.05c0.49,0,0.95-0.07,1.39-0.18c0.42-0.11,0.78-0.28,1.12-0.49v-2.17h-2.76v-1.3h4.29v4.2
				c-0.52,0.41-1.12,0.71-1.81,0.94c-0.73,0.22-1.53,0.34-2.4,0.34c-1.6,0-2.83-0.5-3.71-1.51c-0.83-0.94-1.23-2.16-1.23-3.64
				c0-1.5,0.41-2.73,1.23-3.7c0.87-1.04,2.04-1.54,3.52-1.54C26.74,23.55,27.75,23.83,28.5,24.42z"/>
			<path class="st4" d="M35.84,23.75c2.38,0,3.57,1.01,3.57,3.04c0,2.04-1.2,3.07-3.6,3.07h-2.59v3.89H31.7v-10H35.84z M33.22,28.55
				h2.49c0.76,0,1.3-0.14,1.65-0.42c0.34-0.28,0.52-0.73,0.52-1.34s-0.18-1.06-0.53-1.32c-0.35-0.28-0.9-0.42-1.64-0.42h-2.49
				C33.22,25.05,33.22,28.55,33.22,28.55z"/>
			<path class="st4" d="M42.35,23.75v6.22c0,0.9,0.2,1.55,0.62,1.99c0.42,0.43,1.08,0.66,1.99,0.66c0.9,0,1.56-0.22,1.98-0.66
				c0.41-0.43,0.62-1.09,0.62-1.99v-6.22h1.53v6.19c0,1.3-0.36,2.3-1.08,2.98c-0.71,0.67-1.72,1.02-3.04,1.02
				c-1.33,0-2.34-0.34-3.04-1.01c-0.73-0.7-1.09-1.7-1.09-3v-6.19L42.35,23.75L42.35,23.75z"/>
		</g>
	</g>
</g>
<rect x="218.45" y="296.5" class="st6" width="161.8" height="159.74"/>
<g transform="translate(10 10)">
	<g class="st3">
		<path class="st4" d="M226.99,299.74c0.65,0.53,1.06,1.26,1.19,2.17h-1.33c-0.15-0.6-0.44-1.06-0.87-1.35s-0.95-0.43-1.61-0.43
			c-0.97,0-1.7,0.33-2.19,0.99c-0.46,0.6-0.69,1.44-0.69,2.48c0,1.08,0.23,1.91,0.68,2.5c0.48,0.63,1.22,0.94,2.22,0.94
			c0.65,0,1.21-0.16,1.63-0.49c0.45-0.35,0.77-0.88,0.94-1.59h1.33c-0.2,1.04-0.67,1.86-1.41,2.45c-0.69,0.55-1.52,0.83-2.49,0.83
			c-1.47,0-2.57-0.48-3.32-1.41c-0.65-0.81-0.97-1.89-0.97-3.25c0-1.33,0.33-2.42,1-3.26c0.75-0.96,1.83-1.42,3.27-1.42
			C225.45,298.92,226.31,299.19,226.99,299.74z"/>
		<path class="st4" d="M234.92,302.39c0.58,0.64,0.88,1.46,0.88,2.45c0,0.98-0.29,1.8-0.87,2.43c-0.6,0.65-1.39,0.99-2.37,0.99
			s-1.77-0.34-2.37-0.99c-0.58-0.63-0.87-1.45-0.87-2.43c0-0.99,0.29-1.81,0.88-2.45c0.59-0.65,1.38-0.98,2.36-0.98
			S234.33,301.73,234.92,302.39z M231.13,303.23c-0.3,0.42-0.44,0.96-0.44,1.61s0.14,1.18,0.44,1.6c0.34,0.48,0.82,0.73,1.43,0.73
			s1.09-0.25,1.44-0.73c0.3-0.43,0.45-0.96,0.45-1.6c0-0.65-0.15-1.2-0.45-1.61c-0.35-0.49-0.83-0.73-1.44-0.73
			S231.47,302.74,231.13,303.23z"/>
		<path class="st4" d="M242.78,304.07v4.02h-1.33v-3.9c0-1.11-0.52-1.66-1.52-1.66c-0.38,0-0.72,0.13-0.99,0.4
			c-0.3,0.3-0.49,0.72-0.54,1.25v3.92h-1.33v-6.51h1.33v0.81c0.25-0.33,0.54-0.57,0.87-0.73c0.33-0.18,0.69-0.25,1.09-0.25
			C241.97,301.4,242.78,302.28,242.78,304.07z"/>
		<path class="st4" d="M246.28,301.58h1.48v1.11h-1.48v3.78c0,0.18,0.04,0.3,0.11,0.39c0.08,0.08,0.19,0.13,0.35,0.13h0.85v1.11
			h-1.07c-0.55,0-0.97-0.15-1.22-0.44c-0.25-0.28-0.36-0.67-0.36-1.18v-3.78h-1.21v-1.11h1.21v-1.55l1.33-0.55L246.28,301.58
			L246.28,301.58z"/>
		<path class="st4" d="M253.87,302.12c0.39,0.42,0.59,1.02,0.59,1.81v4.15h-1.23v-0.92c-0.25,0.33-0.57,0.59-0.94,0.78
			c-0.43,0.2-0.93,0.31-1.51,0.31c-0.68,0-1.21-0.18-1.58-0.52c-0.41-0.34-0.62-0.78-0.62-1.32c0-0.73,0.29-1.3,0.87-1.69
			c0.53-0.38,1.28-0.57,2.24-0.59l1.46-0.04v-0.26c0-0.91-0.49-1.36-1.47-1.36c-0.41,0-0.75,0.08-1,0.23
			c-0.3,0.18-0.49,0.44-0.56,0.81l-1.32-0.11c0.14-0.7,0.49-1.23,1.04-1.56c0.48-0.3,1.13-0.44,1.93-0.44
			C252.71,301.4,253.41,301.64,253.87,302.12z M251.77,305.12c-1.22,0.02-1.82,0.45-1.82,1.26c0,0.25,0.1,0.45,0.31,0.62
			c0.2,0.16,0.48,0.25,0.82,0.25c0.56,0,1.04-0.18,1.44-0.52s0.62-0.77,0.62-1.27v-0.38L251.77,305.12z"/>
		<path class="st4" d="M257.59,299.23c0.18,0.16,0.26,0.38,0.26,0.64s-0.1,0.48-0.28,0.65c-0.18,0.16-0.4,0.25-0.65,0.25
			c-0.26,0-0.48-0.09-0.65-0.25c-0.18-0.18-0.26-0.4-0.26-0.65c0-0.26,0.09-0.48,0.26-0.64c0.18-0.18,0.39-0.25,0.65-0.25
			S257.41,299.05,257.59,299.23z M257.59,301.58v6.51h-1.33v-6.51H257.59z"/>
		<path class="st4" d="M265.1,304.07v4.02h-1.33v-3.9c0-1.11-0.52-1.66-1.52-1.66c-0.38,0-0.72,0.13-0.99,0.4
			c-0.3,0.3-0.49,0.72-0.54,1.25v3.92h-1.33v-6.51h1.33v0.81c0.25-0.33,0.54-0.57,0.87-0.73c0.33-0.18,0.69-0.25,1.09-0.25
			C264.28,301.4,265.1,302.28,265.1,304.07z"/>
		<path class="st4" d="M271.8,302.49c0.5,0.65,0.77,1.56,0.78,2.72h-4.92c0.05,0.63,0.21,1.12,0.52,1.46c0.3,0.33,0.72,0.5,1.24,0.5
			c0.46,0,0.84-0.11,1.13-0.33c0.23-0.18,0.41-0.47,0.59-0.84h1.33c-0.15,0.6-0.44,1.12-0.89,1.52c-0.56,0.49-1.28,0.74-2.15,0.74
			c-0.95,0-1.72-0.3-2.27-0.89c-0.6-0.63-0.9-1.47-0.9-2.54c0-0.97,0.28-1.78,0.85-2.43c0.55-0.67,1.32-0.99,2.27-0.99
			C270.43,301.4,271.24,301.76,271.8,302.49z M268.22,302.94c-0.28,0.29-0.46,0.71-0.54,1.26h3.5c-0.13-1.13-0.72-1.7-1.77-1.7
			C268.91,302.5,268.52,302.64,268.22,302.94z"/>
		<path class="st4" d="M277.57,301.57v1.33c-0.33-0.1-0.64-0.14-0.94-0.14c-0.4,0-0.77,0.16-1.08,0.49c-0.34,0.35-0.5,0.82-0.5,1.38
			v3.45h-1.33v-6.51h1.33v0.98c0.16-0.35,0.38-0.62,0.63-0.79c0.3-0.25,0.65-0.37,1.06-0.37
			C277.05,301.4,277.34,301.45,277.57,301.57z"/>
	</g>
</g>
<g id="RectEndPoint8_1_" transform="translate(59,313)">
	<rect x="172.5" y="21.75" class="st10" width="68.91" height="50"/>
	<rect x="170.5" y="19.75" class="st11" width="68.91" height="50"/>
	<g transform="translate(20 9)">
		<g class="st3">
			<path class="st4" d="M163.42,22.75c2.38,0,3.57,1.01,3.57,3.04c0,2.04-1.2,3.07-3.6,3.07h-2.59v3.89h-1.53v-10H163.42z
				 M160.8,27.55h2.49c0.76,0,1.3-0.14,1.65-0.42c0.34-0.28,0.52-0.73,0.52-1.34s-0.18-1.06-0.53-1.32
				c-0.35-0.28-0.9-0.42-1.64-0.42h-2.49V27.55z"/>
			<path class="st4" d="M169.1,25.51l1.99,5.28l1.91-5.28h1.62l-3.94,10.02h-1.58l1.26-2.94l-2.87-7.07h1.61V25.51z"/>
			<path class="st4" d="M183.09,22.75v1.3h-3.33v8.7h-1.51v-8.7h-3.35v-1.3H183.09z"/>
			<path class="st4" d="M190.12,26.4c0.64,0.71,0.98,1.62,0.98,2.73c0,1.09-0.32,2-0.97,2.7c-0.67,0.73-1.56,1.11-2.65,1.11
				s-1.98-0.38-2.65-1.11c-0.64-0.7-0.97-1.61-0.97-2.7c0-1.11,0.32-2.02,0.98-2.73c0.66-0.73,1.54-1.09,2.63-1.09
				C188.58,25.31,189.46,25.68,190.12,26.4z M185.89,27.34c-0.34,0.46-0.49,1.06-0.49,1.79s0.15,1.32,0.49,1.78
				c0.38,0.53,0.91,0.81,1.6,0.81s1.22-0.28,1.61-0.81c0.34-0.48,0.5-1.06,0.5-1.78c0-0.73-0.17-1.33-0.5-1.79
				c-0.39-0.55-0.92-0.81-1.61-0.81S186.27,26.8,185.89,27.34z"/>
			<path class="st4" d="M196.81,25.49v1.48c-0.36-0.11-0.71-0.15-1.05-0.15c-0.45,0-0.85,0.18-1.2,0.55
				c-0.38,0.39-0.56,0.91-0.56,1.54v3.84h-1.48v-7.24H194v1.09c0.18-0.39,0.42-0.69,0.7-0.88c0.34-0.28,0.73-0.41,1.18-0.41
				C196.24,25.31,196.56,25.37,196.81,25.49z"/>
			<path class="st4" d="M203.17,25.94c0.56,0.45,0.92,1.12,1.06,2.02h-1.47c-0.1-0.49-0.29-0.85-0.6-1.08
				c-0.31-0.24-0.71-0.35-1.22-0.35c-0.62,0-1.09,0.22-1.44,0.69c-0.36,0.45-0.53,1.09-0.53,1.91s0.17,1.46,0.52,1.92
				c0.32,0.45,0.8,0.69,1.44,0.69c1.11,0,1.72-0.56,1.86-1.65h1.47c-0.17,0.97-0.55,1.7-1.11,2.17c-0.56,0.46-1.32,0.7-2.24,0.7
				c-1.11,0-1.96-0.36-2.58-1.09c-0.6-0.7-0.9-1.6-0.9-2.72c0-1.09,0.29-1.99,0.88-2.69c0.63-0.76,1.5-1.13,2.62-1.13
				C201.86,25.31,202.61,25.52,203.17,25.94z"/>
			<path class="st4" d="M207.01,22.55v3.98c0.27-0.42,0.6-0.74,1.01-0.94c0.36-0.2,0.77-0.28,1.23-0.28c0.87,0,1.53,0.25,1.98,0.77
				c0.42,0.49,0.63,1.22,0.63,2.17v4.5h-1.48v-4.24c0-0.64-0.14-1.12-0.39-1.46c-0.28-0.35-0.71-0.52-1.27-0.52
				c-0.5,0-0.91,0.2-1.22,0.6c-0.32,0.41-0.48,0.92-0.48,1.55v4.06h-1.48v-10.2h1.47V22.55z"/>
			<path class="st4" d="M179.73,39.32h5.04v1.29H174.5v2.94c-0.04,3.11-0.49,5.59-1.36,7.45l-1.12-1c0.73-1.54,1.11-3.7,1.13-6.46
				v-4.23h5.08c-0.2-0.39-0.42-0.77-0.66-1.11l1.48-0.25C179.3,38.37,179.52,38.82,179.73,39.32z M180.36,49.16
				c0.83-1.96,1.54-4.36,2.16-7.19l1.32,0.35c-0.56,2.55-1.23,4.83-2.05,6.83h2.76v1.29h-9.97v-1.29L180.36,49.16L180.36,49.16z
				 M177.81,47.77l-1.26,0.32c-0.36-1.76-0.83-3.45-1.39-5.07l1.15-0.36C176.88,44.14,177.37,45.84,177.81,47.77z M180.29,46.92
				l-1.26,0.31c-0.31-1.79-0.71-3.53-1.19-5.21l1.16-0.38C179.48,43.18,179.91,44.94,180.29,46.92z"/>
			<path class="st4" d="M187.04,50.89l-1.02-0.91c0.84-1.21,1.27-2.73,1.3-4.58v-6.86h10.74v10.55c0,1.05-0.55,1.58-1.61,1.58h-1.61
				l-0.35-1.3c0.55,0.04,1.05,0.07,1.53,0.07c0.45,0,0.69-0.28,0.69-0.83v-2.09h-3.47v3.99h-1.34v-3.99h-3.29
				C188.42,48.29,187.91,49.75,187.04,50.89z M188.66,39.83v2.1h3.22v-2.1H188.66z M188.66,45.29h3.22v-2.14h-3.22V45.29z
				 M196.7,39.83h-3.47v2.1h3.47V39.83z M196.7,43.15h-3.47v2.14h3.47V43.15z"/>
		</g>
	</g>
</g>
<g id="RectEndPoint9_1_" transform="translate(224,313)">
	<rect x="86.44" y="21.75" class="st10" width="58.91" height="50"/>
	<rect x="84.44" y="19.75" class="st11" width="58.91" height="50"/>
	<g transform="translate(20 9)">
		<g class="st3">
			<path class="st4" d="M83.08,22.48c0.73,0.59,1.18,1.4,1.33,2.41h-1.48c-0.17-0.67-0.49-1.18-0.97-1.5s-1.06-0.48-1.79-0.48
				c-1.08,0-1.89,0.36-2.44,1.11c-0.52,0.67-0.77,1.6-0.77,2.76c0,1.2,0.25,2.13,0.76,2.79c0.53,0.7,1.36,1.05,2.48,1.05
				c0.73,0,1.34-0.18,1.82-0.55c0.5-0.39,0.85-0.98,1.05-1.76h1.48c-0.22,1.16-0.74,2.07-1.57,2.73c-0.77,0.62-1.69,0.92-2.77,0.92
				c-1.64,0-2.87-0.53-3.7-1.57c-0.73-0.9-1.08-2.1-1.08-3.61c0-1.49,0.36-2.69,1.12-3.63c0.84-1.06,2.04-1.58,3.64-1.58
				C81.36,21.57,82.33,21.87,83.08,22.48z"/>
			<path class="st4" d="M87.63,21.77l5.11,7.44h0.06v-7.44h1.53v10h-1.48l-5.17-7.52h-0.06v7.52h-1.53v-10H87.63z"/>
			<path class="st4" d="M103.72,21.77v1.3h-3.33v8.7h-1.51v-8.7h-3.35v-1.3H103.72z"/>
			<path class="st4" d="M113.21,21.77l-4.43,4.3l5.07,5.7h-2.04l-4.06-4.71l-1.3,1.25v3.46h-1.53v-10h1.53v4.83l4.83-4.83H113.21z"
				/>
			<path class="st4" d="M88.6,38.35h5.04v1.29H83.38v2.94c-0.04,3.11-0.49,5.59-1.36,7.45l-1.12-1c0.73-1.54,1.11-3.7,1.13-6.46
				v-4.23h5.08c-0.2-0.39-0.42-0.77-0.66-1.11l1.48-0.25C88.17,37.39,88.39,37.84,88.6,38.35z M89.23,48.18
				c0.83-1.96,1.54-4.36,2.16-7.19l1.32,0.35c-0.56,2.55-1.23,4.83-2.05,6.83h2.76v1.29h-9.97v-1.29h5.78V48.18z M86.68,46.79
				l-1.26,0.32c-0.36-1.76-0.83-3.45-1.39-5.07l1.15-0.36C85.74,43.16,86.23,44.86,86.68,46.79z M89.16,45.94l-1.26,0.31
				c-0.31-1.79-0.71-3.53-1.19-5.21l1.16-0.38C88.35,42.2,88.78,43.96,89.16,45.94z"/>
			<path class="st4" d="M95.9,49.92l-1.02-0.91c0.84-1.21,1.27-2.73,1.3-4.58v-6.86h10.74v10.55c0,1.05-0.55,1.58-1.61,1.58h-1.61
				l-0.35-1.3c0.55,0.04,1.05,0.07,1.53,0.07c0.45,0,0.69-0.28,0.69-0.83v-2.09h-3.47v3.99h-1.34v-3.99h-3.29
				C97.29,47.31,96.77,48.77,95.9,49.92z M97.53,38.85v2.1h3.22v-2.1H97.53z M97.53,44.31h3.22v-2.14h-3.22V44.31z M105.57,38.85
				h-3.47v2.1h3.47V38.85z M105.57,42.17h-3.47v2.14h3.47V42.17z"/>
		</g>
	</g>
</g>
<g id="RectEndPoint10_1_" transform="translate(59,379.5)">
	<rect x="172.5" y="14.75" class="st10" width="136.91" height="49"/>
	<rect x="170.5" y="12.75" class="st11" width="136.91" height="49"/>
	<g transform="translate(20 9)">
		<g class="st3">
			<path class="st4" d="M204.35,26.51l1.82,5.39l1.82-5.39h1.61l-2.69,7.24h-1.48l-2.69-7.24H204.35z"/>
			<path class="st4" d="M218.01,24.42c0.71,0.56,1.16,1.39,1.34,2.51h-1.54c-0.14-0.67-0.45-1.18-0.92-1.51
				c-0.48-0.35-1.12-0.52-1.91-0.52c-0.97,0-1.74,0.32-2.31,0.99c-0.62,0.7-0.91,1.67-0.91,2.9c0,1.21,0.27,2.13,0.83,2.77
				c0.59,0.7,1.51,1.05,2.76,1.05c0.49,0,0.95-0.07,1.39-0.18c0.42-0.11,0.78-0.28,1.12-0.49v-2.17h-2.76v-1.3h4.29v4.2
				c-0.52,0.41-1.12,0.71-1.81,0.94c-0.73,0.22-1.53,0.34-2.4,0.34c-1.6,0-2.83-0.5-3.71-1.51c-0.83-0.94-1.23-2.16-1.23-3.64
				c0-1.5,0.41-2.73,1.23-3.7c0.87-1.04,2.04-1.54,3.52-1.54C216.26,23.55,217.26,23.83,218.01,24.42z"/>
			<path class="st4" d="M225.35,23.75c2.38,0,3.57,1.01,3.57,3.04c0,2.04-1.2,3.07-3.6,3.07h-2.59v3.89h-1.53v-10H225.35z
				 M222.74,28.55h2.49c0.76,0,1.3-0.14,1.65-0.42c0.34-0.28,0.52-0.73,0.52-1.34s-0.18-1.06-0.53-1.32
				c-0.35-0.28-0.9-0.42-1.64-0.42h-2.49V28.55z"/>
			<path class="st4" d="M231.86,23.75v6.22c0,0.9,0.2,1.55,0.62,1.99c0.42,0.43,1.08,0.66,1.99,0.66c0.9,0,1.56-0.22,1.98-0.66
				c0.41-0.43,0.62-1.09,0.62-1.99v-6.22h1.53v6.19c0,1.3-0.36,2.3-1.08,2.98c-0.71,0.67-1.72,1.02-3.04,1.02
				c-1.33,0-2.34-0.34-3.04-1.01c-0.73-0.7-1.09-1.7-1.09-3v-6.19L231.86,23.75L231.86,23.75z"/>
		</g>
	</g>
</g>
<g id="RectEndPoint12" transform="translate(45.90625,462.5)">
	<rect x="-27" y="17.75" class="st10" width="356.38" height="49"/>
	<rect x="-29" y="15.75" class="st11" width="356.38" height="49"/>
	<g transform="translate(20 9)">
		<g class="st3">
			<path class="st4" d="M82.17,26.75c1.61,0,2.83,0.45,3.67,1.36c0.78,0.84,1.18,2.06,1.18,3.64c0,1.57-0.41,2.79-1.2,3.66
				c-0.84,0.9-2.06,1.34-3.67,1.34h-3.61v-10H82.17z M80.05,35.45h1.81c1.26,0,2.2-0.31,2.79-0.91c0.57-0.6,0.87-1.53,0.87-2.79
				c0-1.29-0.29-2.21-0.85-2.8c-0.59-0.6-1.51-0.9-2.77-0.9h-1.83v7.4H80.05z"/>
			<path class="st4" d="M94.39,30.4c0.64,0.71,0.98,1.62,0.98,2.73c0,1.09-0.32,2-0.97,2.7c-0.67,0.73-1.55,1.11-2.65,1.11
				c-1.09,0-1.97-0.38-2.65-1.11c-0.64-0.7-0.97-1.61-0.97-2.7c0-1.11,0.32-2.02,0.98-2.73c0.66-0.73,1.54-1.09,2.63-1.09
				C92.85,29.31,93.73,29.68,94.39,30.4z M90.16,31.34c-0.34,0.46-0.49,1.06-0.49,1.79s0.15,1.32,0.49,1.78
				c0.38,0.53,0.91,0.81,1.6,0.81c0.69,0,1.22-0.28,1.61-0.81c0.34-0.48,0.5-1.06,0.5-1.78c0-0.73-0.17-1.33-0.5-1.79
				c-0.39-0.55-0.92-0.81-1.61-0.81S90.54,30.8,90.16,31.34z"/>
			<path class="st4" d="M102.23,29.94c0.56,0.45,0.92,1.12,1.06,2.02h-1.47c-0.1-0.49-0.29-0.85-0.6-1.08
				c-0.31-0.24-0.71-0.35-1.22-0.35c-0.62,0-1.09,0.22-1.44,0.69c-0.36,0.45-0.53,1.09-0.53,1.91s0.17,1.46,0.52,1.92
				c0.32,0.45,0.8,0.69,1.44,0.69c1.11,0,1.72-0.56,1.86-1.65h1.47c-0.17,0.97-0.55,1.7-1.11,2.17c-0.56,0.46-1.32,0.7-2.24,0.7
				c-1.11,0-1.96-0.36-2.58-1.09c-0.6-0.7-0.9-1.6-0.9-2.72c0-1.09,0.29-1.99,0.88-2.69c0.63-0.76,1.5-1.13,2.62-1.13
				C100.93,29.31,101.67,29.52,102.23,29.94z"/>
			<path class="st4" d="M106.08,26.55v5.94l3.14-2.98h1.92l-3.21,2.98l3.49,4.26h-1.91l-2.61-3.31l-0.83,0.77v2.54h-1.48v-10.2
				H106.08z"/>
			<path class="st4" d="M118.02,30.52c0.56,0.73,0.85,1.74,0.87,3.03h-5.49c0.06,0.7,0.24,1.25,0.57,1.62
				c0.34,0.36,0.8,0.56,1.39,0.56c0.52,0,0.94-0.13,1.26-0.36c0.25-0.2,0.46-0.52,0.66-0.94h1.48c-0.17,0.67-0.49,1.25-0.99,1.7
				c-0.63,0.55-1.43,0.83-2.4,0.83c-1.06,0-1.92-0.34-2.54-1c-0.67-0.7-1.01-1.64-1.01-2.83c0-1.08,0.31-1.98,0.95-2.7
				c0.62-0.74,1.47-1.11,2.54-1.11C116.49,29.31,117.4,29.7,118.02,30.52z M114.03,31.02c-0.31,0.32-0.52,0.79-0.6,1.4h3.91
				c-0.14-1.26-0.8-1.89-1.97-1.89C114.8,30.53,114.37,30.68,114.03,31.02z"/>
			<path class="st4" d="M124.45,29.49v1.48c-0.36-0.11-0.71-0.15-1.05-0.15c-0.45,0-0.85,0.18-1.2,0.55
				c-0.38,0.39-0.56,0.91-0.56,1.54v3.84h-1.48v-7.24h1.48v1.09c0.18-0.39,0.42-0.69,0.7-0.88c0.34-0.28,0.73-0.41,1.18-0.41
				C123.87,29.31,124.19,29.37,124.45,29.49z"/>
			<path class="st4" d="M137.34,26.75v1.3h-5.66v2.91H137v1.3h-5.32v3.18h5.9v1.3h-7.42v-10h7.18V26.75z"/>
			<path class="st4" d="M145.36,32.28v4.47h-1.48v-4.34c0-1.23-0.58-1.85-1.7-1.85c-0.42,0-0.8,0.14-1.11,0.45
				c-0.34,0.34-0.55,0.8-0.6,1.39v4.36h-1.48v-7.24h1.48v0.9c0.28-0.36,0.6-0.63,0.97-0.81c0.36-0.2,0.77-0.28,1.22-0.28
				C144.45,29.31,145.36,30.29,145.36,32.28z"/>
			<path class="st4" d="M152.28,30.48v-0.97h1.48v6.77c0,2.3-1.13,3.45-3.38,3.45c-1.01,0-1.78-0.2-2.31-0.57
				c-0.53-0.39-0.85-0.98-1-1.78h1.49c0.08,0.42,0.25,0.73,0.53,0.91c0.27,0.17,0.7,0.27,1.29,0.27c1.26,0,1.89-0.69,1.89-2.04V35.4
				c-0.53,0.8-1.26,1.21-2.21,1.21c-0.98,0-1.78-0.34-2.38-1c-0.62-0.66-0.91-1.53-0.91-2.62s0.29-1.96,0.91-2.63
				c0.6-0.69,1.4-1.02,2.38-1.02C151.02,29.31,151.75,29.69,152.28,30.48z M148.83,31.18c-0.36,0.42-0.53,1.02-0.53,1.79
				c0,0.7,0.14,1.26,0.42,1.67c0.32,0.48,0.84,0.73,1.57,0.73c0.63,0,1.12-0.21,1.48-0.63c0.34-0.43,0.52-1.02,0.52-1.76
				c0-0.76-0.18-1.36-0.52-1.79c-0.36-0.45-0.85-0.66-1.48-0.66S149.17,30.73,148.83,31.18z"/>
			<path class="st4" d="M157.23,26.89c0.2,0.18,0.29,0.42,0.29,0.71c0,0.29-0.11,0.53-0.31,0.73c-0.2,0.18-0.45,0.28-0.73,0.28
				c-0.29,0-0.53-0.1-0.73-0.28c-0.2-0.2-0.29-0.45-0.29-0.73c0-0.29,0.1-0.53,0.29-0.71c0.2-0.2,0.43-0.28,0.73-0.28
				C156.78,26.61,157.04,26.69,157.23,26.89z M157.23,29.51v7.24h-1.49v-7.24H157.23z"/>
			<path class="st4" d="M165.61,32.28v4.47h-1.48v-4.34c0-1.23-0.57-1.85-1.7-1.85c-0.42,0-0.8,0.14-1.11,0.45
				c-0.34,0.34-0.55,0.8-0.6,1.39v4.36h-1.48v-7.24h1.48v0.9c0.28-0.36,0.6-0.63,0.97-0.81c0.36-0.2,0.77-0.28,1.22-0.28
				C164.7,29.31,165.61,30.29,165.61,32.28z"/>
			<path class="st4" d="M173.07,30.52c0.56,0.73,0.85,1.74,0.87,3.03h-5.49c0.06,0.7,0.24,1.25,0.57,1.62
				c0.34,0.36,0.8,0.56,1.39,0.56c0.52,0,0.94-0.13,1.26-0.36c0.25-0.2,0.46-0.52,0.66-0.94h1.48c-0.17,0.67-0.49,1.25-0.99,1.7
				c-0.63,0.55-1.43,0.83-2.4,0.83c-1.06,0-1.92-0.34-2.54-1c-0.67-0.7-1.01-1.64-1.01-2.83c0-1.08,0.31-1.98,0.95-2.7
				c0.62-0.74,1.47-1.11,2.54-1.11C171.54,29.31,172.45,29.7,173.07,30.52z M169.08,31.02c-0.31,0.32-0.52,0.79-0.6,1.4h3.91
				c-0.14-1.26-0.8-1.89-1.97-1.89C169.85,30.53,169.41,30.68,169.08,31.02z"/>
		</g>
	</g>
</g>
<g id="RectEndPoint13" transform="translate(45.90625,521)">
	<rect x="-27" y="19.75" class="st10" width="356.47" height="50"/>
	<rect x="-29" y="17.75" class="st11" width="356.47" height="50"/>
	<g transform="translate(20 9)">
		<g class="st3">
			<path class="st4" d="M119.34,29.42c0.71,0.56,1.16,1.39,1.34,2.51h-1.54c-0.14-0.67-0.45-1.18-0.92-1.51
				c-0.48-0.35-1.12-0.52-1.9-0.52c-0.97,0-1.74,0.32-2.31,0.99c-0.62,0.7-0.91,1.67-0.91,2.9c0,1.21,0.27,2.13,0.83,2.77
				c0.59,0.7,1.51,1.05,2.76,1.05c0.49,0,0.95-0.07,1.39-0.18c0.42-0.11,0.78-0.28,1.12-0.49v-2.17h-2.76v-1.3h4.29v4.2
				c-0.52,0.41-1.12,0.71-1.81,0.94c-0.73,0.22-1.53,0.34-2.4,0.34c-1.6,0-2.83-0.5-3.71-1.51c-0.83-0.94-1.23-2.16-1.23-3.64
				c0-1.5,0.41-2.73,1.23-3.7c0.87-1.04,2.04-1.54,3.52-1.54C117.59,28.55,118.6,28.83,119.34,29.42z"/>
			<path class="st4" d="M126.69,28.75c2.38,0,3.57,1.01,3.57,3.04c0,2.04-1.2,3.07-3.6,3.07h-2.59v3.89h-1.53v-10H126.69z
				 M124.07,33.55h2.49c0.76,0,1.3-0.14,1.65-0.42c0.34-0.28,0.52-0.73,0.52-1.34s-0.18-1.06-0.53-1.32
				c-0.35-0.28-0.9-0.42-1.64-0.42h-2.49V33.55z"/>
			<path class="st4" d="M133.2,28.75v6.22c0,0.9,0.2,1.55,0.62,1.99c0.42,0.43,1.08,0.66,1.99,0.66c0.9,0,1.56-0.22,1.98-0.66
				c0.41-0.43,0.62-1.09,0.62-1.99v-6.22h1.53v6.19c0,1.3-0.36,2.3-1.08,2.98c-0.71,0.67-1.72,1.02-3.04,1.02
				c-1.33,0-2.34-0.34-3.04-1.01c-0.73-0.7-1.09-1.7-1.09-3v-6.19L133.2,28.75L133.2,28.75z"/>
		</g>
	</g>
</g>
<path class="st2" d="M436.28,248.75h376v356h-376L436.28,248.75"/>
<g transform="translate(10 10)">
	<g class="st3">
		<path class="st4" d="M443.04,252.72c0.7,0.53,1.14,1.32,1.32,2.38h-1.52c-0.14-0.64-0.44-1.12-0.91-1.44
			c-0.47-0.33-1.1-0.49-1.87-0.49c-0.95,0-1.71,0.31-2.27,0.95c-0.61,0.67-0.9,1.59-0.9,2.76c0,1.15,0.26,2.02,0.81,2.64
			c0.58,0.67,1.49,1,2.71,1c0.48,0,0.94-0.07,1.36-0.17c0.41-0.11,0.77-0.27,1.1-0.47v-2.06h-2.71v-1.24h4.22v4
			c-0.51,0.39-1.1,0.68-1.78,0.89c-0.72,0.21-1.5,0.32-2.36,0.32c-1.57,0-2.78-0.48-3.65-1.44c-0.81-0.89-1.21-2.05-1.21-3.46
			c0-1.43,0.4-2.6,1.21-3.52c0.85-0.99,2.01-1.47,3.46-1.47C441.32,251.9,442.31,252.16,443.04,252.72z"/>
		<path class="st4" d="M450.28,252.08c2.34,0,3.51,0.96,3.51,2.89c0,1.94-1.18,2.92-3.54,2.92h-2.55v3.7h-1.5v-9.51L450.28,252.08
			L450.28,252.08z M447.71,256.65h2.45c0.74,0,1.28-0.13,1.63-0.4c0.33-0.27,0.51-0.69,0.51-1.28s-0.18-1.01-0.52-1.25
			c-0.34-0.27-0.88-0.4-1.61-0.4h-2.45v3.33H447.71z"/>
		<path class="st4" d="M456.69,252.08V258c0,0.85,0.19,1.48,0.61,1.89s1.06,0.63,1.96,0.63c0.88,0,1.53-0.21,1.94-0.63
			c0.4-0.41,0.61-1.04,0.61-1.89v-5.91h1.5v5.89c0,1.24-0.36,2.18-1.06,2.84c-0.7,0.64-1.69,0.97-2.99,0.97
			c-1.31,0-2.3-0.32-2.99-0.96c-0.72-0.67-1.08-1.61-1.08-2.85v-5.89h1.5V252.08z"/>
		<path class="st4" d="M465.9,262.99l-0.99-0.87c0.55-1.16,0.83-2.64,0.84-4.44v-6.54h4.29v10.42c0,0.91-0.43,1.36-1.27,1.36h-1.1
			l-0.32-1.12c0.39,0.04,0.73,0.07,1.06,0.07c0.29,0,0.44-0.24,0.44-0.72v-2.66h-1.96C466.79,260.3,466.46,261.81,465.9,262.99z
			 M468.85,252.3h-1.93v1.97h1.93V252.3z M466.92,257.35h1.93v-1.94h-1.93V257.35z M472.2,262.98h-1.23v-11.83h5.8
			c0,1.73-0.08,2.88-0.25,3.45c-0.17,0.56-0.69,0.84-1.57,0.84h-1.16l-0.34-1.07c0.22,0,0.52,0.01,0.91,0.01
			c0.29,0,0.51-0.03,0.65-0.07c0.14-0.04,0.25-0.16,0.33-0.35c0.08-0.23,0.14-0.79,0.17-1.68h-3.31v3.76h4.66v1.07
			c-0.25,1.31-0.66,2.42-1.24,3.34c0.57,0.52,1.23,0.99,1.97,1.41l-0.65,1.07c-0.79-0.45-1.47-0.96-2.05-1.5
			c-0.56,0.61-1.24,1.12-2.01,1.52l-0.68-0.99V262.98z M472.2,261.93c0.72-0.37,1.32-0.85,1.83-1.41c-0.8-0.99-1.35-2.1-1.65-3.34
			h-0.18V261.93z M474.74,259.53c0.41-0.69,0.73-1.48,0.95-2.36h-2.21C473.77,258.04,474.18,258.82,474.74,259.53z"/>
		<path class="st4" d="M483.95,250.81c-0.14,0.32-0.29,0.63-0.46,0.91h5.9v1.03c-0.83,0.92-1.83,1.72-3,2.38
			c1.47,0.53,3.11,0.89,4.93,1.05l-0.59,1.19c-2.14-0.24-4.06-0.75-5.77-1.53c-1.65,0.72-3.58,1.24-5.76,1.56l-0.61-1.19
			c1.85-0.23,3.5-0.6,4.93-1.12c-0.66-0.37-1.27-0.8-1.83-1.25c-0.47,0.39-0.98,0.75-1.54,1.08l-0.8-1.01
			c1.61-0.89,2.7-1.98,3.27-3.28L483.95,250.81z M485.25,256.64c0,0.48-0.04,0.93-0.11,1.36h4.75c-0.03,2.33-0.23,3.73-0.62,4.18
			c-0.39,0.45-1.08,0.69-2.04,0.69c-0.47,0-1.05-0.03-1.71-0.07l-0.33-1.15c0.72,0.03,1.3,0.05,1.74,0.08
			c0.7-0.01,1.14-0.16,1.32-0.43c0.18-0.28,0.29-1.01,0.33-2.18h-3.73c-0.12,0.32-0.26,0.63-0.43,0.91c-0.69,1.2-2.3,2.18-4.85,2.97
			l-0.87-1.03c2.25-0.64,3.72-1.41,4.41-2.33c0.11-0.17,0.22-0.35,0.3-0.52h-3.87V258h4.27c0.08-0.43,0.14-0.88,0.14-1.36H485.25z
			 M487.48,252.9h-4.84c-0.04,0.04-0.07,0.07-0.08,0.09c0.72,0.57,1.52,1.08,2.38,1.51C485.9,254.04,486.74,253.51,487.48,252.9z"/>
		<path class="st4" d="M503.92,251.11v3.46h-1.64c0.26,0.35,0.5,0.71,0.69,1.08h1.87v1.12h-3.4c0.87,0.67,2.09,1.19,3.67,1.59
			l-0.52,1.07c-0.28-0.09-0.52-0.19-0.76-0.27v3.82h-1.16v-0.52h-2.23v0.52h-1.16v-4.36h3.29c-1.1-0.55-1.97-1.16-2.58-1.85h-2.23
			c-0.69,0.72-1.57,1.35-2.65,1.85h3.04v4.36h-1.16v-0.52h-2v0.52h-1.14v-3.85c-0.3,0.11-0.61,0.2-0.91,0.29l-0.59-1.03
			c1.54-0.43,2.77-0.97,3.68-1.62h-3.43v-1.12h4.6c0.23-0.31,0.43-0.63,0.57-0.95l1.25,0.13c-0.12,0.28-0.26,0.55-0.41,0.81h3.07
			c-0.17-0.28-0.34-0.53-0.52-0.76l1.02-0.32h-2.81v-3.46L503.92,251.11L503.92,251.11z M498.09,251.11v3.46h-4.42v-3.46H498.09z
			 M496.91,252.19h-2.05v1.33h2.05V252.19z M497.01,261.38v-1.72h-2v1.72H497.01z M502.67,261.38v-1.72h-2.23v1.72H502.67z
			 M502.74,252.19h-2.18v1.33h2.18V252.19z"/>
	</g>
</g>
<rect x="444.95" y="296.5" class="st6" width="184.8" height="159.74"/>
<g transform="translate(10 10)">
	<g class="st3">
		<path class="st4" d="M451.35,299.74c0.65,0.53,1.05,1.26,1.19,2.17h-1.33c-0.15-0.6-0.44-1.06-0.87-1.35s-0.95-0.43-1.61-0.43
			c-0.97,0-1.7,0.33-2.18,0.99c-0.46,0.6-0.69,1.44-0.69,2.48c0,1.08,0.23,1.91,0.68,2.5c0.48,0.63,1.22,0.94,2.22,0.94
			c0.65,0,1.21-0.16,1.63-0.49c0.45-0.35,0.77-0.88,0.94-1.59h1.33c-0.2,1.04-0.67,1.86-1.41,2.45c-0.69,0.55-1.52,0.83-2.49,0.83
			c-1.47,0-2.58-0.48-3.32-1.41c-0.65-0.81-0.97-1.89-0.97-3.25c0-1.33,0.33-2.42,1-3.26c0.75-0.96,1.83-1.42,3.27-1.42
			C449.8,298.92,450.67,299.19,451.35,299.74z"/>
		<path class="st4" d="M459.28,302.39c0.58,0.64,0.88,1.46,0.88,2.45c0,0.98-0.29,1.8-0.87,2.43c-0.6,0.65-1.39,0.99-2.37,0.99
			s-1.77-0.34-2.37-0.99c-0.58-0.63-0.87-1.45-0.87-2.43c0-0.99,0.29-1.81,0.88-2.45c0.59-0.65,1.38-0.98,2.36-0.98
			S458.69,301.73,459.28,302.39z M455.49,303.23c-0.3,0.42-0.44,0.96-0.44,1.61s0.14,1.18,0.44,1.6c0.34,0.48,0.82,0.73,1.43,0.73
			s1.09-0.25,1.44-0.73c0.3-0.43,0.45-0.96,0.45-1.6c0-0.65-0.15-1.2-0.45-1.61c-0.35-0.49-0.83-0.73-1.44-0.73
			S455.82,302.74,455.49,303.23z"/>
		<path class="st4" d="M467.14,304.07v4.02h-1.33v-3.9c0-1.11-0.52-1.66-1.52-1.66c-0.38,0-0.72,0.13-0.99,0.4
			c-0.3,0.3-0.49,0.72-0.54,1.25v3.92h-1.33v-6.51h1.33v0.81c0.25-0.33,0.54-0.57,0.87-0.73c0.33-0.18,0.69-0.25,1.09-0.25
			C466.33,301.4,467.14,302.28,467.14,304.07z"/>
		<path class="st4" d="M470.64,301.58h1.48v1.11h-1.48v3.78c0,0.18,0.04,0.3,0.11,0.39c0.08,0.08,0.19,0.13,0.35,0.13h0.85v1.11
			h-1.07c-0.55,0-0.97-0.15-1.22-0.44c-0.25-0.28-0.36-0.67-0.36-1.18v-3.78h-1.21v-1.11h1.21v-1.55l1.33-0.55v2.09H470.64z"/>
		<path class="st4" d="M478.23,302.12c0.39,0.42,0.59,1.02,0.59,1.81v4.15h-1.23v-0.92c-0.25,0.33-0.57,0.59-0.94,0.78
			c-0.43,0.2-0.93,0.31-1.51,0.31c-0.68,0-1.21-0.18-1.58-0.52c-0.41-0.34-0.62-0.78-0.62-1.32c0-0.73,0.29-1.3,0.87-1.69
			c0.53-0.38,1.28-0.57,2.24-0.59l1.46-0.04v-0.26c0-0.91-0.49-1.36-1.47-1.36c-0.42,0-0.75,0.08-1,0.23
			c-0.3,0.18-0.49,0.44-0.57,0.81l-1.32-0.11c0.14-0.7,0.49-1.23,1.04-1.56c0.48-0.3,1.13-0.44,1.93-0.44
			C477.07,301.4,477.77,301.64,478.23,302.12z M476.13,305.12c-1.22,0.02-1.82,0.45-1.82,1.26c0,0.25,0.1,0.45,0.31,0.62
			c0.2,0.16,0.48,0.25,0.82,0.25c0.57,0,1.04-0.18,1.44-0.52s0.62-0.77,0.62-1.27v-0.38L476.13,305.12z"/>
		<path class="st4" d="M481.95,299.23c0.18,0.16,0.26,0.38,0.26,0.64s-0.1,0.48-0.28,0.65c-0.18,0.16-0.4,0.25-0.65,0.25
			c-0.26,0-0.48-0.09-0.65-0.25c-0.18-0.18-0.26-0.4-0.26-0.65c0-0.26,0.09-0.48,0.26-0.64c0.18-0.18,0.39-0.25,0.65-0.25
			S481.77,299.05,481.95,299.23z M481.95,301.58v6.51h-1.33v-6.51H481.95z"/>
		<path class="st4" d="M489.46,304.07v4.02h-1.33v-3.9c0-1.11-0.51-1.66-1.52-1.66c-0.38,0-0.72,0.13-0.99,0.4
			c-0.3,0.3-0.49,0.72-0.54,1.25v3.92h-1.33v-6.51h1.33v0.81c0.25-0.33,0.54-0.57,0.87-0.73c0.33-0.18,0.69-0.25,1.09-0.25
			C488.64,301.4,489.46,302.28,489.46,304.07z"/>
		<path class="st4" d="M496.16,302.49c0.5,0.65,0.77,1.56,0.78,2.72h-4.92c0.05,0.63,0.21,1.12,0.51,1.46
			c0.3,0.33,0.72,0.5,1.24,0.5c0.46,0,0.84-0.11,1.13-0.33c0.23-0.18,0.42-0.47,0.59-0.84h1.33c-0.15,0.6-0.44,1.12-0.89,1.52
			c-0.57,0.49-1.28,0.74-2.15,0.74c-0.95,0-1.72-0.3-2.27-0.89c-0.6-0.63-0.9-1.47-0.9-2.54c0-0.97,0.28-1.78,0.85-2.43
			c0.55-0.67,1.32-0.99,2.27-0.99C494.79,301.4,495.6,301.76,496.16,302.49z M492.58,302.94c-0.28,0.29-0.46,0.71-0.54,1.26h3.5
			c-0.12-1.13-0.72-1.7-1.77-1.7C493.27,302.5,492.88,302.64,492.58,302.94z"/>
		<path class="st4" d="M501.92,301.57v1.33c-0.33-0.1-0.64-0.14-0.94-0.14c-0.4,0-0.77,0.16-1.08,0.49c-0.34,0.35-0.5,0.82-0.5,1.38
			v3.45h-1.33v-6.51h1.33v0.98c0.16-0.35,0.38-0.62,0.63-0.79c0.3-0.25,0.65-0.37,1.06-0.37
			C501.41,301.4,501.7,301.45,501.92,301.57z"/>
	</g>
</g>
<g id="RectEndPoint8_3_" transform="translate(59,313)">
	<rect x="399" y="21.75" class="st10" width="88.91" height="50"/>
	<rect x="397" y="19.75" class="st11" width="88.91" height="50"/>
	<g transform="translate(20 9)">
		<g class="st3">
			<path class="st4" d="M391.96,22.75v1.3h-3.33v8.7h-1.51v-8.7h-3.35v-1.3H391.96z"/>
			<path class="st4" d="M398.79,26.52c0.56,0.73,0.85,1.74,0.87,3.03h-5.49c0.06,0.7,0.24,1.25,0.57,1.62
				c0.34,0.36,0.8,0.56,1.39,0.56c0.52,0,0.94-0.13,1.26-0.36c0.25-0.2,0.46-0.52,0.66-0.94h1.48c-0.17,0.67-0.49,1.25-0.99,1.7
				c-0.63,0.55-1.43,0.83-2.4,0.83c-1.06,0-1.92-0.34-2.54-1c-0.67-0.7-1.01-1.64-1.01-2.83c0-1.08,0.31-1.98,0.95-2.7
				c0.62-0.74,1.47-1.11,2.54-1.11C397.27,25.31,398.18,25.7,398.79,26.52z M394.8,27.02c-0.31,0.32-0.52,0.79-0.6,1.4h3.91
				c-0.14-1.26-0.8-1.89-1.97-1.89C395.57,26.53,395.14,26.68,394.8,27.02z"/>
			<path class="st4" d="M407.29,28.28v4.47h-1.48v-4.34c0-1.23-0.57-1.85-1.7-1.85c-0.42,0-0.8,0.14-1.11,0.45
				c-0.34,0.34-0.55,0.8-0.6,1.39v4.36h-1.48v-7.24h1.48v0.9c0.28-0.36,0.6-0.63,0.97-0.81c0.36-0.2,0.77-0.28,1.22-0.28
				C406.38,25.31,407.29,26.29,407.29,28.28z"/>
			<path class="st4" d="M414.77,27.6h-1.44c-0.11-0.39-0.28-0.66-0.52-0.81c-0.25-0.17-0.64-0.25-1.15-0.25
				c-0.45,0-0.78,0.06-1.01,0.2c-0.27,0.14-0.39,0.36-0.39,0.64c0,0.25,0.2,0.46,0.59,0.64c0.25,0.11,0.73,0.25,1.46,0.43
				c0.83,0.2,1.44,0.43,1.83,0.69c0.57,0.36,0.87,0.87,0.87,1.51c0,1.53-1.08,2.3-3.22,2.3c-1.99,0-3.05-0.85-3.22-2.54h1.46
				c0.08,0.49,0.27,0.84,0.52,1.04c0.25,0.18,0.64,0.28,1.2,0.28c1.15,0,1.74-0.34,1.74-0.98c0-0.35-0.22-0.63-0.64-0.83
				c-0.22-0.11-0.71-0.25-1.46-0.42c-0.85-0.2-1.46-0.41-1.79-0.63c-0.56-0.35-0.84-0.84-0.84-1.46c0-0.66,0.27-1.18,0.81-1.54
				c0.55-0.38,1.26-0.56,2.13-0.56C413.56,25.31,414.6,26.07,414.77,27.6z"/>
			<path class="st4" d="M422.23,26.4c0.64,0.71,0.98,1.62,0.98,2.73c0,1.09-0.32,2-0.97,2.7c-0.67,0.73-1.55,1.11-2.65,1.11
				s-1.98-0.38-2.65-1.11c-0.64-0.7-0.97-1.61-0.97-2.7c0-1.11,0.32-2.02,0.98-2.73c0.66-0.73,1.54-1.09,2.63-1.09
				S421.57,25.68,422.23,26.4z M418,27.34c-0.34,0.46-0.49,1.06-0.49,1.79s0.15,1.32,0.49,1.78c0.38,0.53,0.91,0.81,1.6,0.81
				s1.22-0.28,1.61-0.81c0.34-0.48,0.5-1.06,0.5-1.78c0-0.73-0.17-1.33-0.5-1.79c-0.39-0.55-0.92-0.81-1.61-0.81
				S418.38,26.8,418,27.34z"/>
			<path class="st4" d="M428.92,25.49v1.48c-0.36-0.11-0.71-0.15-1.05-0.15c-0.45,0-0.85,0.18-1.21,0.55
				c-0.38,0.39-0.56,0.91-0.56,1.54v3.84h-1.48v-7.24h1.48v1.09c0.18-0.39,0.42-0.69,0.7-0.88c0.34-0.28,0.73-0.41,1.18-0.41
				C428.34,25.31,428.67,25.37,428.92,25.49z"/>
			<path class="st4" d="M436.76,22.75v1.3h-5.27v2.91h4.97v1.3h-4.97v4.48h-1.53v-10h6.8V22.75z"/>
			<path class="st4" d="M439.61,22.55v10.2h-1.48v-10.2H439.61z"/>
			<path class="st4" d="M447.43,26.4c0.64,0.71,0.98,1.62,0.98,2.73c0,1.09-0.32,2-0.97,2.7c-0.67,0.73-1.55,1.11-2.65,1.11
				c-1.09,0-1.97-0.38-2.65-1.11c-0.64-0.7-0.97-1.61-0.97-2.7c0-1.11,0.32-2.02,0.98-2.73c0.66-0.73,1.54-1.09,2.63-1.09
				C445.89,25.31,446.77,25.68,447.43,26.4z M443.2,27.34c-0.34,0.46-0.49,1.06-0.49,1.79s0.15,1.32,0.49,1.78
				c0.38,0.53,0.91,0.81,1.6,0.81s1.22-0.28,1.61-0.81c0.34-0.48,0.5-1.06,0.5-1.78c0-0.73-0.17-1.33-0.5-1.79
				c-0.39-0.55-0.92-0.81-1.61-0.81C444.11,26.53,443.58,26.8,443.2,27.34z"/>
			<path class="st4" d="M450.69,25.51l1.53,5.48l1.49-5.48h1.37l1.48,5.48l1.53-5.48h1.64l-2.45,7.24h-1.37l-1.51-5.42l-1.51,5.42
				h-1.37l-2.45-7.24H450.69z"/>
			<path class="st4" d="M418.24,39.32h5.04v1.29h-10.27v2.94c-0.04,3.11-0.49,5.59-1.36,7.45l-1.12-1c0.73-1.54,1.11-3.7,1.13-6.46
				v-4.23h5.08c-0.2-0.39-0.42-0.77-0.66-1.11l1.49-0.25C417.8,38.37,418.03,38.82,418.24,39.32z M418.87,49.16
				c0.83-1.96,1.54-4.36,2.16-7.19l1.32,0.35c-0.56,2.55-1.23,4.83-2.05,6.83h2.76v1.29h-9.97v-1.29L418.87,49.16L418.87,49.16z
				 M416.32,47.77l-1.26,0.32c-0.36-1.76-0.83-3.45-1.39-5.07l1.15-0.36C415.38,44.14,415.87,45.84,416.32,47.77z M418.8,46.92
				l-1.26,0.31c-0.31-1.79-0.71-3.53-1.19-5.21l1.16-0.38C417.99,43.18,418.42,44.94,418.8,46.92z"/>
			<path class="st4" d="M425.54,50.89l-1.02-0.91c0.84-1.21,1.28-2.73,1.3-4.58v-6.86h10.74v10.55c0,1.05-0.55,1.58-1.61,1.58h-1.61
				l-0.35-1.3c0.55,0.04,1.05,0.07,1.53,0.07c0.45,0,0.69-0.28,0.69-0.83v-2.09h-3.47v3.99h-1.34v-3.99h-3.29
				C426.93,48.29,426.41,49.75,425.54,50.89z M427.17,39.83v2.1h3.22v-2.1H427.17z M427.17,45.29h3.22v-2.14h-3.22V45.29z
				 M435.21,39.83h-3.47v2.1h3.47V39.83z M435.21,43.15h-3.47v2.14h3.47V43.15z"/>
		</g>
	</g>
</g>
<g id="RectEndPoint9_3_" transform="translate(224,313)">
	<rect x="331.95" y="21.75" class="st10" width="61.91" height="50"/>
	<rect x="329.95" y="19.75" class="st11" width="61.91" height="50"/>
	<g transform="translate(20 9)">
		<g class="st3">
			<path class="st4" d="M330.21,23.48c0.73,0.59,1.18,1.4,1.33,2.41h-1.48c-0.17-0.67-0.49-1.18-0.97-1.5s-1.06-0.48-1.79-0.48
				c-1.08,0-1.89,0.36-2.44,1.11c-0.52,0.67-0.77,1.6-0.77,2.76c0,1.2,0.25,2.13,0.76,2.79c0.53,0.7,1.36,1.05,2.48,1.05
				c0.73,0,1.34-0.18,1.82-0.55c0.5-0.39,0.85-0.98,1.05-1.76h1.49c-0.22,1.16-0.74,2.07-1.57,2.73c-0.77,0.62-1.69,0.92-2.77,0.92
				c-1.64,0-2.87-0.53-3.7-1.57c-0.73-0.9-1.08-2.1-1.08-3.61c0-1.49,0.36-2.69,1.12-3.63c0.84-1.06,2.05-1.58,3.64-1.58
				C328.49,22.57,329.46,22.87,330.21,23.48z"/>
			<path class="st4" d="M338.7,26.13c0.43,0.46,0.66,1.13,0.66,2.02v4.62h-1.37v-1.02c-0.28,0.36-0.63,0.66-1.05,0.87
				c-0.48,0.22-1.04,0.35-1.68,0.35c-0.76,0-1.34-0.2-1.77-0.57c-0.46-0.38-0.69-0.87-0.69-1.47c0-0.81,0.32-1.44,0.97-1.88
				c0.59-0.42,1.43-0.63,2.49-0.66l1.62-0.04v-0.29c0-1.01-0.55-1.51-1.64-1.51c-0.46,0-0.84,0.08-1.12,0.25
				c-0.34,0.2-0.55,0.49-0.63,0.9l-1.47-0.13c0.15-0.78,0.55-1.37,1.16-1.74c0.53-0.34,1.26-0.49,2.16-0.49
				C337.41,25.33,338.19,25.6,338.7,26.13z M336.36,29.46c-1.36,0.03-2.03,0.5-2.03,1.4c0,0.28,0.11,0.5,0.35,0.69
				c0.22,0.18,0.53,0.28,0.91,0.28c0.63,0,1.16-0.2,1.61-0.57s0.69-0.85,0.69-1.42v-0.42L336.36,29.46z"/>
			<path class="st4" d="M345.42,22.77v1.26h-1.3c-0.24,0-0.42,0.06-0.53,0.18c-0.11,0.11-0.17,0.31-0.17,0.57v0.74h2.93v-0.78
				c0-0.62,0.17-1.11,0.5-1.44c0.34-0.36,0.83-0.53,1.47-0.53h1.5v1.26h-1.3c-0.22,0-0.41,0.06-0.52,0.18
				c-0.11,0.11-0.17,0.31-0.17,0.57v0.74h1.89v1.22h-1.89v6.02h-1.49v-6.02h-2.93v6.02h-1.47v-6.02h-1.67v-1.22h1.67v-0.78
				c0-0.62,0.17-1.11,0.5-1.44c0.34-0.36,0.81-0.53,1.46-0.53C343.9,22.77,345.42,22.77,345.42,22.77z"/>
			<path class="st4" d="M356.49,26.54c0.56,0.73,0.85,1.74,0.87,3.03h-5.49c0.06,0.7,0.24,1.25,0.57,1.62
				c0.34,0.36,0.8,0.56,1.39,0.56c0.52,0,0.94-0.13,1.26-0.36c0.25-0.2,0.46-0.52,0.66-0.94h1.48c-0.17,0.67-0.49,1.25-0.99,1.7
				c-0.63,0.55-1.43,0.83-2.4,0.83c-1.06,0-1.92-0.34-2.54-1c-0.67-0.7-1.01-1.64-1.01-2.83c0-1.08,0.31-1.98,0.95-2.7
				c0.62-0.74,1.47-1.11,2.54-1.11C354.96,25.33,355.87,25.72,356.49,26.54z M352.5,27.04c-0.31,0.32-0.52,0.79-0.6,1.4h3.91
				c-0.14-1.26-0.8-1.89-1.97-1.89C353.27,26.55,352.83,26.7,352.5,27.04z"/>
			<path class="st4" d="M336.46,39.34h5.04v1.29h-10.27v2.94c-0.04,3.11-0.49,5.59-1.36,7.45l-1.12-1c0.73-1.54,1.11-3.7,1.13-6.46
				v-4.23h5.08c-0.2-0.39-0.42-0.77-0.66-1.11l1.48-0.25C336.02,38.39,336.25,38.84,336.46,39.34z M337.09,49.18
				c0.83-1.96,1.54-4.36,2.16-7.19l1.32,0.35c-0.56,2.55-1.23,4.83-2.04,6.83h2.76v1.29h-9.97v-1.29h5.77V49.18z M334.54,47.79
				l-1.26,0.32c-0.36-1.76-0.83-3.45-1.39-5.07l1.15-0.36C333.6,44.16,334.09,45.86,334.54,47.79z M337.02,46.94l-1.26,0.31
				c-0.31-1.79-0.71-3.53-1.19-5.21l1.16-0.38C336.21,43.2,336.64,44.96,337.02,46.94z"/>
			<path class="st4" d="M343.76,50.91L342.74,50c0.84-1.21,1.27-2.73,1.3-4.58v-6.86h10.74v10.55c0,1.05-0.55,1.58-1.61,1.58h-1.61
				l-0.35-1.3c0.55,0.04,1.05,0.07,1.53,0.07c0.45,0,0.69-0.28,0.69-0.83v-2.09h-3.47v3.99h-1.34v-3.99h-3.29
				C345.15,48.31,344.63,49.77,343.76,50.91z M345.39,39.85v2.1h3.22v-2.1H345.39z M345.39,45.31h3.22v-2.14h-3.22V45.31z
				 M353.43,39.85h-3.47v2.1h3.47V39.85z M353.43,43.17h-3.47v2.14h3.47V43.17z"/>
		</g>
	</g>
</g>
<g id="RectEndPoint10_3_" transform="translate(59,379.5)">
	<rect x="399" y="14.75" class="st10" width="159.91" height="49"/>
	<rect x="397" y="12.75" class="st11" width="159.91" height="49"/>
	<g transform="translate(20 9)">
		<g class="st3">
			<path class="st4" d="M440.84,26.51l1.82,5.39l1.82-5.39h1.61l-2.69,7.24h-1.48l-2.69-7.24H440.84z"/>
			<path class="st4" d="M454.5,24.42c0.71,0.56,1.16,1.39,1.34,2.51h-1.54c-0.14-0.67-0.45-1.18-0.92-1.51
				c-0.48-0.35-1.12-0.52-1.91-0.52c-0.97,0-1.74,0.32-2.31,0.99c-0.62,0.7-0.91,1.67-0.91,2.9c0,1.21,0.27,2.13,0.83,2.77
				c0.59,0.7,1.51,1.05,2.76,1.05c0.49,0,0.95-0.07,1.39-0.18c0.42-0.11,0.78-0.28,1.12-0.49v-2.17h-2.76v-1.3h4.29v4.2
				c-0.52,0.41-1.12,0.71-1.81,0.94c-0.73,0.22-1.53,0.34-2.4,0.34c-1.6,0-2.83-0.5-3.71-1.51c-0.83-0.94-1.23-2.16-1.23-3.64
				c0-1.5,0.41-2.73,1.23-3.7c0.87-1.04,2.04-1.54,3.52-1.54C452.75,23.55,453.75,23.83,454.5,24.42z"/>
			<path class="st4" d="M461.84,23.75c2.38,0,3.57,1.01,3.57,3.04c0,2.04-1.2,3.07-3.6,3.07h-2.59v3.89h-1.53v-10H461.84z
				 M459.23,28.55h2.49c0.76,0,1.3-0.14,1.65-0.42c0.34-0.28,0.52-0.73,0.52-1.34s-0.18-1.06-0.53-1.32
				c-0.35-0.28-0.9-0.42-1.64-0.42h-2.49L459.23,28.55L459.23,28.55z"/>
			<path class="st4" d="M468.35,23.75v6.22c0,0.9,0.2,1.55,0.62,1.99c0.42,0.43,1.08,0.66,1.99,0.66c0.9,0,1.56-0.22,1.98-0.66
				c0.41-0.43,0.62-1.09,0.62-1.99v-6.22h1.53v6.19c0,1.3-0.36,2.3-1.08,2.98c-0.71,0.67-1.72,1.02-3.04,1.02
				c-1.33,0-2.34-0.34-3.04-1.01c-0.73-0.7-1.09-1.7-1.09-3v-6.19L468.35,23.75L468.35,23.75z"/>
		</g>
	</g>
</g>
<rect x="637.45" y="296.5" class="st6" width="161.8" height="159.74"/>
<g transform="translate(10 10)">
	<g class="st3">
		<path class="st4" d="M645.99,299.74c0.65,0.53,1.06,1.26,1.19,2.17h-1.33c-0.15-0.6-0.44-1.06-0.87-1.35s-0.96-0.43-1.61-0.43
			c-0.97,0-1.7,0.33-2.19,0.99c-0.46,0.6-0.69,1.44-0.69,2.48c0,1.08,0.23,1.91,0.68,2.5c0.48,0.63,1.22,0.94,2.22,0.94
			c0.65,0,1.21-0.16,1.63-0.49c0.45-0.35,0.77-0.88,0.94-1.59h1.33c-0.2,1.04-0.67,1.86-1.41,2.45c-0.69,0.55-1.52,0.83-2.49,0.83
			c-1.47,0-2.57-0.48-3.32-1.41c-0.65-0.81-0.97-1.89-0.97-3.25c0-1.33,0.33-2.42,1-3.26c0.75-0.96,1.83-1.42,3.26-1.42
			C644.45,298.92,645.31,299.19,645.99,299.74z"/>
		<path class="st4" d="M653.92,302.39c0.58,0.64,0.88,1.46,0.88,2.45c0,0.98-0.29,1.8-0.87,2.43c-0.6,0.65-1.39,0.99-2.37,0.99
			s-1.77-0.34-2.37-0.99c-0.58-0.63-0.87-1.45-0.87-2.43c0-0.99,0.29-1.81,0.88-2.45c0.59-0.65,1.38-0.98,2.36-0.98
			S653.33,301.73,653.92,302.39z M650.13,303.23c-0.3,0.42-0.44,0.96-0.44,1.61s0.14,1.18,0.44,1.6c0.34,0.48,0.82,0.73,1.43,0.73
			s1.09-0.25,1.44-0.73c0.3-0.43,0.45-0.96,0.45-1.6c0-0.65-0.15-1.2-0.45-1.61c-0.35-0.49-0.83-0.73-1.44-0.73
			S650.47,302.74,650.13,303.23z"/>
		<path class="st4" d="M661.79,304.07v4.02h-1.33v-3.9c0-1.11-0.52-1.66-1.52-1.66c-0.38,0-0.72,0.13-0.99,0.4
			c-0.3,0.3-0.49,0.72-0.54,1.25v3.92h-1.33v-6.51h1.33v0.81c0.25-0.33,0.54-0.57,0.87-0.73c0.33-0.18,0.69-0.25,1.09-0.25
			C660.97,301.4,661.79,302.28,661.79,304.07z"/>
		<path class="st4" d="M665.28,301.58h1.48v1.11h-1.48v3.78c0,0.18,0.04,0.3,0.11,0.39c0.08,0.08,0.19,0.13,0.35,0.13h0.85v1.11
			h-1.07c-0.55,0-0.97-0.15-1.22-0.44c-0.25-0.28-0.36-0.67-0.36-1.18v-3.78h-1.21v-1.11h1.21v-1.55l1.33-0.55v2.09H665.28z"/>
		<path class="st4" d="M672.87,302.12c0.39,0.42,0.59,1.02,0.59,1.81v4.15h-1.23v-0.92c-0.25,0.33-0.57,0.59-0.94,0.78
			c-0.43,0.2-0.93,0.31-1.51,0.31c-0.68,0-1.21-0.18-1.58-0.52c-0.42-0.34-0.62-0.78-0.62-1.32c0-0.73,0.29-1.3,0.87-1.69
			c0.53-0.38,1.28-0.57,2.24-0.59l1.46-0.04v-0.26c0-0.91-0.49-1.36-1.47-1.36c-0.41,0-0.75,0.08-1,0.23
			c-0.3,0.18-0.49,0.44-0.56,0.81l-1.32-0.11c0.14-0.7,0.49-1.23,1.04-1.56c0.48-0.3,1.13-0.44,1.93-0.44
			C671.71,301.4,672.42,301.64,672.87,302.12z M670.77,305.12c-1.22,0.02-1.82,0.45-1.82,1.26c0,0.25,0.1,0.45,0.31,0.62
			c0.2,0.16,0.48,0.25,0.82,0.25c0.56,0,1.04-0.18,1.44-0.52s0.62-0.77,0.62-1.27v-0.38L670.77,305.12z"/>
		<path class="st4" d="M676.59,299.23c0.18,0.16,0.26,0.38,0.26,0.64s-0.1,0.48-0.28,0.65c-0.18,0.16-0.4,0.25-0.65,0.25
			c-0.26,0-0.48-0.09-0.65-0.25c-0.18-0.18-0.26-0.4-0.26-0.65c0-0.26,0.09-0.48,0.26-0.64c0.18-0.18,0.39-0.25,0.65-0.25
			S676.41,299.05,676.59,299.23z M676.59,301.58v6.51h-1.33v-6.51H676.59z"/>
		<path class="st4" d="M684.1,304.07v4.02h-1.33v-3.9c0-1.11-0.52-1.66-1.52-1.66c-0.38,0-0.72,0.13-0.99,0.4
			c-0.3,0.3-0.49,0.72-0.54,1.25v3.92h-1.33v-6.51h1.33v0.81c0.25-0.33,0.54-0.57,0.87-0.73c0.33-0.18,0.69-0.25,1.09-0.25
			C683.29,301.4,684.1,302.28,684.1,304.07z"/>
		<path class="st4" d="M690.8,302.49c0.5,0.65,0.77,1.56,0.78,2.72h-4.92c0.05,0.63,0.21,1.12,0.52,1.46c0.3,0.33,0.71,0.5,1.24,0.5
			c0.46,0,0.84-0.11,1.13-0.33c0.23-0.18,0.41-0.47,0.59-0.84h1.33c-0.15,0.6-0.44,1.12-0.89,1.52c-0.56,0.49-1.28,0.74-2.15,0.74
			c-0.95,0-1.72-0.3-2.27-0.89c-0.6-0.63-0.9-1.47-0.9-2.54c0-0.97,0.28-1.78,0.85-2.43c0.55-0.67,1.32-0.99,2.27-0.99
			C689.43,301.4,690.25,301.76,690.8,302.49z M687.22,302.94c-0.28,0.29-0.46,0.71-0.54,1.26h3.5c-0.13-1.13-0.72-1.7-1.77-1.7
			C687.91,302.5,687.52,302.64,687.22,302.94z"/>
		<path class="st4" d="M696.57,301.57v1.33c-0.33-0.1-0.64-0.14-0.94-0.14c-0.4,0-0.77,0.16-1.08,0.49c-0.34,0.35-0.5,0.82-0.5,1.38
			v3.45h-1.33v-6.51h1.33v0.98c0.16-0.35,0.38-0.62,0.63-0.79c0.3-0.25,0.65-0.37,1.05-0.37
			C696.05,301.4,696.34,301.45,696.57,301.57z"/>
	</g>
</g>
<g id="RectEndPoint8_2_" transform="translate(59,313)">
	<rect x="591.5" y="21.75" class="st10" width="68.91" height="50"/>
	<rect x="589.5" y="19.75" class="st11" width="68.91" height="50"/>
	<g transform="translate(20 9)">
		<g class="st3">
			<path class="st4" d="M582.42,22.75c2.38,0,3.57,1.01,3.57,3.04c0,2.04-1.21,3.07-3.6,3.07h-2.59v3.89h-1.53v-10H582.42z
				 M579.8,27.55h2.49c0.76,0,1.3-0.14,1.65-0.42c0.34-0.28,0.52-0.73,0.52-1.34s-0.18-1.06-0.53-1.32
				c-0.35-0.28-0.9-0.42-1.64-0.42h-2.49V27.55z"/>
			<path class="st4" d="M588.11,25.51l1.99,5.28l1.91-5.28h1.62l-3.94,10.02h-1.58l1.26-2.94l-2.87-7.07h1.61V25.51z"/>
			<path class="st4" d="M602.09,22.75v1.3h-3.33v8.7h-1.51v-8.7h-3.35v-1.3H602.09z"/>
			<path class="st4" d="M609.12,26.4c0.64,0.71,0.98,1.62,0.98,2.73c0,1.09-0.32,2-0.97,2.7c-0.67,0.73-1.55,1.11-2.65,1.11
				s-1.97-0.38-2.65-1.11c-0.64-0.7-0.97-1.61-0.97-2.7c0-1.11,0.32-2.02,0.98-2.73c0.66-0.73,1.54-1.09,2.63-1.09
				S608.46,25.68,609.12,26.4z M604.89,27.34c-0.34,0.46-0.49,1.06-0.49,1.79s0.15,1.32,0.49,1.78c0.38,0.53,0.91,0.81,1.6,0.81
				s1.22-0.28,1.61-0.81c0.34-0.48,0.5-1.06,0.5-1.78c0-0.73-0.17-1.33-0.5-1.79c-0.39-0.55-0.92-0.81-1.61-0.81
				S605.27,26.8,604.89,27.34z"/>
			<path class="st4" d="M615.81,25.49v1.48c-0.36-0.11-0.71-0.15-1.05-0.15c-0.45,0-0.85,0.18-1.2,0.55
				c-0.38,0.39-0.56,0.91-0.56,1.54v3.84h-1.49v-7.24H613v1.09c0.18-0.39,0.42-0.69,0.7-0.88c0.34-0.28,0.73-0.41,1.18-0.41
				C615.24,25.31,615.56,25.37,615.81,25.49z"/>
			<path class="st4" d="M622.17,25.94c0.56,0.45,0.92,1.12,1.06,2.02h-1.47c-0.1-0.49-0.29-0.85-0.6-1.08
				c-0.31-0.24-0.71-0.35-1.22-0.35c-0.62,0-1.09,0.22-1.44,0.69c-0.36,0.45-0.53,1.09-0.53,1.91s0.17,1.46,0.52,1.92
				c0.32,0.45,0.8,0.69,1.44,0.69c1.11,0,1.72-0.56,1.86-1.65h1.47c-0.17,0.97-0.55,1.7-1.11,2.17c-0.56,0.46-1.32,0.7-2.24,0.7
				c-1.11,0-1.96-0.36-2.58-1.09c-0.6-0.7-0.9-1.6-0.9-2.72c0-1.09,0.29-1.99,0.88-2.69c0.63-0.76,1.5-1.13,2.62-1.13
				C620.87,25.31,621.61,25.52,622.17,25.94z"/>
			<path class="st4" d="M626.02,22.55v3.98c0.27-0.42,0.6-0.74,1.01-0.94c0.36-0.2,0.77-0.28,1.23-0.28c0.87,0,1.53,0.25,1.98,0.77
				c0.42,0.49,0.63,1.22,0.63,2.17v4.5h-1.48v-4.24c0-0.64-0.14-1.12-0.39-1.46c-0.28-0.35-0.71-0.52-1.27-0.52
				c-0.5,0-0.91,0.2-1.22,0.6c-0.32,0.41-0.48,0.92-0.48,1.55v4.06h-1.48v-10.2h1.47V22.55z"/>
			<path class="st4" d="M598.73,39.32h5.04v1.29H593.5v2.94c-0.04,3.11-0.49,5.59-1.36,7.45l-1.12-1c0.73-1.54,1.11-3.7,1.13-6.46
				v-4.23h5.08c-0.2-0.39-0.42-0.77-0.66-1.11l1.49-0.25C598.3,38.37,598.52,38.82,598.73,39.32z M599.36,49.16
				c0.83-1.96,1.54-4.36,2.16-7.19l1.32,0.35c-0.56,2.55-1.23,4.83-2.05,6.83h2.76v1.29h-9.97v-1.29L599.36,49.16L599.36,49.16z
				 M596.82,47.77l-1.26,0.32c-0.36-1.76-0.83-3.45-1.39-5.07l1.15-0.36C595.88,44.14,596.37,45.84,596.82,47.77z M599.29,46.92
				l-1.26,0.31c-0.31-1.79-0.71-3.53-1.19-5.21l1.16-0.38C598.48,43.18,598.92,44.94,599.29,46.92z"/>
			<path class="st4" d="M606.04,50.89l-1.02-0.91c0.84-1.21,1.28-2.73,1.3-4.58v-6.86h10.74v10.55c0,1.05-0.55,1.58-1.61,1.58h-1.61
				l-0.35-1.3c0.55,0.04,1.05,0.07,1.53,0.07c0.45,0,0.69-0.28,0.69-0.83v-2.09h-3.47v3.99h-1.34v-3.99h-3.29
				C607.43,48.29,606.91,49.75,606.04,50.89z M607.66,39.83v2.1h3.22v-2.1H607.66z M607.66,45.29h3.22v-2.14h-3.22V45.29z
				 M615.7,39.83h-3.47v2.1h3.47V39.83z M615.7,43.15h-3.47v2.14h3.47V43.15z"/>
		</g>
	</g>
</g>
<g id="RectEndPoint9_2_" transform="translate(224,313)">
	<rect x="505.44" y="21.75" class="st10" width="58.91" height="50"/>
	<rect x="503.44" y="19.75" class="st11" width="58.91" height="50"/>
	<g transform="translate(20 9)">
		<g class="st3">
			<path class="st4" d="M502.09,22.48c0.73,0.59,1.18,1.4,1.33,2.41h-1.49c-0.17-0.67-0.49-1.18-0.97-1.5s-1.06-0.48-1.79-0.48
				c-1.08,0-1.89,0.36-2.44,1.11c-0.52,0.67-0.77,1.6-0.77,2.76c0,1.2,0.25,2.13,0.76,2.79c0.53,0.7,1.36,1.05,2.48,1.05
				c0.73,0,1.34-0.18,1.82-0.55c0.5-0.39,0.85-0.98,1.05-1.76h1.48c-0.22,1.16-0.74,2.07-1.57,2.73c-0.77,0.62-1.7,0.92-2.77,0.92
				c-1.64,0-2.87-0.53-3.7-1.57c-0.73-0.9-1.08-2.1-1.08-3.61c0-1.49,0.36-2.69,1.12-3.63c0.84-1.06,2.04-1.58,3.64-1.58
				C500.36,21.57,501.33,21.87,502.09,22.48z"/>
			<path class="st4" d="M506.63,21.77l5.11,7.44h0.06v-7.44h1.53v10h-1.48l-5.17-7.52h-0.06v7.52h-1.53v-10H506.63z"/>
			<path class="st4" d="M522.72,21.77v1.3h-3.33v8.7h-1.51v-8.7h-3.35v-1.3H522.72z"/>
			<path class="st4" d="M532.21,21.77l-4.43,4.3l5.07,5.7h-2.04l-4.06-4.71l-1.3,1.25v3.46h-1.53v-10h1.53v4.83l4.83-4.83H532.21z"
				/>
			<path class="st4" d="M507.6,38.35h5.04v1.29h-10.27v2.94c-0.04,3.11-0.49,5.59-1.36,7.45l-1.12-1c0.73-1.54,1.11-3.7,1.13-6.46
				v-4.23h5.08c-0.2-0.39-0.42-0.77-0.66-1.11l1.48-0.25C507.17,37.39,507.39,37.84,507.6,38.35z M508.23,48.18
				c0.83-1.96,1.54-4.36,2.16-7.19l1.32,0.35c-0.56,2.55-1.23,4.83-2.04,6.83h2.76v1.29h-9.97v-1.29h5.77V48.18z M505.68,46.79
				l-1.26,0.32c-0.36-1.76-0.83-3.45-1.39-5.07l1.15-0.36C504.74,43.16,505.23,44.86,505.68,46.79z M508.16,45.94l-1.26,0.31
				c-0.31-1.79-0.71-3.53-1.19-5.21l1.16-0.38C507.35,42.2,507.78,43.96,508.16,45.94z"/>
			<path class="st4" d="M514.91,49.92l-1.02-0.91c0.84-1.21,1.27-2.73,1.3-4.58v-6.86h10.74v10.55c0,1.05-0.55,1.58-1.61,1.58h-1.61
				l-0.35-1.3c0.55,0.04,1.05,0.07,1.53,0.07c0.45,0,0.69-0.28,0.69-0.83v-2.09h-3.47v3.99h-1.34v-3.99h-3.29
				C516.29,47.31,515.77,48.77,514.91,49.92z M516.53,38.85v2.1h3.22v-2.1H516.53z M516.53,44.31h3.22v-2.14h-3.22V44.31z
				 M524.57,38.85h-3.47v2.1h3.47V38.85z M524.57,42.17h-3.47v2.14h3.47V42.17z"/>
		</g>
	</g>
</g>
<g id="RectEndPoint10_2_" transform="translate(59,379.5)">
	<rect x="591.5" y="14.75" class="st10" width="136.91" height="49"/>
	<rect x="589.5" y="12.75" class="st11" width="136.91" height="49"/>
	<g transform="translate(20 9)">
		<g class="st3">
			<path class="st4" d="M619.72,26.51l1.82,5.39l1.82-5.39h1.61l-2.69,7.24h-1.48l-2.69-7.24H619.72z"/>
			<path class="st4" d="M633.38,24.42c0.71,0.56,1.16,1.39,1.34,2.51h-1.54c-0.14-0.67-0.45-1.18-0.92-1.51
				c-0.48-0.35-1.12-0.52-1.91-0.52c-0.97,0-1.74,0.32-2.31,0.99c-0.62,0.7-0.91,1.67-0.91,2.9c0,1.21,0.27,2.13,0.83,2.77
				c0.59,0.7,1.51,1.05,2.76,1.05c0.49,0,0.95-0.07,1.39-0.18c0.42-0.11,0.78-0.28,1.12-0.49v-2.17h-2.76v-1.3h4.29v4.2
				c-0.52,0.41-1.12,0.71-1.81,0.94c-0.73,0.22-1.53,0.34-2.4,0.34c-1.6,0-2.83-0.5-3.71-1.51c-0.83-0.94-1.23-2.16-1.23-3.64
				c0-1.5,0.41-2.73,1.23-3.7c0.87-1.04,2.04-1.54,3.52-1.54C631.63,23.55,632.63,23.83,633.38,24.42z"/>
			<path class="st4" d="M640.72,23.75c2.38,0,3.57,1.01,3.57,3.04c0,2.04-1.2,3.07-3.6,3.07h-2.59v3.89h-1.53v-10H640.72z
				 M638.11,28.55h2.49c0.76,0,1.3-0.14,1.65-0.42c0.34-0.28,0.52-0.73,0.52-1.34s-0.18-1.06-0.53-1.32
				c-0.35-0.28-0.9-0.42-1.64-0.42h-2.49V28.55z"/>
			<path class="st4" d="M647.23,23.75v6.22c0,0.9,0.2,1.55,0.62,1.99c0.42,0.43,1.08,0.66,1.99,0.66c0.9,0,1.56-0.22,1.98-0.66
				c0.41-0.43,0.62-1.09,0.62-1.99v-6.22h1.53v6.19c0,1.3-0.36,2.3-1.08,2.98c-0.71,0.67-1.72,1.02-3.04,1.02
				c-1.33,0-2.34-0.34-3.04-1.01c-0.73-0.7-1.09-1.7-1.09-3v-6.19L647.23,23.75L647.23,23.75z"/>
		</g>
	</g>
</g>
<g id="RectEndPoint12_1_" transform="translate(45.90625,462.5)">
	<rect x="400" y="17.75" class="st10" width="356.38" height="49"/>
	<rect x="398" y="15.75" class="st11" width="356.38" height="49"/>
	<g transform="translate(20 9)">
		<g class="st3">
			<path class="st4" d="M509.17,26.75c1.61,0,2.83,0.45,3.67,1.36c0.78,0.84,1.18,2.06,1.18,3.64c0,1.57-0.41,2.79-1.2,3.66
				c-0.84,0.9-2.06,1.34-3.67,1.34h-3.61v-10H509.17z M507.05,35.45h1.81c1.26,0,2.2-0.31,2.79-0.91c0.57-0.6,0.87-1.53,0.87-2.79
				c0-1.29-0.29-2.21-0.85-2.8c-0.59-0.6-1.51-0.9-2.77-0.9h-1.83v7.4H507.05z"/>
			<path class="st4" d="M521.39,30.4c0.64,0.71,0.98,1.62,0.98,2.73c0,1.09-0.32,2-0.97,2.7c-0.67,0.73-1.55,1.11-2.65,1.11
				c-1.09,0-1.97-0.38-2.65-1.11c-0.64-0.7-0.97-1.61-0.97-2.7c0-1.11,0.32-2.02,0.98-2.73c0.66-0.73,1.54-1.09,2.63-1.09
				C519.85,29.31,520.73,29.68,521.39,30.4z M517.16,31.34c-0.34,0.46-0.49,1.06-0.49,1.79s0.15,1.32,0.49,1.78
				c0.38,0.53,0.91,0.81,1.6,0.81s1.22-0.28,1.61-0.81c0.34-0.48,0.5-1.06,0.5-1.78c0-0.73-0.17-1.33-0.5-1.79
				c-0.39-0.55-0.92-0.81-1.61-0.81C518.07,30.53,517.54,30.8,517.16,31.34z"/>
			<path class="st4" d="M529.23,29.94c0.56,0.45,0.92,1.12,1.06,2.02h-1.47c-0.1-0.49-0.29-0.85-0.6-1.08
				c-0.31-0.24-0.71-0.35-1.22-0.35c-0.62,0-1.09,0.22-1.44,0.69c-0.36,0.45-0.53,1.09-0.53,1.91s0.17,1.46,0.52,1.92
				c0.32,0.45,0.8,0.69,1.44,0.69c1.11,0,1.72-0.56,1.86-1.65h1.47c-0.17,0.97-0.55,1.7-1.11,2.17c-0.56,0.46-1.32,0.7-2.24,0.7
				c-1.11,0-1.96-0.36-2.58-1.09c-0.6-0.7-0.9-1.6-0.9-2.72c0-1.09,0.29-1.99,0.88-2.69c0.63-0.76,1.5-1.13,2.62-1.13
				C527.93,29.31,528.67,29.52,529.23,29.94z"/>
			<path class="st4" d="M533.08,26.55v5.94l3.14-2.98h1.92l-3.21,2.98l3.49,4.26h-1.91l-2.61-3.31l-0.83,0.77v2.54h-1.48v-10.2
				H533.08z"/>
			<path class="st4" d="M545.02,30.52c0.56,0.73,0.85,1.74,0.87,3.03h-5.49c0.06,0.7,0.24,1.25,0.57,1.62
				c0.34,0.36,0.8,0.56,1.39,0.56c0.52,0,0.94-0.13,1.26-0.36c0.25-0.2,0.46-0.52,0.66-0.94h1.48c-0.17,0.67-0.49,1.25-0.99,1.7
				c-0.63,0.55-1.43,0.83-2.4,0.83c-1.06,0-1.92-0.34-2.54-1c-0.67-0.7-1.01-1.64-1.01-2.83c0-1.08,0.31-1.98,0.95-2.7
				c0.62-0.74,1.47-1.11,2.54-1.11C543.5,29.31,544.41,29.7,545.02,30.52z M541.03,31.02c-0.31,0.32-0.52,0.79-0.6,1.4h3.91
				c-0.14-1.26-0.8-1.89-1.97-1.89C541.8,30.53,541.37,30.68,541.03,31.02z"/>
			<path class="st4" d="M551.45,29.49v1.48c-0.36-0.11-0.71-0.15-1.05-0.15c-0.45,0-0.85,0.18-1.2,0.55
				c-0.38,0.39-0.56,0.91-0.56,1.54v3.84h-1.48v-7.24h1.48v1.09c0.18-0.39,0.42-0.69,0.7-0.88c0.34-0.28,0.73-0.41,1.18-0.41
				C550.87,29.31,551.2,29.37,551.45,29.49z"/>
			<path class="st4" d="M564.34,26.75v1.3h-5.66v2.91H564v1.3h-5.32v3.18h5.9v1.3h-7.42v-10h7.18V26.75z"/>
			<path class="st4" d="M572.37,32.28v4.47h-1.48v-4.34c0-1.23-0.58-1.85-1.7-1.85c-0.42,0-0.8,0.14-1.11,0.45
				c-0.34,0.34-0.55,0.8-0.6,1.39v4.36H566v-7.24h1.48v0.9c0.28-0.36,0.6-0.63,0.97-0.81c0.36-0.2,0.77-0.28,1.22-0.28
				C571.46,29.31,572.37,30.29,572.37,32.28z"/>
			<path class="st4" d="M579.28,30.48v-0.97h1.48v6.77c0,2.3-1.13,3.45-3.38,3.45c-1.01,0-1.78-0.2-2.31-0.57
				c-0.53-0.39-0.85-0.98-1-1.78h1.49c0.08,0.42,0.25,0.73,0.53,0.91c0.27,0.17,0.7,0.27,1.29,0.27c1.26,0,1.89-0.69,1.89-2.04V35.4
				c-0.53,0.8-1.26,1.21-2.21,1.21c-0.98,0-1.78-0.34-2.38-1c-0.62-0.66-0.91-1.53-0.91-2.62s0.29-1.96,0.91-2.63
				c0.6-0.69,1.4-1.02,2.38-1.02C578.02,29.31,578.75,29.69,579.28,30.48z M575.83,31.18c-0.36,0.42-0.53,1.02-0.53,1.79
				c0,0.7,0.14,1.26,0.42,1.67c0.32,0.48,0.84,0.73,1.57,0.73c0.63,0,1.12-0.21,1.48-0.63c0.34-0.43,0.52-1.02,0.52-1.76
				c0-0.76-0.18-1.36-0.52-1.79c-0.36-0.45-0.85-0.66-1.48-0.66S576.17,30.73,575.83,31.18z"/>
			<path class="st4" d="M584.23,26.89c0.2,0.18,0.29,0.42,0.29,0.71c0,0.29-0.11,0.53-0.31,0.73c-0.2,0.18-0.45,0.28-0.73,0.28
				c-0.29,0-0.53-0.1-0.73-0.28c-0.2-0.2-0.29-0.45-0.29-0.73c0-0.29,0.1-0.53,0.29-0.71c0.2-0.2,0.43-0.28,0.73-0.28
				C583.79,26.61,584.04,26.69,584.23,26.89z M584.23,29.51v7.24h-1.49v-7.24H584.23z"/>
			<path class="st4" d="M592.61,32.28v4.47h-1.48v-4.34c0-1.23-0.57-1.85-1.7-1.85c-0.42,0-0.8,0.14-1.11,0.45
				c-0.34,0.34-0.55,0.8-0.6,1.39v4.36h-1.48v-7.24h1.48v0.9c0.28-0.36,0.6-0.63,0.97-0.81c0.36-0.2,0.77-0.28,1.22-0.28
				C591.7,29.31,592.61,30.29,592.61,32.28z"/>
			<path class="st4" d="M600.07,30.52c0.56,0.73,0.85,1.74,0.87,3.03h-5.49c0.06,0.7,0.24,1.25,0.57,1.62
				c0.34,0.36,0.8,0.56,1.39,0.56c0.52,0,0.94-0.13,1.26-0.36c0.25-0.2,0.46-0.52,0.66-0.94h1.48c-0.17,0.67-0.49,1.25-0.99,1.7
				c-0.63,0.55-1.43,0.83-2.4,0.83c-1.06,0-1.92-0.34-2.54-1c-0.67-0.7-1.01-1.64-1.01-2.83c0-1.08,0.31-1.98,0.95-2.7
				c0.62-0.74,1.47-1.11,2.54-1.11C598.54,29.31,599.45,29.7,600.07,30.52z M596.08,31.02c-0.31,0.32-0.52,0.79-0.6,1.4h3.91
				c-0.14-1.26-0.8-1.89-1.97-1.89C596.85,30.53,596.42,30.68,596.08,31.02z"/>
		</g>
	</g>
</g>
<g id="RectEndPoint13_1_" transform="translate(45.90625,521)">
	<rect x="400" y="19.75" class="st10" width="356.47" height="50"/>
	<rect x="398" y="17.75" class="st11" width="356.47" height="50"/>
	<g transform="translate(20 9)">
		<g class="st3">
			<path class="st4" d="M546.34,29.42c0.71,0.56,1.16,1.39,1.34,2.51h-1.54c-0.14-0.67-0.45-1.18-0.92-1.51
				c-0.48-0.35-1.12-0.52-1.91-0.52c-0.97,0-1.74,0.32-2.31,0.99c-0.62,0.7-0.91,1.67-0.91,2.9c0,1.21,0.27,2.13,0.83,2.77
				c0.59,0.7,1.51,1.05,2.76,1.05c0.49,0,0.95-0.07,1.39-0.18c0.42-0.11,0.78-0.28,1.12-0.49v-2.17h-2.76v-1.3h4.29v4.2
				c-0.52,0.41-1.12,0.71-1.81,0.94c-0.73,0.22-1.53,0.34-2.4,0.34c-1.6,0-2.83-0.5-3.71-1.51c-0.83-0.94-1.23-2.16-1.23-3.64
				c0-1.5,0.41-2.73,1.23-3.7c0.87-1.04,2.04-1.54,3.52-1.54C544.59,28.55,545.6,28.83,546.34,29.42z"/>
			<path class="st4" d="M553.69,28.75c2.38,0,3.57,1.01,3.57,3.04c0,2.04-1.2,3.07-3.6,3.07h-2.59v3.89h-1.53v-10H553.69z
				 M551.07,33.55h2.49c0.76,0,1.3-0.14,1.65-0.42c0.34-0.28,0.52-0.73,0.52-1.34s-0.18-1.06-0.53-1.32
				c-0.35-0.28-0.9-0.42-1.64-0.42h-2.49V33.55z"/>
			<path class="st4" d="M560.2,28.75v6.22c0,0.9,0.2,1.55,0.62,1.99c0.42,0.43,1.08,0.66,1.99,0.66c0.9,0,1.56-0.22,1.98-0.66
				c0.41-0.43,0.62-1.09,0.62-1.99v-6.22h1.53v6.19c0,1.3-0.36,2.3-1.08,2.98c-0.71,0.67-1.72,1.02-3.04,1.02
				c-1.33,0-2.34-0.34-3.04-1.01c-0.73-0.7-1.09-1.7-1.09-3v-6.19L560.2,28.75L560.2,28.75z"/>
		</g>
	</g>
</g>
<g transform="translate(0 0)">
	<g class="st3">
		<path class="st12" d="M398.36,378.27c0.86,0,1.56,0.19,2.06,0.59c0.53,0.43,0.79,1.04,0.79,1.86c0,0.46-0.12,0.85-0.36,1.2
			c-0.28,0.38-0.65,0.64-1.12,0.75v0.02c0.77,0.17,1.19,0.67,1.28,1.51l0.14,1.37c0.05,0.53,0.22,0.95,0.5,1.26h-1.42
			c-0.2-0.26-0.32-0.65-0.37-1.13l-0.11-1.07c-0.05-0.48-0.2-0.82-0.46-1.03c-0.26-0.22-0.64-0.31-1.13-0.31h-2.31v3.54h-1.31v-8.56
			H398.36z M395.88,382.18h2.31c0.58,0,1.01-0.13,1.3-0.37c0.28-0.24,0.42-0.59,0.42-1.04c0-0.48-0.14-0.83-0.41-1.04
			c-0.29-0.23-0.72-0.34-1.32-0.34h-2.3V382.18z"/>
		<path class="st12" d="M405.99,378.27c1.38,0,2.42,0.38,3.14,1.16c0.67,0.72,1.01,1.76,1.01,3.12c0,1.34-0.35,2.39-1.03,3.13
			c-0.72,0.77-1.76,1.15-3.14,1.15h-3.09v-8.56H405.99z M404.18,385.72h1.55c1.08,0,1.88-0.26,2.39-0.78
			c0.49-0.52,0.74-1.31,0.74-2.39c0-1.1-0.25-1.9-0.73-2.4c-0.5-0.52-1.29-0.77-2.38-0.77h-1.57L404.18,385.72L404.18,385.72z"/>
		<path class="st12" d="M413.03,378.27l2.99,6.86h0.04l2.97-6.86h1.55v8.56h-1.31v-6.12h-0.05l-2.63,6.12h-1.13l-2.63-6.12h-0.05
			v6.12h-1.31v-8.56H413.03z"/>
		<path class="st12" d="M426.2,378.27l3.3,8.56h-1.4l-0.8-2.21h-3.68l-0.8,2.21h-1.39l3.3-8.56H426.2z M426.9,383.55l-1.42-3.87
			h-0.05l-1.43,3.87H426.9z"/>
	</g>
</g>
<g id="assistantgroup" transform="translate(0,0)">
</g>
<polygon class="st12" points="428.25,401.05 433.25,396.05 428.25,391.05 "/>
<polygon class="st12" points="392.9,391.05 387.9,396.05 392.9,401.05 "/>
<line class="st0" x1="392.25" y1="396.05" x2="428.25" y2="396.05"/>
<polygon class="st12" points="621.51,193.57 626.01,198.57 630.51,193.57 "/>
<polygon class="st12" points="176.51,193.37 181.01,198.37 185.51,193.37 "/>
</svg>
