<?xml version="1.0" encoding="utf-8"?>
<!-- Generator: Adobe Illustrator 24.0.1, SVG Export Plug-In . SVG Version: 6.00 Build 0)  -->
<svg version="1.1" id="图层_1" xmlns="http://www.w3.org/2000/svg" xmlns:xlink="http://www.w3.org/1999/xlink" x="0px" y="0px"
	 width="820px" height="590px" viewBox="0 0 820 590" style="enable-background:new 0 0 820 590;" xml:space="preserve">
<style type="text/css">
	.st0{fill:#00A4FF;}
	.st1{fill:none;stroke:#00A4FF;stroke-miterlimit:10;stroke-dasharray:4,2;}
	.st2{fill:#CEE3FF;}
	.st3{display:none;fill:none;stroke:#999999;}
	.st4{fill-opacity:0;}
	.st5{fill:none;stroke:#BABABA;stroke-dasharray:5;}
	.st6{enable-background:new    ;}
	.st7{fill:#444444;}
	.st8{fill:none;stroke:#888888;}
	.st9{fill-rule:evenodd;clip-rule:evenodd;fill:#888888;}
	.st10{fill:none;stroke:#FF0000;stroke-width:15;stroke-opacity:0;}
	.st11{opacity:0.6;fill:#BBBBBB;enable-background:new    ;}
	.st12{fill:#FFFFFF;stroke:#E5E5E5;}
</style>
<polygon class="st0" points="105.19,502.54 110.19,497.54 115.19,502.54 "/>
<line class="st1" x1="110.19" y1="543.86" x2="110.19" y2="501.54"/>
<polygon class="st0" points="221.91,502.54 226.91,497.54 231.91,502.54 "/>
<line class="st1" x1="226.91" y1="543.86" x2="226.91" y2="501.54"/>
<polygon class="st0" points="338.63,502.54 343.63,497.54 348.63,502.54 "/>
<line class="st1" x1="343.63" y1="543.86" x2="343.63" y2="501.54"/>
<polygon class="st0" points="455.35,502.54 460.35,497.54 465.35,502.54 "/>
<line class="st1" x1="460.35" y1="543.86" x2="460.35" y2="501.54"/>
<polygon class="st0" points="558.08,502.54 563.08,497.54 568.08,502.54 "/>
<line class="st1" x1="563.08" y1="543.86" x2="563.08" y2="501.54"/>
<polygon class="st0" points="643.92,502.54 648.92,497.54 653.92,502.54 "/>
<line class="st1" x1="648.92" y1="543.86" x2="648.92" y2="501.54"/>
<polygon class="st0" points="729.76,502.54 734.76,497.54 739.76,502.54 "/>
<line class="st1" x1="734.76" y1="543.86" x2="734.76" y2="501.54"/>
<rect x="69" y="312.38" class="st2" width="313" height="76"/>
<rect x="446.77" y="312.38" class="st2" width="313" height="76"/>
<path class="st3" d="M-5-0.62L-5-0.62"/>
<rect x="59.5" y="196.38" class="st4" width="714" height="293"/>
<path class="st5" d="M59.5,196.38h714v293h-714V196.38"/>
<g transform="translate(10 10)">
	<g class="st6">
		<path class="st7" d="M68.77,200.38l-4.43,4.3l5.07,5.7h-2.04l-4.06-4.71l-1.3,1.25v3.46h-1.53v-10h1.53v4.83l4.83-4.83H68.77z"/>
		<path class="st7" d="M71.74,203.14v4.41c0,0.62,0.13,1.06,0.39,1.34c0.25,0.28,0.67,0.43,1.25,0.43c0.39,0,0.74-0.17,1.08-0.48
			c0.34-0.32,0.57-0.76,0.7-1.29v-4.43h1.48v7.24h-1.48v-0.98c-0.62,0.78-1.37,1.18-2.28,1.18c-1.75,0-2.62-0.98-2.62-2.93v-4.51
			H71.74z"/>
		<path class="st7" d="M79.82,200.19v4.03c0.59-0.85,1.32-1.28,2.21-1.28c1.04,0,1.85,0.38,2.45,1.13c0.55,0.7,0.83,1.58,0.83,2.65
			c0,1.11-0.28,2.02-0.84,2.72c-0.62,0.76-1.44,1.13-2.51,1.13c-1,0-1.74-0.36-2.24-1.06v0.87h-1.39v-10.2H79.82z M80.35,204.81
			c-0.39,0.48-0.57,1.11-0.57,1.89v0.13c0,0.73,0.15,1.32,0.46,1.78c0.35,0.5,0.85,0.77,1.5,0.77c0.73,0,1.26-0.27,1.61-0.78
			c0.28-0.45,0.43-1.06,0.43-1.86c0-0.8-0.15-1.41-0.46-1.83c-0.35-0.5-0.9-0.74-1.62-0.74C81.13,204.15,80.68,204.36,80.35,204.81z
			"/>
		<path class="st7" d="M92.47,204.15c0.56,0.73,0.85,1.74,0.87,3.03h-5.49c0.06,0.7,0.24,1.25,0.57,1.62
			c0.34,0.36,0.8,0.56,1.39,0.56c0.52,0,0.94-0.13,1.26-0.36c0.25-0.2,0.46-0.52,0.66-0.94h1.48c-0.17,0.67-0.49,1.25-0.99,1.7
			c-0.63,0.55-1.43,0.83-2.4,0.83c-1.06,0-1.92-0.34-2.54-1c-0.67-0.7-1.01-1.64-1.01-2.83c0-1.08,0.31-1.98,0.95-2.7
			c0.62-0.74,1.47-1.11,2.54-1.11C90.95,202.94,91.86,203.34,92.47,204.15z M88.48,204.65c-0.31,0.32-0.52,0.79-0.6,1.4h3.91
			c-0.14-1.26-0.8-1.89-1.97-1.89C89.25,204.16,88.82,204.32,88.48,204.65z"/>
		<path class="st7" d="M98.9,203.13v1.48c-0.36-0.11-0.71-0.15-1.05-0.15c-0.45,0-0.85,0.18-1.2,0.55
			c-0.38,0.39-0.56,0.91-0.56,1.54v3.84H94.6v-7.24h1.48v1.09c0.18-0.39,0.42-0.69,0.7-0.88c0.34-0.28,0.73-0.41,1.18-0.41
			C98.32,202.94,98.65,203,98.9,203.13z"/>
		<path class="st7" d="M106.18,205.91v4.47h-1.48v-4.34c0-1.23-0.57-1.85-1.7-1.85c-0.42,0-0.8,0.14-1.11,0.45
			c-0.34,0.34-0.55,0.8-0.6,1.39v4.36h-1.48v-7.24h1.48v0.9c0.28-0.36,0.6-0.63,0.97-0.81c0.36-0.2,0.77-0.28,1.22-0.28
			C105.27,202.94,106.18,203.93,106.18,205.91z"/>
		<path class="st7" d="M113.64,204.15c0.56,0.73,0.85,1.74,0.87,3.03h-5.49c0.06,0.7,0.24,1.25,0.57,1.62
			c0.34,0.36,0.8,0.56,1.39,0.56c0.52,0,0.94-0.13,1.26-0.36c0.25-0.2,0.46-0.52,0.66-0.94h1.48c-0.17,0.67-0.49,1.25-0.99,1.7
			c-0.63,0.55-1.43,0.83-2.4,0.83c-1.06,0-1.92-0.34-2.54-1c-0.67-0.7-1.01-1.64-1.01-2.83c0-1.08,0.31-1.98,0.95-2.7
			c0.62-0.74,1.47-1.11,2.54-1.11C112.11,202.94,113.02,203.34,113.64,204.15z M109.65,204.65c-0.31,0.32-0.52,0.79-0.6,1.4h3.91
			c-0.14-1.26-0.8-1.89-1.97-1.89C110.42,204.16,109.99,204.32,109.65,204.65z"/>
		<path class="st7" d="M117.97,203.14h1.65v1.23h-1.65v4.2c0,0.2,0.04,0.34,0.13,0.43c0.08,0.08,0.21,0.14,0.39,0.14h0.95v1.23
			h-1.19c-0.62,0-1.08-0.17-1.36-0.49c-0.28-0.31-0.41-0.74-0.41-1.32v-4.2h-1.34v-1.23h1.34v-1.72l1.49-0.62V203.14z"/>
		<path class="st7" d="M126.58,204.15c0.56,0.73,0.85,1.74,0.87,3.03h-5.49c0.06,0.7,0.24,1.25,0.57,1.62
			c0.34,0.36,0.8,0.56,1.39,0.56c0.52,0,0.94-0.13,1.26-0.36c0.25-0.2,0.46-0.52,0.66-0.94h1.48c-0.17,0.67-0.49,1.25-0.99,1.7
			c-0.63,0.55-1.43,0.83-2.4,0.83c-1.06,0-1.92-0.34-2.54-1c-0.67-0.7-1.01-1.64-1.01-2.83c0-1.08,0.31-1.98,0.95-2.7
			c0.62-0.74,1.47-1.11,2.54-1.11C125.05,202.94,125.96,203.34,126.58,204.15z M122.58,204.65c-0.31,0.32-0.52,0.79-0.6,1.4h3.91
			c-0.14-1.26-0.8-1.89-1.97-1.89C123.35,204.16,122.92,204.32,122.58,204.65z"/>
		<path class="st7" d="M134.49,205.23h-1.44c-0.11-0.39-0.28-0.66-0.52-0.81c-0.25-0.17-0.64-0.25-1.15-0.25
			c-0.45,0-0.78,0.06-1.01,0.2c-0.27,0.14-0.39,0.36-0.39,0.64c0,0.25,0.2,0.46,0.59,0.64c0.25,0.11,0.73,0.25,1.46,0.43
			c0.83,0.2,1.44,0.43,1.83,0.69c0.57,0.36,0.87,0.87,0.87,1.51c0,1.53-1.08,2.3-3.22,2.3c-1.99,0-3.05-0.85-3.22-2.54h1.46
			c0.08,0.49,0.27,0.84,0.52,1.04c0.25,0.18,0.64,0.28,1.2,0.28c1.15,0,1.74-0.34,1.74-0.98c0-0.35-0.22-0.63-0.64-0.83
			c-0.22-0.11-0.71-0.25-1.46-0.42c-0.85-0.2-1.46-0.41-1.79-0.63c-0.56-0.35-0.84-0.84-0.84-1.46c0-0.66,0.27-1.18,0.81-1.54
			c0.55-0.38,1.26-0.56,2.13-0.56C133.28,202.94,134.32,203.7,134.49,205.23z"/>
		<path class="st7" d="M136.43,203.65l-0.77-1.01c1.18-1.06,2.06-2.34,2.65-3.8l1.25,0.28c-0.13,0.34-0.27,0.67-0.42,0.98h2.69
			c-0.18-0.39-0.38-0.76-0.59-1.09l1.36-0.22c0.18,0.39,0.36,0.83,0.55,1.32h4.41v1.09h-4.34v0.71h3.78v1.01h-3.78v0.69h3.78v1.01
			h-3.78v0.74h4.61v1.11h-10.48v-3.74C137.06,203.03,136.75,203.34,136.43,203.65z M136.07,208.53v-1.22h5.46v-0.56h1.32v0.56h5.38
			v1.22h-3.84c0.92,0.73,2.25,1.32,4.01,1.76l-0.57,1.18c-2.23-0.76-3.82-1.74-4.79-2.94h-0.18v3.31h-1.32v-3.31h-0.18
			c-0.88,1.15-2.46,2.16-4.73,3l-0.7-1.13c1.91-0.56,3.28-1.19,4.09-1.86H136.07z M141.91,201.19h-3.33v0.71h3.33V201.19z
			 M141.91,202.92h-3.33v0.69h3.33V202.92z M141.91,204.61h-3.33v0.74h3.33V204.61z"/>
		<path class="st7" d="M152.45,205.48c-0.1,0.36-0.21,0.73-0.32,1.06h3.57v5.17h-1.18v-0.76h-1.88v0.78h-1.18v-3.67
			c-0.34,0.63-0.73,1.18-1.16,1.65l-0.7-1.11c0.71-0.79,1.26-1.82,1.62-3.14h-0.97v-1.13h1.23c0.07-0.43,0.14-0.88,0.2-1.33h-1.77
			v-1.18h1.86c0.03-0.45,0.04-0.88,0.06-1.33h-1.5v-1.13h4.97v2.47h0.7v1.18h-0.7v2.47H152.45z M154.52,209.79v-2.05h-1.88v2.05
			H154.52z M152.7,204.35h1.42v-1.33h-1.22C152.84,203.48,152.77,203.93,152.7,204.35z M152.99,201.84h1.12v-1.33h-1.06
			C153.04,200.96,153.02,201.4,152.99,201.84z M156.33,202.73v-1.27h1.44c-0.32-0.74-0.67-1.41-1.04-2.02l1.12-0.53
			c0.39,0.64,0.77,1.37,1.13,2.16l-0.8,0.39h1.34c0.39-0.84,0.73-1.72,1.01-2.66l1.25,0.43c-0.28,0.83-0.57,1.57-0.9,2.23h1.34v1.27
			h-2.21v1.71h1.92v1.23h-1.92v1.72h2.52v1.29h-2.52v3.12h-1.3v-3.12h-2.49v-1.29h2.49v-1.72h-2.06v-1.23h2.06v-1.71H156.33z"/>
	</g>
</g>
<g id="Link3" transform="translate(0,0)">
	<path class="st8" d="M416.5,67.88v33"/>
	<g transform="translate(0, 0.5)">
		<polygon class="st9" points="412,95.88 416.5,101.88 421,95.88 		"/>
	</g>
	<path class="st10" d="M416.5,67.88v33"/>
</g>
<g id="Link6" transform="translate(0,0)">
	<path class="st8" d="M416.5,155.88v53"/>
	<g transform="translate(0, 0.5)">
		<polygon class="st9" points="412,206.88 416.5,212.88 421,206.88 		"/>
	</g>
	<path class="st10" d="M416.5,155.88v53"/>
</g>
<g id="Link10" transform="translate(0,0)">
	<path class="st8" d="M416.5,253.88v25h-298v24"/>
	<g transform="translate(0, 0.5)">
		<polygon class="st9" points="114,297.88 118.5,303.88 123,297.88 		"/>
	</g>
	<path class="st10" d="M416.5,253.88v25"/>
	<path class="st10" d="M416.5,278.88h-298"/>
	<path class="st10" d="M118.5,278.88v24"/>
</g>
<g id="Link11" transform="translate(0,0)">
	<path class="st8" d="M416.5,253.88v25h-195v24"/>
	<g transform="translate(0, 0.5)">
		<polygon class="st9" points="217,297.88 221.5,303.88 226,297.88 		"/>
	</g>
	<path class="st10" d="M416.5,253.88v25"/>
	<path class="st10" d="M416.5,278.88h-195"/>
	<path class="st10" d="M221.5,278.88v24"/>
</g>
<g id="Link12" transform="translate(0,0)">
	<path class="st8" d="M416.5,253.88v25h-92v24"/>
	<g transform="translate(0, 0.5)">
		<polygon class="st9" points="320,297.88 324.5,303.88 329,297.88 		"/>
	</g>
	<path class="st10" d="M416.5,253.88v25"/>
	<path class="st10" d="M416.5,278.88h-92"/>
	<path class="st10" d="M324.5,278.88v24"/>
</g>
<g id="Link14" transform="translate(0,0)">
	<path class="st8" d="M118.5,372.88v27h103v17"/>
	<g transform="translate(0, 0.5)">
		<polygon class="st9" points="217,411.88 221.5,417.88 226,411.88 		"/>
	</g>
	<path class="st10" d="M118.5,362.88v27"/>
	<path class="st10" d="M118.5,399.88h103"/>
	<path class="st10" d="M221.5,399.88v17"/>
</g>
<g id="Link15" transform="translate(0,0)">
	<path class="st8" d="M221.5,367.88v34"/>
	<path class="st10" d="M221.5,367.88v34"/>
</g>
<g id="Link16" transform="translate(0,0)">
	<path class="st8" d="M326.5,372.88v27h-105v17"/>
	<g transform="translate(0, 0.5)">
		<polygon class="st9" points="217,411.88 221.5,417.88 226,411.88 		"/>
	</g>
	<path class="st10" d="M326.5,362.88v27"/>
	<path class="st10" d="M326.5,399.88h-105"/>
	<path class="st10" d="M221.5,399.88v17"/>
</g>
<g id="Link20" transform="translate(0,0)">
	<path class="st8" d="M416.5,253.88v25h82v24"/>
	<g transform="translate(0, 0.5)">
		<polygon class="st9" points="494,297.88 498.5,303.88 503,297.88 		"/>
	</g>
	<path class="st10" d="M416.5,253.88v25"/>
	<path class="st10" d="M416.5,278.88h82"/>
	<path class="st10" d="M498.5,278.88v24"/>
</g>
<g id="Link21" transform="translate(0,0)">
	<path class="st8" d="M416.5,253.88v25h187v24"/>
	<g transform="translate(0, 0.5)">
		<polygon class="st9" points="599,297.88 603.5,303.88 608,297.88 		"/>
	</g>
	<path class="st10" d="M416.5,253.88v25"/>
	<path class="st10" d="M416.5,278.88h187"/>
	<path class="st10" d="M603.5,278.88v24"/>
</g>
<g id="Link22" transform="translate(0,0)">
	<path class="st8" d="M416.5,253.88v25h292v24"/>
	<g transform="translate(0, 0.5)">
		<polygon class="st9" points="704,297.88 708.5,303.88 713,297.88 		"/>
	</g>
	<path class="st10" d="M416.5,253.88v25"/>
	<path class="st10" d="M416.5,278.88h292"/>
	<path class="st10" d="M708.5,278.88v24"/>
</g>
<g id="Link24" transform="translate(0,0)">
	<path class="st8" d="M498.5,372.88v27h105v17"/>
	<g transform="translate(0, 0.5)">
		<polygon class="st9" points="599,411.88 603.5,417.88 608,411.88 		"/>
	</g>
	<path class="st10" d="M498.5,362.88v27"/>
	<path class="st10" d="M498.5,399.88h105"/>
	<path class="st10" d="M603.5,399.88v17"/>
</g>
<g id="Link25" transform="translate(0,0)">
	<path class="st8" d="M603.5,367.88v34"/>
	<path class="st10" d="M603.5,367.88v34"/>
</g>
<g id="Link26" transform="translate(0,0)">
	<path class="st8" d="M708.5,372.88v27h-105v17"/>
	<g transform="translate(0, 0.5)">
		<polygon class="st9" points="599,411.88 603.5,417.88 608,411.88 		"/>
	</g>
	<path class="st10" d="M708.5,362.88v27"/>
	<path class="st10" d="M708.5,399.88h-105"/>
	<path class="st10" d="M603.5,399.88v17"/>
</g>
<g id="RectEndPoint1" transform="translate(373,49)">
	<rect x="-3" y="-28.62" class="st11" width="97" height="50"/>
	<rect x="-5" y="-30.62" class="st12" width="97" height="50"/>
	<g transform="translate(20 9)">
		<g class="st6">
			<path class="st7" d="M1.15-20.99v11.01h1.68v-11.01h1.33v11.01h4.09v1.3H-4.24v-1.3h4.06v-11.01H1.15z M-0.92-11.98l-1.22,0.31
				c-0.48-2.2-1.09-4.33-1.82-6.37l1.13-0.36C-2.11-16.54-1.48-14.39-0.92-11.98z M7.96-18.05c-0.53,2.41-1.22,4.51-2.06,6.32
				l-1.19-0.42c0.78-1.62,1.49-3.71,2.07-6.23L7.96-18.05z"/>
			<path class="st7" d="M15-20.96c-0.14,0.34-0.29,0.66-0.46,0.95h6v1.08c-0.84,0.97-1.86,1.81-3.05,2.51
				c1.5,0.56,3.17,0.94,5.01,1.11l-0.6,1.25c-2.17-0.25-4.13-0.79-5.87-1.61c-1.68,0.76-3.64,1.3-5.85,1.64l-0.62-1.25
				c1.88-0.24,3.56-0.63,5.01-1.18c-0.67-0.39-1.29-0.84-1.86-1.32c-0.48,0.41-1,0.78-1.57,1.13l-0.81-1.06
				c1.64-0.94,2.75-2.09,3.32-3.45L15-20.96z M16.31-14.83c0,0.5-0.04,0.98-0.11,1.43h4.83C21-10.95,20.79-9.48,20.4-9
				c-0.39,0.48-1.09,0.73-2.07,0.73c-0.48,0-1.06-0.03-1.74-0.07l-0.34-1.2c0.73,0.03,1.32,0.06,1.76,0.08
				c0.71-0.01,1.16-0.17,1.34-0.45c0.18-0.29,0.29-1.06,0.34-2.3h-3.8c-0.13,0.34-0.27,0.66-0.43,0.95c-0.7,1.26-2.34,2.3-4.93,3.12
				L9.66-9.21c2.28-0.67,3.78-1.48,4.48-2.45c0.11-0.18,0.22-0.36,0.31-0.55h-3.94v-1.19h4.34c0.08-0.45,0.14-0.92,0.14-1.43H16.31z
				 M18.58-18.76h-4.92c-0.04,0.04-0.07,0.07-0.08,0.1c0.73,0.6,1.54,1.13,2.42,1.58C16.97-17.56,17.83-18.12,18.58-18.76z"/>
			<path class="st7" d="M26.82-15.58l-0.94,0.94c-0.53-0.64-1.27-1.33-2.23-2.07l0.95-0.92C25.49-16.96,26.24-16.27,26.82-15.58z
				 M26.92-13.41c-0.53,1.79-1.12,3.47-1.78,5.06L23.92-8.9c0.7-1.61,1.32-3.26,1.82-4.96L26.92-13.41z M27.12-19.17l-0.94,0.94
				c-0.53-0.56-1.26-1.18-2.2-1.82l0.97-0.92C25.8-20.39,26.53-19.79,27.12-19.17z M29.51-14.59c-0.06,1.85-0.24,3.19-0.55,4.06
				c-0.34,0.9-0.91,1.67-1.69,2.34l-0.85-1.05c0.64-0.53,1.09-1.16,1.36-1.89c0.25-0.7,0.39-1.85,0.45-3.46H29.51z M27.47-16.19
				c0.11-0.04,0.21-0.08,0.27-0.11c0.49-0.29,1.11-1.06,1.86-2.3h-2.21v-1.19h3.74c-0.17-0.45-0.35-0.87-0.55-1.26l1.36-0.22
				c0.18,0.45,0.36,0.94,0.55,1.48h3.59v1.19h-5.1c-0.56,0.98-1.05,1.74-1.5,2.27c1.4-0.1,2.82-0.22,4.22-0.38
				c-0.27-0.35-0.53-0.7-0.81-1.05l1.08-0.66c0.97,1.15,1.71,2.16,2.21,3.03l-1.11,0.77c-0.2-0.34-0.41-0.69-0.63-1.02
				c-2.04,0.24-4.27,0.43-6.67,0.57L27.47-16.19z M31.85-14.59v6.14h-1.34v-6.14H31.85z M34.47-8.31c-0.95,0-1.42-0.42-1.42-1.23
				v-5.04h1.26v4.79c0,0.15,0.07,0.25,0.21,0.28h0.5c0.18-0.03,0.28-0.22,0.31-0.56c0.03-0.36,0.06-0.9,0.06-1.57l1.16,0.43
				c0,1.32-0.1,2.13-0.28,2.42c-0.18,0.28-0.57,0.43-1.19,0.48H34.47z"/>
			<path class="st7" d="M50.31-16.75v0.95H37.7v-0.95H50.31z M49-15.22v3.64h-4.36v0.62h4.64v0.85h-4.64v0.66h5.66v1.01H37.7v-1.01
				h5.63v-0.66h-4.58v-0.85h4.58v-0.62h-4.3v-3.64H49z M48.71-20.89v3.56h-9.37v-3.56H48.71z M43.33-13.76v-0.67h-3.04v0.67H43.33z
				 M43.33-13.04h-3.04v0.67h3.04V-13.04z M47.44-19.49v-0.63h-6.82v0.63H47.44z M47.44-18.74h-6.82v0.64h6.82V-18.74z M44.65-13.76
				h3.1v-0.67h-3.1V-13.76z M47.74-13.04h-3.1v0.67h3.1V-13.04z"/>
		</g>
	</g>
</g>
<g id="ShadowBasicRect2" transform="translate(352.5,137)">
	<rect x="-3" y="-28.62" class="st11" width="138" height="50"/>
	<rect x="-5" y="-30.62" class="st12" width="138" height="50"/>
	<g transform="translate(20 9)">
		<g class="st6">
			<path class="st7" d="M39.49-19.62v8.7H45v1.3h-7.02v-10H39.49z"/>
			<path class="st7" d="M50.82-19.62c0.98,0,1.74,0.22,2.3,0.7c0.53,0.45,0.8,1.05,0.8,1.82c0,0.56-0.14,1.04-0.42,1.43
				c-0.28,0.36-0.66,0.64-1.16,0.83c0.66,0.13,1.16,0.39,1.5,0.8s0.5,0.95,0.5,1.62c0,1.01-0.35,1.74-1.04,2.21
				c-0.59,0.39-1.42,0.59-2.48,0.59h-4.57v-10H50.82z M47.78-15.37h2.63c0.7,0,1.21-0.13,1.51-0.36c0.31-0.25,0.46-0.64,0.46-1.18
				c0-0.5-0.15-0.87-0.46-1.09c-0.31-0.24-0.81-0.35-1.48-0.35h-2.66V-15.37z M47.78-10.88h2.83c0.64,0,1.15-0.11,1.51-0.31
				c0.45-0.27,0.69-0.69,0.69-1.26c0-0.59-0.18-1.02-0.53-1.29c-0.35-0.27-0.9-0.39-1.62-0.39h-2.87V-10.88z"/>
		</g>
	</g>
</g>
<g id="RectEndPoint5" transform="translate(380.5,245)">
	<rect x="-3" y="-24.62" class="st11" width="82" height="50"/>
	<rect x="-5" y="-26.62" class="st12" width="82" height="50"/>
	<g transform="translate(20 9)">
		<g class="st6">
			<path class="st7" d="M-1.22-16.56c-0.59,1.5-1.57,2.86-2.94,4.06l-0.41-1.29c0.99-0.95,1.74-2.04,2.21-3.31L-1.22-16.56z
				 M-1.16-12.8c-0.18,0.49-0.41,0.97-0.66,1.43v7.23h-1.25v-5.48c-0.32,0.36-0.67,0.71-1.05,1.06l-0.39-1.27
				c1.01-1.01,1.75-2.17,2.23-3.5L-1.16-12.8z M1.67-6.07C1.84-6.16,1.93-6.3,1.98-6.5v-2.2h-1.2v0.63
				c-0.03,1.71-0.46,2.98-1.3,3.82L-1.51-5.1c0.69-0.69,1.04-1.68,1.05-2.97V-9.9h3.6v2.91C3.47-7.3,3.83-7.62,4.17-7.98l0.27,1.11
				C3.71-6.09,2.97-5.46,2.21-4.97L1.67-6.07z M2-17.1v3.1h0.69v-2.34h1.08v3.46H-0.9v-3.46H0.2v2.34h0.7v-3.1H2z M4.82-11.07
				c-0.21,0.52-0.43,1-0.67,1.42l-0.73-0.92c0.03-0.06,0.04-0.1,0.07-0.15h-4.36v-1.18h4.45v0.95C4.27-12.54,4.75-14.6,5-17.13
				l1.16,0.2C6.08-16.26,6-15.62,5.88-15h2.48v1.25H7.87c-0.06,2.32-0.41,4.3-1.04,5.94C7.33-6.78,7.9-5.98,8.57-5.39L7.82-4.26
				c-0.59-0.59-1.11-1.36-1.56-2.3c-0.5,0.92-1.12,1.71-1.85,2.37l-0.7-1.12C4.53-6,5.17-6.89,5.66-8
				C5.32-8.92,5.04-9.95,4.82-11.07z M5.39-12.79c0.2,1.23,0.46,2.34,0.78,3.32c0.34-1.25,0.53-2.67,0.57-4.29H5.63
				C5.55-13.42,5.48-13.1,5.39-12.79z"/>
			<path class="st7" d="M10.65-4.15L9.64-5.06c0.56-1.22,0.84-2.77,0.85-4.67v-6.88h4.36v10.95c0,0.95-0.43,1.43-1.29,1.43h-1.12
				l-0.32-1.18c0.39,0.04,0.74,0.07,1.08,0.07c0.29,0,0.45-0.25,0.45-0.76v-2.8h-1.99C11.56-6.98,11.23-5.39,10.65-4.15z
				 M13.65-15.4h-1.96v2.07h1.96V-15.4z M11.69-10.09h1.96v-2.04h-1.96V-10.09z M17.05-4.16h-1.25V-16.6h5.9
				c0,1.82-0.08,3.03-0.25,3.63c-0.17,0.59-0.7,0.88-1.6,0.88h-1.18l-0.35-1.12c0.22,0,0.53,0.01,0.92,0.01
				c0.29,0,0.52-0.03,0.66-0.07c0.14-0.04,0.25-0.17,0.34-0.36c0.08-0.24,0.14-0.83,0.17-1.77h-3.36v3.95h4.73v1.12
				c-0.25,1.37-0.67,2.55-1.26,3.52c0.57,0.55,1.25,1.04,2,1.48L21.87-4.2c-0.8-0.48-1.5-1.01-2.09-1.58
				c-0.57,0.64-1.26,1.18-2.05,1.6l-0.69-1.04V-4.16z M17.05-5.27c0.73-0.39,1.34-0.9,1.86-1.49c-0.81-1.04-1.37-2.21-1.68-3.52
				h-0.18V-5.27z M19.65-7.79c0.42-0.73,0.74-1.55,0.97-2.48h-2.24C18.65-9.36,19.07-8.53,19.65-7.79z"/>
			<path class="st7" d="M29-16.96c-0.14,0.34-0.29,0.66-0.46,0.95h6v1.08c-0.84,0.97-1.86,1.81-3.05,2.51
				c1.5,0.56,3.17,0.94,5.01,1.11l-0.6,1.25c-2.17-0.25-4.13-0.79-5.87-1.61c-1.68,0.76-3.64,1.3-5.85,1.64l-0.62-1.25
				c1.88-0.24,3.56-0.63,5.01-1.18c-0.67-0.39-1.29-0.84-1.86-1.32c-0.48,0.41-1,0.78-1.57,1.13l-0.81-1.06
				c1.64-0.94,2.75-2.09,3.32-3.45L29-16.96z M30.31-10.83c0,0.5-0.04,0.98-0.11,1.43h4.83C35-6.95,34.79-5.48,34.4-5
				c-0.39,0.48-1.09,0.73-2.07,0.73c-0.48,0-1.06-0.03-1.74-0.07l-0.34-1.2c0.73,0.03,1.32,0.06,1.76,0.08
				c0.71-0.01,1.16-0.17,1.34-0.45c0.18-0.29,0.29-1.06,0.34-2.3h-3.8c-0.13,0.34-0.27,0.66-0.43,0.95c-0.7,1.26-2.34,2.3-4.93,3.12
				l-0.88-1.08c2.28-0.67,3.78-1.48,4.48-2.45c0.11-0.18,0.22-0.36,0.31-0.55h-3.94V-9.4h4.34C28.94-9.85,29-10.32,29-10.83H30.31z
				 M32.58-14.76h-4.92c-0.04,0.04-0.07,0.07-0.08,0.1c0.73,0.6,1.54,1.13,2.42,1.58C30.97-13.56,31.83-14.12,32.58-14.76z"/>
		</g>
	</g>
</g>
<g id="RectEndPoint7" transform="translate(82.5,349)">
	<rect x="-3" y="-22.62" class="st11" width="82" height="50"/>
	<rect x="-5" y="-24.62" class="st12" width="82" height="50"/>
	<g transform="translate(20 9)">
		<g class="st6">
			<path class="st7" d="M-1.22-14.56c-0.59,1.5-1.57,2.86-2.94,4.06l-0.41-1.29c0.99-0.95,1.74-2.04,2.21-3.31L-1.22-14.56z
				 M-1.16-10.8c-0.18,0.49-0.41,0.97-0.66,1.43v7.23h-1.25v-5.48c-0.32,0.36-0.67,0.71-1.05,1.06l-0.39-1.27
				c1.01-1.01,1.75-2.17,2.23-3.5L-1.16-10.8z M1.67-4.07C1.84-4.16,1.93-4.3,1.98-4.5v-2.2h-1.2v0.63
				c-0.03,1.71-0.46,2.98-1.3,3.82L-1.51-3.1c0.69-0.69,1.04-1.68,1.05-2.97V-7.9h3.6v2.91C3.47-5.3,3.83-5.62,4.17-5.99l0.27,1.11
				C3.71-4.09,2.97-3.46,2.21-2.97L1.67-4.07z M2-15.1v3.1h0.69v-2.34h1.08v3.46H-0.9v-3.46H0.2v2.34h0.7v-3.1H2z M4.82-9.07
				c-0.21,0.52-0.43,1-0.67,1.42L3.42-8.58c0.03-0.06,0.04-0.1,0.07-0.15h-4.36v-1.18h4.45v0.95C4.27-10.54,4.75-12.6,5-15.13
				l1.16,0.2C6.08-14.26,6-13.62,5.88-13h2.48v1.25H7.87c-0.06,2.32-0.41,4.3-1.04,5.94C7.33-4.78,7.9-3.98,8.57-3.39L7.82-2.26
				c-0.59-0.59-1.11-1.36-1.56-2.3c-0.5,0.92-1.12,1.71-1.85,2.37l-0.7-1.12C4.53-4,5.17-4.89,5.66-6C5.32-6.92,5.04-7.95,4.82-9.07
				z M5.39-10.79c0.2,1.23,0.46,2.34,0.78,3.32c0.34-1.25,0.53-2.67,0.57-4.29H5.63C5.55-11.42,5.48-11.1,5.39-10.79z"/>
			<path class="st7" d="M10.65-2.15L9.64-3.06c0.56-1.22,0.84-2.77,0.85-4.67v-6.88h4.36v10.95c0,0.95-0.43,1.43-1.29,1.43h-1.12
				l-0.32-1.18c0.39,0.04,0.74,0.07,1.08,0.07c0.29,0,0.45-0.25,0.45-0.76v-2.8h-1.99C11.56-4.98,11.23-3.39,10.65-2.15z
				 M13.65-13.4h-1.96v2.07h1.96V-13.4z M11.69-8.09h1.96v-2.04h-1.96V-8.09z M17.05-2.16h-1.25V-14.6h5.9
				c0,1.82-0.08,3.03-0.25,3.63c-0.17,0.59-0.7,0.88-1.6,0.88h-1.18l-0.35-1.12c0.22,0,0.53,0.01,0.92,0.01
				c0.29,0,0.52-0.03,0.66-0.07c0.14-0.04,0.25-0.17,0.34-0.36c0.08-0.24,0.14-0.83,0.17-1.77h-3.36v3.95h4.73v1.12
				c-0.25,1.37-0.67,2.55-1.26,3.52c0.57,0.55,1.25,1.04,2,1.48L21.87-2.2c-0.8-0.48-1.5-1.01-2.09-1.58
				c-0.57,0.64-1.26,1.18-2.05,1.6l-0.69-1.04V-2.16z M17.05-3.27c0.73-0.39,1.34-0.9,1.86-1.49c-0.81-1.04-1.37-2.21-1.68-3.52
				h-0.18V-3.27z M19.65-5.79c0.42-0.73,0.74-1.55,0.97-2.48h-2.24C18.65-7.36,19.07-6.53,19.65-5.79z"/>
			<path class="st7" d="M29-14.96c-0.14,0.34-0.29,0.66-0.46,0.95h6v1.08c-0.84,0.97-1.86,1.81-3.05,2.51
				c1.5,0.56,3.17,0.94,5.01,1.11l-0.6,1.25c-2.17-0.25-4.13-0.79-5.87-1.61c-1.68,0.76-3.64,1.3-5.85,1.64l-0.62-1.25
				c1.88-0.24,3.56-0.63,5.01-1.18c-0.67-0.39-1.29-0.84-1.86-1.32c-0.48,0.41-1,0.78-1.57,1.13l-0.81-1.06
				c1.64-0.94,2.75-2.09,3.32-3.45L29-14.96z M30.31-8.83c0,0.5-0.04,0.98-0.11,1.43h4.83C35-4.95,34.79-3.48,34.4-3
				c-0.39,0.48-1.09,0.73-2.07,0.73c-0.48,0-1.06-0.03-1.74-0.07l-0.34-1.2c0.73,0.03,1.32,0.06,1.76,0.08
				c0.71-0.01,1.16-0.17,1.34-0.45c0.18-0.29,0.29-1.06,0.34-2.3h-3.8c-0.13,0.34-0.27,0.66-0.43,0.95c-0.7,1.26-2.34,2.3-4.93,3.12
				l-0.88-1.08c2.28-0.67,3.78-1.48,4.48-2.45c0.11-0.18,0.22-0.36,0.31-0.55h-3.94V-7.4h4.34C28.94-7.85,29-8.33,29-8.83H30.31z
				 M32.58-12.76h-4.92c-0.04,0.04-0.07,0.07-0.08,0.1c0.73,0.6,1.54,1.13,2.42,1.58C30.97-11.56,31.83-12.12,32.58-12.76z"/>
		</g>
	</g>
</g>
<g id="RectEndPoint8" transform="translate(185.5,349)">
	<rect x="-3" y="-22.62" class="st11" width="82" height="50"/>
	<rect x="-5" y="-24.62" class="st12" width="82" height="50"/>
	<g transform="translate(20 9)">
		<g class="st6">
			<path class="st7" d="M-1.22-14.56c-0.59,1.5-1.57,2.86-2.94,4.06l-0.41-1.29c0.99-0.95,1.74-2.04,2.21-3.31L-1.22-14.56z
				 M-1.16-10.8c-0.18,0.49-0.41,0.97-0.66,1.43v7.23h-1.25v-5.48c-0.32,0.36-0.67,0.71-1.05,1.06l-0.39-1.27
				c1.01-1.01,1.75-2.17,2.23-3.5L-1.16-10.8z M1.67-4.07C1.84-4.16,1.93-4.3,1.98-4.5v-2.2h-1.2v0.63
				c-0.03,1.71-0.46,2.98-1.3,3.82L-1.51-3.1c0.69-0.69,1.04-1.68,1.05-2.97V-7.9h3.6v2.91C3.47-5.3,3.83-5.62,4.17-5.99l0.27,1.11
				C3.71-4.09,2.97-3.46,2.21-2.97L1.67-4.07z M2-15.1v3.1h0.69v-2.34h1.08v3.46H-0.9v-3.46H0.2v2.34h0.7v-3.1H2z M4.82-9.07
				c-0.21,0.52-0.43,1-0.67,1.42L3.42-8.58c0.03-0.06,0.04-0.1,0.07-0.15h-4.36v-1.18h4.45v0.95C4.27-10.54,4.75-12.6,5-15.13
				l1.16,0.2C6.08-14.26,6-13.62,5.88-13h2.48v1.25H7.87c-0.06,2.32-0.41,4.3-1.04,5.94C7.33-4.78,7.9-3.98,8.57-3.39L7.82-2.26
				c-0.59-0.59-1.11-1.36-1.56-2.3c-0.5,0.92-1.12,1.71-1.85,2.37l-0.7-1.12C4.53-4,5.17-4.89,5.66-6C5.32-6.92,5.04-7.95,4.82-9.07
				z M5.39-10.79c0.2,1.23,0.46,2.34,0.78,3.32c0.34-1.25,0.53-2.67,0.57-4.29H5.63C5.55-11.42,5.48-11.1,5.39-10.79z"/>
			<path class="st7" d="M10.65-2.15L9.64-3.06c0.56-1.22,0.84-2.77,0.85-4.67v-6.88h4.36v10.95c0,0.95-0.43,1.43-1.29,1.43h-1.12
				l-0.32-1.18c0.39,0.04,0.74,0.07,1.08,0.07c0.29,0,0.45-0.25,0.45-0.76v-2.8h-1.99C11.56-4.98,11.23-3.39,10.65-2.15z
				 M13.65-13.4h-1.96v2.07h1.96V-13.4z M11.69-8.09h1.96v-2.04h-1.96V-8.09z M17.05-2.16h-1.25V-14.6h5.9
				c0,1.82-0.08,3.03-0.25,3.63c-0.17,0.59-0.7,0.88-1.6,0.88h-1.18l-0.35-1.12c0.22,0,0.53,0.01,0.92,0.01
				c0.29,0,0.52-0.03,0.66-0.07c0.14-0.04,0.25-0.17,0.34-0.36c0.08-0.24,0.14-0.83,0.17-1.77h-3.36v3.95h4.73v1.12
				c-0.25,1.37-0.67,2.55-1.26,3.52c0.57,0.55,1.25,1.04,2,1.48L21.87-2.2c-0.8-0.48-1.5-1.01-2.09-1.58
				c-0.57,0.64-1.26,1.18-2.05,1.6l-0.69-1.04V-2.16z M17.05-3.27c0.73-0.39,1.34-0.9,1.86-1.49c-0.81-1.04-1.37-2.21-1.68-3.52
				h-0.18V-3.27z M19.65-5.79c0.42-0.73,0.74-1.55,0.97-2.48h-2.24C18.65-7.36,19.07-6.53,19.65-5.79z"/>
			<path class="st7" d="M29-14.96c-0.14,0.34-0.29,0.66-0.46,0.95h6v1.08c-0.84,0.97-1.86,1.81-3.05,2.51
				c1.5,0.56,3.17,0.94,5.01,1.11l-0.6,1.25c-2.17-0.25-4.13-0.79-5.87-1.61c-1.68,0.76-3.64,1.3-5.85,1.64l-0.62-1.25
				c1.88-0.24,3.56-0.63,5.01-1.18c-0.67-0.39-1.29-0.84-1.86-1.32c-0.48,0.41-1,0.78-1.57,1.13l-0.81-1.06
				c1.64-0.94,2.75-2.09,3.32-3.45L29-14.96z M30.31-8.83c0,0.5-0.04,0.98-0.11,1.43h4.83C35-4.95,34.79-3.48,34.4-3
				c-0.39,0.48-1.09,0.73-2.07,0.73c-0.48,0-1.06-0.03-1.74-0.07l-0.34-1.2c0.73,0.03,1.32,0.06,1.76,0.08
				c0.71-0.01,1.16-0.17,1.34-0.45c0.18-0.29,0.29-1.06,0.34-2.3h-3.8c-0.13,0.34-0.27,0.66-0.43,0.95c-0.7,1.26-2.34,2.3-4.93,3.12
				l-0.88-1.08c2.28-0.67,3.78-1.48,4.48-2.45c0.11-0.18,0.22-0.36,0.31-0.55h-3.94V-7.4h4.34C28.94-7.85,29-8.33,29-8.83H30.31z
				 M32.58-12.76h-4.92c-0.04,0.04-0.07,0.07-0.08,0.1c0.73,0.6,1.54,1.13,2.42,1.58C30.97-11.56,31.83-12.12,32.58-12.76z"/>
		</g>
	</g>
</g>
<g id="RectEndPoint9" transform="translate(291,349)">
	<rect x="-3" y="-22.62" class="st11" width="82" height="50"/>
	<rect x="-5" y="-24.62" class="st12" width="82" height="50"/>
	<g transform="translate(20 9)">
		<g class="st6">
			<path class="st7" d="M-1.22-14.56c-0.59,1.5-1.57,2.86-2.94,4.06l-0.41-1.29c0.99-0.95,1.74-2.04,2.21-3.31L-1.22-14.56z
				 M-1.16-10.8c-0.18,0.49-0.41,0.97-0.66,1.43v7.23h-1.25v-5.48c-0.32,0.36-0.67,0.71-1.05,1.06l-0.39-1.27
				c1.01-1.01,1.75-2.17,2.23-3.5L-1.16-10.8z M1.67-4.07C1.84-4.16,1.93-4.3,1.98-4.5v-2.2h-1.2v0.63
				c-0.03,1.71-0.46,2.98-1.3,3.82L-1.51-3.1c0.69-0.69,1.04-1.68,1.05-2.97V-7.9h3.6v2.91C3.47-5.3,3.83-5.62,4.17-5.99l0.27,1.11
				C3.71-4.09,2.97-3.46,2.21-2.97L1.67-4.07z M2-15.1v3.1h0.69v-2.34h1.08v3.46H-0.9v-3.46H0.2v2.34h0.7v-3.1H2z M4.82-9.07
				c-0.21,0.52-0.43,1-0.67,1.42L3.42-8.58c0.03-0.06,0.04-0.1,0.07-0.15h-4.36v-1.18h4.45v0.95C4.27-10.54,4.75-12.6,5-15.13
				l1.16,0.2C6.08-14.26,6-13.62,5.88-13h2.48v1.25H7.87c-0.06,2.32-0.41,4.3-1.04,5.94C7.33-4.78,7.9-3.98,8.57-3.39L7.82-2.26
				c-0.59-0.59-1.11-1.36-1.56-2.3c-0.5,0.92-1.12,1.71-1.85,2.37l-0.7-1.12C4.53-4,5.17-4.89,5.66-6C5.32-6.92,5.04-7.95,4.82-9.07
				z M5.39-10.79c0.2,1.23,0.46,2.34,0.78,3.32c0.34-1.25,0.53-2.67,0.57-4.29H5.63C5.55-11.42,5.48-11.1,5.39-10.79z"/>
			<path class="st7" d="M10.65-2.15L9.64-3.06c0.56-1.22,0.84-2.77,0.85-4.67v-6.88h4.36v10.95c0,0.95-0.43,1.43-1.29,1.43h-1.12
				l-0.32-1.18c0.39,0.04,0.74,0.07,1.08,0.07c0.29,0,0.45-0.25,0.45-0.76v-2.8h-1.99C11.56-4.98,11.23-3.39,10.65-2.15z
				 M13.65-13.4h-1.96v2.07h1.96V-13.4z M11.69-8.09h1.96v-2.04h-1.96V-8.09z M17.05-2.16h-1.25V-14.6h5.9
				c0,1.82-0.08,3.03-0.25,3.63c-0.17,0.59-0.7,0.88-1.6,0.88h-1.18l-0.35-1.12c0.22,0,0.53,0.01,0.92,0.01
				c0.29,0,0.52-0.03,0.66-0.07c0.14-0.04,0.25-0.17,0.34-0.36c0.08-0.24,0.14-0.83,0.17-1.77h-3.36v3.95h4.73v1.12
				c-0.25,1.37-0.67,2.55-1.26,3.52c0.57,0.55,1.25,1.04,2,1.48L21.87-2.2c-0.8-0.48-1.5-1.01-2.09-1.58
				c-0.57,0.64-1.26,1.18-2.05,1.6l-0.69-1.04V-2.16z M17.05-3.27c0.73-0.39,1.34-0.9,1.86-1.49c-0.81-1.04-1.37-2.21-1.68-3.52
				h-0.18V-3.27z M19.65-5.79c0.42-0.73,0.74-1.55,0.97-2.48h-2.24C18.65-7.36,19.07-6.53,19.65-5.79z"/>
			<path class="st7" d="M29-14.96c-0.14,0.34-0.29,0.66-0.46,0.95h6v1.08c-0.84,0.97-1.86,1.81-3.05,2.51
				c1.5,0.56,3.17,0.94,5.01,1.11l-0.6,1.25c-2.17-0.25-4.13-0.79-5.87-1.61c-1.68,0.76-3.64,1.3-5.85,1.64l-0.62-1.25
				c1.88-0.24,3.56-0.63,5.01-1.18c-0.67-0.39-1.29-0.84-1.86-1.32c-0.48,0.41-1,0.78-1.57,1.13l-0.81-1.06
				c1.64-0.94,2.75-2.09,3.32-3.45L29-14.96z M30.31-8.83c0,0.5-0.04,0.98-0.11,1.43h4.83C35-4.95,34.79-3.48,34.4-3
				c-0.39,0.48-1.09,0.73-2.07,0.73c-0.48,0-1.06-0.03-1.74-0.07l-0.34-1.2c0.73,0.03,1.32,0.06,1.76,0.08
				c0.71-0.01,1.16-0.17,1.34-0.45c0.18-0.29,0.29-1.06,0.34-2.3h-3.8c-0.13,0.34-0.27,0.66-0.43,0.95c-0.7,1.26-2.34,2.3-4.93,3.12
				l-0.88-1.08c2.28-0.67,3.78-1.48,4.48-2.45c0.11-0.18,0.22-0.36,0.31-0.55h-3.94V-7.4h4.34C28.94-7.85,29-8.33,29-8.83H30.31z
				 M32.58-12.76h-4.92c-0.04,0.04-0.07,0.07-0.08,0.1c0.73,0.6,1.54,1.13,2.42,1.58C30.97-11.56,31.83-12.12,32.58-12.76z"/>
		</g>
	</g>
</g>
<g id="RectEndPoint13" transform="translate(185.5,438)">
	<rect x="-3" y="-11.62" class="st11" width="82" height="50"/>
	<rect x="-5" y="-13.62" class="st12" width="82" height="50"/>
	<g transform="translate(20 9)">
		<g class="st6">
			<path class="st7" d="M-1.22-3.56C-1.81-2.06-2.79-0.7-4.16,0.5l-0.41-1.29c0.99-0.95,1.74-2.04,2.21-3.31L-1.22-3.56z M-1.16,0.2
				c-0.18,0.49-0.41,0.97-0.66,1.43v7.23h-1.25V3.38c-0.32,0.36-0.67,0.71-1.05,1.06l-0.39-1.27c1.01-1.01,1.75-2.17,2.23-3.5
				L-1.16,0.2z M1.67,6.93C1.84,6.84,1.93,6.7,1.98,6.5V4.3h-1.2v0.63c-0.03,1.71-0.46,2.98-1.3,3.82L-1.51,7.9
				c0.69-0.69,1.04-1.68,1.05-2.97V3.1h3.6v2.91C3.47,5.7,3.83,5.38,4.17,5.01l0.27,1.11C3.71,6.91,2.97,7.54,2.21,8.03L1.67,6.93z
				 M2-4.1v3.1h0.69v-2.34h1.08v3.46H-0.9v-3.46H0.2v2.34h0.7v-3.1H2z M4.82,1.93c-0.21,0.52-0.43,1-0.67,1.42L3.42,2.42
				c0.03-0.06,0.04-0.1,0.07-0.15h-4.36V1.09h4.45v0.95C4.27,0.46,4.75-1.6,5-4.13l1.16,0.2C6.08-3.26,6-2.62,5.88-2h2.48v1.25H7.87
				c-0.06,2.32-0.41,4.3-1.04,5.94C7.33,6.22,7.9,7.02,8.57,7.61L7.82,8.74c-0.59-0.59-1.11-1.36-1.56-2.3
				c-0.5,0.92-1.12,1.71-1.85,2.37l-0.7-1.12C4.53,7,5.17,6.11,5.66,5C5.32,4.08,5.04,3.05,4.82,1.93z M5.39,0.21
				c0.2,1.23,0.46,2.34,0.78,3.32c0.34-1.25,0.53-2.67,0.57-4.29H5.63C5.55-0.42,5.48-0.1,5.39,0.21z"/>
			<path class="st7" d="M10.65,8.85L9.64,7.94c0.56-1.22,0.84-2.77,0.85-4.67V-3.6h4.36V7.35c0,0.95-0.43,1.43-1.29,1.43h-1.12
				l-0.32-1.18c0.39,0.04,0.74,0.07,1.08,0.07c0.29,0,0.45-0.25,0.45-0.76v-2.8h-1.99C11.56,6.02,11.23,7.61,10.65,8.85z M13.65-2.4
				h-1.96v2.07h1.96V-2.4z M11.69,2.91h1.96V0.87h-1.96V2.91z M17.05,8.84h-1.25V-3.6h5.9c0,1.82-0.08,3.03-0.25,3.63
				c-0.17,0.59-0.7,0.88-1.6,0.88h-1.18l-0.35-1.12c0.22,0,0.53,0.01,0.92,0.01c0.29,0,0.52-0.03,0.66-0.07
				c0.14-0.04,0.25-0.17,0.34-0.36c0.08-0.24,0.14-0.83,0.17-1.77h-3.36v3.95h4.73v1.12c-0.25,1.37-0.67,2.55-1.26,3.52
				c0.57,0.55,1.25,1.04,2,1.48L21.87,8.8c-0.8-0.48-1.5-1.01-2.09-1.58c-0.57,0.64-1.26,1.18-2.05,1.6l-0.69-1.04V8.84z
				 M17.05,7.73c0.73-0.39,1.34-0.9,1.86-1.49c-0.81-1.04-1.37-2.21-1.68-3.52h-0.18V7.73z M19.65,5.21
				c0.42-0.73,0.74-1.55,0.97-2.48h-2.24C18.65,3.64,19.07,4.47,19.65,5.21z"/>
			<path class="st7" d="M29-3.96c-0.14,0.34-0.29,0.66-0.46,0.95h6v1.08c-0.84,0.97-1.86,1.81-3.05,2.51
				c1.5,0.56,3.17,0.94,5.01,1.11l-0.6,1.25c-2.17-0.25-4.13-0.79-5.87-1.61c-1.68,0.76-3.64,1.3-5.85,1.64l-0.62-1.25
				c1.88-0.24,3.56-0.63,5.01-1.18c-0.67-0.39-1.29-0.84-1.86-1.32c-0.48,0.41-1,0.78-1.57,1.13l-0.81-1.06
				c1.64-0.94,2.75-2.09,3.32-3.45L29-3.96z M30.31,2.17c0,0.5-0.04,0.98-0.11,1.43h4.83C35,6.05,34.79,7.52,34.4,8
				c-0.39,0.48-1.09,0.73-2.07,0.73c-0.48,0-1.06-0.03-1.74-0.07l-0.34-1.2c0.73,0.03,1.32,0.06,1.76,0.08
				c0.71-0.01,1.16-0.17,1.34-0.45c0.18-0.29,0.29-1.06,0.34-2.3h-3.8c-0.13,0.34-0.27,0.66-0.43,0.95c-0.7,1.26-2.34,2.3-4.93,3.12
				l-0.88-1.08c2.28-0.67,3.78-1.48,4.48-2.45c0.11-0.18,0.22-0.36,0.31-0.55h-3.94V3.6h4.34C28.94,3.15,29,2.67,29,2.17H30.31z
				 M32.58-1.76h-4.92c-0.04,0.04-0.07,0.07-0.08,0.1c0.73,0.6,1.54,1.13,2.42,1.58C30.97-0.56,31.83-1.12,32.58-1.76z"/>
		</g>
	</g>
</g>
<g id="RectEndPoint17" transform="translate(673,349)">
	<rect x="-3" y="-22.62" class="st11" width="82" height="50"/>
	<rect x="-5" y="-24.62" class="st12" width="82" height="50"/>
	<g transform="translate(20 9)">
		<g class="st6">
			<path class="st7" d="M-1.22-14.56c-0.59,1.5-1.57,2.86-2.94,4.06l-0.41-1.29c1-0.95,1.74-2.04,2.21-3.31L-1.22-14.56z
				 M-1.16-10.8c-0.18,0.49-0.41,0.97-0.66,1.43v7.23h-1.25v-5.48c-0.32,0.36-0.67,0.71-1.05,1.06l-0.39-1.27
				c1.01-1.01,1.75-2.17,2.23-3.5L-1.16-10.8z M1.67-4.07C1.84-4.16,1.93-4.3,1.98-4.5v-2.2h-1.2v0.63
				c-0.03,1.71-0.46,2.98-1.3,3.82L-1.51-3.1c0.69-0.69,1.04-1.68,1.05-2.97V-7.9h3.6v2.91C3.47-5.3,3.83-5.62,4.17-5.99l0.27,1.11
				C3.71-4.09,2.97-3.46,2.21-2.97L1.67-4.07z M2-15.1v3.1h0.69v-2.34h1.08v3.46H-0.9v-3.46H0.2v2.34h0.7v-3.1H2z M4.82-9.07
				c-0.21,0.52-0.43,1-0.67,1.42L3.42-8.58c0.03-0.06,0.04-0.1,0.07-0.15h-4.36v-1.18h4.45v0.95C4.27-10.54,4.75-12.6,5-15.13
				l1.16,0.2C6.08-14.26,6-13.62,5.88-13h2.48v1.25H7.87c-0.06,2.32-0.41,4.3-1.04,5.94C7.33-4.78,7.9-3.98,8.57-3.39L7.82-2.26
				c-0.59-0.59-1.11-1.36-1.56-2.3c-0.5,0.92-1.12,1.71-1.85,2.37l-0.7-1.12C4.53-4,5.17-4.89,5.66-6C5.32-6.92,5.04-7.95,4.82-9.07
				z M5.39-10.79c0.2,1.23,0.46,2.34,0.78,3.32c0.34-1.25,0.53-2.67,0.57-4.29H5.63C5.55-11.42,5.48-11.1,5.39-10.79z"/>
			<path class="st7" d="M10.65-2.15L9.64-3.06c0.56-1.22,0.84-2.77,0.85-4.67v-6.88h4.36v10.95c0,0.95-0.43,1.43-1.29,1.43h-1.12
				l-0.32-1.18c0.39,0.04,0.74,0.07,1.08,0.07c0.29,0,0.45-0.25,0.45-0.76v-2.8h-1.99C11.56-4.98,11.23-3.39,10.65-2.15z
				 M13.65-13.4h-1.96v2.07h1.96V-13.4z M11.69-8.09h1.96v-2.04h-1.96V-8.09z M17.05-2.16h-1.25V-14.6h5.9
				c0,1.82-0.08,3.03-0.25,3.63c-0.17,0.59-0.7,0.88-1.6,0.88h-1.18l-0.35-1.12c0.22,0,0.53,0.01,0.92,0.01
				c0.29,0,0.52-0.03,0.66-0.07c0.14-0.04,0.25-0.17,0.34-0.36c0.08-0.24,0.14-0.83,0.17-1.77h-3.36v3.95h4.73v1.12
				c-0.25,1.37-0.67,2.55-1.26,3.52c0.57,0.55,1.25,1.04,2,1.48L21.87-2.2c-0.8-0.48-1.5-1.01-2.09-1.58
				c-0.57,0.64-1.26,1.18-2.05,1.6l-0.69-1.04V-2.16z M17.05-3.27c0.73-0.39,1.34-0.9,1.86-1.49c-0.81-1.04-1.37-2.21-1.68-3.52
				h-0.18V-3.27z M19.65-5.79c0.42-0.73,0.74-1.55,0.97-2.48h-2.24C18.65-7.36,19.07-6.53,19.65-5.79z"/>
			<path class="st7" d="M29-14.96c-0.14,0.34-0.29,0.66-0.46,0.95h6v1.08c-0.84,0.97-1.86,1.81-3.05,2.51
				c1.5,0.56,3.17,0.94,5.01,1.11l-0.6,1.25c-2.17-0.25-4.13-0.79-5.87-1.61c-1.68,0.76-3.64,1.3-5.85,1.64l-0.62-1.25
				c1.88-0.24,3.56-0.63,5.01-1.18c-0.67-0.39-1.29-0.84-1.86-1.32c-0.48,0.41-1,0.78-1.57,1.13l-0.81-1.06
				c1.64-0.94,2.75-2.09,3.32-3.45L29-14.96z M30.31-8.83c0,0.5-0.04,0.98-0.11,1.43h4.83C35-4.95,34.79-3.48,34.4-3
				c-0.39,0.48-1.09,0.73-2.07,0.73c-0.48,0-1.06-0.03-1.74-0.07l-0.34-1.2c0.73,0.03,1.32,0.06,1.76,0.08
				c0.71-0.01,1.16-0.17,1.34-0.45c0.18-0.29,0.29-1.06,0.34-2.3h-3.8c-0.13,0.34-0.27,0.66-0.43,0.95c-0.7,1.26-2.34,2.3-4.93,3.12
				l-0.88-1.08c2.28-0.67,3.78-1.48,4.48-2.45c0.11-0.18,0.22-0.36,0.31-0.55h-3.94V-7.4h4.34C28.94-7.85,29-8.33,29-8.83H30.31z
				 M32.58-12.76h-4.92c-0.04,0.04-0.07,0.07-0.08,0.1c0.73,0.6,1.54,1.13,2.42,1.58C30.97-11.56,31.83-12.12,32.58-12.76z"/>
		</g>
	</g>
</g>
<g id="RectEndPoint18" transform="translate(567.5,349)">
	<rect x="-3" y="-22.62" class="st11" width="82" height="50"/>
	<rect x="-5" y="-24.62" class="st12" width="82" height="50"/>
	<g transform="translate(20 9)">
		<g class="st6">
			<path class="st7" d="M-1.22-14.56c-0.59,1.5-1.57,2.86-2.94,4.06l-0.41-1.29c1-0.95,1.74-2.04,2.21-3.31L-1.22-14.56z
				 M-1.16-10.8c-0.18,0.49-0.41,0.97-0.66,1.43v7.23h-1.25v-5.48c-0.32,0.36-0.67,0.71-1.05,1.06l-0.39-1.27
				c1.01-1.01,1.75-2.17,2.23-3.5L-1.16-10.8z M1.67-4.07C1.84-4.16,1.93-4.3,1.98-4.5v-2.2h-1.2v0.63
				c-0.03,1.71-0.46,2.98-1.3,3.82L-1.51-3.1c0.69-0.69,1.04-1.68,1.05-2.97V-7.9h3.6v2.91C3.47-5.3,3.83-5.62,4.17-5.99l0.27,1.11
				C3.71-4.09,2.97-3.46,2.21-2.97L1.67-4.07z M2-15.1v3.1h0.69v-2.34h1.08v3.46H-0.9v-3.46H0.2v2.34h0.7v-3.1H2z M4.82-9.07
				c-0.21,0.52-0.43,1-0.67,1.42L3.42-8.58c0.03-0.06,0.04-0.1,0.07-0.15h-4.36v-1.18h4.45v0.95C4.27-10.54,4.75-12.6,5-15.13
				l1.16,0.2C6.08-14.26,6-13.62,5.88-13h2.48v1.25H7.87c-0.06,2.32-0.41,4.3-1.04,5.94C7.33-4.78,7.9-3.98,8.57-3.39L7.82-2.26
				c-0.59-0.59-1.11-1.36-1.56-2.3c-0.5,0.92-1.12,1.71-1.85,2.37l-0.7-1.12C4.53-4,5.17-4.89,5.66-6C5.32-6.92,5.04-7.95,4.82-9.07
				z M5.39-10.79c0.2,1.23,0.46,2.34,0.78,3.32c0.34-1.25,0.53-2.67,0.57-4.29H5.63C5.55-11.42,5.48-11.1,5.39-10.79z"/>
			<path class="st7" d="M10.65-2.15L9.64-3.06c0.56-1.22,0.84-2.77,0.85-4.67v-6.88h4.36v10.95c0,0.95-0.43,1.43-1.29,1.43h-1.12
				l-0.32-1.18c0.39,0.04,0.74,0.07,1.08,0.07c0.29,0,0.45-0.25,0.45-0.76v-2.8h-1.99C11.56-4.98,11.23-3.39,10.65-2.15z
				 M13.65-13.4h-1.96v2.07h1.96V-13.4z M11.69-8.09h1.96v-2.04h-1.96V-8.09z M17.05-2.16h-1.25V-14.6h5.9
				c0,1.82-0.08,3.03-0.25,3.63c-0.17,0.59-0.7,0.88-1.6,0.88h-1.18l-0.35-1.12c0.22,0,0.53,0.01,0.92,0.01
				c0.29,0,0.52-0.03,0.66-0.07c0.14-0.04,0.25-0.17,0.34-0.36c0.08-0.24,0.14-0.83,0.17-1.77h-3.36v3.95h4.73v1.12
				c-0.25,1.37-0.67,2.55-1.26,3.52c0.57,0.55,1.25,1.04,2,1.48L21.87-2.2c-0.8-0.48-1.5-1.01-2.09-1.58
				c-0.57,0.64-1.26,1.18-2.05,1.6l-0.69-1.04V-2.16z M17.05-3.27c0.73-0.39,1.34-0.9,1.86-1.49c-0.81-1.04-1.37-2.21-1.68-3.52
				h-0.18V-3.27z M19.65-5.79c0.42-0.73,0.74-1.55,0.97-2.48h-2.24C18.65-7.36,19.07-6.53,19.65-5.79z"/>
			<path class="st7" d="M29-14.96c-0.14,0.34-0.29,0.66-0.46,0.95h6v1.08c-0.84,0.97-1.86,1.81-3.05,2.51
				c1.5,0.56,3.17,0.94,5.01,1.11l-0.6,1.25c-2.17-0.25-4.13-0.79-5.87-1.61c-1.68,0.76-3.64,1.3-5.85,1.64l-0.62-1.25
				c1.88-0.24,3.56-0.63,5.01-1.18c-0.67-0.39-1.29-0.84-1.86-1.32c-0.48,0.41-1,0.78-1.57,1.13l-0.81-1.06
				c1.64-0.94,2.75-2.09,3.32-3.45L29-14.96z M30.31-8.83c0,0.5-0.04,0.98-0.11,1.43h4.83C35-4.95,34.79-3.48,34.4-3
				c-0.39,0.48-1.09,0.73-2.07,0.73c-0.48,0-1.06-0.03-1.74-0.07l-0.34-1.2c0.73,0.03,1.32,0.06,1.76,0.08
				c0.71-0.01,1.16-0.17,1.34-0.45c0.18-0.29,0.29-1.06,0.34-2.3h-3.8c-0.13,0.34-0.27,0.66-0.43,0.95c-0.7,1.26-2.34,2.3-4.93,3.12
				l-0.88-1.08c2.28-0.67,3.78-1.48,4.48-2.45c0.11-0.18,0.22-0.36,0.31-0.55h-3.94V-7.4h4.34C28.94-7.85,29-8.33,29-8.83H30.31z
				 M32.58-12.76h-4.92c-0.04,0.04-0.07,0.07-0.08,0.1c0.73,0.6,1.54,1.13,2.42,1.58C30.97-11.56,31.83-12.12,32.58-12.76z"/>
		</g>
	</g>
</g>
<g id="RectEndPoint19" transform="translate(462.5,349)">
	<rect x="-3" y="-22.62" class="st11" width="82" height="50"/>
	<rect x="-5" y="-24.62" class="st12" width="82" height="50"/>
	<g transform="translate(20 9)">
		<g class="st6">
			<path class="st7" d="M-1.22-14.56c-0.59,1.5-1.57,2.86-2.94,4.06l-0.41-1.29c1-0.95,1.74-2.04,2.21-3.31L-1.22-14.56z
				 M-1.16-10.8c-0.18,0.49-0.41,0.97-0.66,1.43v7.23h-1.25v-5.48c-0.32,0.36-0.67,0.71-1.05,1.06l-0.39-1.27
				c1.01-1.01,1.75-2.17,2.23-3.5L-1.16-10.8z M1.67-4.07C1.84-4.16,1.93-4.3,1.98-4.5v-2.2h-1.2v0.63
				c-0.03,1.71-0.46,2.98-1.3,3.82L-1.51-3.1c0.69-0.69,1.04-1.68,1.05-2.97V-7.9h3.6v2.91C3.47-5.3,3.83-5.62,4.17-5.99l0.27,1.11
				C3.71-4.09,2.97-3.46,2.21-2.97L1.67-4.07z M2-15.1v3.1h0.69v-2.34h1.08v3.46H-0.9v-3.46H0.2v2.34h0.7v-3.1H2z M4.82-9.07
				c-0.21,0.52-0.43,1-0.67,1.42L3.42-8.58c0.03-0.06,0.04-0.1,0.07-0.15h-4.36v-1.18h4.45v0.95C4.27-10.54,4.75-12.6,5-15.13
				l1.16,0.2C6.08-14.26,6-13.62,5.88-13h2.48v1.25H7.87c-0.06,2.32-0.41,4.3-1.04,5.94C7.33-4.78,7.9-3.98,8.57-3.39L7.82-2.26
				c-0.59-0.59-1.11-1.36-1.56-2.3c-0.5,0.92-1.12,1.71-1.85,2.37l-0.7-1.12C4.53-4,5.17-4.89,5.66-6C5.32-6.92,5.04-7.95,4.82-9.07
				z M5.39-10.79c0.2,1.23,0.46,2.34,0.78,3.32c0.34-1.25,0.53-2.67,0.57-4.29H5.63C5.55-11.42,5.48-11.1,5.39-10.79z"/>
			<path class="st7" d="M10.65-2.15L9.64-3.06c0.56-1.22,0.84-2.77,0.85-4.67v-6.88h4.36v10.95c0,0.95-0.43,1.43-1.29,1.43h-1.12
				l-0.32-1.18c0.39,0.04,0.74,0.07,1.08,0.07c0.29,0,0.45-0.25,0.45-0.76v-2.8h-1.99C11.56-4.98,11.23-3.39,10.65-2.15z
				 M13.65-13.4h-1.96v2.07h1.96V-13.4z M11.69-8.09h1.96v-2.04h-1.96V-8.09z M17.05-2.16h-1.25V-14.6h5.9
				c0,1.82-0.08,3.03-0.25,3.63c-0.17,0.59-0.7,0.88-1.6,0.88h-1.18l-0.35-1.12c0.22,0,0.53,0.01,0.92,0.01
				c0.29,0,0.52-0.03,0.66-0.07c0.14-0.04,0.25-0.17,0.34-0.36c0.08-0.24,0.14-0.83,0.17-1.77h-3.36v3.95h4.73v1.12
				c-0.25,1.37-0.67,2.55-1.26,3.52c0.57,0.55,1.25,1.04,2,1.48L21.87-2.2c-0.8-0.48-1.5-1.01-2.09-1.58
				c-0.57,0.64-1.26,1.18-2.05,1.6l-0.69-1.04V-2.16z M17.05-3.27c0.73-0.39,1.34-0.9,1.86-1.49c-0.81-1.04-1.37-2.21-1.68-3.52
				h-0.18V-3.27z M19.65-5.79c0.42-0.73,0.74-1.55,0.97-2.48h-2.24C18.65-7.36,19.07-6.53,19.65-5.79z"/>
			<path class="st7" d="M29-14.96c-0.14,0.34-0.29,0.66-0.46,0.95h6v1.08c-0.84,0.97-1.86,1.81-3.05,2.51
				c1.5,0.56,3.17,0.94,5.01,1.11l-0.6,1.25c-2.17-0.25-4.13-0.79-5.87-1.61c-1.68,0.76-3.64,1.3-5.85,1.64l-0.62-1.25
				c1.88-0.24,3.56-0.63,5.01-1.18c-0.67-0.39-1.29-0.84-1.86-1.32c-0.48,0.41-1,0.78-1.57,1.13l-0.81-1.06
				c1.64-0.94,2.75-2.09,3.32-3.45L29-14.96z M30.31-8.83c0,0.5-0.04,0.98-0.11,1.43h4.83C35-4.95,34.79-3.48,34.4-3
				c-0.39,0.48-1.09,0.73-2.07,0.73c-0.48,0-1.06-0.03-1.74-0.07l-0.34-1.2c0.73,0.03,1.32,0.06,1.76,0.08
				c0.71-0.01,1.16-0.17,1.34-0.45c0.18-0.29,0.29-1.06,0.34-2.3h-3.8c-0.13,0.34-0.27,0.66-0.43,0.95c-0.7,1.26-2.34,2.3-4.93,3.12
				l-0.88-1.08c2.28-0.67,3.78-1.48,4.48-2.45c0.11-0.18,0.22-0.36,0.31-0.55h-3.94V-7.4h4.34C28.94-7.85,29-8.33,29-8.83H30.31z
				 M32.58-12.76h-4.92c-0.04,0.04-0.07,0.07-0.08,0.1c0.73,0.6,1.54,1.13,2.42,1.58C30.97-11.56,31.83-12.12,32.58-12.76z"/>
		</g>
	</g>
</g>
<g id="RectEndPoint23" transform="translate(567.5,438)">
	<rect x="-3" y="-11.62" class="st11" width="82" height="50"/>
	<rect x="-5" y="-13.62" class="st12" width="82" height="50"/>
	<g transform="translate(20 9)">
		<g class="st6">
			<path class="st7" d="M-1.22-3.56C-1.81-2.06-2.79-0.7-4.16,0.5l-0.41-1.29c1-0.95,1.74-2.04,2.21-3.31L-1.22-3.56z M-1.16,0.2
				c-0.18,0.49-0.41,0.97-0.66,1.43v7.23h-1.25V3.38c-0.32,0.36-0.67,0.71-1.05,1.06l-0.39-1.27c1.01-1.01,1.75-2.17,2.23-3.5
				L-1.16,0.2z M1.67,6.93C1.84,6.84,1.93,6.7,1.98,6.5V4.3h-1.2v0.63c-0.03,1.71-0.46,2.98-1.3,3.82L-1.51,7.9
				c0.69-0.69,1.04-1.68,1.05-2.97V3.1h3.6v2.91C3.47,5.7,3.83,5.38,4.17,5.01l0.27,1.11C3.71,6.91,2.97,7.54,2.21,8.03L1.67,6.93z
				 M2-4.1v3.1h0.69v-2.34h1.08v3.46H-0.9v-3.46H0.2v2.34h0.7v-3.1H2z M4.82,1.93c-0.21,0.52-0.43,1-0.67,1.42L3.42,2.42
				c0.03-0.06,0.04-0.1,0.07-0.15h-4.36V1.09h4.45v0.95C4.27,0.46,4.75-1.6,5-4.13l1.16,0.2C6.08-3.26,6-2.62,5.88-2h2.48v1.25H7.87
				c-0.06,2.32-0.41,4.3-1.04,5.94C7.33,6.22,7.9,7.02,8.57,7.61L7.82,8.74c-0.59-0.59-1.11-1.36-1.56-2.3
				c-0.5,0.92-1.12,1.71-1.85,2.37l-0.7-1.12C4.53,7,5.17,6.11,5.66,5C5.32,4.08,5.04,3.05,4.82,1.93z M5.39,0.21
				c0.2,1.23,0.46,2.34,0.78,3.32c0.34-1.25,0.53-2.67,0.57-4.29H5.63C5.55-0.42,5.48-0.1,5.39,0.21z"/>
			<path class="st7" d="M10.65,8.85L9.64,7.94c0.56-1.22,0.84-2.77,0.85-4.67V-3.6h4.36V7.35c0,0.95-0.43,1.43-1.29,1.43h-1.12
				l-0.32-1.18c0.39,0.04,0.74,0.07,1.08,0.07c0.29,0,0.45-0.25,0.45-0.76v-2.8h-1.99C11.56,6.02,11.23,7.61,10.65,8.85z M13.65-2.4
				h-1.96v2.07h1.96V-2.4z M11.69,2.91h1.96V0.87h-1.96V2.91z M17.05,8.84h-1.25V-3.6h5.9c0,1.82-0.08,3.03-0.25,3.63
				c-0.17,0.59-0.7,0.88-1.6,0.88h-1.18l-0.35-1.12c0.22,0,0.53,0.01,0.92,0.01c0.29,0,0.52-0.03,0.66-0.07
				c0.14-0.04,0.25-0.17,0.34-0.36c0.08-0.24,0.14-0.83,0.17-1.77h-3.36v3.95h4.73v1.12c-0.25,1.37-0.67,2.55-1.26,3.52
				c0.57,0.55,1.25,1.04,2,1.48L21.87,8.8c-0.8-0.48-1.5-1.01-2.09-1.58c-0.57,0.64-1.26,1.18-2.05,1.6l-0.69-1.04V8.84z
				 M17.05,7.73c0.73-0.39,1.34-0.9,1.86-1.49c-0.81-1.04-1.37-2.21-1.68-3.52h-0.18V7.73z M19.65,5.21
				c0.42-0.73,0.74-1.55,0.97-2.48h-2.24C18.65,3.64,19.07,4.47,19.65,5.21z"/>
			<path class="st7" d="M29-3.96c-0.14,0.34-0.29,0.66-0.46,0.95h6v1.08c-0.84,0.97-1.86,1.81-3.05,2.51
				c1.5,0.56,3.17,0.94,5.01,1.11l-0.6,1.25c-2.17-0.25-4.13-0.79-5.87-1.61c-1.68,0.76-3.64,1.3-5.85,1.64l-0.62-1.25
				c1.88-0.24,3.56-0.63,5.01-1.18c-0.67-0.39-1.29-0.84-1.86-1.32c-0.48,0.41-1,0.78-1.57,1.13l-0.81-1.06
				c1.64-0.94,2.75-2.09,3.32-3.45L29-3.96z M30.31,2.17c0,0.5-0.04,0.98-0.11,1.43h4.83C35,6.05,34.79,7.52,34.4,8
				c-0.39,0.48-1.09,0.73-2.07,0.73c-0.48,0-1.06-0.03-1.74-0.07l-0.34-1.2c0.73,0.03,1.32,0.06,1.76,0.08
				c0.71-0.01,1.16-0.17,1.34-0.45c0.18-0.29,0.29-1.06,0.34-2.3h-3.8c-0.13,0.34-0.27,0.66-0.43,0.95c-0.7,1.26-2.34,2.3-4.93,3.12
				l-0.88-1.08c2.28-0.67,3.78-1.48,4.48-2.45c0.11-0.18,0.22-0.36,0.31-0.55h-3.94V3.6h4.34C28.94,3.15,29,2.67,29,2.17H30.31z
				 M32.58-1.76h-4.92c-0.04,0.04-0.07,0.07-0.08,0.1c0.73,0.6,1.54,1.13,2.42,1.58C30.97-0.56,31.83-1.12,32.58-1.76z"/>
		</g>
	</g>
</g>
<g id="RectEndPoint27" transform="translate(64.5,541)">
	<rect y="-18.62" class="st11" width="96" height="50"/>
	<rect x="-2" y="-20.62" class="st12" width="96" height="50"/>
	<g transform="translate(20 9)">
		<g class="st6">
			<path class="st7" d="M4.15-10.99V0.02h1.68v-11.01h1.33V0.02h4.09v1.3H-1.24v-1.3h4.06v-11.01H4.15z M2.08-1.98L0.86-1.68
				c-0.48-2.2-1.09-4.33-1.82-6.37l1.13-0.36C0.89-6.54,1.52-4.39,2.08-1.98z M10.96-8.05C10.42-5.64,9.74-3.54,8.9-1.73L7.71-2.15
				c0.78-1.62,1.49-3.71,2.07-6.23L10.96-8.05z"/>
			<path class="st7" d="M18-10.96c-0.14,0.34-0.29,0.66-0.46,0.95h6v1.08c-0.84,0.97-1.86,1.81-3.05,2.51
				c1.5,0.56,3.17,0.94,5.01,1.11l-0.6,1.25c-2.17-0.25-4.13-0.79-5.87-1.61c-1.68,0.76-3.64,1.3-5.85,1.64l-0.62-1.25
				c1.88-0.24,3.56-0.63,5.01-1.18c-0.67-0.39-1.29-0.84-1.86-1.32c-0.48,0.41-1,0.78-1.57,1.13l-0.81-1.06
				c1.64-0.94,2.75-2.09,3.32-3.45L18-10.96z M19.31-4.83c0,0.5-0.04,0.98-0.11,1.43h4.83C24-0.95,23.79,0.52,23.4,1
				c-0.39,0.48-1.09,0.73-2.07,0.73c-0.48,0-1.06-0.03-1.74-0.07l-0.34-1.2c0.73,0.03,1.32,0.05,1.76,0.08
				c0.71-0.02,1.16-0.17,1.34-0.45c0.18-0.29,0.29-1.06,0.34-2.3h-3.8c-0.13,0.34-0.27,0.66-0.43,0.95c-0.7,1.26-2.34,2.3-4.93,3.12
				l-0.88-1.08c2.28-0.67,3.78-1.48,4.48-2.45c0.11-0.18,0.22-0.37,0.31-0.55h-3.94V-3.4h4.34C17.94-3.85,18-4.32,18-4.83H19.31z
				 M21.58-8.76h-4.92c-0.04,0.04-0.07,0.07-0.08,0.1c0.73,0.6,1.54,1.13,2.42,1.58C19.97-7.56,20.83-8.12,21.58-8.76z"/>
			<path class="st7" d="M27.86-7.62L26.7-8.34c0.81-0.87,1.39-1.82,1.74-2.83l1.27,0.28c-0.08,0.24-0.18,0.48-0.27,0.7h3.53v1.16
				h-2.1c0.25,0.35,0.48,0.69,0.64,1.01L30.3-7.56c-0.24-0.5-0.5-0.99-0.81-1.47h-0.62C28.56-8.53,28.23-8.05,27.86-7.62z
				 M39.03-4.67h-1.3v-1.55h-9.44v1.55h-1.3v-2.68h5.42c-0.11-0.28-0.24-0.53-0.36-0.76l1.18-0.2l-0.24-0.15
				c0.64-0.84,1.12-1.74,1.4-2.7l1.27,0.28c-0.08,0.24-0.15,0.46-0.24,0.69h3.89v1.16h-2.28c0.22,0.31,0.41,0.62,0.56,0.9L36.41-7.7
				c-0.22-0.45-0.49-0.9-0.8-1.33h-0.71c-0.24,0.46-0.5,0.9-0.8,1.29l-0.67-0.43c0.11,0.25,0.21,0.53,0.32,0.83h5.28V-4.67z
				 M37.09-2.66h-6.82v0.74h7.48v3.74h-1.33v-0.5h-6.15v0.49h-1.33V-5.6h8.15V-2.66z M35.79-3.72v-0.81h-5.52v0.81H35.79z
				 M36.42,0.14v-1.01h-6.15v1.01H36.42z"/>
			<path class="st7" d="M42.25-6.03v-2.98h-1.58v-1.26h4.5v1.26H43.6v2.98h1.42v1.29H43.6v2.76c0.52-0.2,1.02-0.39,1.53-0.62v1.28
				c-1.34,0.56-2.77,1.04-4.29,1.43l-0.32-1.27c0.59-0.11,1.16-0.24,1.74-0.39v-3.18h-1.39v-1.29H42.25z M52.79-10.64v6.71h-2.8
				v1.41h2.96v1.23h-2.96v1.44h3.4v1.28h-8.12V0.16h3.4v-1.44h-2.98v-1.23h2.98v-1.41h-2.82v-6.71H52.79z M48.67-7.85v-1.61h-1.54
				v1.61H48.67z M48.67-6.71h-1.54v1.6h1.54V-6.71z M49.99-7.85h1.53v-1.61h-1.53V-7.85z M51.51-6.71h-1.53v1.6h1.53V-6.71z"/>
		</g>
	</g>
</g>
<g id="RectEndPoint31" transform="translate(180.5,541)">
	<rect y="-18.62" class="st11" width="97" height="50"/>
	<rect x="-2" y="-20.62" class="st12" width="97" height="50"/>
	<g transform="translate(20 9)">
		<g class="st6">
			<path class="st7" d="M2.17,1.77H0.86v-6.74C0.4-3.65-0.19-2.43-0.92-1.34l-0.6-1.51C-0.46-4.13,0.31-5.57,0.8-7.2h-2.03v-1.28
				h2.09v-2.62h1.32v2.62h1.74v1.28H2.17v0.64c0.69,0.63,1.37,1.34,2.06,2.13L3.46-3.26C2.97-4.02,2.54-4.65,2.17-5.14V1.77z
				 M4.68-9.09H4.16v-1.27h6.42v1.26c-0.39,2.54-1.13,4.72-2.26,6.57c0.87,1.21,1.95,2.3,3.26,3.28l-0.91,1.08
				C9.44,0.83,8.39-0.25,7.55-1.4C6.6-0.15,5.44,0.91,4.09,1.8L3.24,0.72C4.65-0.22,5.83-1.33,6.75-2.6
				C5.59-4.55,4.91-6.71,4.68-9.09z M5.96-9.09c0.17,1.93,0.69,3.7,1.57,5.28C8.41-5.35,9-7.11,9.3-9.09H5.96z"/>
			<path class="st7" d="M17.59-10.63v1.05c-0.42,1.2-0.91,2.47-1.47,3.8C17-4.49,17.48-3.37,17.53-2.4c0,0.64-0.14,1.12-0.42,1.4
				c-0.42,0.35-1.13,0.53-2.17,0.54L14.51-1.8c0.28,0.04,0.52,0.07,0.71,0.07c0.39-0.03,0.64-0.08,0.78-0.17
				c0.13-0.1,0.2-0.27,0.2-0.5c0-0.95-0.48-2-1.43-3.18c0.63-1.4,1.12-2.68,1.48-3.8h-1.92V1.84h-1.3v-12.47H17.59z M19.37-4.38
				v4.36c0.76-0.22,1.5-0.5,2.23-0.84l0.31,1.23c-1.02,0.42-2.31,0.84-3.87,1.25l-0.32-1.16c0.22-0.08,0.35-0.21,0.35-0.39v-10.7
				h6.32v6.26h-2.51c0.14,0.71,0.39,1.37,0.73,1.99c0.62-0.37,1.21-0.88,1.77-1.55l0.85,0.85c-0.59,0.7-1.26,1.25-2,1.64
				c0.59,0.77,1.37,1.44,2.34,2l-0.74,1.18c-2.3-1.5-3.68-3.53-4.13-6.11H19.37z M23.08-9.38h-3.71v1.3h3.71V-9.38z M19.37-5.6h3.71
				v-1.27h-3.71V-5.6z"/>
			<path class="st7" d="M27.86-7.62L26.7-8.34c0.81-0.87,1.39-1.82,1.74-2.83l1.27,0.28c-0.08,0.24-0.18,0.48-0.27,0.7h3.53v1.16
				h-2.1c0.25,0.35,0.48,0.69,0.64,1.01L30.3-7.56c-0.24-0.5-0.5-0.99-0.81-1.47h-0.62C28.56-8.53,28.23-8.05,27.86-7.62z
				 M39.03-4.67h-1.3v-1.55h-9.44v1.55h-1.3v-2.68h5.42c-0.11-0.28-0.24-0.53-0.36-0.76l1.18-0.2l-0.24-0.15
				c0.64-0.84,1.12-1.74,1.4-2.7l1.27,0.28c-0.08,0.24-0.15,0.46-0.24,0.69h3.89v1.16h-2.28c0.22,0.31,0.41,0.62,0.56,0.9L36.41-7.7
				c-0.22-0.45-0.49-0.9-0.8-1.33h-0.71c-0.24,0.46-0.5,0.9-0.8,1.29l-0.67-0.43c0.11,0.25,0.21,0.53,0.32,0.83h5.28V-4.67z
				 M37.09-2.66h-6.82v0.74h7.48v3.74h-1.33v-0.5h-6.15v0.49h-1.33V-5.6h8.15V-2.66z M35.79-3.72v-0.81h-5.52v0.81H35.79z
				 M36.42,0.14v-1.01h-6.15v1.01H36.42z"/>
			<path class="st7" d="M42.25-6.03v-2.98h-1.58v-1.26h4.5v1.26H43.6v2.98h1.42v1.29H43.6v2.76c0.52-0.2,1.02-0.39,1.53-0.62v1.28
				c-1.34,0.56-2.77,1.04-4.29,1.43l-0.32-1.27c0.59-0.11,1.16-0.24,1.74-0.39v-3.18h-1.39v-1.29H42.25z M52.79-10.64v6.71h-2.8
				v1.41h2.96v1.23h-2.96v1.44h3.4v1.28h-8.12V0.16h3.4v-1.44h-2.98v-1.23h2.98v-1.41h-2.82v-6.71H52.79z M48.67-7.85v-1.61h-1.54
				v1.61H48.67z M48.67-6.71h-1.54v1.6h1.54V-6.71z M49.99-7.85h1.53v-1.61h-1.53V-7.85z M51.51-6.71h-1.53v1.6h1.53V-6.71z"/>
		</g>
	</g>
</g>
<g id="RectEndPoint32" transform="translate(297.5,541)">
	<rect y="-18.62" class="st11" width="97" height="50"/>
	<rect x="-2" y="-20.62" class="st12" width="97" height="50"/>
	<g transform="translate(20 9)">
		<g class="st6">
			<path class="st7" d="M1.4-10.87c-0.11,0.43-0.21,0.84-0.32,1.23h2.2v1.27H0.68C0.48-7.8,0.26-7.28,0.02-6.79h3.14v1.19H1.8v1.43
				h1.68v1.23H1.8v2.83c0.42-0.2,0.83-0.45,1.23-0.76l0.24,1.13C2.5,0.76,1.6,1.17,0.59,1.47l-0.5-1.09
				C0.37,0.27,0.51,0.1,0.51-0.14v-2.8h-1.64v-1.23h1.64V-5.6h-0.62v-0.94c-0.13,0.25-0.25,0.48-0.38,0.7l-1.08-0.69
				c0.78-1.43,1.36-2.97,1.69-4.62L1.4-10.87z M10.38-6.06v4.62H8.97v1.51c0,0.34,0.15,0.52,0.49,0.52h0.39
				c0.2,0,0.34-0.07,0.42-0.2c0.11-0.15,0.18-0.6,0.21-1.33l1.08,0.34c-0.1,1.09-0.27,1.75-0.49,1.97c-0.22,0.2-0.56,0.29-1.01,0.29
				H9.12c-0.94,0-1.4-0.45-1.4-1.33v-1.78H6.78C6.61-0.65,6.32,0,5.9,0.51C5.42,1.1,4.58,1.57,3.38,1.91L2.92,0.8
				c0.92-0.24,1.58-0.57,2-1.01c0.29-0.34,0.5-0.74,0.63-1.23H4.35v-4.62H10.38z M6.61-10.12c-0.13-0.32-0.27-0.62-0.41-0.9
				l1.34-0.22c0.11,0.34,0.22,0.71,0.34,1.12h2.87v1.09H9.7C9.58-8.6,9.46-8.19,9.29-7.8h1.92v1.12H3.59V-7.8h1.93
				C5.38-8.25,5.24-8.65,5.1-9.03H4.01v-1.09H6.61z M9.18-4.24v-0.79H5.55v0.79H9.18z M9.18-3.27H5.55v0.79h3.63V-3.27z M8.46-9.03
				H6.35C6.46-8.64,6.59-8.23,6.7-7.8h1.33C8.21-8.2,8.35-8.61,8.46-9.03z"/>
			<path class="st7" d="M12.88-4.14l-0.43-1.43c1.23-1.61,2.13-3.49,2.72-5.65l1.23,0.59c-0.28,0.95-0.63,1.86-1.05,2.73v9.71h-1.33
				v-7.42C13.67-5.11,13.29-4.62,12.88-4.14z M16.48-7.32L15.67-8.3c1.29-0.7,2.4-1.68,3.32-2.93l1.34,0.31l-0.5,0.67h3.36v0.84
				c-0.29,0.39-0.59,0.73-0.87,1.04h2.41v3.29h-4.02C21.19-4.56,21.58-4,21.86-3.4c0.87-0.39,1.61-0.87,2.21-1.43l0.87,0.99
				c-0.41,0.32-0.84,0.62-1.29,0.87c0.36,1.16,1.01,2.2,1.92,3.11l-0.88,1.09c-0.92-1.12-1.61-2.35-2.03-3.7l-0.39,0.17
				c0.11,0.45,0.18,0.94,0.21,1.44c0,0.99-0.17,1.68-0.5,2.07c-0.28,0.32-0.81,0.53-1.57,0.62c-0.25,0.03-0.52,0.04-0.81,0.04
				l-0.41-1.19c0.42,0,0.79-0.02,1.06-0.03c0.27-0.03,0.49-0.12,0.66-0.32c0.15-0.21,0.24-0.6,0.24-1.19c0-0.07-0.01-0.14-0.01-0.2
				c-1.15,1.01-2.63,1.85-4.45,2.52l-0.67-1.13c2.12-0.67,3.77-1.54,4.95-2.59c-0.06-0.22-0.14-0.43-0.22-0.63
				C19.72-2,18.37-1.27,16.71-0.7l-0.64-1.09c1.79-0.52,3.18-1.18,4.17-1.99c-0.14-0.2-0.27-0.38-0.41-0.53
				c-0.84,0.73-1.92,1.23-3.26,1.53l-0.49-1.09c1.18-0.24,2.1-0.64,2.79-1.21h-2.1v-2.41C16.65-7.43,16.57-7.38,16.48-7.32z
				 M21.62-9.24h-2.68C18.63-8.93,18.3-8.64,18-8.37h2.68C20.99-8.64,21.32-8.93,21.62-9.24z M20.24-7.29h-2.19v1.13h1.74
				C19.98-6.51,20.14-6.89,20.24-7.29z M23.44-7.29h-1.93c-0.1,0.41-0.21,0.78-0.35,1.13h2.28V-7.29z"/>
			<path class="st7" d="M33.48-11.03c1.74,2.02,3.73,3.6,5.98,4.75L38.8-5.09C36.53-6.3,34.6-7.88,33-9.83
				c-1.49,1.83-3.43,3.43-5.84,4.78L26.5-6.26c2.41-1.27,4.43-2.87,6.02-4.78H33.48z M30.71-4.96v4.54c0,0.52,0.24,0.79,0.74,0.79
				h3.92c0.8,0,1.29-0.14,1.48-0.41c0.2-0.28,0.34-0.87,0.45-1.75l1.23,0.42c-0.17,1.43-0.42,2.28-0.77,2.56
				c-0.35,0.25-1.02,0.39-2,0.39h-4.92c-0.99,0-1.49-0.52-1.49-1.53v-6.23h7.19v3.33c-0.01,0.94-0.45,1.44-1.3,1.5
				c-0.7,0-1.36-0.03-1.99-0.06l-0.35-1.25c0.7,0.05,1.3,0.08,1.81,0.08c0.34,0,0.5-0.25,0.5-0.74v-1.65H30.71z"/>
			<path class="st7" d="M48.31-9.96h4.97v1.3H43.01v3.01c-0.04,3.11-0.49,5.59-1.36,7.46l-1.11-0.99c0.71-1.55,1.09-3.71,1.12-6.47
				v-4.31h5.15c-0.2-0.36-0.42-0.69-0.64-0.99l1.48-0.25C47.89-10.84,48.1-10.42,48.31-9.96z M47.69-8.16
				c-0.11,0.32-0.21,0.63-0.31,0.92h5.28v1.16h-5.73c-0.34,0.78-0.7,1.5-1.09,2.13h2.17v-1.54h1.32v1.54h3.03v1.19h-3.03v1.26h4.08
				v1.21h-4.08v2.13h-1.32v-2.13h-4.9v-1.21h4.9v-1.26H44.5l-0.28-1.16c0.46-0.57,0.9-1.29,1.29-2.16h-1.88v-1.16H46
				c0.14-0.39,0.28-0.8,0.42-1.22L47.69-8.16z"/>
		</g>
	</g>
</g>
<g id="RectEndPoint33" transform="translate(414.5,541)">
	<rect y="-18.62" class="st11" width="97" height="50"/>
	<rect x="-2" y="-20.62" class="st12" width="97" height="50"/>
	<g transform="translate(20 9)">
		<g class="st6">
			<path class="st7" d="M-0.96,1.7l-0.29-1.29c0.5,0.04,0.97,0.07,1.42,0.07c0.29,0,0.45-0.17,0.45-0.5v-3.01
				C0.02-2.85-0.57-2.69-1.16-2.52L-1.5-3.79c0.71-0.14,1.42-0.32,2.1-0.53v-2.93h-1.83v-1.27h1.83v-2.52h1.33v2.52h1.58v1.27H1.94
				v2.46C2.47-5,2.97-5.22,3.48-5.46v1.32c-0.5,0.22-1.02,0.44-1.54,0.63v3.82c0,0.92-0.43,1.39-1.3,1.39H-0.96z M11.28-10.42v1.29
				H7.05C6.87-7.9,6.57-6.75,6.15-5.71h4.55v7.55H9.42V1.25H5.94v0.59H4.67v-4.89c-0.48,0.62-1,1.19-1.57,1.69L2.46-2.59
				c1.79-1.6,2.88-3.77,3.28-6.54H3.27v-1.29H11.28z M9.42-4.45H5.94V0h3.47V-4.45z"/>
			<path class="st7" d="M13.51,1.82l-1.08-0.96c0.88-1.77,1.33-4.02,1.34-6.79v-4.71H24.5V-7h-1.95v1.12h2.1v1.18h-2.1v1.18h2.58
				v1.21h-1.4l0.81,0.8c-0.43,0.53-0.91,0.97-1.42,1.3c0.71,0.41,1.53,0.7,2.45,0.88l-0.63,1.26c-2.52-0.66-4.31-2.07-5.39-4.24
				h-1.74v2.66c0.84-0.21,1.58-0.45,2.21-0.71l0.25,1.22c-1.13,0.39-2.48,0.73-4.03,1.01l-0.36-1.16c0.42-0.17,0.63-0.46,0.63-0.91
				v-2.1h-1.7C14.55-0.79,14.12,0.59,13.51,1.82z M17.46-5.88V-7h-2.34v1.06c0,0.84-0.06,1.65-0.14,2.41h2.48V-4.7h-1.93v-1.18
				H17.46z M15.12-9.42v1.23h8.03v-1.23H15.12z M18.74-7v1.12h2.52V-7H18.74z M21.26-3.53V-4.7h-2.52v1.18H21.26z M22.07-0.96
				c0.53-0.32,1.02-0.77,1.47-1.36h-2.65C21.23-1.8,21.62-1.36,22.07-0.96z"/>
			<path class="st7" d="M30.43-10.66c-0.7,1.62-1.42,2.94-2.14,3.95c0.53-0.06,1.08-0.13,1.61-0.21c0.28-0.5,0.56-1.02,0.87-1.58
				l1.2,0.45c-1.22,2.19-2.25,3.8-3.1,4.82c0.92-0.22,1.85-0.5,2.8-0.87v1.22c-1.58,0.57-3.08,0.97-4.48,1.16l-0.35-1.22
				c0.24-0.11,0.43-0.24,0.6-0.39c0.46-0.46,1.04-1.25,1.74-2.35c-0.73,0.1-1.46,0.2-2.21,0.29l-0.34-1.23
				c0.21-0.08,0.41-0.25,0.58-0.5c0.76-1.21,1.4-2.54,1.96-4.02L30.43-10.66z M31.56-0.33c-1.34,0.66-2.87,1.18-4.58,1.57
				l-0.17-1.33c1.82-0.37,3.4-0.87,4.75-1.5V-0.33z M38.3,0.05h1.12v1.29h-8.18V0.05h1.15v-10.54h5.91V0.05z M37-7.03v-2.19h-3.31
				v2.19H37z M37-3.48v-2.3h-3.31v2.3H37z M37,0.05v-2.27h-3.31v2.27H37z"/>
			<path class="st7" d="M44.76-10.64c-0.35,1.11-0.81,2.16-1.37,3.14v9.33h-1.3v-7.39c-0.39,0.5-0.81,0.98-1.25,1.44l-0.43-1.41
				c1.4-1.62,2.44-3.52,3.11-5.67L44.76-10.64z M47.17-10.04c-0.11,0.63-0.24,1.23-0.39,1.79h1.68v-2.8h1.33v2.8h3.1v1.3h-3.1v3.01
				h3.61v1.29h-3.61v4.41h-1.33v-4.41h-3.98v-1.29h3.98v-3.01h-2.12C46-6.06,45.58-5.26,45.07-4.54l-0.85-1.11
				c0.81-1.25,1.37-2.77,1.65-4.57L47.17-10.04z"/>
		</g>
	</g>
</g>
<g id="RectEndPoint34" transform="translate(531.5,541)">
	<rect y="-18.62" class="st11" width="66" height="50"/>
	<rect x="-2" y="-20.62" class="st12" width="66" height="50"/>
	<g transform="translate(20 9)">
		<g class="st6">
			<path class="st7" d="M9.96,0.23h1.4v1.19H-1.4V0.23h1.47v-3.87h9.89V0.23z M0.79-10.45v5.77h-1.32v-5.77H0.79z M2.9,0.23v-2.66
				H1.36v2.66H2.9z M3.69-11.13v6.98H2.36v-6.98H3.69z M4.89-5.5L4.05-6.54C5-7.7,5.65-9.25,5.98-11.2l1.37,0.25
				c-0.1,0.5-0.21,0.97-0.32,1.41h3.98v1.3H6.59C6.14-7.14,5.58-6.23,4.89-5.5z M5.79,0.23v-2.66h-1.6v2.66H5.79z M9.75-5.11
				L8.65-4.35C8.24-5.11,7.69-5.94,7.01-6.85l1.08-0.67C8.81-6.59,9.36-5.79,9.75-5.11z M8.67,0.23v-2.66h-1.6v2.66H8.67z"/>
			<path class="st7" d="M13.06,1.7l-0.29-1.29c0.36,0.04,0.73,0.07,1.06,0.07c0.32,0,0.49-0.17,0.49-0.5v-3
				c-0.5,0.18-1.02,0.36-1.54,0.53l-0.34-1.35c0.63-0.14,1.26-0.32,1.88-0.55v-2.87h-1.6v-1.27h1.6v-2.56h1.34v2.56h1.05v1.27h-1.05
				v2.34c0.36-0.18,0.74-0.37,1.11-0.56v1.36c-0.36,0.18-0.74,0.36-1.11,0.53v3.89c0,0.92-0.46,1.39-1.37,1.39H13.06z M17.42-2.56
				v-1.25h7.49v1.25h-3.05v2.7h3.57v1.29h-8.57V0.14h3.66v-2.7H17.42z M21.88-9.66h3.25v2.83h-1.23v-1.64h-5.42v1.64h-1.25v-2.83
				h3.32c-0.2-0.5-0.41-0.95-0.66-1.37l1.36-0.22C21.46-10.78,21.67-10.25,21.88-9.66z M20.75-7.32c-0.62,1.37-1.42,2.42-2.42,3.15
				L17.37-5c0.99-0.7,1.74-1.64,2.23-2.79L20.75-7.32z M24.84-4.87l-1.18,0.6c-0.64-1.15-1.37-2.16-2.17-3.05l1.11-0.49
				C23.46-6.92,24.2-5.94,24.84-4.87z"/>
		</g>
	</g>
</g>
<g id="RectEndPoint35" transform="translate(617.5,541)">
	<rect y="-18.62" class="st11" width="68" height="50"/>
	<rect x="-2" y="-20.62" class="st12" width="68" height="50"/>
	<g transform="translate(20 9)">
		<g class="st6">
			<path class="st7" d="M9.63,1.76H8.3V0.78H1.98v0.99H0.65v-12.4h8.98V1.76z M8.3-5.72v-3.61H1.98v3.61H8.3z M8.3-0.53v-3.89H1.98
				v3.89H8.3z"/>
			<path class="st7" d="M15.12-3.22c-0.32,1.64-0.79,3.05-1.37,4.24L12.6,0.31c0.57-1.18,0.98-2.45,1.22-3.81L15.12-3.22z
				 M19.68-11.13v1.72h5.35v1.29h-5.35v1.83h4.44v1.26h-10.2v-1.26h4.41v-1.83h-5.36v-1.29h5.36v-1.72H19.68z M17.39,1.53
				c-1.01,0-1.51-0.57-1.51-1.71v-3.77h1.34v3.5c0,0.45,0.18,0.69,0.57,0.69h2.96c0.27,0,0.46-0.1,0.59-0.29
				c0.17-0.2,0.27-0.81,0.32-1.86l1.26,0.42c-0.13,1.46-0.34,2.34-0.63,2.62c-0.28,0.27-0.71,0.41-1.29,0.41H17.39z M20.68-1.61
				l-1.23,0.55c-0.36-1.06-0.77-1.99-1.22-2.8l1.26-0.42C19.94-3.44,20.35-2.56,20.68-1.61z M25.46,0.02l-1.22,0.55
				c-0.52-1.51-1.09-2.86-1.71-4.01l1.25-0.42C24.42-2.66,24.99-1.36,25.46,0.02z"/>
		</g>
	</g>
</g>
<g id="RectEndPoint36" transform="translate(710.5,541)">
	<rect x="-8" y="-18.62" class="st11" width="68" height="50"/>
	<rect x="-10" y="-20.62" class="st12" width="68" height="50"/>
	<g transform="translate(20 9)">
		<g class="st6">
			<path class="st7" d="M-8.25-6.21L-9.1-7.34c1.23-1.02,2.07-2.27,2.51-3.73l1.37,0.17c-0.17,0.57-0.36,1.12-0.62,1.64h2.28v-1.79
				h1.34v1.79h4.54v1.29h-4.54v1.95h5.59v1.29H-9.37v-1.29h5.81v-1.95h-3.07C-7.09-7.32-7.63-6.75-8.25-6.21z M1.74,1.81H0.38V1.14
				h-6.67v0.67h-1.36v-5.29h9.38V1.81z M0.38-0.12v-2.12h-6.67v2.12H0.38z"/>
			<path class="st7" d="M6.59-10.59v-0.56h1.09v0.56h1.28v-0.56h1.09v0.56h1.6v0.95h-1.6v0.53H8.96v-0.53H7.68v0.53H6.93L6.86-8.86
				h4.4v0.59C12-9.03,12.5-10,12.77-11.2l1.21,0.2c-0.06,0.22-0.11,0.43-0.17,0.64h3.17v1.08h-0.76c-0.2,0.87-0.53,1.6-1.01,2.19
				c0.59,0.32,1.27,0.6,2.07,0.84l-0.6,1.06c-0.92-0.31-1.69-0.67-2.31-1.09c-0.67,0.49-1.47,0.84-2.41,1.06l-0.49-1.06
				c0.78-0.17,1.46-0.41,1.99-0.74c-0.34-0.35-0.6-0.71-0.78-1.08c-0.24,0.31-0.49,0.58-0.77,0.83l-0.64-0.81
				c-0.04,1.23-0.15,2.02-0.35,2.32c-0.06,0.08-0.13,0.15-0.18,0.21l0.63-0.08c0.13,0.24,0.25,0.5,0.36,0.81h5.37v0.94H4.94v-0.94
				h5.5C10.36-5,10.26-5.14,10.18-5.28c-0.15,0.04-0.32,0.07-0.49,0.07H9.11l-0.1-0.34H6.07v-1.72C5.83-6.97,5.58-6.71,5.32-6.48
				l-0.7-0.87c0.62-0.5,1.02-1.16,1.25-2l0.73,0.11v-0.39H5.01v-0.95H6.59z M16,1.94h-1.29V1.56H7.45v0.38H6.16v-2.76H16V1.94z
				 M9.45-6.05C9.7-6.07,9.86-6.19,9.92-6.41c0.06-0.22,0.1-0.76,0.11-1.57H6.51C6.42-7.83,6.34-7.69,6.25-7.55h2.9v1.5H9.45z
				 M15.5-3.4v0.77H6.63V-3.4H15.5z M15.5-2.14v0.77H6.63v-0.77H15.5z M8.16-6.86H7.05v0.64h1.11V-6.86z M14.72,0.69V0.03H7.45v0.66
				H14.72z M13.3-9.12c0.2,0.52,0.52,0.98,1,1.39c0.38-0.45,0.64-0.97,0.78-1.55h-1.7L13.3-9.12z"/>
		</g>
	</g>
</g>
<g id="textgroup" transform="translate(0,0)">
</g>
<g id="assistantgroup" transform="translate(0,0)">
</g>
</svg>
