<?xml version="1.0" encoding="utf-8"?>
<!-- Generator: Adobe Illustrator 23.0.3, SVG Export Plug-In . SVG Version: 6.00 Build 0)  -->
<svg version="1.1" id="图层_1" xmlns="http://www.w3.org/2000/svg" xmlns:xlink="http://www.w3.org/1999/xlink" x="0px" y="0px"
	 width="830px" height="436px" viewBox="0 0 830 436" style="enable-background:new 0 0 830 436;" xml:space="preserve">
<g id="svgwrapper_svg">
	<g>
		<rect x="152.5" style="fill:#CEE3FF;" width="525" height="436"/>
		<g id="ShadowBasicRect4_20_" transform="translate(423,53)">
			<g>
				<rect x="-248.5" y="3" style="opacity:0.6;fill:#BBBBBB;enable-background:new    ;" width="211" height="50"/>
				<g>
					<rect x="-250" y="1.5" style="fill:#FFFFFF;" width="210" height="49"/>
					<path style="fill:#E5E5E5;" d="M-40.5,2v48h-209V2H-40.5 M-39.5,1h-211v50h211V1L-39.5,1z"/>
				</g>
			</g>
			<g transform="translate(20 9)">
				<g style="enable-background:new    ;">
					<path style="fill:#444444;" d="M-201.6,11.3c-0.7,1.8-1.3,3.2-2,4.3c0.6-0.1,1.2-0.2,1.8-0.3l0.8-1.6l0.9,0.3
						c-1.2,2.4-2.2,4.2-3,5.2c0.9-0.2,1.8-0.5,2.8-0.8v0.9c-1.4,0.5-2.7,0.9-3.9,1.1l-0.3-0.9c0.2-0.1,0.3-0.2,0.5-0.3
						c0.5-0.6,1.1-1.6,1.9-2.9l-2.2,0.3l-0.3-0.9c0.2-0.1,0.3-0.2,0.4-0.4c0.7-1.3,1.3-2.7,1.8-4.3L-201.6,11.3z M-200.3,21.9
						c-1.3,0.5-2.7,0.9-4.3,1.2l-0.1-1c1.7-0.3,3.2-0.7,4.4-1.2L-200.3,21.9L-200.3,21.9z M-195,23.8l-0.3-1l1.2,0.1
						c0.4,0,0.6-0.2,0.6-0.6v-8h-2.1c-0.1,0.6-0.1,1.1-0.2,1.6c0.9,1.5,1.5,2.8,2,4l-0.8,0.6c-0.4-1-0.9-2.1-1.5-3.3
						c-0.3,1.4-0.9,2.5-1.8,3.5l-0.6-0.8c0.8-1,1.4-2.3,1.7-3.8c0.1-0.5,0.1-1.1,0.2-1.7h-2.1V24h-1V13.2h3.1c0-0.7,0.1-1.5,0.1-2.3
						h1c0,0.8,0,1.6-0.1,2.3h3v9.2c0,0.9-0.4,1.3-1.2,1.3h-1.2V23.8z"/>
					<path style="fill:#444444;" d="M-189.8,14.4l-0.9-0.6c0.8-0.9,1.5-1.8,1.8-2.9l1,0.2c-0.1,0.3-0.2,0.6-0.3,0.9h3.7v0.9h-2.3
						c0.3,0.4,0.6,0.8,0.8,1.2l-0.9,0.4c-0.3-0.5-0.6-1.1-0.9-1.6h-0.8C-189.1,13.4-189.4,13.9-189.8,14.4z M-178.6,17.3h-1v-1.7
						h-9.9v1.7h-1v-2.5h5.5c-0.1-0.3-0.3-0.6-0.4-0.9l1-0.2l-0.1-0.1c0.7-0.8,1.1-1.8,1.5-2.8l1,0.2c-0.1,0.3-0.2,0.6-0.3,0.9h4v0.9
						h-2.5c0.3,0.4,0.5,0.8,0.7,1.1l-0.9,0.3c-0.3-0.5-0.5-1-0.9-1.4h-0.9c-0.3,0.5-0.5,0.9-0.9,1.3l-0.8-0.5
						c0.2,0.3,0.3,0.7,0.4,1.1h5.3v2.6H-178.6z M-180.5,19.2h-7v1h7.6v3.6h-1v-0.6h-6.6v0.6h-1v-7.3h8V19.2z M-181.5,18.4v-1.1h-6
						v1.1H-181.5z M-180.8,22.3V21h-6.6v1.3H-180.8z"/>
					<path style="fill:#444444;" d="M-171.5,11.1v11.1h2V11.1h1v11.1h4.2v1h-12.4v-1h4.2V11.1H-171.5z M-173.5,20.1l-0.9,0.2
						c-0.5-2.2-1.1-4.4-1.9-6.5l0.9-0.3C-174.8,15.5-174.1,17.7-173.5,20.1z M-164.7,13.9c-0.6,2.4-1.3,4.6-2.1,6.4l-0.9-0.3
						c0.8-1.7,1.5-3.8,2.1-6.3L-164.7,13.9z"/>
					<path style="fill:#444444;" d="M-157.7,11c-0.2,0.4-0.3,0.7-0.5,1.1h6.1v0.8c-0.9,1-2,1.9-3.3,2.6c1.6,0.7,3.3,1.1,5.3,1.3
						l-0.5,0.9c-2.2-0.3-4.2-0.8-5.9-1.7c-1.7,0.8-3.7,1.4-6,1.7l-0.5-1c2-0.3,3.8-0.7,5.3-1.3c-0.8-0.5-1.5-1-2.2-1.6
						c-0.5,0.5-1.1,0.9-1.7,1.3l-0.6-0.8c1.7-1,2.8-2.1,3.4-3.5L-157.7,11z M-156.3,17.1c0,0.6-0.1,1.1-0.1,1.6h4.9
						c0,2.4-0.2,3.8-0.6,4.2s-1.1,0.7-2.1,0.7c-0.4,0-1,0-1.6-0.1l-0.3-0.9l1.6,0.1c0.8,0,1.4-0.2,1.6-0.5c0.2-0.3,0.3-1.2,0.4-2.6
						h-4.1c-0.1,0.4-0.3,0.7-0.4,1.1c-0.7,1.3-2.3,2.3-4.9,3.1l-0.7-0.8c2.3-0.7,3.8-1.5,4.5-2.5c0.2-0.3,0.3-0.5,0.4-0.8h-4.2v-0.9
						h4.4c0.1-0.5,0.2-1,0.2-1.6h1V17.1z M-153.5,13.1h-5.3l-0.2,0.2c0.8,0.7,1.6,1.3,2.6,1.8C-155.4,14.5-154.4,13.8-153.5,13.1z"
						/>
					<path style="fill:#444444;" d="M-148.4,15.6l-0.6-0.8c1.2-1.1,2.2-2.4,2.8-4l0.9,0.2c-0.1,0.4-0.3,0.7-0.5,1.1h3
						c-0.2-0.4-0.4-0.8-0.6-1.2l1-0.2c0.2,0.4,0.4,0.9,0.6,1.4h4.5v0.8h-4.4v1h3.9v0.8h-3.9v0.9h3.9v0.8h-3.9v1h4.7v0.9h-10.3v-3.9
						C-147.5,14.9-147.9,15.3-148.4,15.6z M-148.6,20.4v-0.9h5.6v-0.7h1v0.7h5.5v0.9h-4.2c1,0.9,2.4,1.6,4.4,2.1l-0.4,0.9
						c-2.3-0.8-4-1.8-4.9-3h-0.3v3.4h-1v-3.4h-0.3c-0.9,1.2-2.5,2.2-4.9,3.1l-0.5-0.9c2.2-0.7,3.6-1.4,4.4-2.2H-148.6z M-142.6,13.1
						h-3.6l-0.1,0.1V14h3.6v-0.9H-142.6z M-142.6,14.8h-3.6v0.9h3.6V14.8z M-142.6,16.5h-3.6v1h3.6V16.5z"/>
					<path style="fill:#444444;" d="M-132.4,17.3c-0.1,0.5-0.3,0.9-0.4,1.4h3.7v5h-0.9v-0.8h-2.2v0.8h-0.9v-4.2
						c-0.4,0.8-0.8,1.5-1.4,2.1l-0.5-0.8c0.8-0.9,1.3-2,1.7-3.5h-1.1v-0.9h1.3c0.1-0.5,0.2-1,0.2-1.6h-1.9V14h2
						c0-0.5,0.1-1.1,0.1-1.6h-1.6v-0.9h4.8V14h0.8v0.9h-0.8v2.5h-2.9V17.3z M-130,22v-2.4h-2.2V22H-130z M-132.2,16.5h1.7v-1.6h-1.5
						C-132,15.4-132.1,16-132.2,16.5z M-131.8,14h1.4v-1.6h-1.4C-131.8,12.9-131.8,13.5-131.8,14z M-128.3,14.6v-1h1.6
						c-0.4-0.8-0.8-1.6-1.2-2.2l0.9-0.4c0.4,0.7,0.8,1.4,1.2,2.2l-0.8,0.4h1.6c0.4-0.9,0.8-1.8,1-2.7l1,0.3c-0.3,0.9-0.6,1.7-1,2.4
						h1.6v1h-2.3v2h2v0.9h-2v2h2.6v1h-2.6v3.2h-1v-3.2h-2.6v-1h2.6v-2h-2.2v-0.9h2.2v-2H-128.3z"/>
				</g>
			</g>
		</g>
		<g id="ShadowBasicRect4_7_" transform="translate(423,53)">
			<g>
				<rect x="-237.5" y="86" style="opacity:0.6;fill:#BBBBBB;enable-background:new    ;" width="189" height="50"/>
				<g>
					<rect x="-239" y="84.5" style="fill:#FFFFFF;" width="188" height="49"/>
					<path style="fill:#E5E5E5;" d="M-51.5,85v48h-187V85H-51.5 M-50.5,84h-189v50h189V84L-50.5,84z"/>
				</g>
			</g>
			<g transform="translate(20 9)">
				<g style="enable-background:new    ;">
					<path style="fill:#444444;" d="M-204.4,106.7l-0.2-1c0.4,0,0.7,0.1,1.1,0.1c0.4,0,0.6-0.2,0.6-0.5v-3.4
						c-0.6,0.2-1.1,0.4-1.7,0.6l-0.3-1c0.7-0.2,1.3-0.4,2-0.6v-3.1h-1.7v-1h1.7V94h1v2.6h1.2v1h-1.2v2.7c0.4-0.2,0.8-0.4,1.2-0.6v1
						c-0.4,0.2-0.8,0.4-1.2,0.6v4.1c0,0.8-0.4,1.2-1.2,1.2h-1.3V106.7z M-196.5,99.9c-0.1,0.4-0.3,0.7-0.5,1.1h4.8v1h-1.5
						c-0.2,1-0.6,1.9-1.3,2.6c1,0.4,1.9,0.9,2.8,1.4l-0.5,0.8c-0.8-0.5-1.8-1-2.9-1.6c-0.9,0.7-2.4,1.2-4.4,1.6l-0.4-0.9
						c1.6-0.3,2.9-0.7,3.7-1.2c-0.9-0.4-1.8-0.8-2.7-1.2c0.4-0.6,0.7-1.1,1-1.7h-1.9v-1h2.4c0.2-0.4,0.4-0.8,0.5-1.2L-196.5,99.9z
						 M-197.1,98.4h1.4c0.4-0.7,0.7-1.4,1-2.2l1,0.3c-0.3,0.7-0.6,1.3-0.9,1.9h2.3v1h-7.8v-1h2.1c-0.3-0.6-0.6-1.2-0.9-1.7l0.8-0.4
						C-197.7,96.9-197.4,97.6-197.1,98.4z M-195.8,95.2h3.1v0.9h-7.2v-0.9h3.1c-0.2-0.4-0.3-0.8-0.5-1.2l1-0.2
						C-196.1,94.3-195.9,94.7-195.8,95.2z M-197.5,101.9c-0.3,0.4-0.5,0.9-0.8,1.2c0.8,0.3,1.6,0.6,2.3,1c0.6-0.6,1-1.3,1.3-2.2
						H-197.5z"/>
					<path style="fill:#444444;" d="M-187.4,94.5l0.8-0.5c1.2,0.9,2.3,2.5,3.2,4.7c1.3,3.3,3.1,5.7,5.3,7.1l-0.6,0.8
						c-2.3-1.4-4.1-3.9-5.5-7.6c-0.1-0.2-0.2-0.4-0.2-0.6c-0.9,3.6-2.9,6.3-5.8,8.2l-0.6-0.9c3-2,4.9-4.8,5.8-8.5
						C-185.7,96-186.5,95.1-187.4,94.5z"/>
					<path style="fill:#444444;" d="M-174.6,100.3v4.1c0,0.6,0.3,0.9,1,0.9h7c0.3,0,0.6-0.1,0.8-0.3c0.3-0.3,0.5-1.1,0.5-2.7l1,0.3
						c-0.1,1.7-0.4,2.8-0.7,3.1c-0.3,0.3-0.8,0.4-1.4,0.5h-7.6c-1.1,0-1.7-0.6-1.7-1.7v-7.4h1v2.1h7.8v-3.7h-9.3v-1h10.3v5.6h-8.7
						V100.3z"/>
					<path style="fill:#444444;" d="M-158.6,103.8v3h-1v-7.3c-0.8,1-1.7,1.9-2.7,2.7l-0.7-0.9c1.8-1.4,3.1-3,4.1-4.8h-3.7v-1h4.2
						c0.2-0.5,0.4-1.1,0.6-1.6l1,0.1c-0.2,0.5-0.3,1-0.5,1.5h6.9v1h-7.4c-0.3,0.6-0.6,1.1-0.9,1.6h6.5v7.6c0,0.7-0.4,1-1.2,1.1h-1.6
						l-0.3-0.9c0.5,0,1,0.1,1.5,0.1c0.4,0,0.5-0.2,0.5-0.5v-1.6L-158.6,103.8L-158.6,103.8z M-158.6,100.5h5.5V99h-5.5V100.5z
						 M-158.6,101.4v1.5h5.5v-1.5H-158.6z"/>
					<path style="fill:#444444;" d="M-148.4,98.6l-0.6-0.8c1.2-1.1,2.2-2.4,2.8-4l0.9,0.2c-0.1,0.4-0.3,0.7-0.5,1.1h3
						c-0.2-0.4-0.4-0.8-0.6-1.2l1-0.2c0.2,0.4,0.4,0.9,0.6,1.4h4.5v0.8h-4.4v1h3.9v0.8h-3.9v0.9h3.9v0.8h-3.9v1h4.7v0.9h-10.3v-3.9
						C-147.5,97.9-147.9,98.3-148.4,98.6z M-148.6,103.4v-0.9h5.6v-0.7h1v0.7h5.5v0.9h-4.2c1,0.9,2.4,1.6,4.4,2.1l-0.4,0.9
						c-2.3-0.8-4-1.8-4.9-3h-0.3v3.4h-1v-3.4h-0.3c-0.9,1.2-2.5,2.2-4.9,3.1l-0.5-0.9c2.2-0.7,3.6-1.4,4.4-2.2H-148.6z M-142.6,96.1
						h-3.6l-0.1,0.1V97h3.6v-0.9H-142.6z M-142.6,97.8h-3.6v0.9h3.6V97.8z M-142.6,99.5h-3.6v1h3.6V99.5z"/>
					<path style="fill:#444444;" d="M-132.4,100.3c-0.1,0.5-0.3,0.9-0.4,1.4h3.7v5h-0.9v-0.8h-2.2v0.8h-0.9v-4.2
						c-0.4,0.8-0.8,1.5-1.4,2.1l-0.5-0.8c0.8-0.9,1.3-2,1.7-3.5h-1.1v-0.9h1.3c0.1-0.5,0.2-1,0.2-1.6h-1.9V97h2
						c0-0.5,0.1-1.1,0.1-1.6h-1.6v-0.9h4.8V97h0.8v0.9h-0.8v2.5L-132.4,100.3L-132.4,100.3z M-130,105v-2.4h-2.2v2.4H-130z
						 M-132.2,99.5h1.7v-1.6h-1.5C-132,98.4-132.1,99-132.2,99.5z M-131.8,97h1.4v-1.6h-1.4C-131.8,95.9-131.8,96.5-131.8,97z
						 M-128.3,97.6v-1h1.6c-0.4-0.8-0.8-1.6-1.2-2.2l0.9-0.4c0.4,0.7,0.8,1.4,1.2,2.2l-0.8,0.4h1.6c0.4-0.9,0.8-1.8,1-2.7l1,0.3
						c-0.3,0.9-0.6,1.7-1,2.4h1.6v1h-2.3v2h2v0.9h-2v2h2.6v1h-2.6v3.2h-1v-3.2h-2.6v-1h2.6v-2h-2.2v-0.9h2.2v-2
						C-125.7,97.6-128.3,97.6-128.3,97.6z"/>
				</g>
			</g>
		</g>
		<g id="ShadowBasicRect4_4_" transform="translate(423,53)">
			<g>
				<rect x="-237.5" y="158" style="opacity:0.6;fill:#BBBBBB;enable-background:new    ;" width="189" height="50"/>
				<g>
					<rect x="-239" y="156.5" style="fill:#FFFFFF;" width="188" height="49"/>
					<path style="fill:#E5E5E5;" d="M-51.5,157v48h-187v-48H-51.5 M-50.5,156h-189v50h189V156L-50.5,156z"/>
				</g>
			</g>
			<g transform="translate(20 9)">
				<g style="enable-background:new    ;">
					<path style="fill:#444444;" d="M-204.3,170.6l-0.6-0.8c1.2-1.1,2.2-2.4,2.8-4l0.9,0.2c-0.1,0.4-0.3,0.7-0.5,1.1h3
						c-0.2-0.4-0.4-0.8-0.6-1.2l1-0.2c0.2,0.4,0.4,0.9,0.6,1.4h4.5v0.8h-4.4v1h3.9v0.8h-3.9v0.9h3.9v0.8h-3.9v1h4.7v0.9h-10.3v-3.9
						C-203.5,169.9-203.9,170.3-204.3,170.6z M-204.5,175.4v-0.9h5.6v-0.7h1v0.7h5.5v0.9h-4.2c1,0.9,2.4,1.6,4.4,2.1l-0.4,0.9
						c-2.3-0.8-4-1.8-4.9-3h-0.3v3.4h-1v-3.4h-0.3c-0.9,1.2-2.5,2.2-4.9,3.1l-0.5-0.9c2.2-0.7,3.6-1.4,4.4-2.2L-204.5,175.4
						L-204.5,175.4z M-198.5,168.1h-3.6l-0.1,0.1v0.8h3.6v-0.9H-198.5z M-198.5,169.8h-3.6v0.9h3.6V169.8z M-198.5,171.5h-3.6v1h3.6
						V171.5z"/>
					<path style="fill:#444444;" d="M-188.3,172.3c-0.1,0.5-0.3,0.9-0.4,1.4h3.7v5h-0.9v-0.8h-2.2v0.8h-0.9v-4.2
						c-0.4,0.8-0.8,1.5-1.4,2.1l-0.5-0.8c0.8-0.9,1.3-2,1.7-3.5h-1.1v-0.9h1.3c0.1-0.5,0.2-1,0.2-1.6h-1.9V169h2
						c0-0.5,0.1-1.1,0.1-1.6h-1.6v-0.9h4.8v2.5h0.8v0.9h-0.8v2.5L-188.3,172.3L-188.3,172.3z M-185.9,177v-2.4h-2.2v2.4H-185.9z
						 M-188.1,171.5h1.7v-1.6h-1.5C-187.9,170.4-188,171-188.1,171.5z M-187.8,169h1.4v-1.6h-1.4
						C-187.7,167.9-187.7,168.5-187.8,169z M-184.2,169.6v-1h1.6c-0.4-0.8-0.8-1.6-1.2-2.2l0.9-0.4c0.4,0.7,0.8,1.4,1.2,2.2
						l-0.8,0.4h1.6c0.4-0.9,0.8-1.8,1-2.7l1,0.3c-0.3,0.9-0.6,1.7-1,2.4h1.6v1h-2.3v2h2v0.9h-2v2h2.6v1h-2.6v3.2h-1v-3.2h-2.6v-1
						h2.6v-2h-2.2v-0.9h2.2v-2H-184.2z"/>
					<path style="fill:#444444;" d="M-166.9,166.1c-0.3,1-0.8,1.9-1.3,2.7h2.9v1h-4.7v0.7c0,0.7-0.1,1.4-0.2,1.9h5.7v1h-5.1
						c0.7,1.9,2.5,3.4,5.4,4.4l-0.6,0.9c-3.1-1.2-5-2.9-5.7-5.1c-0.3,0.8-0.6,1.5-1.1,2.1c-1,1.2-2.5,2.2-4.7,2.9l-0.5-0.9
						c2.1-0.7,3.6-1.6,4.5-2.7c0.3-0.5,0.6-1.1,0.8-1.7h-5v-1h5.3c0.1-0.6,0.2-1.3,0.2-1.9v-0.7h-4.7v-1h6.4c0.5-0.8,1-1.8,1.4-3
						L-166.9,166.1z M-171.6,168.4l-0.9,0.5c-0.5-0.9-1-1.7-1.6-2.4l0.9-0.4C-172.6,166.7-172.1,167.5-171.6,168.4z"/>
					<path style="fill:#444444;" d="M-157.3,166.5v0.9h-0.9v7.7c0.3-0.1,0.6-0.2,0.9-0.3v1c-0.3,0.1-0.6,0.2-0.9,0.3v2.8h-1v-2.5
						c-1.1,0.3-2.3,0.5-3.5,0.8l-0.3-1l0.9-0.1v-8.6h-0.9v-0.9L-157.3,166.5L-157.3,166.5z M-159.2,169.5v-2.1h-1.9v2.1H-159.2z
						 M-159.2,172.4v-2h-1.9v2H-159.2z M-159.2,175.4v-2.1h-1.9v2.5C-160.4,175.7-159.8,175.6-159.2,175.4z M-153.6,169
						c0.5-0.9,1-1.9,1.4-3l0.9,0.4c-0.4,1.1-0.8,1.9-1.3,2.7h2.1v1h-2.9v0.4c0,0.7,0,1.4-0.1,2h3.2v1h-2.9c0.3,1.5,1.4,3.1,3.1,4.7
						l-0.7,0.7c-1.6-1.6-2.6-3.2-3-4.7c-0.5,2.2-1.6,3.8-3.2,4.8l-0.6-0.8c1.6-1,2.6-2.5,3-4.7h-2.7v-1h2.8c0.1-0.6,0.1-1.1,0.1-1.8
						V170h-2.7v-1H-153.6z M-154.4,168.2l-0.8,0.5c-0.3-0.7-0.8-1.4-1.3-2.2l0.8-0.5C-155.1,166.9-154.7,167.6-154.4,168.2z"/>
					<path style="fill:#444444;" d="M-148.8,168.3v-1h4.3v1h-1.6v6.3c0.6-0.2,1.2-0.4,1.7-0.6v1c-1.2,0.5-2.7,1-4.3,1.4l-0.3-1
						c0.6-0.2,1.2-0.3,1.8-0.5v-6.7h-1.6V168.3z M-139.6,170.9v2.4c-0.1,1.5-0.4,2.7-1.2,3.6c-0.7,0.8-1.9,1.5-3.6,2l-0.5-0.9
						c1.6-0.4,2.8-1,3.4-1.8c0.6-0.8,0.9-1.8,1-3v-2.4L-139.6,170.9L-139.6,170.9z M-136.2,166.6v1h-3.3c-0.1,0.5-0.2,1-0.3,1.5h3
						v6.6h-1V170h-4.5v5.7h-1V169h2.5c0.1-0.5,0.2-1,0.3-1.5h-3.4v-1h7.7V166.6z M-136,178.2l-0.7,0.7c-0.7-0.8-1.6-1.7-2.9-2.6
						l0.7-0.6C-137.8,176.5-136.8,177.3-136,178.2z"/>
					<path style="fill:#444444;" d="M-123.9,178.8h-1v-0.9h-7.4v0.9h-1v-12.2h9.4V178.8z M-124.9,169.9v-2.3h-7.4v2.3H-124.9z
						 M-124.9,173.3v-2.5h-7.4v2.5H-124.9z M-124.9,176.9v-2.6h-7.4v2.6H-124.9z"/>
				</g>
			</g>
		</g>
		<g id="ShadowBasicRect4_5_" transform="translate(423,53)">
			<g>
				<rect x="-237.5" y="230" style="opacity:0.6;fill:#BBBBBB;enable-background:new    ;" width="189" height="50"/>
				<g>
					<rect x="-239" y="228.5" style="fill:#FFFFFF;" width="188" height="49"/>
					<path style="fill:#E5E5E5;" d="M-51.5,229v48h-187v-48H-51.5 M-50.5,228h-189v50h189V228L-50.5,228z"/>
				</g>
			</g>
			<g transform="translate(20 9)">
				<g style="enable-background:new    ;">
					<path style="fill:#444444;" d="M-218.7,240.3v-1h4.3v1h-1.6v6.3c0.6-0.2,1.2-0.4,1.7-0.6v1c-1.2,0.5-2.7,1-4.3,1.4l-0.3-1
						c0.6-0.2,1.2-0.3,1.8-0.5v-6.7h-1.6V240.3z M-209.5,242.9v2.4c-0.1,1.5-0.4,2.7-1.2,3.6c-0.7,0.8-1.9,1.5-3.6,2l-0.5-0.9
						c1.6-0.4,2.8-1,3.4-1.8c0.6-0.8,0.9-1.8,1-3v-2.4L-209.5,242.9L-209.5,242.9z M-206.1,238.6v1h-3.3c-0.1,0.5-0.2,1-0.3,1.5h3
						v6.6h-1V242h-4.5v5.7h-1V241h2.5c0.1-0.5,0.2-1,0.3-1.5h-3.4v-1h7.7V238.6z M-205.9,250.2l-0.7,0.7c-0.7-0.8-1.6-1.7-2.9-2.6
						l0.7-0.6C-207.7,248.5-206.7,249.3-205.9,250.2z"/>
					<path style="fill:#444444;" d="M-193.8,250.8h-1v-0.9h-7.4v0.9h-1v-12.2h9.4V250.8z M-194.8,241.9v-2.3h-7.4v2.3H-194.8z
						 M-194.8,245.3v-2.5h-7.4v2.5H-194.8z M-194.8,248.9v-2.6h-7.4v2.6H-194.8z"/>
					<path style="fill:#444444;" d="M-182.3,245.7v-0.9h1v0.9h3.1v1h-3.1v3c0,0.8-0.4,1.2-1.3,1.2h-1.8l-0.2-1
						c0.6,0,1.1,0.1,1.7,0.1c0.4,0,0.6-0.2,0.6-0.5v-2.7h-8.5v-1h8.5V245.7z M-180.3,241.8h-8v1c0,0.4,0.2,0.6,0.6,0.6h7.5
						c0.3,0,0.5-0.1,0.6-0.3s0.2-0.5,0.2-1.1l1,0.3c-0.1,0.6-0.2,1.1-0.3,1.4c-0.2,0.4-0.6,0.6-1.2,0.7h-8.1c-0.8,0-1.2-0.4-1.2-1.1
						v-4.7h9v3.2H-180.3z M-181.3,240.9v-1.5h-7v1.5H-181.3z M-185.2,249.3l-0.8,0.8c-0.6-0.7-1.3-1.5-2.3-2.3l0.7-0.7
						C-186.6,247.8-185.8,248.6-185.2,249.3z"/>
					<path style="fill:#444444;" d="M-173.4,238.5l0.8-0.5c1.2,0.9,2.3,2.5,3.2,4.7c1.3,3.3,3.1,5.7,5.3,7.1l-0.6,0.8
						c-2.3-1.4-4.1-3.9-5.5-7.6c-0.1-0.2-0.2-0.4-0.2-0.6c-0.9,3.6-2.9,6.3-5.8,8.2l-0.6-0.9c3-2,4.9-4.8,5.8-8.5
						C-171.8,240-172.5,239.1-173.4,238.5z"/>
					<path style="fill:#444444;" d="M-156.1,237.9c1.5,1.7,3.5,3.1,6,4.2l-0.6,0.9c-2.5-1.1-4.4-2.5-5.8-4.1c-1.4,1.6-3.4,3-5.8,4.1
						l-0.5-0.9c2.6-1.2,4.6-2.6,6-4.2H-156.1z M-157.2,249.3h-1v-0.7h-2.3v1h-1V244h4.2v5.3H-157.2z M-158.2,247.6v-2.7h-2.3v2.7
						H-158.2z M-153.6,241.5v0.9h-5.8v-0.9H-153.6z M-153.9,249.3l-0.3-0.9h1.1c0.4,0,0.6-0.2,0.6-0.6v-3h-2.4v6.1h-1v-7h4.4v4.1
						c0,0.8-0.4,1.3-1.3,1.3L-153.9,249.3L-153.9,249.3z"/>
					<path style="fill:#444444;" d="M-144.6,250.8h-1v-4.9c-0.9,0.3-1.8,0.5-2.8,0.8l-0.5-1c2.4-0.5,4.4-1.1,6-2
						c-0.6-0.5-1.5-1.1-2.5-1.7l0.9-0.5c1.1,0.7,1.9,1.2,2.5,1.8c1.4-0.9,2.5-1.8,3.1-3h-5.2c-1,0.9-2.2,1.7-3.6,2.4l-0.7-0.9
						c2.4-1,4-2.3,4.8-3.8l1.1,0.1c-0.2,0.4-0.5,0.8-0.8,1.2h5.5v0.9c-1,1.9-2.8,3.5-5.4,4.7h5.8v5.9h-1V250h-6.2L-144.6,250.8
						L-144.6,250.8z M-138.3,245.8h-6.2v3.2h6.2V245.8z"/>
					<path style="fill:#444444;" d="M-123.7,245.1v1h-4.3v3.3h5.5v1h-11.9v-1h5.4V246h-4.3v-1h9.6V245.1z M-128,239.3h5.4v2.8h-1
						v-1.9h-9.8v1.9h-1v-2.8h5.5c-0.2-0.5-0.4-0.9-0.6-1.3l1.1-0.2C-128.3,238.3-128.1,238.8-128,239.3z M-129.5,242
						c-1.1,1-2.4,1.8-4.1,2.5l-0.4-0.9c1.6-0.6,2.9-1.3,3.9-2.3L-129.5,242z M-123.2,243.6l-0.6,0.9c-1.3-1.1-2.6-1.9-4-2.5l0.5-0.8
						C-125.8,241.8-124.4,242.7-123.2,243.6z"/>
					<path style="fill:#444444;" d="M-119.2,240.3v10.5h-1v-10.5H-119.2z M-116.4,240.4l-0.9,0.5c-0.5-1-1.1-1.8-1.7-2.6l0.9-0.4
						C-117.5,238.6-116.9,239.4-116.4,240.4z M-112,241.7v6.5h-5.3v-6.5H-112z M-112.9,244.6v-1.9h-3.4v1.9H-112.9z M-112.9,245.5
						h-3.4v1.9h3.4V245.5z M-111.6,250.7l-0.3-0.9h1.2c0.4,0,0.6-0.3,0.6-0.9v-9.3h-5.4v-0.9h6.4v10.5c0,1-0.5,1.5-1.4,1.5
						L-111.6,250.7L-111.6,250.7z"/>
				</g>
			</g>
		</g>
		<g id="ShadowBasicRect4_2_" transform="translate(423,53)">
			<g>
				<rect x="-237.5" y="302" style="opacity:0.6;fill:#BBBBBB;enable-background:new    ;" width="189" height="50"/>
				<g>
					<rect x="-239" y="300.5" style="fill:#FFFFFF;" width="188" height="49"/>
					<path style="fill:#E5E5E5;" d="M-51.5,301v48h-187v-48H-51.5 M-50.5,300h-189v50h189V300L-50.5,300z"/>
				</g>
			</g>
			<g transform="translate(20 9)">
				<g style="enable-background:new    ;">
					<path style="fill:#444444;" d="M-224.9,314.4l-0.6-0.9c2.6-0.7,4.4-1.6,5.5-2.7c0.2-0.2,0.3-0.4,0.4-0.6h-5.8v-1h6.3
						c0.4-0.9,0.6-1.9,0.6-3v-1.7h1v1.7c0,1.1-0.2,2.1-0.5,3h4.5v1h-4.9c-0.1,0.2-0.3,0.4-0.4,0.6c2,0.8,3.8,1.7,5.5,2.8l-0.5,0.9
						c-1.8-1.2-3.6-2.2-5.5-2.9C-220.5,312.8-222.3,313.7-224.9,314.4z M-213.8,305.6h-1v-1.8h-9.4v1.8h-1v-2.7h5.3
						c-0.2-0.5-0.4-0.9-0.6-1.3l1-0.2c0.2,0.4,0.4,0.9,0.5,1.5h5.1L-213.8,305.6L-213.8,305.6z M-220.7,308.1l-0.5,0.8
						c-0.9-0.7-1.8-1.2-2.8-1.6l0.5-0.8C-222.5,307-221.5,307.5-220.7,308.1z M-219.3,306.2l-0.5,0.8c-0.9-0.7-1.9-1.2-2.9-1.6
						l0.5-0.8C-221.2,305-220.2,305.5-219.3,306.2z"/>
					<path style="fill:#444444;" d="M-210,306.7v-3.3h-1.8v-1h4.6v1h-1.8v3.3h1.6v1h-1.6v3.2c0.6-0.2,1.2-0.4,1.8-0.7v1
						c-1.4,0.6-2.9,1-4.4,1.4l-0.2-1c0.6-0.1,1.2-0.3,1.9-0.4v-3.5h-1.6v-1H-210z M-202.9,304.1v3.4c-0.1,1.9-0.4,3.4-1.1,4.5
						c-0.7,1-1.8,1.9-3.4,2.5l-0.5-0.9c1.5-0.6,2.6-1.3,3.2-2.3c0.6-1,0.9-2.3,0.9-3.8v-3.4L-202.9,304.1L-202.9,304.1z
						 M-200.2,309.9h-1v-6.8h-4.2v6.8h-1v-7.7h6.2V309.9z M-201.9,314.2c-0.8,0-1.1-0.4-1.1-1.2v-3.2h1v3c0,0.3,0.1,0.4,0.4,0.4h1
						c0.2,0,0.4-0.1,0.5-0.2c0.1-0.2,0.2-0.7,0.3-1.6l0.9,0.3c-0.1,1.1-0.3,1.9-0.5,2.1s-0.6,0.3-1,0.3h-1.5V314.2z"/>
					<path style="fill:#444444;" d="M-197.3,306.2l-0.6-0.8c1.2-1.1,2.2-2.4,2.8-4l0.9,0.2c-0.1,0.4-0.3,0.7-0.5,1.1h3
						c-0.2-0.4-0.4-0.8-0.6-1.2l1-0.2c0.2,0.4,0.4,0.9,0.6,1.4h4.5v0.8h-4.4v1h3.9v0.8h-3.9v0.9h3.9v0.8h-3.9v1h4.7v0.9h-10.3V305
						C-196.5,305.5-196.9,305.9-197.3,306.2z M-197.5,311v-0.9h5.6v-0.7h1v0.7h5.5v0.9h-4.2c1,0.9,2.4,1.6,4.4,2.1l-0.4,0.9
						c-2.3-0.8-4-1.8-4.9-3h-0.3v3.4h-1V311h-0.3c-0.9,1.2-2.5,2.2-4.9,3.1l-0.5-0.9c2.2-0.7,3.6-1.4,4.4-2.2H-197.5z M-191.6,303.7
						h-3.6l-0.1,0.1v0.8h3.6v-0.9H-191.6z M-191.6,305.4h-3.6v0.9h3.6V305.4z M-191.6,307.1h-3.6v1h3.6V307.1z"/>
					<path style="fill:#444444;" d="M-181.3,307.9c-0.1,0.5-0.3,0.9-0.4,1.4h3.7v5h-0.9v-0.8h-2.2v0.8h-0.9v-4.2
						c-0.4,0.8-0.8,1.5-1.4,2.1l-0.5-0.8c0.8-0.9,1.3-2,1.7-3.5h-1.1V307h1.3c0.1-0.5,0.2-1,0.2-1.6h-1.9v-0.9h2
						c0-0.5,0.1-1.1,0.1-1.6h-1.6V302h4.8v2.5h0.8v0.9h-0.8v2.5H-181.3z M-179,312.6v-2.4h-2.2v2.4H-179z M-181.1,307.1h1.7v-1.6
						h-1.5C-180.9,306.1-181,306.6-181.1,307.1z M-180.8,304.6h1.4V303h-1.4C-180.7,303.5-180.8,304.1-180.8,304.6z M-177.3,305.2
						v-1h1.6c-0.4-0.8-0.8-1.6-1.2-2.2l0.9-0.4c0.4,0.7,0.8,1.4,1.2,2.2l-0.8,0.4h1.6c0.4-0.9,0.8-1.8,1-2.7l1,0.3
						c-0.3,0.9-0.6,1.7-1,2.4h1.6v1h-2.3v2h2v0.9h-2v2h2.6v1h-2.6v3.2h-1v-3.2h-2.6v-1h2.6v-2h-2.2v-0.9h2.2v-2L-177.3,305.2
						L-177.3,305.2z"/>
					<path style="fill:#444444;" d="M-157.3,302.3v1h-6.1v2.1c1.7,0.9,3.5,1.9,5.3,3l-0.6,0.9c-1.9-1.2-3.4-2.2-4.7-2.9v8h-1v-11.1
						h-5.3v-1H-157.3z"/>
					<path style="fill:#444444;" d="M-150.5,301.7v11.1h2v-11.1h1v11.1h4.2v1h-12.4v-1h4.2v-11.1H-150.5z M-152.6,310.7l-0.9,0.2
						c-0.5-2.2-1.1-4.4-1.9-6.5l0.9-0.3C-153.8,306.1-153.1,308.3-152.6,310.7z M-143.7,304.5c-0.6,2.4-1.3,4.6-2.1,6.4l-0.9-0.3
						c0.8-1.7,1.5-3.8,2.1-6.3L-143.7,304.5z"/>
					<path style="fill:#444444;" d="M-136.7,301.7c-0.2,0.4-0.3,0.7-0.5,1.1h6.1v0.8c-0.9,1-2,1.9-3.3,2.6c1.6,0.7,3.3,1.1,5.3,1.3
						l-0.5,0.9c-2.2-0.3-4.2-0.8-5.9-1.7c-1.7,0.8-3.7,1.4-6,1.7l-0.5-1c2-0.3,3.8-0.7,5.3-1.3c-0.8-0.5-1.5-1-2.2-1.6
						c-0.5,0.5-1.1,0.9-1.7,1.3l-0.6-0.8c1.7-1,2.8-2.1,3.4-3.5L-136.7,301.7z M-135.4,307.7c0,0.6-0.1,1.1-0.1,1.6h4.9
						c0,2.4-0.2,3.8-0.6,4.2s-1.1,0.7-2.1,0.7c-0.4,0-1,0-1.6-0.1l-0.3-0.9l1.6,0.1c0.8,0,1.4-0.2,1.6-0.5c0.2-0.3,0.3-1.2,0.4-2.6
						h-4.1c-0.1,0.4-0.3,0.7-0.4,1.1c-0.7,1.3-2.3,2.3-4.9,3.1l-0.7-0.8c2.3-0.7,3.8-1.5,4.5-2.5c0.2-0.3,0.3-0.5,0.4-0.8h-4.2v-0.9
						h4.4c0.1-0.5,0.2-1,0.2-1.6h1V307.7z M-132.6,303.7h-5.3l-0.2,0.2c0.8,0.7,1.6,1.3,2.6,1.8
						C-134.4,305.1-133.4,304.4-132.6,303.7z"/>
					<path style="fill:#444444;" d="M-124.4,305.2c-0.7,0.7-1.6,1.4-2.6,2.1l-0.7-0.8c1.1-0.6,2-1.3,2.7-2L-124.4,305.2z
						 M-121,309.3c-0.2,1.8-0.6,3-1.3,3.6c-0.7,0.8-2.3,1.2-4.9,1.4l-0.4-0.9c2.2-0.1,3.7-0.5,4.4-1.1c0.6-0.6,1-1.6,1.1-3.1
						L-121,309.3z M-124.6,302.8l-0.5,0.8c-0.8-0.4-1.5-0.8-2.3-1l0.5-0.8C-126.1,302.1-125.3,302.4-124.6,302.8z M-117.1,311.9h-1
						v-3.2h-7v3.3h-1v-4.3h9V311.9z M-121.4,301.6c-0.1,0.3-0.2,0.6-0.4,0.9h5.6v0.6c-0.2,0.7-0.4,1.4-0.7,2l-1-0.3
						c0.2-0.4,0.4-0.9,0.6-1.5h-2.4c-0.1,0.3-0.1,0.6-0.3,0.9c0.7,1.1,2.2,1.8,4.3,2.2l-0.4,0.9c-2-0.4-3.5-1.2-4.4-2.3
						c-0.2,0.3-0.3,0.5-0.6,0.7c-0.7,0.6-1.8,1.2-3.4,1.5l-0.4-0.9c1.4-0.3,2.4-0.7,3-1.2c0.5-0.5,0.9-1.1,1-1.9h-1.8
						c-0.4,0.5-0.9,1-1.4,1.4l-0.6-0.8c0.9-0.7,1.5-1.5,1.9-2.5L-121.4,301.6z M-115.7,313.6l-0.5,0.8c-1.6-0.8-3.2-1.4-4.9-1.8
						l0.5-0.8C-118.8,312.4-117.2,313-115.7,313.6z"/>
					<path style="fill:#444444;" d="M-110.9,307.3l-0.7,0.7c-0.6-0.7-1.3-1.4-2.3-2.1l0.7-0.7C-112.3,306-111.5,306.7-110.9,307.3z
						 M-110.7,309.4c-0.6,1.8-1.3,3.4-2.1,5l-0.9-0.4c0.8-1.6,1.6-3.2,2.2-4.9L-110.7,309.4z M-110.4,304l-0.7,0.7
						c-0.6-0.7-1.5-1.4-2.5-2.2l0.7-0.7C-112,302.6-111.1,303.3-110.4,304z M-105.8,304.3c0.2-0.4,0.3-0.9,0.4-1.3h-3.4v4.1
						c-0.1,3-0.6,5.5-1.6,7.3l-0.8-0.7c0.9-1.6,1.3-3.8,1.4-6.6v-5h8.4v0.9h-3.1c-0.1,0.5-0.2,0.9-0.4,1.3h2.7v4.9h-2.3v4
						c0,0.8-0.4,1.1-1.1,1.1h-1.2l-0.2-0.9c0.4,0,0.7,0.1,1,0.1s0.5-0.2,0.5-0.5v-3.7h-2.4v-4.9L-105.8,304.3L-105.8,304.3z
						 M-106.6,310.5c-0.4,1.2-0.9,2.3-1.5,3.2l-0.8-0.5c0.7-0.9,1.1-1.8,1.4-2.9L-106.6,310.5z M-103.1,306.4v-1.3h-3.9v1.3H-103.1z
						 M-103.1,307.2h-3.9v1.3h3.9V307.2z M-101.2,313.3l-0.9,0.4c-0.4-1.2-1-2.3-1.5-3.2l0.8-0.3
						C-102.2,311.2-101.7,312.2-101.2,313.3z"/>
					<path style="fill:#444444;" d="M-187.4,318.7c-0.7,1.8-1.4,3.2-2.1,4.3c0.6-0.1,1.2-0.2,1.8-0.3c0.3-0.5,0.5-1,0.8-1.5l0.9,0.4
						c-1.2,2.3-2.3,4-3.1,5c1-0.3,2-0.6,2.9-1v0.9c-1.5,0.6-2.9,1-4.2,1.2l-0.3-0.9c0.2-0.1,0.3-0.2,0.5-0.3c0.5-0.6,1.2-1.5,2-2.8
						c-0.8,0.1-1.5,0.3-2.3,0.4l-0.3-0.9c0.2-0.1,0.3-0.2,0.4-0.4c0.8-1.3,1.4-2.7,2-4.4L-187.4,318.7z M-186.1,329
						c-1.3,0.6-2.7,1.2-4.4,1.6l-0.1-1c1.7-0.4,3.2-0.9,4.5-1.5V329z M-183.5,325.1c-0.1,1.8-0.3,3.1-0.7,3.9
						c-0.4,0.9-1.1,1.6-2,2.2l-0.6-0.8c0.8-0.5,1.4-1.1,1.8-1.9c0.3-0.7,0.5-1.9,0.6-3.5L-183.5,325.1L-183.5,325.1z M-185.9,323.6
						c0.1,0,0.1-0.1,0.2-0.1c0.5-0.4,1.1-1.2,1.8-2.7h-2.4v-1h3.6c-0.2-0.5-0.4-1-0.6-1.4l1-0.2c0.2,0.5,0.4,1,0.6,1.6h3.1v1h-4.3
						c-0.6,1.2-1.2,2.1-1.6,2.7c1.3-0.1,2.6-0.3,3.9-0.5c-0.3-0.4-0.6-0.9-1-1.4l0.8-0.5c1,1.2,1.7,2.3,2.2,3.2l-0.8,0.5
						c-0.2-0.4-0.4-0.7-0.6-1.1c-1.7,0.3-3.6,0.5-5.7,0.6L-185.9,323.6z M-180.5,330.9c-0.8,0-1.3-0.4-1.3-1.2v-4.8h1v4.6
						c0,0.3,0.1,0.4,0.3,0.5h0.9c0.3,0,0.5-0.2,0.5-0.5c0.1-0.4,0.1-1,0.1-1.8l0.9,0.3c0,1.3-0.1,2.1-0.3,2.5
						c-0.2,0.3-0.6,0.4-1.2,0.5h-0.9V330.9z"/>
					<path style="fill:#444444;" d="M-164.2,324.2v1h-12.6v-1H-164.2z"/>
					<path style="fill:#444444;" d="M-161.9,321.8l-0.9-0.6c0.8-0.9,1.5-1.8,1.8-2.9l1,0.2c-0.1,0.3-0.2,0.6-0.3,0.9h3.7v0.9h-2.3
						c0.3,0.4,0.6,0.8,0.8,1.2l-0.9,0.4c-0.3-0.5-0.6-1.1-0.9-1.6h-0.8C-161.1,320.8-161.5,321.3-161.9,321.8z M-150.6,324.7h-1V323
						h-9.9v1.7h-1v-2.5h5.5c-0.1-0.3-0.3-0.6-0.4-0.9l1-0.2l-0.1-0.1c0.7-0.8,1.1-1.8,1.5-2.8l1,0.2c-0.1,0.3-0.2,0.6-0.3,0.9h4v0.9
						h-2.5c0.3,0.4,0.5,0.8,0.7,1.1l-0.9,0.3c-0.3-0.5-0.5-1-0.9-1.4h-0.9c-0.3,0.5-0.5,0.9-0.9,1.3l-0.8-0.5
						c0.2,0.3,0.3,0.7,0.4,1.1h5.3v2.6H-150.6z M-152.5,326.6h-7v1h7.6v3.6h-1v-0.6h-6.6v0.6h-1v-7.3h8V326.6z M-153.5,325.8v-1.1
						h-6v1.1H-153.5z M-152.9,329.7v-1.3h-6.6v1.3H-152.9z"/>
					<path style="fill:#444444;" d="M-147.1,323.6v-3.3h-1.7v-1h4.5v1h-1.7v3.3h1.5v1h-1.5v3.2c0.5-0.2,1-0.4,1.5-0.6v1
						c-1.3,0.5-2.7,1-4.2,1.3l-0.3-1c0.6-0.1,1.2-0.3,1.8-0.4v-3.5h-1.5v-1H-147.1z M-136.9,318.9v6.5h-2.9v1.7h3.1v1h-3.1v1.8h3.7
						v1h-8.4v-1h3.7V328h-3.2v-1h3.2v-1.7h-2.9v-6.5h6.8V318.9z M-140.8,321.7v-1.9h-2v1.9H-140.8z M-140.8,322.6h-2v1.9h2V322.6z
						 M-139.8,321.7h1.9v-1.9h-1.9V321.7z M-137.8,322.6h-1.9v1.9h1.9V322.6z"/>
				</g>
			</g>
		</g>
		<g transform="translate(10 10)">
			<g style="enable-background:new    ;">
				<path style="fill:#00A4FF;" d="M169.7,20.1c1.4-0.6,2.5-1.5,3.3-2.6h-3.7c-1.1,0.5-2.4,0.9-4,1.2l-0.5-0.8
					c2.8-0.3,4.8-1.1,6.1-2.5l0.8,0.4c-0.3,0.3-0.6,0.6-1,0.9h3.5v0.7c-1.8,3-5.1,4.5-10,4.6l-0.4-0.9c2,0,3.7-0.3,5.1-0.7
					c-0.4-0.6-0.9-1.1-1.3-1.5l0.8-0.4C168.8,19,169.2,19.6,169.7,20.1z M169.6,11.1c-0.2,0.3-0.5,0.5-0.7,0.7h3.6v0.7
					c-1.4,2.4-3.9,3.8-7.6,4.1l-0.4-0.8c1.1-0.1,2.1-0.2,3.1-0.5c-0.4-0.5-0.8-0.9-1.2-1.3l0.8-0.4c0.5,0.4,0.9,0.9,1.3,1.4
					c1.3-0.5,2.3-1.3,3-2.4h-3.7c-1,0.6-2.1,1-3.5,1.3l-0.5-0.8c2.2-0.4,3.9-1.2,5-2.5L169.6,11.1z"/>
				<path style="fill:#00A4FF;" d="M176.2,14.9l-0.5-0.7c1.1-1,2-2.2,2.5-3.6l0.8,0.2c-0.1,0.3-0.3,0.7-0.4,1h2.7
					c-0.2-0.4-0.4-0.8-0.6-1.1l0.9-0.2c0.2,0.4,0.3,0.8,0.5,1.2h4.1v0.8h-4v0.9h3.5v0.7h-3.5V15h3.5v0.7h-3.5v0.9h4.3v0.8h-9.3v-3.5
					C176.9,14.2,176.6,14.6,176.2,14.9z M176,19.2v-0.8h5v-0.7h0.9v0.7h5v0.8h-3.8c0.9,0.8,2.2,1.5,4,1.9l-0.4,0.8
					c-2.1-0.7-3.6-1.6-4.5-2.7H182v3.1h-1v-3.1h-0.2c-0.8,1.1-2.3,2-4.4,2.8l-0.5-0.8c1.9-0.6,3.3-1.3,4-2
					C179.9,19.2,176,19.2,176,19.2z M181.4,12.6h-3.2l-0.1,0.1v0.8h3.3V12.6z M181.4,14.2h-3.3V15h3.3V14.2z M181.4,15.7h-3.3v0.9
					h3.3V15.7z"/>
				<path style="fill:#00A4FF;" d="M190.6,16.4c-0.1,0.4-0.2,0.8-0.4,1.2h3.3v4.5h-0.8v-0.7h-2v0.8h-0.8v-3.8
					c-0.3,0.7-0.7,1.4-1.2,1.9l-0.5-0.8c0.7-0.8,1.2-1.8,1.6-3.1h-1v-0.8h1.2c0.1-0.5,0.2-0.9,0.2-1.4h-1.7v-0.8h1.8
					c0-0.5,0-1,0.1-1.5h-1.5v-0.8h4.3v2.2h0.7v0.8h-0.7v2.2h-2.6V16.4z M192.8,20.6v-2.1h-2v2.1H192.8z M190.8,15.7h1.6v-1.4H191
					C191,14.7,190.9,15.2,190.8,15.7z M191.1,13.4h1.3V12h-1.2C191.1,12.5,191.1,13,191.1,13.4z M194.3,14v-0.9h1.5
					c-0.4-0.8-0.7-1.4-1.1-2l0.8-0.4c0.4,0.6,0.7,1.3,1.1,2l-0.8,0.4h1.4c0.4-0.8,0.7-1.6,0.9-2.5l0.9,0.3c-0.3,0.8-0.6,1.5-0.9,2.2
					h1.4V14h-2.1v1.8h1.8v0.8h-1.8v1.8h2.4v0.9h-2.4v2.9h-0.9v-2.9h-2.4v-0.9h2.4v-1.8h-2v-0.8h2V14H194.3z"/>
				<path style="fill:#00A4FF;" d="M201.9,13.7l-0.8-0.5c0.8-0.8,1.3-1.7,1.7-2.6l0.9,0.2c-0.1,0.3-0.2,0.5-0.3,0.8h3.4v0.8h-2.1
					c0.3,0.4,0.5,0.7,0.7,1.1l-0.8,0.3c-0.2-0.5-0.5-0.9-0.8-1.4h-0.7C202.6,12.9,202.2,13.3,201.9,13.7z M212.1,16.4h-0.9v-1.5
					h-8.9v1.5h-0.9v-2.3h5c-0.1-0.3-0.3-0.6-0.4-0.8l0.9-0.2l-0.1-0.1c0.6-0.8,1-1.6,1.3-2.5l0.9,0.2c-0.1,0.3-0.2,0.5-0.3,0.8h3.7
					v0.8h-2.2c0.3,0.4,0.5,0.7,0.6,1l-0.8,0.3c-0.2-0.5-0.5-0.9-0.8-1.3h-0.8c-0.2,0.4-0.5,0.8-0.8,1.2l-0.7-0.4
					c0.1,0.3,0.3,0.6,0.4,1h4.8V16.4z M210.3,18.1H204V19h6.9v3.2H210v-0.5h-6v0.5h-0.9v-6.6h7.2V18.1z M209.4,17.4v-1H204v1H209.4z
					 M210,20.9v-1.2h-6v1.2H210z"/>
				<path style="fill:#00A4FF;" d="M215.2,15.4v-3h-1.6v-0.9h4v0.9h-1.5v3h1.4v0.9h-1.4v2.9c0.5-0.2,0.9-0.3,1.4-0.5v0.9
					c-1.2,0.5-2.4,0.9-3.8,1.2l-0.2-0.9c0.6-0.1,1.1-0.2,1.7-0.4v-3.2h-1.4v-0.9H215.2z M224.5,11.2V17h-2.6v1.5h2.8v0.9h-2.8V21
					h3.3v0.9h-7.6V21h3.4v-1.6h-2.9v-0.9h2.9V17h-2.6v-5.8H224.5z M220.9,13.7V12h-1.8v1.7H220.9z M220.9,14.5h-1.8v1.7h1.8V14.5z
					 M221.8,13.7h1.8V12h-1.8V13.7z M223.6,14.5h-1.8v1.7h1.8V14.5z"/>
			</g>
		</g>
		<g>
			<g>
				<path style="fill:#BABABA;" d="M385.5,126h-5v1h4v5h1V126L385.5,126z M375.5,126h-5v1h5V126L375.5,126z M365.5,126h-5v1h5V126
					L365.5,126z M355.5,126h-5v1h5V126L355.5,126z M345.5,126h-5v1h5V126L345.5,126z M335.5,126h-5v1h5V126L335.5,126z M325.5,126
					h-5v1h5V126L325.5,126z M315.5,126h-5v1h5V126L315.5,126z M305.5,126h-5v1h5V126L305.5,126z M295.5,126h-5v1h5V126L295.5,126z
					 M285.5,126h-5v1h5V126L285.5,126z M275.5,126h-5v1h5V126L275.5,126z M265.5,126h-5v1h5V126L265.5,126z M255.5,126h-5v1h5V126
					L255.5,126z M245.5,126h-5v1h5V126L245.5,126z M235.5,126h-5v1h5V126L235.5,126z M225.5,126h-5v1h5V126L225.5,126z M215.5,126
					h-5v1h5V126L215.5,126z M205.5,126h-5v1h5V126L205.5,126z M195.5,126h-5v1h5V126L195.5,126z M185.5,126h-5v1h5V126L185.5,126z
					 M175.5,126h-3v1l0,0c0,0.5,0,1,0,1h1v-1h2V126L175.5,126z M173.5,133h-1v5h1V133L173.5,133z M173.5,143h-1v5h1V143L173.5,143z
					 M173.5,153h-1v5h1V153L173.5,153z M173.5,163h-1v5h1V163L173.5,163z M173.5,173h-1v5h1V173L173.5,173z M173.5,183h-1v5h1V183
					L173.5,183z M173.5,193h-1v5h1V193L173.5,193z M173.5,203h-1v5h1V203L173.5,203z M173.5,213h-1v5h1V213L173.5,213z M173.5,223
					h-1v5h1V223L173.5,223z M173.5,233h-1v5h1V233L173.5,233z M173.5,243h-1v5h1V243L173.5,243z M173.5,253h-1v5h1V253L173.5,253z
					 M173.5,263h-1v5h1V263L173.5,263z M173.5,273h-1v5h1V273L173.5,273z M173.5,283h-1v5h1V283L173.5,283z M173.5,293h-1v5h1V293
					L173.5,293z M173.5,303h-1v5h1V303L173.5,303z M173.5,313h-1v5h1V313L173.5,313z M173.5,323h-1v5h1V323L173.5,323z M173.5,333
					h-1v5h1V333L173.5,333z M173.5,343h-1v5h1V343L173.5,343z M173.5,353h-1v5h1V353L173.5,353z M173.5,363h-1v5h1V363L173.5,363z
					 M173.5,373h-1v5h1V373L173.5,373z M173.5,383h-1v5h1V383L173.5,383z M173.5,393h-1v5h1V393L173.5,393z M173.5,403h-1v5h1V403
					L173.5,403z M173.5,413h-1v3h1l0,0l0,0l0,0l0,0c0.5,0,1,0,1,0v-1h-1V413L173.5,413z M184.5,415h-5v1h5V415L184.5,415z
					 M194.5,415h-5v1h5V415L194.5,415z M204.5,415h-5v1h5V415L204.5,415z M214.5,415h-5v1h5V415L214.5,415z M224.5,415h-5v1h5V415
					L224.5,415z M234.5,415h-5v1h5V415L234.5,415z M244.5,415h-5v1h5V415L244.5,415z M254.5,415h-5v1h5V415L254.5,415z M264.5,415
					h-5v1h5V415L264.5,415z M274.5,415h-5v1h5V415L274.5,415z M284.5,415h-5v1h5V415L284.5,415z M294.5,415h-5v1h5V415L294.5,415z
					 M304.5,415h-5v1h5V415L304.5,415z M314.5,415h-5v1h5V415L314.5,415z M324.5,415h-5v1h5V415L324.5,415z M334.5,415h-5v1h5V415
					L334.5,415z M344.5,415h-5v1h5V415L344.5,415z M354.5,415h-5v1h5V415L354.5,415z M364.5,415h-5v1h5V415L364.5,415z M374.5,415
					h-5v1h5V415L374.5,415z M384.5,415h-5v1h5V415L384.5,415z M385.5,407h-1v5h1V407L385.5,407z M385.5,397h-1v5h1V397L385.5,397z
					 M385.5,387h-1v5h1V387L385.5,387z M385.5,377h-1v5h1V377L385.5,377z M385.5,367h-1v5h1V367L385.5,367z M385.5,357h-1v5h1V357
					L385.5,357z M385.5,347h-1v5h1V347L385.5,347z M385.5,337h-1v5h1V337L385.5,337z M385.5,327h-1v5h1V327L385.5,327z M385.5,317
					h-1v5h1V317L385.5,317z M385.5,307h-1v5h1V307L385.5,307z M385.5,297h-1v5h1V297L385.5,297z M385.5,287h-1v5h1V287L385.5,287z
					 M385.5,277h-1v5h1V277L385.5,277z M385.5,267h-1v5h1V267L385.5,267z M385.5,257h-1v5h1V257L385.5,257z M385.5,247h-1v5h1V247
					L385.5,247z M385.5,237h-1v5h1V237L385.5,237z M385.5,227h-1v5h1V227L385.5,227z M385.5,217h-1v5h1V217L385.5,217z M385.5,207
					h-1v5h1V207L385.5,207z M385.5,197h-1v5h1V197L385.5,197z M385.5,187h-1v5h1V187L385.5,187z M385.5,177h-1v5h1V177L385.5,177z
					 M385.5,167h-1v5h1V167L385.5,167z M385.5,157h-1v5h1V157L385.5,157z M385.5,147h-1v5h1V147L385.5,147z M385.5,137h-1v5h1V137
					L385.5,137z"/>
			</g>
		</g>
		<g>
			<g>
				<line style="fill:none;stroke:#989898;stroke-miterlimit:10;" x1="279.5" y1="106" x2="279.5" y2="132"/>
			</g>
			<polygon style="fill:#989898;" points="282.5,132 279.5,136 276.5,132 			"/>
		</g>
		<g>
			<g>
				<line style="fill:none;stroke:#989898;stroke-miterlimit:10;" x1="279.5" y1="189" x2="279.5" y2="204"/>
			</g>
			<polygon style="fill:#989898;" points="282.5,204 279.5,208 276.5,204 			"/>
		</g>
		<g>
			<g>
				<line style="fill:none;stroke:#989898;stroke-miterlimit:10;" x1="279.5" y1="261" x2="279.5" y2="276"/>
			</g>
			<polygon style="fill:#989898;" points="282.5,276 279.5,280 276.5,276 			"/>
		</g>
		<g>
			<g>
				<line style="fill:none;stroke:#989898;stroke-miterlimit:10;" x1="279.5" y1="333" x2="279.5" y2="348"/>
			</g>
			<polygon style="fill:#989898;" points="282.5,348 279.5,352 276.5,348 			"/>
		</g>
		<g id="ShadowBasicRect4_25_" transform="translate(423,53)">
			<g>
				<rect x="24.5" y="3" style="opacity:0.6;fill:#BBBBBB;enable-background:new    ;" width="211" height="50"/>
				<g>
					<rect x="23" y="1.5" style="fill:#FFFFFF;" width="210" height="49"/>
					<path style="fill:#E5E5E5;" d="M232.5,2v48h-209V2H232.5 M233.5,1h-211v50h211V1L233.5,1z"/>
				</g>
			</g>
			<g transform="translate(20 9)">
				<g style="enable-background:new    ;">
					<path style="fill:#444444;" d="M70.4,19.7c-0.4,1.4-0.9,2.6-1.5,3.7L68,22.9c0.7-1,1.1-2.1,1.4-3.4L70.4,19.7z M69.9,15.3
						c-0.2-0.6-0.5-1.1-0.7-1.6l0.9-0.3c0.3,0.5,0.5,1.1,0.7,1.9h1.5c0.3-0.6,0.5-1.3,0.7-1.9l0.9,0.3c-0.2,0.6-0.5,1.1-0.7,1.6h1.6
						v0.9h-2.7v1.6h2.5v0.9h-2.5v4c0,0.8-0.4,1.1-1.2,1.1h-0.8l-0.2-0.9c0.2,0,0.4,0.1,0.6,0.1c0.4,0,0.5-0.2,0.5-0.5v-3.7h-2.6
						v-0.9H71v-1.6h-2.8v-0.9h1.7V15.3z M71.1,12.2c-0.2-0.4-0.4-0.9-0.6-1.2l1-0.2c0.2,0.4,0.4,0.9,0.6,1.4h2.6v0.9h-6.3v-0.9H71.1
						z M74.5,21.9l-0.8,0.3c-0.3-0.9-0.6-1.8-1-2.6l0.8-0.2C73.9,20.3,74.2,21.1,74.5,21.9z M80.5,12c-1.2,0.5-2.6,0.8-4.1,0.9v2.5
						H81v1h-1.5v7.5h-1v-7.5h-2.1V18c-0.1,2.4-0.6,4.3-1.6,5.8L74.1,23c0.8-1.2,1.3-2.9,1.3-5v-6c1.7,0,3.2-0.4,4.6-0.9L80.5,12z"/>
					<path style="fill:#444444;" d="M94.8,22.5l-0.2,1h-4.1c-2.5,0-4.3-0.4-5.4-1.1c-0.2-0.1-0.3-0.3-0.5-0.4
						c-0.4,0.7-1,1.2-1.6,1.7l-0.7-0.9c0.7-0.5,1.2-1,1.6-1.7c-0.5-0.8-1-1.8-1.3-3l0.8-0.3c0.3,1,0.6,1.8,1,2.4
						c0.5-1,0.8-2.2,0.8-3.5h-2.6V16c0.8-1,1.6-2.2,2.2-3.4h-2.3v-1h3.4v0.8c-0.7,1.3-1.4,2.4-2.1,3.3H86v0.6
						c-0.1,1.8-0.4,3.4-1.1,4.7c0.2,0.2,0.4,0.4,0.7,0.6c1,0.5,2.4,0.8,4.3,0.8C91.6,22.5,93.2,22.5,94.8,22.5z M90.8,16.7v1.1H94
						v0.8h-3.3v1.2h3.7v0.9h-3.7V22h-1v-1.4h-3.2v-0.9h3.2v-1.2H87v-0.8h2.7v-1.1h-2.4v-0.8h2.4v-1.1h-3.1v-0.8h3.1v-1.1h-2.4V12
						h2.4v-1h1v1h3v1.9h0.9v0.8h-0.9v2C93.7,16.7,90.8,16.7,90.8,16.7z M90.8,13.9h2v-1.1h-2V13.9z M90.8,15.9h2v-1.1h-2V15.9z"/>
					<path style="fill:#444444;" d="M101.2,11.7c-0.6,0.9-1.2,1.7-1.8,2.2c0.1,0.2,0.2,0.4,0.3,0.6c0.4,1.1,0.6,2.7,0.7,4.8
						c0,2.2-0.3,3.6-0.8,4c-0.3,0.2-0.8,0.4-1.4,0.4c-0.4,0-0.8,0-1,0l-0.3-0.9c0.4,0,0.7,0.1,1.1,0.1c0.5,0,0.8-0.1,1-0.2
						c0.3-0.4,0.5-1.5,0.5-3.3c0-0.6,0-1.1-0.1-1.6c-0.7,1-1.6,1.9-2.5,2.6l-0.6-0.8c1.3-0.8,2.2-1.9,2.9-3.1
						c-0.1-0.5-0.2-1-0.3-1.4c-0.1-0.1-0.1-0.2-0.2-0.3c-0.5,0.4-1.2,0.9-1.9,1.3L96.3,15c0.7-0.4,1.4-0.8,2-1.3
						c-0.4-0.7-0.9-1.3-1.5-1.8l0.8-0.6c0.6,0.6,1,1.2,1.4,1.8c0.5-0.6,1-1.2,1.4-1.9L101.2,11.7z M104.2,13.3V11h1v2.3h2.9v5.6
						h-2.9v3.2c0.7-0.1,1.4-0.2,2-0.4c-0.2-0.7-0.4-1.3-0.7-2l0.8-0.3c0.5,1.2,0.9,2.5,1.3,4.1l-0.9,0.2c-0.1-0.4-0.2-0.8-0.3-1.2
						c-1.6,0.4-3.7,0.6-6.5,0.9l-0.2-1c1.2-0.1,2.4-0.2,3.4-0.3v-3.3h-2.9v-5.6L104.2,13.3L104.2,13.3z M104.2,14.2h-1.9V18h1.9
						V14.2z M107.1,14.2h-1.9V18h1.9V14.2z"/>
					<path style="fill:#444444;" d="M117.1,22c0.9-1.9,1.6-4.2,2.2-7l1.1,0.3c-0.6,2.5-1.3,4.8-2.2,6.7h4.6v1h-12.6v-1H117.1z
						 M116,13.2c-0.2-0.8-0.5-1.4-0.7-2.1l1.2-0.2c0.2,0.7,0.4,1.4,0.6,2.3h5.2v1h-11.7v-1C110.6,13.2,116,13.2,116,13.2z
						 M115.3,21.3l-1.1,0.3c-0.4-2.1-1-4.2-1.6-6.2l1-0.4C114.3,16.9,114.8,18.9,115.3,21.3z"/>
					<path style="fill:#444444;" d="M124.6,15.6l-0.6-0.8c1.2-1.1,2.2-2.4,2.8-4l0.9,0.2c-0.1,0.4-0.3,0.7-0.5,1.1h3
						c-0.2-0.4-0.4-0.8-0.6-1.2l1-0.2c0.2,0.4,0.4,0.9,0.6,1.4h4.5v0.8h-4.4v1h3.9v0.8h-3.9v0.9h3.9v0.8h-3.9v1h4.7v0.9h-10.3v-3.9
						C125.5,14.9,125.1,15.3,124.6,15.6z M124.4,20.4v-0.9h5.6v-0.7h1v0.7h5.5v0.9h-4.2c1,0.9,2.4,1.6,4.4,2.1l-0.4,0.9
						c-2.3-0.8-4-1.8-4.9-3H131v3.4h-1v-3.4h-0.3c-0.9,1.2-2.5,2.2-4.9,3.1l-0.5-0.9c2.2-0.7,3.6-1.4,4.4-2.2H124.4z M130.4,13.1
						h-3.6l-0.1,0.1V14h3.6L130.4,13.1L130.4,13.1z M130.4,14.8h-3.6v0.9h3.6V14.8z M130.4,16.5h-3.6v1h3.6V16.5z"/>
					<path style="fill:#444444;" d="M140.6,17.3c-0.1,0.5-0.3,0.9-0.4,1.4h3.7v5H143v-0.8h-2.2v0.8h-0.9v-4.2
						c-0.4,0.8-0.8,1.5-1.4,2.1l-0.5-0.8c0.8-0.9,1.3-2,1.7-3.5h-1.1v-0.9h1.3c0.1-0.5,0.2-1,0.2-1.6h-1.9V14h2
						c0-0.5,0.1-1.1,0.1-1.6h-1.6v-0.9h4.8V14h0.8v0.9h-0.8v2.5h-2.9V17.3z M143,22v-2.4h-2.2V22H143z M140.8,16.5h1.7v-1.6H141
						C141,15.4,140.9,16,140.8,16.5z M141.2,14h1.4v-1.6h-1.4C141.2,12.9,141.2,13.5,141.2,14z M144.7,14.6v-1h1.7
						c-0.4-0.8-0.8-1.6-1.2-2.2L146,11c0.4,0.7,0.8,1.4,1.2,2.2l-0.8,0.4h1.6c0.4-0.9,0.8-1.8,1-2.7l1,0.3c-0.3,0.9-0.6,1.7-1,2.4
						h1.6v1h-2.3v2h2v0.9h-2v2h2.6v1h-2.6v3.2h-1v-3.2h-2.6v-1h2.6v-2H145v-0.9h2.2v-2H144.7z"/>
				</g>
			</g>
		</g>
		<g id="ShadowBasicRect4_24_" transform="translate(423,53)">
			<g>
				<rect x="35.5" y="86" style="opacity:0.6;fill:#BBBBBB;enable-background:new    ;" width="189" height="50"/>
				<g>
					<rect x="34" y="84.5" style="fill:#FFFFFF;" width="188" height="49"/>
					<path style="fill:#E5E5E5;" d="M221.5,85v48h-187V85H221.5 M222.5,84h-189v50h189V84L222.5,84z"/>
				</g>
			</g>
			<g transform="translate(20 9)">
				<g style="enable-background:new    ;">
					<path style="fill:#444444;" d="M40.7,98.6l-0.6-0.8c1.2-1.1,2.2-2.4,2.8-4l0.9,0.2c-0.1,0.4-0.3,0.7-0.5,1.1h3
						c-0.2-0.4-0.4-0.8-0.6-1.2l1-0.2c0.2,0.4,0.4,0.9,0.6,1.4h4.5v0.8h-4.4v1h3.9v0.8h-3.9v0.9h3.9v0.8h-3.9v1h4.7v0.9H41.9v-3.9
						C41.5,97.9,41.2,98.3,40.7,98.6z M40.5,103.4v-0.9h5.6v-0.7h1v0.7h5.5v0.9h-4.2c1,0.9,2.4,1.6,4.4,2.1l-0.4,0.9
						c-2.3-0.8-4-1.8-4.9-3h-0.3v3.4h-1v-3.4h-0.3c-0.9,1.2-2.5,2.2-4.9,3.1l-0.5-0.9c2.2-0.7,3.6-1.4,4.4-2.2H40.5z M46.5,96.1
						h-3.6l-0.1,0.1V97h3.6L46.5,96.1L46.5,96.1z M46.5,97.8h-3.6v0.9h3.6V97.8z M46.5,99.5h-3.6v1h3.6V99.5z"/>
					<path style="fill:#444444;" d="M56.7,100.3c-0.1,0.5-0.3,0.9-0.4,1.4H60v5h-0.9v-0.8h-2.2v0.8H56v-4.2
						c-0.4,0.8-0.8,1.5-1.4,2.1l-0.5-0.8c0.8-0.9,1.3-2,1.7-3.5h-1.1v-0.9H56c0.1-0.5,0.2-1,0.2-1.6h-1.9V97h2
						c0-0.5,0.1-1.1,0.1-1.6h-1.6v-0.9h4.8V97h0.8v0.9h-0.8v2.5L56.7,100.3L56.7,100.3z M59.1,105v-2.4h-2.2v2.4H59.1z M56.9,99.5
						h1.7v-1.6h-1.5C57.1,98.4,57,99,56.9,99.5z M57.3,97h1.4v-1.6h-1.4C57.3,95.9,57.3,96.5,57.3,97z M60.8,97.6v-1h1.6
						c-0.4-0.8-0.8-1.6-1.2-2.2l0.9-0.4c0.4,0.7,0.8,1.4,1.2,2.2l-0.8,0.4H64c0.4-0.9,0.8-1.8,1-2.7l1,0.3c-0.3,0.9-0.6,1.7-1,2.4
						h1.6v1h-2.3v2h2v0.9h-2v2h2.6v1h-2.6v3.2h-1v-3.2h-2.6v-1h2.6v-2h-2.2v-0.9h2.2v-2C63.3,97.6,60.8,97.6,60.8,97.6z"/>
					<path style="fill:#444444;" d="M79.3,105.4h1.5v0.9H68.2v-0.9h1.6v-3.9h9.6L79.3,105.4L79.3,105.4z M70.1,94.6v5.7h-1v-5.7
						H70.1z M72.6,105.4v-3h-1.9v3H72.6z M73.1,93.9v6.9h-1v-6.9H73.1z M75.5,105.4v-3h-2v3H75.5z M74.3,99.4l-0.6-0.8
						c1-1.2,1.7-2.8,2-4.8l1,0.2c-0.1,0.6-0.2,1.1-0.4,1.6h4.2v1H76C75.5,97.7,75,98.7,74.3,99.4z M78.4,105.4v-3h-1.9v3H78.4z
						 M79.2,100l-0.8,0.6c-0.4-0.8-1-1.6-1.7-2.6l0.8-0.5C78.2,98.5,78.8,99.3,79.2,100z"/>
					<path style="fill:#444444;" d="M82.6,106.7l-0.2-1c0.4,0,0.7,0.1,1.1,0.1s0.5-0.2,0.5-0.5v-3.4c-0.6,0.2-1.1,0.4-1.7,0.6
						l-0.3-1c0.7-0.2,1.3-0.4,1.9-0.6v-3.1h-1.7v-1H84V94h1v2.7h1.2v1H85v2.7c0.4-0.2,0.8-0.4,1.2-0.6v1c-0.4,0.2-0.8,0.4-1.2,0.6
						v4.1c0,0.8-0.4,1.2-1.2,1.2C83.8,106.7,82.6,106.7,82.6,106.7z M86.9,102.3v-0.9h7.5v0.9h-3.2v3.1h3.7v1h-8.5v-1h3.8v-3.1H86.9
						z M91.3,95.5h3.3v2.6h-0.9v-1.7h-5.9v1.7h-1v-2.6h3.5c-0.2-0.6-0.5-1.1-0.7-1.5l1-0.2C90.8,94.3,91,94.9,91.3,95.5z M90.1,97.6
						c-0.6,1.4-1.5,2.5-2.5,3.2l-0.7-0.6c1-0.7,1.8-1.7,2.4-2.9L90.1,97.6z M94.3,100.2l-0.9,0.4c-0.7-1.1-1.4-2.2-2.3-3.1l0.9-0.4
						C92.8,98.1,93.6,99.1,94.3,100.2z"/>
					<path style="fill:#444444;" d="M99.5,104.8c0.5,0.5,0.9,1,1.2,1.4l-0.7,0.6c-0.3-0.5-0.7-1-1.2-1.4c-0.5-0.6-1-1-1.6-1.4
						l0.6-0.6C98.5,103.8,99,104.3,99.5,104.8z"/>
					<path style="fill:#444444;" d="M111.1,98.7l-0.6-0.8c1.3-1,2.1-2.3,2.6-3.7l1,0.1c-0.2,0.6-0.4,1.1-0.7,1.7h2.7v-2h1v2h4.6v1
						h-4.6v2.3h5.6v1h-12.6v-1h6V97h-3.3C112.3,97.5,111.8,98.1,111.1,98.7z M121.1,106.8h-1V106H113v0.7h-1v-5.2h9.1V106.8z
						 M120.1,105.1v-2.5H113v2.5H120.1z"/>
					<path style="fill:#444444;" d="M126.2,94.5v-0.6h0.8v0.6h1.5v-0.6h0.8v0.6h1.7v0.7h-1.7v0.6h-0.8v-0.6H127v0.6h-0.7
						c0,0.1-0.1,0.2-0.1,0.3h4.4c0,1.6-0.1,2.6-0.3,3c-0.1,0.1-0.1,0.2-0.2,0.2l0.5-0.1c0.1,0.3,0.3,0.6,0.4,0.9h5.4v0.7h-12.1v-0.7
						h5.7c-0.1-0.2-0.2-0.4-0.3-0.6c-0.2,0.1-0.4,0.1-0.6,0.1h-0.6l-0.1-0.4h-2.8v-1.9h3v1.6h0.3c0.3,0,0.5-0.2,0.6-0.4
						c0.1-0.3,0.1-0.9,0.1-1.8h-3.8c-0.3,0.6-0.7,1.1-1.2,1.6l-0.5-0.7c0.7-0.5,1.1-1.2,1.3-2.1l0.7,0.1v-0.5h-1.7v-0.7h1.8V94.5z
						 M135.4,106.9h-1v-0.4h-7.7v0.4h-1v-2.7h9.6L135.4,106.9L135.4,106.9z M134.9,101.7v0.6h-8.8v-0.6H134.9z M134.9,102.9v0.6
						h-8.8v-0.6H134.9z M127.9,98h-1.5v0.8h1.5V98z M134.4,105.8v-0.9h-7.7v0.9H134.4z M131.2,97.7l-0.6-0.7
						c0.8-0.8,1.4-1.8,1.7-3.2l0.9,0.2c-0.1,0.3-0.1,0.5-0.2,0.8h3.3v0.8h-0.8c-0.2,1-0.6,1.8-1.2,2.4c0.6,0.4,1.4,0.7,2.2,1
						l-0.5,0.8c-1-0.3-1.8-0.7-2.4-1.2c-0.7,0.5-1.5,0.9-2.5,1.1l-0.4-0.8c0.9-0.2,1.6-0.5,2.2-0.9c-0.4-0.4-0.8-0.9-1-1.3
						C131.8,97.1,131.5,97.4,131.2,97.7z M132.6,95.9c0.2,0.6,0.6,1.2,1.1,1.6c0.5-0.5,0.8-1.2,1-1.9h-2
						C132.6,95.7,132.6,95.8,132.6,95.9z"/>
					<path style="fill:#444444;" d="M141.5,104.8c0.5,0.5,0.9,1,1.2,1.4l-0.7,0.6c-0.3-0.5-0.7-1-1.2-1.4c-0.5-0.6-1-1-1.6-1.4
						l0.6-0.6C140.4,103.8,141,104.3,141.5,104.8z"/>
					<path style="fill:#444444;" d="M162.9,106.7h-1v-1.1h-6.6v1.1h-1V94.5h8.6V106.7z M161.9,99.5v-4h-6.6v4H161.9z M161.9,104.7
						v-4.2h-6.6v4.2H161.9z"/>
					<path style="fill:#444444;" d="M168.4,101.8c-0.3,1.6-0.8,3-1.4,4.2l-0.9-0.5c0.6-1.2,1-2.5,1.2-3.9L168.4,101.8z M172.9,93.9
						v1.8h5.5v1h-5.5v2.2h4.5v1h-10.1v-1h4.5v-2.2h-5.5v-1h5.5v-1.8H172.9z M170.8,106.5c-0.9,0-1.4-0.5-1.4-1.5v-3.9h1v3.7
						c0,0.5,0.2,0.7,0.7,0.7h3c0.3,0,0.5-0.1,0.7-0.3c0.2-0.2,0.3-0.9,0.4-2.1l1,0.3c-0.1,1.4-0.3,2.3-0.6,2.6
						c-0.3,0.3-0.7,0.4-1.2,0.4h-3.6V106.5z M174,103.5l-0.9,0.4c-0.4-1.1-0.8-2-1.3-2.8l1-0.3C173.2,101.7,173.6,102.6,174,103.5z
						 M178.8,105.1l-0.9,0.4c-0.5-1.5-1.1-2.9-1.8-4l0.9-0.3C177.7,102.4,178.3,103.7,178.8,105.1z"/>
				</g>
			</g>
		</g>
		<g id="ShadowBasicRect4_23_" transform="translate(423,53)">
			<g>
				<rect x="35.5" y="194" style="opacity:0.6;fill:#BBBBBB;enable-background:new    ;" width="189" height="50"/>
				<g>
					<rect x="34" y="192.5" style="fill:#FFFFFF;" width="188" height="49"/>
					<path style="fill:#E5E5E5;" d="M221.5,193v48h-187v-48H221.5 M222.5,192h-189v50h189V192L222.5,192z"/>
				</g>
			</g>
			<g transform="translate(20 9)">
				<g style="enable-background:new    ;">
					<path style="fill:#444444;" d="M85.7,203.3V202h1v1.4h3.7V202h1v1.4h3.2v1h-3.2v1.3h-1v-1.3h-3.7v1.3h-1v-1.3h-3.2v-1
						L85.7,203.3L85.7,203.3z M83.1,207.3v-1h10.4c-0.1,2.3-0.1,3.7-0.2,4.2c-0.1,0.8-0.2,1.3-0.4,1.5c-0.3,0.3-0.7,0.4-1.3,0.4
						c-0.4,0-0.9,0-1.5,0l-0.3-1c0.5,0,1,0,1.5,0c0.4,0,0.6-0.1,0.8-0.3c0.2-0.2,0.3-0.7,0.3-1.4c0-0.4,0-1.2,0.1-2.5H88v7.4h-1
						v-7.4h-3.9V207.3z"/>
					<path style="fill:#444444;" d="M98.8,211.6c-0.5,1.2-1.1,2.3-1.8,3.2l-0.8-0.6c0.7-0.8,1.3-1.8,1.8-3L98.8,211.6z M102.8,202
						v1.4h5.4v1h-5.4v1.8h4.5v4.5H98v-4.5h3.8V202H102.8z M106.2,207H99v2.6h7.2V207z M101.7,214.6l-1,0.2c-0.2-1.1-0.4-2.2-0.7-3
						l0.9-0.2C101.3,212.5,101.5,213.5,101.7,214.6z M105,214.6l-1,0.2c-0.3-1.2-0.6-2.2-1-3.2l1-0.2
						C104.3,212.4,104.7,213.5,105,214.6z M108.8,214.2l-0.8,0.6c-0.5-1-1.2-2-2-3.1l0.8-0.5C107.7,212.3,108.3,213.4,108.8,214.2z"
						/>
					<path style="fill:#444444;" d="M111.1,205.4l-0.9-0.6c0.8-0.9,1.5-1.8,1.8-2.9l1,0.2c-0.1,0.3-0.2,0.6-0.3,0.9h3.7v0.9h-2.3
						c0.3,0.4,0.6,0.8,0.8,1.2l-0.9,0.4c-0.3-0.5-0.6-1.1-0.9-1.6h-0.8C111.9,204.4,111.5,204.9,111.1,205.4z M122.4,208.3h-1v-1.7
						h-9.9v1.7h-1v-2.5h5.5c-0.1-0.3-0.3-0.6-0.4-0.9l1-0.2l-0.1-0.1c0.7-0.8,1.1-1.8,1.5-2.8l1,0.2c-0.1,0.3-0.2,0.6-0.3,0.9h4v0.9
						h-2.5c0.3,0.4,0.5,0.8,0.7,1.1l-0.9,0.3c-0.3-0.5-0.5-1-0.9-1.4h-0.9c-0.3,0.5-0.5,0.9-0.9,1.3l-0.8-0.5
						c0.2,0.3,0.3,0.7,0.4,1.1h5.3v2.6H122.4z M120.5,210.2h-7v1h7.6v3.6h-1v-0.6h-6.6v0.6h-1v-7.3h8V210.2z M119.5,209.4v-1.1h-6
						v1.1H119.5z M120.1,213.3V212h-6.6v1.3H120.1z"/>
					<path style="fill:#444444;" d="M125.9,207.1v-3.3h-1.7v-1h4.5v1H127v3.3h1.5v1H127v3.2c0.5-0.2,1-0.4,1.5-0.6v1
						c-1.3,0.5-2.7,1-4.2,1.3l-0.3-1c0.6-0.1,1.2-0.3,1.8-0.4v-3.5h-1.5v-1H125.9z M136.1,202.5v6.5h-2.9v1.7h3.1v1h-3.1v1.8h3.7v1
						h-8.4v-1h3.7v-1.8H129v-1h3.2V209h-2.9v-6.5H136.1z M132.2,205.3v-1.9h-2v1.9H132.2z M132.2,206.2h-2v1.9h2V206.2z
						 M133.2,205.3h1.9v-1.9h-1.9V205.3z M135.2,206.2h-1.9v1.9h1.9V206.2z"/>
				</g>
			</g>
		</g>
		<g id="ShadowBasicRect4_22_" transform="translate(423,53)">
			<g>
				<rect x="35.5" y="302" style="opacity:0.6;fill:#BBBBBB;enable-background:new    ;" width="189" height="50"/>
				<g>
					<rect x="34" y="300.5" style="fill:#FFFFFF;" width="188" height="49"/>
					<path style="fill:#E5E5E5;" d="M221.5,301v48h-187v-48H221.5 M222.5,300h-189v50h189V300L222.5,300z"/>
				</g>
			</g>
			<g transform="translate(20 9)">
				<g style="enable-background:new    ;">
					<path style="fill:#444444;" d="M70,318.2c-0.2,1.7-0.6,3.3-1.3,4.6L68,322c0.8-1.4,1.1-3.1,1.2-5.1v-5.8c1.7-0.2,3-0.6,3.9-1.2
						l0.7,0.8c-1,0.5-2.2,0.9-3.7,1.1v1.6h3.6v4.7H70V318.2z M70.1,317c0,0.1,0,0.2,0,0.3h2.7v-2.8h-2.7V317z M75.8,317.3
						c0,2.4-0.3,4.2-1,5.5l-0.9-0.4c0.6-1.2,0.9-2.9,1-5V311c2-0.1,3.6-0.4,5-1l0.5,0.9c-1.4,0.5-2.9,0.8-4.6,0.9v2.5h5.1v1h-1.6
						v7.6h-1v-7.6h-2.5V317.3z"/>
					<path style="fill:#444444;" d="M86.4,319.8v3h-1v-7.3c-0.8,1-1.7,1.9-2.7,2.7l-0.7-0.9c1.8-1.4,3.1-3,4.1-4.8h-3.7v-1h4.2
						c0.2-0.5,0.4-1.1,0.6-1.6l1,0.1c-0.2,0.5-0.3,1-0.5,1.5h6.9v1h-7.4c-0.3,0.6-0.6,1.1-0.9,1.6h6.5v7.6c0,0.7-0.4,1-1.2,1.1H90
						l-0.3-0.9c0.5,0,1,0.1,1.5,0.1c0.4,0,0.5-0.2,0.5-0.5v-1.6h-5.3V319.8z M86.4,316.5H92V315h-5.5L86.4,316.5L86.4,316.5z
						 M86.4,317.4v1.5H92v-1.5H86.4z"/>
					<path style="fill:#444444;" d="M99.7,313.6c-0.7,0.7-1.6,1.4-2.6,2.1l-0.7-0.8c1.1-0.6,2-1.3,2.7-2L99.7,313.6z M103.1,317.7
						c-0.2,1.8-0.6,3-1.3,3.6c-0.7,0.8-2.3,1.2-4.9,1.4l-0.4-0.9c2.2-0.1,3.7-0.5,4.4-1.1c0.6-0.6,1-1.6,1.1-3.1L103.1,317.7z
						 M99.5,311.2L99,312c-0.8-0.4-1.5-0.8-2.3-1l0.5-0.8C98,310.5,98.8,310.8,99.5,311.2z M107,320.3h-1v-3.2h-7v3.3h-1v-4.3h9
						V320.3z M102.7,310c-0.1,0.3-0.2,0.6-0.4,0.9h5.6v0.6c-0.2,0.7-0.4,1.4-0.7,2l-1-0.3c0.2-0.4,0.4-0.9,0.6-1.5h-2.4
						c-0.1,0.3-0.1,0.6-0.3,0.9c0.7,1.1,2.2,1.8,4.3,2.2l-0.4,0.9c-2-0.4-3.5-1.2-4.4-2.3c-0.2,0.3-0.3,0.5-0.6,0.7
						c-0.7,0.6-1.8,1.2-3.4,1.5l-0.4-0.9c1.4-0.3,2.4-0.7,3-1.2c0.5-0.5,0.9-1.1,1-1.9h-1.8c-0.4,0.5-0.9,1-1.4,1.4l-0.6-0.8
						c0.9-0.7,1.5-1.5,1.9-2.5L102.7,310z M108.4,322l-0.5,0.8c-1.6-0.8-3.2-1.4-4.9-1.8l0.5-0.8C105.2,320.8,106.9,321.4,108.4,322
						z"/>
					<path style="fill:#444444;" d="M113.2,315.7l-0.7,0.7c-0.6-0.7-1.3-1.4-2.3-2.1l0.7-0.7C111.8,314.4,112.6,315.1,113.2,315.7z
						 M113.3,317.8c-0.6,1.8-1.3,3.4-2.1,5l-0.9-0.4c0.8-1.6,1.6-3.2,2.2-4.9L113.3,317.8z M113.6,312.4l-0.7,0.7
						c-0.6-0.7-1.5-1.4-2.5-2.2l0.7-0.7C112.1,311,112.9,311.7,113.6,312.4z M118.2,312.7c0.2-0.4,0.3-0.9,0.4-1.3h-3.4v4.1
						c-0.1,3-0.6,5.5-1.6,7.3l-0.8-0.7c0.9-1.6,1.3-3.8,1.4-6.6v-5h8.4v0.9h-3.1c-0.1,0.5-0.2,0.9-0.4,1.3h2.7v4.9h-2.3v4
						c0,0.8-0.4,1.1-1.1,1.1h-1.2l-0.2-0.9c0.4,0,0.7,0.1,1,0.1s0.5-0.2,0.5-0.5v-3.7h-2.4v-4.9L118.2,312.7L118.2,312.7z
						 M117.5,318.8c-0.4,1.2-0.9,2.3-1.5,3.2l-0.8-0.5c0.7-0.9,1.1-1.8,1.4-2.9L117.5,318.8z M121,314.8v-1.3h-3.9v1.3H121z
						 M121,315.6h-3.9v1.3h3.9V315.6z M122.8,321.7l-0.9,0.4c-0.4-1.2-1-2.3-1.5-3.2l0.8-0.3C121.9,319.5,122.4,320.6,122.8,321.7z"
						/>
					<path style="fill:#444444;" d="M125.1,313.4l-0.9-0.6c0.8-0.9,1.5-1.8,1.8-2.9l1,0.2c-0.1,0.3-0.2,0.6-0.3,0.9h3.7v0.9h-2.3
						c0.3,0.4,0.6,0.8,0.8,1.2l-0.9,0.4c-0.3-0.5-0.6-1.1-0.9-1.6h-0.8C125.9,312.4,125.5,312.9,125.1,313.4z M136.4,316.3h-1v-1.7
						h-9.9v1.7h-1v-2.5h5.5c-0.1-0.3-0.3-0.6-0.4-0.9l1-0.2l-0.1-0.1c0.7-0.8,1.1-1.8,1.5-2.8l1,0.2c-0.1,0.3-0.2,0.6-0.3,0.9h4v0.9
						h-2.5c0.3,0.4,0.5,0.8,0.7,1.1l-0.9,0.3c-0.3-0.5-0.5-1-0.9-1.4h-0.9c-0.3,0.5-0.5,0.9-0.9,1.3l-0.8-0.5
						c0.2,0.3,0.3,0.7,0.4,1.1h5.3v2.6H136.4z M134.5,318.2h-7v1h7.6v3.6h-1v-0.6h-6.6v0.6h-1v-7.3h8V318.2z M133.5,317.4v-1.1h-6
						v1.1H133.5z M134.1,321.3V320h-6.6v1.3H134.1z"/>
					<path style="fill:#444444;" d="M139.9,315.1v-3.3h-1.7v-1h4.5v1H141v3.3h1.5v1H141v3.2c0.5-0.2,1-0.4,1.5-0.6v1
						c-1.3,0.5-2.7,1-4.2,1.3l-0.3-1c0.6-0.1,1.2-0.3,1.8-0.4v-3.5h-1.5v-1H139.9z M150.1,310.5v6.5h-2.9v1.7h3.1v1h-3.1v1.8h3.7v1
						h-8.4v-1h3.7v-1.8H143v-1h3.2V317h-2.9v-6.5H150.1z M146.2,313.3v-1.9h-2v1.9H146.2z M146.2,314.2h-2v1.9h2V314.2z
						 M147.2,313.3h1.9v-1.9h-1.9V313.3z M149.2,314.2h-1.9v1.9h1.9V314.2z"/>
				</g>
			</g>
		</g>
		<g>
			<g>
				<path style="fill:#BABABA;" d="M658.5,126h-5v1h4v5h1V126L658.5,126z M648.5,126h-5v1h5V126L648.5,126z M638.5,126h-5v1h5V126
					L638.5,126z M628.5,126h-5v1h5V126L628.5,126z M618.5,126h-5v1h5V126L618.5,126z M608.5,126h-5v1h5V126L608.5,126z M598.5,126
					h-5v1h5V126L598.5,126z M588.5,126h-5v1h5V126L588.5,126z M578.5,126h-5v1h5V126L578.5,126z M568.5,126h-5v1h5V126L568.5,126z
					 M558.5,126h-5v1h5V126L558.5,126z M548.5,126h-5v1h5V126L548.5,126z M538.5,126h-5v1h5V126L538.5,126z M528.5,126h-5v1h5V126
					L528.5,126z M518.5,126h-5v1h5V126L518.5,126z M508.5,126h-5v1h5V126L508.5,126z M498.5,126h-5v1h5V126L498.5,126z M488.5,126
					h-5v1h5V126L488.5,126z M478.5,126h-5v1h5V126L478.5,126z M468.5,126h-5v1h5V126L468.5,126z M458.5,126h-5v1h5V126L458.5,126z
					 M448.5,126h-3v1l0,0c0,0.5,0,1,0,1h1v-1h2V126L448.5,126z M446.5,133h-1v5h1V133L446.5,133z M446.5,143h-1v5h1V143L446.5,143z
					 M446.5,153h-1v5h1V153L446.5,153z M446.5,163h-1v5h1V163L446.5,163z M446.5,173h-1v5h1V173L446.5,173z M446.5,183h-1v5h1V183
					L446.5,183z M446.5,193h-1v5h1V193L446.5,193z M446.5,203h-1v5h1V203L446.5,203z M446.5,213h-1v5h1V213L446.5,213z M446.5,223
					h-1v5h1V223L446.5,223z M446.5,233h-1v5h1V233L446.5,233z M446.5,243h-1v5h1V243L446.5,243z M446.5,253h-1v5h1V253L446.5,253z
					 M446.5,263h-1v5h1V263L446.5,263z M446.5,273h-1v5h1V273L446.5,273z M446.5,283h-1v5h1V283L446.5,283z M446.5,293h-1v5h1V293
					L446.5,293z M446.5,303h-1v5h1V303L446.5,303z M446.5,313h-1v5h1V313L446.5,313z M446.5,323h-1v5h1V323L446.5,323z M446.5,333
					h-1v5h1V333L446.5,333z M446.5,343h-1v5h1V343L446.5,343z M446.5,353h-1v5h1V353L446.5,353z M446.5,363h-1v5h1V363L446.5,363z
					 M446.5,373h-1v5h1V373L446.5,373z M446.5,383h-1v5h1V383L446.5,383z M446.5,393h-1v5h1V393L446.5,393z M446.5,403h-1v5h1V403
					L446.5,403z M446.5,413h-1v3h1l0,0l0,0l0,0l0,0c0.5,0,1,0,1,0v-1h-1V413L446.5,413z M457.5,415h-5v1h5V415L457.5,415z
					 M467.5,415h-5v1h5V415L467.5,415z M477.5,415h-5v1h5V415L477.5,415z M487.5,415h-5v1h5V415L487.5,415z M497.5,415h-5v1h5V415
					L497.5,415z M507.5,415h-5v1h5V415L507.5,415z M517.5,415h-5v1h5V415L517.5,415z M527.5,415h-5v1h5V415L527.5,415z M537.5,415
					h-5v1h5V415L537.5,415z M547.5,415h-5v1h5V415L547.5,415z M557.5,415h-5v1h5V415L557.5,415z M567.5,415h-5v1h5V415L567.5,415z
					 M577.5,415h-5v1h5V415L577.5,415z M587.5,415h-5v1h5V415L587.5,415z M597.5,415h-5v1h5V415L597.5,415z M607.5,415h-5v1h5V415
					L607.5,415z M617.5,415h-5v1h5V415L617.5,415z M627.5,415h-5v1h5V415L627.5,415z M637.5,415h-5v1h5V415L637.5,415z M647.5,415
					h-5v1h5V415L647.5,415z M657.5,415h-5v1h5V415L657.5,415z M658.5,407h-1v5h1V407L658.5,407z M658.5,397h-1v5h1V397L658.5,397z
					 M658.5,387h-1v5h1V387L658.5,387z M658.5,377h-1v5h1V377L658.5,377z M658.5,367h-1v5h1V367L658.5,367z M658.5,357h-1v5h1V357
					L658.5,357z M658.5,347h-1v5h1V347L658.5,347z M658.5,337h-1v5h1V337L658.5,337z M658.5,327h-1v5h1V327L658.5,327z M658.5,317
					h-1v5h1V317L658.5,317z M658.5,307h-1v5h1V307L658.5,307z M658.5,297h-1v5h1V297L658.5,297z M658.5,287h-1v5h1V287L658.5,287z
					 M658.5,277h-1v5h1V277L658.5,277z M658.5,267h-1v5h1V267L658.5,267z M658.5,257h-1v5h1V257L658.5,257z M658.5,247h-1v5h1V247
					L658.5,247z M658.5,237h-1v5h1V237L658.5,237z M658.5,227h-1v5h1V227L658.5,227z M658.5,217h-1v5h1V217L658.5,217z M658.5,207
					h-1v5h1V207L658.5,207z M658.5,197h-1v5h1V197L658.5,197z M658.5,187h-1v5h1V187L658.5,187z M658.5,177h-1v5h1V177L658.5,177z
					 M658.5,167h-1v5h1V167L658.5,167z M658.5,157h-1v5h1V157L658.5,157z M658.5,147h-1v5h1V147L658.5,147z M658.5,137h-1v5h1V137
					L658.5,137z"/>
			</g>
		</g>
		<g>
			<g>
				<line style="fill:none;stroke:#989898;stroke-miterlimit:10;" x1="552.5" y1="106" x2="552.5" y2="132"/>
			</g>
			<polygon style="fill:#989898;" points="555.5,132 552.5,136 549.5,132 			"/>
		</g>
		<g>
			<g>
				<line style="fill:none;stroke:#989898;stroke-miterlimit:10;" x1="552.5" y1="189" x2="552.5" y2="240"/>
			</g>
			<polygon style="fill:#989898;" points="555.5,240 552.5,244 549.5,240 			"/>
		</g>
		<g>
			<g>
				<line style="fill:none;stroke:#989898;stroke-miterlimit:10;" x1="552.5" y1="297" x2="552.5" y2="348"/>
			</g>
			<polygon style="fill:#989898;" points="555.5,348 552.5,352 549.5,348 			"/>
		</g>
	</g>
</g>
</svg>
