<?xml version="1.0" encoding="utf-8"?>
<!-- Generator: Adobe Illustrator 23.0.3, SVG Export Plug-In . SVG Version: 6.00 Build 0)  -->
<svg version="1.1" xmlns="http://www.w3.org/2000/svg" xmlns:xlink="http://www.w3.org/1999/xlink" x="0px" y="0px" width="830px"
	 height="258px" viewBox="0 0 830 258" style="enable-background:new 0 0 830 258;" xml:space="preserve">
<g id="图层_2">
</g>
<g id="svgwrapper_svg">
	<rect x="87.5" y="-0.2" style="fill:#CEE3FF;" width="655" height="258.5"/>
	<g id="ShadowBasicRect4_1_" transform="translate(423,53)">
		<g>
			<rect x="-312.5" y="-0.2" style="opacity:0.6;fill:#BBBBBB;enable-background:new    ;" width="189" height="50"/>
			<g>
				<rect x="-314" y="-1.8" style="fill:#FFFFFF;" width="188" height="49"/>
				<path style="fill:#E5E5E5;" d="M-126.5-1.2v48h-187v-48H-126.5 M-125.5-2.2h-189v50h189V-2.2L-125.5-2.2z"/>
			</g>
		</g>
		<g transform="translate(20 9)">
			<g style="enable-background:new    ;">
				<path style="fill:#444444;" d="M-270,12v5.8c0.3-0.3,0.7-0.6,1-1l0.3,1c-0.7,0.7-1.4,1.3-2.2,1.9l-0.4-0.9
					c0.2-0.2,0.3-0.3,0.3-0.6V13h-1.9v-1H-270z M-268.9,10l-0.7,0.7c-0.6-0.7-1.3-1.4-2.2-2.1l0.7-0.7
					C-270.3,8.6-269.5,9.3-268.9,10z M-260.6,19.2c0,0.8-0.4,1.2-1.3,1.2h-1.3l-0.2-0.9c0.5,0,0.9,0,1.3,0c0.4,0,0.6-0.2,0.6-0.7
					V9.2h-5.7v6.8c0,1.9-0.4,3.4-1.2,4.6l-0.7-0.7c0.7-1,1-2.3,1-3.9V8.3h7.6V19.2z M-264.9,10.8V9.7h1v1.1h1.6v0.8h-1.6V13h1.9v0.8
					h-4.6V13h1.8v-1.3h-1.6v-0.8H-264.9z M-262.5,14.8v3.6h-3.7v-3.6H-262.5z M-263.4,15.6h-2v1.9h2V15.6z"/>
				<path style="fill:#444444;" d="M-258.1,20.4l-0.8-0.7c0.9-1.2,1.4-2.8,1.4-4.7V8.3h10.4v10.5c0,1-0.5,1.5-1.5,1.5h-1.6l-0.3-1
					c0.6,0,1.1,0.1,1.6,0.1c0.5,0,0.8-0.3,0.8-0.9V16h-3.8v4.1h-1V16h-3.6C-256.7,17.8-257.2,19.2-258.1,20.4z M-256.5,9.2v2.4h3.6
					V9.2H-256.5z M-256.5,15h3.6v-2.5h-3.6V15z M-248.1,9.2h-3.8v2.4h3.8V9.2z M-248.1,12.6h-3.8V15h3.8V12.6z"/>
				<path style="fill:#444444;" d="M-242.5,7.9c-0.1,0.5-0.2,0.9-0.3,1.4h2.1v1h-2.4c-0.3,1-0.7,1.8-1.1,2.6l-0.8-0.5
					c0.7-1.4,1.2-3,1.5-4.7L-242.5,7.9z M-240.9,12.1V13h-1.1v1.8h1.5v0.9h-1.5V19c0.4-0.2,0.8-0.5,1.2-0.8l0.2,0.9
					c-0.7,0.5-1.4,0.9-2.3,1.2l-0.4-0.8c0.2-0.1,0.3-0.3,0.3-0.4v-3.2h-1.6v-0.9h1.6V13h-0.7v-0.9H-240.9z M-232.1,19.4l-0.3,1h-1.9
					c-0.4,0-0.9,0-1.3,0c-0.6,0-1.2-0.1-1.7-0.3c-0.5-0.2-0.9-0.5-1.2-0.9c-0.2-0.2-0.3-0.3-0.5-0.3c-0.2,0-0.7,0.5-1.3,1.7
					l-0.6-0.8c0.6-0.9,1.1-1.5,1.5-1.7v-4.7h-1.1v-0.9h2.1v5.7c0.1,0.1,0.1,0.1,0.2,0.2c0.3,0.4,0.6,0.6,1.1,0.9
					c0.4,0.2,0.9,0.3,1.4,0.3c0.5,0,1.1,0,1.6,0C-233.4,19.4-232.7,19.4-232.1,19.4z M-238.2,10.2l-0.8,0.5
					c-0.4-0.7-0.9-1.5-1.5-2.3l0.7-0.5C-239,8.8-238.5,9.6-238.2,10.2z M-235.1,15.6v-1.7h-2.3l-0.2-0.8c0.5-0.8,0.9-1.7,1.3-2.9
					h-1.4V9.3h1.7c0.1-0.5,0.3-1,0.4-1.6l0.9,0.2c-0.1,0.5-0.2,0.9-0.4,1.4h2.7v0.9h-2.9c-0.4,1.1-0.8,2-1.2,2.8h1.4v-1.9h0.9V13
					h1.6v0.9h-1.6v1.7h2v0.9h-2v2.3h-0.9v-2.3h-2.6v-0.9H-235.1z"/>
				<path style="fill:#444444;" d="M-224.1,20.3c-0.9,0-1.6-0.1-2.2-0.3c-0.6-0.2-1.1-0.5-1.5-1c-0.2-0.2-0.4-0.3-0.6-0.3
					c-0.3,0-0.9,0.6-1.7,1.9l-0.8-0.7c0.7-1.2,1.4-1.9,2-2.1v-4.3h-2v-0.9h2.9v5.2c0.1,0.1,0.2,0.2,0.3,0.3c0.3,0.4,0.7,0.7,1.1,0.9
					c0.4,0.2,1.1,0.3,1.9,0.3c0.8,0,1.7,0,2.8,0c0.6,0,1.3,0,2,0c0.7,0,1.2,0,1.6-0.1l-0.2,1h-3.2
					C-222.3,20.3-223.2,20.3-224.1,20.3z M-227.4,10.1l-0.7,0.7c-0.6-0.7-1.4-1.4-2.4-2.2l0.7-0.7C-228.9,8.7-228,9.4-227.4,10.1z
					 M-222.4,7.8c-0.1,0.5-0.2,1-0.4,1.4h3.3v3.6h-5.4v1.4h5.9v3.8h-6.8V9.3h2.2c0.2-0.5,0.3-1.1,0.4-1.6L-222.4,7.8z M-220.5,12.1
					v-1.9h-4.5v1.9H-220.5z M-225,17.2h4.9v-2.1h-4.9V17.2z"/>
				<path style="fill:#444444;" d="M-212.3,8.3v4.4h-1.2v2.2h1.4v1h-1.4v2.5c0.4-0.2,0.9-0.3,1.3-0.5v1c-1.3,0.5-2.8,1-4.6,1.5
					l-0.3-1c0.2-0.1,0.5-0.1,0.7-0.2v-5.1h0.9v4.8l1-0.3v-5.9h-1.9V8.3H-212.3z M-213.3,9.2h-2.2v2.5h2.2V9.2z M-209.7,16.2
					c-0.4,1.5-0.9,2.8-1.6,3.9l-0.9-0.5c0.7-1.1,1.2-2.2,1.5-3.5L-209.7,16.2z M-204.5,11.9h-1v-1.8h-5.2v1.8h-1V9.2h3
					c-0.2-0.5-0.4-1-0.6-1.4l1-0.2c0.2,0.5,0.4,1,0.5,1.6h3.2V11.9z M-209.7,20.3l-0.2-1c0.4,0,0.7,0.1,1.1,0.1s0.5-0.2,0.5-0.7V15
					h-3.1v-1h7.1v1h-2.9v4c0,0.9-0.4,1.3-1.2,1.3H-209.7z M-205.5,11.6v0.9h-5v-0.9H-205.5z M-204.1,19.3l-0.9,0.4
					c-0.4-1.3-0.9-2.5-1.5-3.6l0.9-0.3C-205,16.9-204.5,18.1-204.1,19.3z"/>
			</g>
		</g>
	</g>
	<g id="ShadowBasicRect4_10_" transform="translate(423,53)">
		<g>
			<rect x="-101.5" y="-0.2" style="opacity:0.6;fill:#BBBBBB;enable-background:new    ;" width="189" height="50"/>
			<g>
				<rect x="-103" y="-1.8" style="fill:#FFFFFF;" width="188" height="49"/>
				<path style="fill:#E5E5E5;" d="M84.5-1.2v48h-187v-48H84.5 M85.5-2.2h-189v50h189V-2.2L85.5-2.2z"/>
			</g>
		</g>
		<g transform="translate(20 9)">
			<g style="enable-background:new    ;">
				<path style="fill:#444444;" d="M-53.9,20.6l-0.8-0.7c0.6-1.3,0.8-2.9,0.9-4.8V8.3h4.1v10.9c0,0.8-0.4,1.3-1.2,1.3H-52l-0.2-0.9
					c0.4,0,0.7,0.1,1.1,0.1c0.3,0,0.5-0.3,0.5-0.8v-3.2h-2.3C-53,17.7-53.4,19.3-53.9,20.6z M-50.7,9.2h-2.2v2.4h2.2V9.2z
					 M-52.9,14.8h2.2v-2.3h-2.2V14.8z M-47.6,20.6h-1V8.3h5.7c0,1.7-0.1,2.9-0.3,3.4c-0.2,0.6-0.7,0.9-1.6,0.9h-1.1l-0.3-0.9
					c0.2,0,0.5,0,0.9,0c0.3,0,0.6,0,0.7-0.1c0.2-0.1,0.3-0.2,0.4-0.4c0.1-0.3,0.2-1,0.2-2.1h-3.7v4.2h4.8v0.9
					c-0.3,1.4-0.7,2.7-1.4,3.7c0.6,0.6,1.4,1.2,2.2,1.7l-0.5,0.9c-0.9-0.5-1.6-1.1-2.3-1.7c-0.6,0.7-1.3,1.3-2.2,1.7l-0.5-0.8
					c0.8-0.4,1.5-1,2-1.7c-0.9-1.1-1.5-2.3-1.8-3.7h-0.3V20.6z M-44.9,17.3c0.5-0.8,0.9-1.8,1.1-2.9h-2.7
					C-46.1,15.4-45.6,16.4-44.9,17.3z"/>
				<path style="fill:#444444;" d="M-35.7,7.8c-0.2,0.4-0.3,0.7-0.5,1.1h6.1v0.8c-0.9,1-2,1.9-3.3,2.6c1.6,0.7,3.3,1.1,5.3,1.3
					l-0.5,0.9c-2.2-0.3-4.2-0.8-5.9-1.7c-1.7,0.8-3.7,1.4-6,1.7l-0.5-1c2-0.3,3.8-0.7,5.3-1.3c-0.8-0.5-1.5-1-2.2-1.6
					c-0.5,0.5-1.1,0.9-1.7,1.3l-0.6-0.8c1.7-1,2.8-2.1,3.4-3.5L-35.7,7.8z M-34.3,13.9c0,0.6-0.1,1.1-0.1,1.6h4.9
					c0,2.4-0.2,3.8-0.6,4.2c-0.4,0.5-1.1,0.7-2.1,0.7c-0.4,0-1,0-1.6-0.1l-0.3-0.9l1.6,0.1c0.8,0,1.4-0.2,1.6-0.5
					c0.2-0.3,0.3-1.2,0.4-2.6h-4.1c-0.1,0.4-0.3,0.7-0.4,1.1c-0.7,1.3-2.3,2.3-4.9,3.1l-0.7-0.8c2.3-0.7,3.8-1.5,4.5-2.5
					c0.2-0.3,0.3-0.5,0.4-0.8h-4.2v-0.9h4.4c0.1-0.5,0.2-1,0.2-1.6H-34.3z M-31.5,9.8h-5.3l-0.2,0.2c0.8,0.7,1.6,1.3,2.6,1.8
					C-33.3,11.2-32.4,10.6-31.5,9.8z"/>
				<path style="fill:#444444;" d="M-26.5,20.4l-0.2-1c0.5,0,1,0.1,1.5,0.1c0.3,0,0.5-0.2,0.5-0.6v-3.4c-0.6,0.2-1.3,0.4-1.9,0.6
					l-0.3-1c0.7-0.2,1.5-0.4,2.2-0.6v-3.2h-1.9v-1h1.9V7.8h1v2.6h1.7v1h-1.7v2.8c0.6-0.2,1.1-0.5,1.7-0.7v1
					c-0.6,0.3-1.1,0.5-1.7,0.7v4c0,0.8-0.4,1.2-1.2,1.2H-26.5z M-14.3,8.5v1h-4.2c-0.2,1.3-0.5,2.6-1,3.7h4.6v7.4h-1v-0.7h-3.8v0.7
					h-1v-5.4c-0.5,0.8-1.2,1.5-1.9,2.1l-0.5-0.9c1.9-1.7,3.1-4,3.5-6.9h-2.7v-1H-14.3z M-15.9,14.1h-3.8v4.8h3.8V14.1z"/>
				<path style="fill:#444444;" d="M-12,20.4l-0.2-1c0.4,0,0.8,0.1,1.2,0.1c0.4,0,0.6-0.2,0.6-0.6v-3.3c-0.7,0.2-1.5,0.4-2.2,0.6
					l-0.2-1c0.8-0.2,1.6-0.4,2.4-0.6v-3.3h-2.2v-1h2.2V7.7h1v2.6h2.2v1h-2.2v3c0.8-0.3,1.5-0.6,2.2-0.9v1c-0.7,0.3-1.4,0.6-2.2,0.9
					v3.9c0,0.8-0.4,1.3-1.2,1.3H-12z M-4.1,7.7v4.6c1.3,0.9,2.6,1.8,4,2.9l-0.6,0.9C-2,14.9-3.1,14-4.1,13.3v7.2h-1V7.7H-4.1z"/>
			</g>
		</g>
	</g>
	<g id="ShadowBasicRect4_11_" transform="translate(423,53)">
		<g>
			<rect x="109.5" y="-0.2" style="opacity:0.6;fill:#BBBBBB;enable-background:new    ;" width="189" height="50"/>
			<g>
				<rect x="108" y="-1.8" style="fill:#FFFFFF;" width="188" height="49"/>
				<path style="fill:#E5E5E5;" d="M295.5-1.2v48h-187v-48H295.5 M296.5-2.2h-189v50h189V-2.2L296.5-2.2z"/>
			</g>
		</g>
		<g transform="translate(20 9)">
			<g style="enable-background:new    ;">
				<path style="fill:#444444;" d="M157.1,20.6l-0.8-0.7c0.6-1.3,0.8-2.9,0.9-4.8V8.3h4.1v10.9c0,0.8-0.4,1.3-1.2,1.3H159l-0.2-0.9
					c0.4,0,0.7,0.1,1.1,0.1c0.3,0,0.5-0.3,0.5-0.8v-3.2h-2.3C158,17.7,157.6,19.3,157.1,20.6z M160.3,9.2h-2.2v2.4h2.2V9.2z
					 M158.1,14.8h2.2v-2.3h-2.2V14.8z M163.4,20.6h-1V8.3h5.7c0,1.7-0.1,2.9-0.3,3.4c-0.2,0.6-0.7,0.9-1.6,0.9h-1.1l-0.3-0.9
					c0.2,0,0.5,0,0.9,0c0.3,0,0.6,0,0.7-0.1c0.2-0.1,0.3-0.2,0.4-0.4c0.1-0.3,0.2-1,0.2-2.1h-3.7v4.2h4.8v0.9
					c-0.3,1.4-0.7,2.7-1.4,3.7c0.6,0.6,1.4,1.2,2.2,1.7l-0.5,0.9c-0.9-0.5-1.6-1.1-2.3-1.7c-0.6,0.7-1.3,1.3-2.2,1.7l-0.5-0.8
					c0.8-0.4,1.5-1,2-1.7c-0.9-1.1-1.5-2.3-1.8-3.7h-0.3V20.6z M166.1,17.3c0.5-0.8,0.9-1.8,1.1-2.9h-2.7
					C164.9,15.4,165.4,16.4,166.1,17.3z"/>
				<path style="fill:#444444;" d="M175.3,7.8c-0.2,0.4-0.3,0.7-0.5,1.1h6.1v0.8c-0.9,1-2,1.9-3.3,2.6c1.6,0.7,3.3,1.1,5.3,1.3
					l-0.5,0.9c-2.2-0.3-4.2-0.8-5.9-1.7c-1.7,0.8-3.7,1.4-6,1.7l-0.5-1c2-0.3,3.8-0.7,5.3-1.3c-0.8-0.5-1.5-1-2.2-1.6
					c-0.5,0.5-1.1,0.9-1.7,1.3l-0.6-0.8c1.7-1,2.8-2.1,3.4-3.5L175.3,7.8z M176.7,13.9c0,0.6-0.1,1.1-0.1,1.6h4.9
					c0,2.4-0.2,3.8-0.6,4.2c-0.4,0.5-1.1,0.7-2.1,0.7c-0.4,0-1,0-1.6-0.1l-0.3-0.9l1.6,0.1c0.8,0,1.4-0.2,1.6-0.5
					c0.2-0.3,0.3-1.2,0.4-2.6h-4.1c-0.1,0.4-0.3,0.7-0.4,1.1c-0.7,1.3-2.3,2.3-4.9,3.1l-0.7-0.8c2.3-0.7,3.8-1.5,4.5-2.5
					c0.2-0.3,0.3-0.5,0.4-0.8h-4.2v-0.9h4.4c0.1-0.5,0.2-1,0.2-1.6H176.7z M179.5,9.8h-5.3l-0.2,0.2c0.8,0.7,1.6,1.3,2.6,1.8
					C177.7,11.2,178.6,10.6,179.5,9.8z"/>
				<path style="fill:#444444;" d="M195.3,19.2h1.5v0.9h-12.6v-0.9h1.6v-3.9h9.6V19.2z M186.1,8.3v5.7h-1V8.3H186.1z M188.5,19.2v-3
					h-1.9v3H188.5z M189,7.7v6.9h-1V7.7H189z M191.5,19.2v-3h-2v3H191.5z M190.3,13.2l-0.6-0.8c1-1.2,1.7-2.8,2-4.8l1,0.2
					c-0.1,0.6-0.2,1.1-0.4,1.6h4.2v1h-4.5C191.5,11.5,190.9,12.4,190.3,13.2z M194.3,19.2v-3h-1.9v3H194.3z M195.1,13.8l-0.8,0.6
					c-0.4-0.8-1-1.6-1.7-2.6l0.8-0.5C194.2,12.3,194.7,13.1,195.1,13.8z"/>
				<path style="fill:#444444;" d="M198.5,20.4l-0.2-1c0.4,0,0.7,0.1,1.1,0.1c0.4,0,0.5-0.2,0.5-0.5v-3.4c-0.6,0.2-1.1,0.4-1.7,0.6
					l-0.3-1c0.7-0.2,1.3-0.4,1.9-0.6v-3.1h-1.7v-1h1.7V7.7h1v2.7h1.2v1H201v2.7c0.4-0.2,0.8-0.4,1.2-0.6v1c-0.4,0.2-0.8,0.4-1.2,0.6
					v4.1c0,0.8-0.4,1.2-1.2,1.2H198.5z M202.9,16v-0.9h7.5V16h-3.2v3.1h3.7v1h-8.5v-1h3.8V16H202.9z M207.2,9.2h3.3v2.6h-0.9v-1.7
					h-5.9v1.7h-1V9.2h3.5c-0.2-0.6-0.5-1.1-0.7-1.5l1-0.2C206.8,8.1,207,8.6,207.2,9.2z M206.1,11.4c-0.6,1.4-1.5,2.5-2.5,3.2
					l-0.7-0.6c1-0.7,1.8-1.7,2.4-2.9L206.1,11.4z M210.2,14l-0.9,0.4c-0.7-1.1-1.4-2.2-2.3-3.1l0.9-0.4
					C208.8,11.9,209.5,12.9,210.2,14z"/>
			</g>
		</g>
	</g>
	<g id="ShadowBasicRect4_14_" transform="translate(423,53)">
		<g>
			<rect x="-312.5" y="72.2" style="opacity:0.6;fill:#BBBBBB;enable-background:new    ;" width="189" height="50"/>
			<g>
				<rect x="-314" y="70.8" style="fill:#FFFFFF;" width="188" height="49"/>
				<path style="fill:#E5E5E5;" d="M-126.5,71.2v48h-187v-48H-126.5 M-125.5,70.2h-189v50h189V70.2L-125.5,70.2z"/>
			</g>
		</g>
		<g transform="translate(20 9)">
			<g style="enable-background:new    ;">
				<path style="fill:#444444;" d="M-262.8,85.8l-0.7,0.7c-0.5-0.6-1.3-1.3-2.2-2.1l0.7-0.7C-264.1,84.4-263.4,85.1-262.8,85.8z
					 M-262.7,87.8c-0.6,1.8-1.2,3.5-1.8,5l-0.9-0.4c0.7-1.6,1.3-3.3,1.9-5L-262.7,87.8z M-262.5,82.2l-0.7,0.7
					c-0.5-0.6-1.2-1.2-2.2-1.8l0.7-0.7C-263.8,81-263.1,81.6-262.5,82.2z M-260.1,86.7c-0.1,1.8-0.2,3.2-0.5,4
					c-0.3,0.9-0.9,1.7-1.7,2.3l-0.6-0.8c0.7-0.5,1.1-1.2,1.4-1.9c0.3-0.7,0.4-1.9,0.5-3.6H-260.1z M-261.9,85.2
					c0.1,0,0.2-0.1,0.2-0.1c0.5-0.3,1.2-1.2,2-2.6h-2.4v-0.9h3.9c-0.2-0.5-0.4-1-0.6-1.4l1-0.2c0.2,0.5,0.4,1,0.6,1.6h3.7v0.9h-5.1
					c-0.7,1.2-1.2,2-1.7,2.6c1.6-0.1,3.2-0.2,4.8-0.4c-0.3-0.4-0.6-0.8-1-1.2l0.8-0.5c1,1.1,1.7,2.1,2.2,3l-0.8,0.6
					c-0.2-0.3-0.4-0.7-0.6-1.1c-2.1,0.2-4.3,0.4-6.7,0.6L-261.9,85.2z M-257.8,86.7v6.1h-1v-6.1H-257.8z M-255.1,92.9
					c-0.8,0-1.2-0.4-1.2-1.1v-5.1h1v4.9c0,0.2,0.1,0.3,0.3,0.4h0.6c0.3,0,0.4-0.2,0.4-0.5c0.1-0.3,0.1-0.9,0.1-1.6l0.9,0.3
					c0,1.2-0.1,2-0.3,2.3c-0.2,0.3-0.5,0.4-1.1,0.4H-255.1z"/>
				<path style="fill:#444444;" d="M-251.4,92.9l-0.2-1c0.4,0,0.7,0.1,1.1,0.1c0.4,0,0.5-0.2,0.5-0.5V88c-0.6,0.2-1.1,0.4-1.7,0.6
					l-0.3-1c0.7-0.2,1.3-0.4,1.9-0.6v-3.1h-1.7v-1h1.7v-2.7h1v2.7h1.2v1h-1.2v2.7c0.4-0.2,0.8-0.4,1.2-0.6v1
					c-0.4,0.2-0.8,0.4-1.2,0.6v4.1c0,0.8-0.4,1.2-1.2,1.2H-251.4z M-247.1,88.5v-0.9h7.5v0.9h-3.2v3.1h3.7v1h-8.5v-1h3.8v-3.1
					H-247.1z M-242.8,81.7h3.3v2.6h-0.9v-1.7h-5.9v1.7h-1v-2.6h3.5c-0.2-0.6-0.5-1.1-0.7-1.5l1-0.2C-243.2,80.6-243,81.1-242.8,81.7
					z M-243.9,83.9c-0.6,1.4-1.5,2.5-2.5,3.2l-0.7-0.6c1-0.7,1.8-1.7,2.4-2.9L-243.9,83.9z M-239.8,86.5l-0.9,0.4
					c-0.7-1.1-1.4-2.2-2.3-3.1l0.9-0.4C-241.2,84.4-240.4,85.4-239.8,86.5z"/>
				<path style="fill:#444444;" d="M-232.9,80.8v4.4h-1.4v2.3h1.5v1h-1.5V91c0.6-0.2,1.2-0.4,1.8-0.6v1c-1.5,0.5-3.2,1.1-5.1,1.5
					l-0.3-1l0.7-0.2v-5.1h0.9v4.9c0.3-0.1,0.7-0.2,1-0.3v-6.1h-2v-4.4H-232.9z M-233.9,81.7h-2.4v2.5h2.4V81.7z M-229.3,80.4
					c-0.1,0.4-0.2,0.7-0.4,1h3.5v0.7c-0.5,1.2-1.2,2.2-2.1,3.1c0.9,0.8,2,1.3,3.3,1.8l-0.6,0.8c-1.4-0.4-2.5-1.1-3.5-1.9
					c-1,0.8-2.1,1.4-3.4,2L-233,87c1.3-0.5,2.4-1.1,3.3-1.9c-0.5-0.5-0.9-1.1-1.3-1.8c-0.4,0.4-0.8,0.8-1.2,1.2l-0.6-0.8
					c1.2-1,2.1-2.2,2.5-3.6L-229.3,80.4z M-226.3,93h-1v-0.6h-3.5V93h-1v-5.2h5.5V93z M-227.2,91.5v-2.7h-3.5v2.7H-227.2z
					 M-229,84.6c0.7-0.7,1.3-1.5,1.7-2.3h-2.9c-0.1,0.1-0.2,0.2-0.2,0.4C-230,83.4-229.6,84-229,84.6z"/>
				<path style="fill:#444444;" d="M-212.3,93h-1v-0.9h-8.4V93h-1V82.5h4.7v-2.2h1v2.2h4.7V93z M-218,86.6v-3.2h-3.7v3.2H-218z
					 M-218,91.1v-3.5h-3.7v3.5H-218z M-217,86.6h3.7v-3.2h-3.7V86.6z M-213.3,91.1v-3.5h-3.7v3.5H-213.3z"/>
			</g>
		</g>
	</g>
	<g id="ShadowBasicRect4_13_" transform="translate(423,53)">
		<g>
			<rect x="-101.5" y="72.2" style="opacity:0.6;fill:#BBBBBB;enable-background:new    ;" width="189" height="50"/>
			<g>
				<rect x="-103" y="70.8" style="fill:#FFFFFF;" width="188" height="49"/>
				<path style="fill:#E5E5E5;" d="M84.5,71.2v48h-187v-48H84.5 M85.5,70.2h-189v50h189V70.2L85.5,70.2z"/>
			</g>
		</g>
		<g transform="translate(20 9)">
			<g style="enable-background:new    ;">
				<path style="fill:#444444;" d="M-70.3,82c0.1-0.6,0.1-1.2,0.2-1.8h1c-0.1,0.6-0.2,1.2-0.2,1.8h7.8v1h-8
					c-0.2,1.1-0.5,2.2-0.9,3.1c-0.7,1.6-1.7,3.1-3,4.3l-0.6-0.8c1.2-1.1,2.2-2.5,2.8-4.1c0.3-0.8,0.5-1.6,0.7-2.6h-3v-1H-70.3z
					 M-66.8,87.3c0-0.7,0-1.9,0-3.7h1c0,1.9,0,3.1-0.1,3.6c0.9,2.6,2.5,4.3,4.8,5l-0.5,0.9c-2.1-0.7-3.6-2.2-4.6-4.4
					c-0.8,2.2-2.6,3.7-5.5,4.5l-0.5-0.9C-69,91.5-67.2,89.8-66.8,87.3z M-68.1,85.4c-0.2,1.2-0.6,2.3-1.2,3.4l-0.9-0.3
					c0.6-1.1,1-2.2,1.2-3.3L-68.1,85.4z M-62.2,85.2c-0.4,1.3-1,2.5-1.6,3.5l-0.8-0.4c0.6-1,1.2-2.1,1.6-3.4L-62.2,85.2z"/>
				<path style="fill:#444444;" d="M-57.7,85.9c-0.1,3-0.6,5.4-1.5,7.1l-0.8-0.7c0.8-1.6,1.2-3.7,1.3-6.5v-4.6h5.4
					c-0.2-0.4-0.3-0.7-0.5-1l1.1-0.2c0.2,0.3,0.3,0.7,0.5,1.2h4.8v1h-10.2v1.6h2.3v-1.1h1v1.1h3.7v-1.1h1v1.1h2.2v0.9h-2.2V87h-5.7
					v-2.2h-2.3V85.9z M-48.7,87.9v0.7c-0.8,1-1.7,1.8-2.9,2.5c1.3,0.5,2.7,0.9,4.4,1.1l-0.4,0.9c-1.9-0.3-3.6-0.8-4.9-1.5
					c-1.4,0.7-3,1.2-4.9,1.5l-0.4-0.9c1.6-0.2,3.1-0.6,4.3-1.1c-1-0.6-1.9-1.4-2.5-2.3h-0.9v-0.9H-48.7z M-52.6,90.6
					c1-0.5,1.8-1.1,2.6-1.8h-5C-54.3,89.5-53.5,90.1-52.6,90.6z M-54.4,86.1h3.7v-1.3h-3.7V86.1z"/>
				<path style="fill:#444444;" d="M-44.4,84.8c-0.3-0.4-0.4-0.8-0.4-1.2c0-0.7,0.3-1.2,0.8-1.6c0.5-0.4,1-0.5,1.8-0.5
					c0.7,0,1.3,0.2,1.7,0.5c0.5,0.4,0.7,0.9,0.7,1.5c0,0.7-0.3,1.2-0.9,1.8c-0.4,0.3-0.8,0.5-1.2,0.8l2.5,2.6
					c0.4-0.8,0.6-1.8,0.6-2.9h1.1c-0.1,1.5-0.4,2.7-1,3.8l2,2.1h-1.5l-1.2-1.2c-0.8,1-1.9,1.4-3.2,1.4c-1,0-1.8-0.3-2.5-0.7
					c-0.7-0.5-1-1.3-1-2.2c0-0.9,0.4-1.7,1.3-2.3l1.2-0.7C-43.9,85.4-44.2,85.1-44.4,84.8z M-40,89.6l-2.9-3
					c-0.4,0.3-0.9,0.6-1.2,0.9c-0.5,0.4-0.7,0.9-0.7,1.5c0,0.6,0.2,1,0.7,1.4c0.4,0.3,1,0.5,1.6,0.5C-41.5,90.8-40.6,90.4-40,89.6z
					 M-43.3,82.7c-0.3,0.2-0.4,0.5-0.4,0.9c0,0.3,0.1,0.6,0.4,1c0.1,0.2,0.4,0.5,0.7,0.8c0.1-0.1,0.2-0.1,0.3-0.2
					c0.9-0.5,1.3-1,1.3-1.6c0-0.4-0.1-0.6-0.3-0.9c-0.3-0.3-0.6-0.4-1-0.4C-42.7,82.3-43.1,82.5-43.3,82.7z"/>
				<path style="fill:#444444;" d="M-24.7,91.8h1.6v0.9h-12.6v-0.9h1.6v-3.3h9.5V91.8z M-32.3,81.2v-1h1v1h3.7v-1h1v1h3.2v0.9h-3.2
					v1h-1v-1h-3.7v1h-1v-1h-3.2v-0.9H-32.3z M-33.7,84v3.5h-1V84H-33.7z M-31.3,91.8v-2.4h-1.8v2.4H-31.3z M-31,83.6v4.4h-1v-4.4
					H-31z M-28.5,91.8v-2.4h-1.9v2.4H-28.5z M-29.6,87.1l-0.8-0.7c1-0.8,1.7-1.8,2.1-3.1l1,0.2c-0.1,0.3-0.2,0.6-0.3,0.9h3.9v0.9
					h-4.4C-28.6,86.1-29.1,86.7-29.6,87.1z M-24.6,87.3l-0.6,0.7c-0.7-0.6-1.5-1.1-2.3-1.5l0.6-0.6C-26.1,86.3-25.3,86.8-24.6,87.3z
					 M-25.6,91.8v-2.4h-1.9v2.4H-25.6z"/>
				<path style="fill:#444444;" d="M-17.8,91c-1.1,0.5-2.4,0.9-3.9,1.2l-0.1-1c1.5-0.3,2.9-0.7,4-1.2V91z M-18.6,80.6
					c-0.7,1.7-1.3,3.1-2,4.2c0.6-0.1,1.2-0.2,1.9-0.3c0.3-0.5,0.5-0.9,0.8-1.4l0.9,0.3c-1.3,2.3-2.3,3.9-3.1,4.9
					c0.9-0.2,1.8-0.4,2.7-0.7v0.9c-1.3,0.4-2.6,0.8-3.9,0.9l-0.3-0.9c0.2-0.1,0.3-0.2,0.5-0.3c0.5-0.5,1.2-1.5,1.9-2.7
					c-0.8,0.1-1.5,0.3-2.3,0.4l-0.3-0.9c0.2-0.1,0.3-0.2,0.4-0.4c0.7-1.2,1.3-2.6,1.8-4.2L-18.6,80.6z M-11.8,85
					c0.1-0.4,0.1-0.8,0.2-1.2h-4.5v-0.9h4.6l0.1-1.3h-5v-0.9h6v0.5c-0.1,1.5-0.3,2.8-0.4,3.8h1.6V86h-3.6v1c0.3,0.5,0.6,1,0.9,1.4
					c0.6-0.5,1.1-1.1,1.6-1.9l0.7,0.6c-0.5,0.8-1.2,1.5-1.9,1.9c0.7,0.8,1.5,1.6,2.4,2.2l-0.5,0.9c-1.3-0.9-2.4-2.2-3.3-3.8v3.5
					c0,0.8-0.4,1.2-1.1,1.2h-1.3l-0.2-0.9c0.4,0,0.8,0.1,1.2,0.1c0.3,0,0.5-0.2,0.5-0.6v-2.8c-1,1.3-2.1,2.4-3.4,3.2l-0.5-0.9
					c1.5-0.9,2.8-2,4-3.5V86h-3.3V85H-11.8z M-14.9,88l-0.5,0.7c-0.6-0.6-1.2-1-1.8-1.3l0.5-0.8C-16,87.1-15.4,87.5-14.9,88z"/>
				<path style="fill:#444444;" d="M-5.7,80.6l1,0.2l-0.8,2.8h2.4c0.3-1.1,0.5-2.2,0.7-3.4l1,0.1c-0.2,1.2-0.4,2.3-0.7,3.3h6.5v1
					h-6.8c-0.2,0.6-0.3,1.1-0.5,1.6h5.7V87c-0.4,1.2-1.1,2.3-2.3,3.3c1.1,0.7,2.5,1.3,4.1,1.8L4.2,93c-1.8-0.7-3.3-1.4-4.4-2.1
					c-1.1,0.8-2.6,1.5-4.3,2.2L-5,92.2c1.6-0.6,2.9-1.2,3.9-1.9c-1.1-0.8-1.9-1.8-2.3-2.7c-1,2.2-2.3,4-3.9,5.3l-0.5-0.9
					c2-1.8,3.5-4.2,4.5-7.4h-3.5L-5.7,80.6z M-0.3,89.7c1-0.8,1.7-1.7,2.1-2.6h-4.5C-2.2,88-1.4,88.9-0.3,89.7z M3.5,82.5l-0.7,0.7
					c-0.6-0.7-1.4-1.5-2.5-2.4L1,80.2C2,81,2.8,81.8,3.5,82.5z"/>
				<path style="fill:#444444;" d="M13.9,83.9v1.7h3.9v4.7c0,0.9-0.4,1.3-1.3,1.3h-1.3L15,90.7l1.2,0c0.4,0,0.7-0.2,0.7-0.6v-3.6h-3
					V93h-1v-6.5h-3v5.2H9v-5.4c-0.7,0.7-1.5,1.4-2.3,2l-0.6-0.8c1.8-1.3,3.2-2.8,4.2-4.5H6.5v-1h4.3c0.3-0.6,0.6-1.2,0.8-1.9l1,0.1
					c-0.2,0.6-0.4,1.2-0.7,1.8h6.8v1h-7.3c-0.5,0.9-1.1,1.8-1.8,2.6h3.3v-1.7H13.9z"/>
			</g>
		</g>
	</g>
	<g id="ShadowBasicRect4_12_" transform="translate(423,53)">
		<g>
			<rect x="109.5" y="72.2" style="opacity:0.6;fill:#BBBBBB;enable-background:new    ;" width="189" height="50"/>
			<g>
				<rect x="108" y="70.8" style="fill:#FFFFFF;" width="188" height="49"/>
				<path style="fill:#E5E5E5;" d="M295.5,71.2v48h-187v-48H295.5 M296.5,70.2h-189v50h189V70.2L296.5,70.2z"/>
			</g>
		</g>
		<g transform="translate(20 9)">
			<g style="enable-background:new    ;">
				<path style="fill:#444444;" d="M155.9,80.8v0.8c-0.4,1.3-0.9,2.6-1.5,3.9c0.9,1.2,1.4,2.4,1.4,3.4c0,0.6-0.2,1-0.4,1.3
					c-0.4,0.3-1.1,0.5-2.1,0.5l-0.3-1c0.2,0,0.4,0.1,0.5,0.1c0.5,0,0.9-0.1,1-0.2c0.2-0.1,0.3-0.3,0.3-0.6c0-1-0.5-2-1.5-3.2
					c0.7-1.5,1.2-2.8,1.5-3.9h-2.3v11.3h-1V80.8H155.9z M157.6,86.8v4.8c0.8-0.3,1.7-0.6,2.5-1l0.2,0.9c-1,0.4-2.3,0.9-3.8,1.3
					l-0.2-0.9c0.2-0.1,0.3-0.2,0.3-0.3V80.8h6.1v6h-2.6c0.2,0.8,0.4,1.6,0.9,2.3c0.7-0.4,1.3-0.9,2-1.7l0.7,0.7
					c-0.6,0.8-1.4,1.3-2.2,1.8c0.6,0.9,1.5,1.6,2.5,2.3l-0.6,0.9c-2.3-1.5-3.7-3.5-4.2-6.2H157.6z M161.7,81.7h-4.1v1.6h4.1V81.7z
					 M157.6,85.8h4.1v-1.6h-4.1V85.8z"/>
				<path style="fill:#444444;" d="M168.1,85.8l-0.7,0.7c-0.5-0.6-1.3-1.3-2.2-2.1l0.7-0.7C166.8,84.4,167.6,85.1,168.1,85.8z
					 M168.3,87.8c-0.6,1.8-1.2,3.5-1.8,5l-0.9-0.4c0.7-1.6,1.3-3.3,1.9-5L168.3,87.8z M168.4,82.2l-0.7,0.7
					c-0.5-0.6-1.2-1.2-2.2-1.8l0.7-0.7C167.1,81,167.8,81.6,168.4,82.2z M170.8,86.7c-0.1,1.8-0.2,3.2-0.5,4
					c-0.3,0.9-0.9,1.7-1.7,2.3l-0.6-0.8c0.7-0.5,1.1-1.2,1.4-1.9c0.3-0.7,0.4-1.9,0.5-3.6H170.8z M169.1,85.2c0.1,0,0.2-0.1,0.2-0.1
					c0.5-0.3,1.2-1.2,2-2.6h-2.4v-0.9h3.9c-0.2-0.5-0.4-1-0.6-1.4l1-0.2c0.2,0.5,0.4,1,0.6,1.6h3.7v0.9h-5.1c-0.7,1.2-1.2,2-1.7,2.6
					c1.6-0.1,3.2-0.2,4.8-0.4c-0.3-0.4-0.6-0.8-1-1.2l0.8-0.5c1,1.1,1.7,2.1,2.2,3l-0.8,0.6c-0.2-0.3-0.4-0.7-0.6-1.1
					c-2.1,0.2-4.3,0.4-6.7,0.6L169.1,85.2z M173.1,86.7v6.1h-1v-6.1H173.1z M175.8,92.9c-0.8,0-1.2-0.4-1.2-1.1v-5.1h1v4.9
					c0,0.2,0.1,0.3,0.3,0.4h0.6c0.3,0,0.4-0.2,0.4-0.5c0.1-0.3,0.1-0.9,0.1-1.6l0.9,0.3c0,1.2-0.1,2-0.3,2.3
					c-0.2,0.3-0.5,0.4-1.1,0.4H175.8z"/>
				<path style="fill:#444444;" d="M180.6,84.8c-0.3-0.4-0.4-0.8-0.4-1.2c0-0.7,0.3-1.2,0.8-1.6c0.5-0.4,1-0.5,1.8-0.5
					c0.7,0,1.3,0.2,1.7,0.5c0.5,0.4,0.7,0.9,0.7,1.5c0,0.7-0.3,1.2-0.9,1.8c-0.4,0.3-0.8,0.5-1.2,0.8l2.5,2.6
					c0.4-0.8,0.6-1.8,0.6-2.9h1.1c-0.1,1.5-0.4,2.7-1,3.8l2,2.1h-1.5l-1.2-1.2c-0.8,1-1.9,1.4-3.2,1.4c-1,0-1.8-0.3-2.5-0.7
					c-0.7-0.5-1-1.3-1-2.2c0-0.9,0.4-1.7,1.3-2.3l1.2-0.7C181.1,85.4,180.8,85.1,180.6,84.8z M185,89.6l-2.9-3
					c-0.4,0.3-0.9,0.6-1.2,0.9c-0.5,0.4-0.7,0.9-0.7,1.5c0,0.6,0.2,1,0.7,1.4c0.4,0.3,1,0.5,1.6,0.5C183.5,90.8,184.3,90.4,185,89.6
					z M181.7,82.7c-0.3,0.2-0.4,0.5-0.4,0.9c0,0.3,0.1,0.6,0.4,1c0.1,0.2,0.4,0.5,0.7,0.8c0.1-0.1,0.2-0.1,0.3-0.2
					c0.9-0.5,1.3-1,1.3-1.6c0-0.4-0.1-0.6-0.3-0.9c-0.3-0.3-0.6-0.4-1-0.4C182.3,82.3,181.9,82.5,181.7,82.7z"/>
				<path style="fill:#444444;" d="M192.2,80.3v3.2c0.4-0.4,0.8-0.9,1.1-1.5l0.6,0.8c-0.5,0.7-1.1,1.2-1.7,1.7v0.9
					c0,0.9-0.1,1.7-0.2,2.4c0.7,0.8,1.4,1.8,2.1,2.8l-0.6,0.9c-0.6-1.1-1.2-2-1.7-2.7c-0.4,1.8-1,3.2-2,4.2l-0.7-0.7
					c1.4-1.4,2.1-3.8,2.1-7v-5.2H192.2z M190.5,83c0,1.4-0.2,2.8-0.5,4l-0.8-0.2c0.3-1.2,0.4-2.5,0.5-3.9L190.5,83z M198,85.2
					c1.2,1.2,2.6,2.2,4.1,3.1l-0.5,0.9c-0.3-0.2-0.6-0.4-0.9-0.6v4.5h-1v-0.6h-4v0.6h-0.9v-4.5c-0.3,0.2-0.6,0.4-0.9,0.7l-0.5-0.9
					c1.5-0.9,2.9-1.9,4.1-3.1H198z M197.2,83.9c-0.8,0.9-1.7,1.6-2.8,2.3l-0.6-0.7c1.1-0.6,2-1.3,2.7-2.1L197.2,83.9z M201.4,83.9
					h-0.9v-1.5H195v1.5H194v-2.5h3.2c-0.2-0.4-0.4-0.8-0.6-1.1l1-0.2c0.2,0.4,0.4,0.8,0.6,1.3h3.2V83.9z M200.4,88.4
					c-1-0.8-1.9-1.6-2.7-2.3c-0.8,0.8-1.7,1.6-2.7,2.3H200.4z M199.7,91.5v-2.2h-4v2.2H199.7z M201.6,85.5l-0.7,0.7
					c-0.7-0.8-1.6-1.6-2.8-2.4l0.6-0.6C199.9,84,200.9,84.7,201.6,85.5z"/>
				<path style="fill:#444444;" d="M204.5,80.8v10.3h4.7V92h-5.6V80.8H204.5z M207.2,84.7v-4.4h0.9v4.4h1.8v0.9h-1.8v0.4
					c0.6,0.6,1.3,1.4,2,2.2l-0.5,0.8c-0.6-0.9-1-1.6-1.5-2.1v3.8h-0.9v-3.8c-0.5,1-1.1,1.9-1.9,2.7l-0.4-1c1.1-0.9,1.8-1.8,2.3-2.9
					h-2v-0.9H207.2z M206.6,83.8l-0.8,0.2c-0.2-0.9-0.5-1.7-0.8-2.5l0.8-0.3C206.1,81.9,206.4,82.8,206.6,83.8z M210,81.1
					c-0.1,1.1-0.3,2-0.6,2.8l-0.8-0.2c0.3-0.8,0.5-1.7,0.6-2.7L210,81.1z M211.7,86.6c0,2.8-0.5,4.9-1.3,6.3l-0.9-0.4
					c0.8-1.4,1.3-3.4,1.3-5.9v-5.4c1.7-0.1,3.2-0.4,4.4-1l0.5,0.8c-1.2,0.5-2.5,0.8-4,0.9l0,2.5h4.3v1h-1.4v7.6h-1v-7.6h-1.8V86.6z"
					/>
			</g>
		</g>
	</g>
	<g id="ShadowBasicRect4_17_" transform="translate(423,53)">
		<g>
			<rect x="-312.5" y="144.2" style="opacity:0.6;fill:#BBBBBB;enable-background:new    ;" width="189" height="50"/>
			<g>
				<rect x="-314" y="142.8" style="fill:#FFFFFF;" width="188" height="49"/>
				<path style="fill:#E5E5E5;" d="M-126.5,143.2v48h-187v-48H-126.5 M-125.5,142.2h-189v50h189V142.2L-125.5,142.2z"/>
			</g>
		</g>
		<g transform="translate(20 9)">
			<g style="enable-background:new    ;">
				<path style="fill:#444444;" d="M-262.3,160.7c0-0.4,0-0.9,0-1.6h1c0,0.7,0,1.2,0,1.6h3.7v-1.5h1v1.5h3.5v0.9h-3.5v3.4h-1v-3.4
					h-3.8c-0.3,1.7-1.4,2.8-3.1,3.4l-0.5-0.9c1.5-0.4,2.4-1.3,2.6-2.5h-3.5v-0.9H-262.3z M-255.3,156h-8v0.9c0,0.5,0.2,0.7,0.7,0.7
					h7.4c0.3,0,0.5-0.1,0.6-0.3c0.1-0.2,0.2-0.5,0.2-1.1l0.9,0.3c-0.1,0.6-0.2,1.1-0.3,1.4c-0.2,0.4-0.6,0.6-1.2,0.6h-8
					c-0.9,0-1.3-0.4-1.3-1.3v-4.6h9V156z M-256.3,155.1v-1.5h-7v1.5H-256.3z"/>
				<path style="fill:#444444;" d="M-245,152.1v2.1h1.8c0.4-0.6,0.8-1.3,1.1-1.9l0.9,0.3c-0.3,0.6-0.7,1.1-1,1.6h2.5v2.8h-1v-1.9
					h-9.6v1.9h-1v-2.8h2.3c-0.3-0.5-0.6-1-1-1.5l1-0.4c0.4,0.5,0.7,1.1,1,1.8h2v-2.1H-245z M-249.1,159.4v-3.1h7.2v3.1h-3.1v1.1h4.4
					v2.5c0,0.8-0.4,1.3-1.3,1.3h-1.1l-0.3-1l1.1,0c0.4,0,0.6-0.2,0.6-0.6v-1.4h-3.5v3.6h-1v-3.6h-3.4v3h-1v-3.9h4.4v-1.1H-249.1z
					 M-242.8,157.2h-5.3v1.4h5.3V157.2z"/>
				<path style="fill:#444444;" d="M-234.7,157.8l-0.7,0.7c-0.6-0.6-1.3-1.3-2.3-2.1l0.7-0.7C-236.1,156.4-235.3,157.1-234.7,157.8z
					 M-234.4,159.9c-0.6,1.8-1.3,3.4-2.1,5l-1-0.4c0.8-1.6,1.6-3.2,2.2-4.9L-234.4,159.9z M-234.2,154.5l-0.7,0.7
					c-0.6-0.7-1.4-1.4-2.4-2.1l0.7-0.7C-235.7,153.1-234.9,153.8-234.2,154.5z M-229.9,154.6c-0.3-0.8-0.6-1.5-1-2.2l1-0.3
					c0.4,0.8,0.7,1.5,0.9,2.2l-0.6,0.2h4.2v1h-3.6v3.4h3.2v1h-3.2v3.7h3.9v1h-8.9v-1h4v-3.7h-3.2v-1h3.2v-3.4h-3.6v-1H-229.9z"/>
				<path style="fill:#444444;" d="M-220.4,152.7l0.8-0.5c1.2,0.9,2.3,2.5,3.2,4.7c1.3,3.3,3.1,5.7,5.3,7.1l-0.6,0.8
					c-2.3-1.4-4.1-3.9-5.5-7.6c-0.1-0.2-0.2-0.4-0.2-0.6c-0.9,3.6-2.9,6.3-5.8,8.2l-0.6-0.9c3-2,4.9-4.8,5.8-8.5
					C-218.8,154.3-219.6,153.4-220.4,152.7z"/>
			</g>
		</g>
	</g>
	<g id="ShadowBasicRect4_16_" transform="translate(423,53)">
		<g>
			<rect x="-101.5" y="144.2" style="opacity:0.6;fill:#BBBBBB;enable-background:new    ;" width="189" height="50"/>
			<g>
				<rect x="-103" y="142.8" style="fill:#FFFFFF;" width="188" height="49"/>
				<path style="fill:#E5E5E5;" d="M84.5,143.2v48h-187v-48H84.5 M85.5,142.2h-189v50h189V142.2L85.5,142.2z"/>
			</g>
		</g>
		<g transform="translate(20 9)">
			<g style="enable-background:new    ;">
				<path style="fill:#444444;" d="M-74.9,165.1l-0.8-0.7c0.6-1.3,0.8-2.9,0.9-4.8v-6.7h4.1v10.9c0,0.8-0.4,1.3-1.2,1.3H-73
					l-0.2-0.9c0.4,0,0.7,0.1,1.1,0.1c0.3,0,0.5-0.3,0.5-0.8v-3.2h-2.3C-74,162.2-74.3,163.8-74.9,165.1z M-71.7,153.7h-2.2v2.4h2.2
					V153.7z M-73.9,159.3h2.2V157h-2.2V159.3z M-68.6,165.1h-1v-12.3h5.7c0,1.7-0.1,2.9-0.3,3.4c-0.2,0.6-0.7,0.9-1.6,0.9h-1.1
					l-0.3-0.9c0.2,0,0.5,0,0.9,0c0.3,0,0.6,0,0.7-0.1c0.2-0.1,0.3-0.2,0.4-0.4c0.1-0.3,0.2-1,0.2-2.1h-3.7v4.2h4.8v0.9
					c-0.3,1.4-0.7,2.7-1.4,3.7c0.6,0.6,1.4,1.2,2.2,1.7l-0.5,0.9c-0.9-0.5-1.6-1.1-2.3-1.7c-0.6,0.7-1.3,1.3-2.2,1.7l-0.5-0.8
					c0.8-0.4,1.5-1,2-1.7c-0.9-1.1-1.5-2.3-1.8-3.7h-0.3V165.1z M-65.9,161.8c0.5-0.8,0.9-1.8,1.1-2.9h-2.7
					C-67.1,159.9-66.6,160.9-65.9,161.8z"/>
				<path style="fill:#444444;" d="M-56.6,152.3c-0.2,0.4-0.3,0.7-0.5,1.1h6.1v0.8c-0.9,1-2,1.9-3.3,2.6c1.6,0.7,3.3,1.1,5.3,1.3
					l-0.5,0.9c-2.2-0.3-4.2-0.8-5.9-1.7c-1.7,0.8-3.7,1.4-6,1.7l-0.5-1c2-0.3,3.8-0.7,5.3-1.3c-0.8-0.5-1.5-1-2.2-1.6
					c-0.5,0.5-1.1,0.9-1.7,1.3l-0.6-0.8c1.7-1,2.8-2.1,3.4-3.5L-56.6,152.3z M-55.3,158.4c0,0.6-0.1,1.1-0.1,1.6h4.9
					c0,2.4-0.2,3.8-0.6,4.2c-0.4,0.5-1.1,0.7-2.1,0.7c-0.4,0-1,0-1.6-0.1l-0.3-0.9l1.6,0.1c0.8,0,1.4-0.2,1.6-0.5
					c0.2-0.3,0.3-1.2,0.4-2.6h-4.1c-0.1,0.4-0.3,0.7-0.4,1.1c-0.7,1.3-2.3,2.3-4.9,3.1l-0.7-0.8c2.3-0.7,3.8-1.5,4.5-2.5
					c0.2-0.3,0.3-0.5,0.4-0.8h-4.2V160h4.4c0.1-0.5,0.2-1,0.2-1.6H-55.3z M-52.5,154.3h-5.3l-0.2,0.2c0.8,0.7,1.6,1.3,2.6,1.8
					C-54.3,155.7-53.3,155.1-52.5,154.3z"/>
				<path style="fill:#444444;" d="M-43.7,157.5c0.4-0.8,0.8-1.5,1.2-2.3l1,0.3c-0.4,0.7-0.7,1.4-1,2h7.2v1h-2.8
					c-0.6,1.5-1.2,2.6-2,3.5c1.4,0.6,2.9,1.3,4.4,2.2l-0.7,0.9c-1.5-0.9-3-1.7-4.4-2.3c-1.6,1.4-3.6,2.1-6.2,2.2l-0.6-0.9
					c2.4,0,4.3-0.6,5.8-1.7c-1.3-0.6-2.6-1.1-3.9-1.5c0.5-0.8,1-1.6,1.4-2.3h-3.4v-1H-43.7z M-35.7,156.6h-1v-2h-9.5v2h-1v-3h5.3
					c-0.2-0.5-0.4-0.9-0.6-1.3l1.1-0.2c0.2,0.4,0.4,0.9,0.6,1.5h5.2V156.6z M-44.3,160.4c1.1,0.3,2.1,0.7,3.2,1.2
					c0.8-0.8,1.4-1.9,1.8-3.1h-3.9C-43.5,159.2-43.9,159.8-44.3,160.4z"/>
				<path style="fill:#444444;" d="M-27.1,152.2c1.8,1.8,3.8,3.3,6.1,4.4l-0.5,0.9c-2.3-1.1-4.3-2.6-5.9-4.3c-1.5,1.7-3.5,3.2-6,4.4
					l-0.5-0.9c2.5-1.2,4.5-2.7,6.1-4.4H-27.1z M-23.6,156.7v1H-27v2.4h4v1h-4v2.6h5.3v1h-11.6v-1h5.3V161h-4.1v-1h4.1v-2.4h-3.4v-1
					H-23.6z"/>
				<path style="fill:#444444;" d="M-18.7,155c0,1.4-0.2,2.7-0.5,4l-0.8-0.2c0.3-1.2,0.5-2.5,0.5-3.8L-18.7,155z M-16.9,152.2V165
					h-1v-12.7H-16.9z M-15.2,157c0.5-1.2,0.8-2.5,0.8-3.9l0.9,0.1c0,0.6-0.1,1.1-0.2,1.7h2v-2.6h1v2.6h3v1h-3v3.4h2.8v1h-2.8v3.4
					h3.4v1h-8.4v-1h4v-3.4h-3.2v-1h3.2v-3.4h-2.2c-0.3,1-0.6,2-1.1,2.8l-0.7-0.7c0.2-0.3,0.3-0.6,0.4-0.9l-0.7,0.2
					c-0.2-0.9-0.5-1.7-0.8-2.5l0.7-0.2C-15.7,155.3-15.4,156.1-15.2,157z"/>
				<path style="fill:#444444;" d="M-2.7,157.8l-0.7,0.7c-0.6-0.7-1.4-1.4-2.4-2.1l0.7-0.7C-4.1,156.4-3.3,157.1-2.7,157.8z
					 M-2.3,160c-0.7,1.8-1.4,3.4-2.2,4.9l-1-0.4c0.9-1.6,1.7-3.2,2.3-4.9L-2.3,160z M-2.1,154.5l-0.7,0.7c-0.6-0.7-1.5-1.4-2.6-2.1
					l0.7-0.7C-3.6,153.1-2.8,153.8-2.1,154.5z M6.7,157.9l-0.9,0.5c-0.2-0.4-0.4-0.8-0.6-1.1c-2.1,0.3-4.4,0.5-6.9,0.6l-0.2-0.9
					c0.9-0.4,2-2,3.4-4.7l1,0.3c-1,1.8-1.9,3.3-2.9,4.4c1.8-0.1,3.5-0.3,5.1-0.5c-0.4-0.8-0.9-1.5-1.4-2.1l0.9-0.4
					C5.1,155.1,5.9,156.4,6.7,157.9z M5.6,165h-1v-0.8h-4.9v0.8h-1v-5.9h6.8V165z M4.7,163.3V160h-4.9v3.2H4.7z"/>
				<path style="fill:#444444;" d="M9.9,157.4v-3.3H8.1v-1h4.5v1h-1.7v3.3h1.5v1h-1.5v3.2c0.5-0.2,1-0.4,1.5-0.6v1
					c-1.3,0.5-2.7,1-4.2,1.3l-0.3-1c0.6-0.1,1.2-0.3,1.8-0.4v-3.5H8.3v-1H9.9z M20.1,152.8v6.5h-2.9v1.7h3.1v1h-3.1v1.8h3.7v1h-8.4
					v-1h3.7v-1.8H13v-1h3.2v-1.7h-2.9v-6.5H20.1z M16.2,155.6v-1.9h-2v1.9H16.2z M16.2,156.4h-2v1.9h2V156.4z M17.2,155.6h1.9v-1.9
					h-1.9V155.6z M19.1,156.4h-1.9v1.9h1.9V156.4z"/>
			</g>
		</g>
	</g>
	<g id="ShadowBasicRect4_15_" transform="translate(423,53)">
		<g>
			<rect x="109.5" y="144.2" style="opacity:0.6;fill:#BBBBBB;enable-background:new    ;" width="189" height="50"/>
			<g>
				<rect x="108" y="142.8" style="fill:#FFFFFF;" width="188" height="49"/>
				<path style="fill:#E5E5E5;" d="M295.5,143.2v48h-187v-48H295.5 M296.5,142.2h-189v50h189V142.2L296.5,142.2z"/>
			</g>
		</g>
		<g transform="translate(20 9)">
			<g style="enable-background:new    ;">
				<path style="fill:#444444;" d="M101.1,165.1l-0.8-0.7c0.6-1.3,0.8-2.9,0.9-4.8v-6.7h4.1v10.9c0,0.8-0.4,1.3-1.2,1.3H103
					l-0.2-0.9c0.4,0,0.7,0.1,1.1,0.1c0.3,0,0.5-0.3,0.5-0.8v-3.2h-2.3C102,162.2,101.7,163.8,101.1,165.1z M104.4,153.7h-2.2v2.4
					h2.2V153.7z M102.1,159.3h2.2V157h-2.2V159.3z M107.4,165.1h-1v-12.3h5.7c0,1.7-0.1,2.9-0.3,3.4c-0.2,0.6-0.7,0.9-1.6,0.9h-1.1
					l-0.3-0.9c0.2,0,0.5,0,0.9,0c0.3,0,0.6,0,0.7-0.1c0.2-0.1,0.3-0.2,0.4-0.4c0.1-0.3,0.2-1,0.2-2.1h-3.7v4.2h4.8v0.9
					c-0.3,1.4-0.7,2.7-1.4,3.7c0.6,0.6,1.4,1.2,2.2,1.7l-0.5,0.9c-0.9-0.5-1.6-1.1-2.3-1.7c-0.6,0.7-1.3,1.3-2.2,1.7l-0.5-0.8
					c0.8-0.4,1.5-1,2-1.7c-0.9-1.1-1.5-2.3-1.8-3.7h-0.3V165.1z M110.1,161.8c0.5-0.8,0.9-1.8,1.1-2.9h-2.7
					C108.9,159.9,109.4,160.9,110.1,161.8z"/>
				<path style="fill:#444444;" d="M119.4,152.3c-0.2,0.4-0.3,0.7-0.5,1.1h6.1v0.8c-0.9,1-2,1.9-3.3,2.6c1.6,0.7,3.3,1.1,5.3,1.3
					l-0.5,0.9c-2.2-0.3-4.2-0.8-5.9-1.7c-1.7,0.8-3.7,1.4-6,1.7l-0.5-1c2-0.3,3.8-0.7,5.3-1.3c-0.8-0.5-1.5-1-2.2-1.6
					c-0.5,0.5-1.1,0.9-1.7,1.3l-0.6-0.8c1.7-1,2.8-2.1,3.4-3.5L119.4,152.3z M120.7,158.4c0,0.6-0.1,1.1-0.1,1.6h4.9
					c0,2.4-0.2,3.8-0.6,4.2c-0.4,0.5-1.1,0.7-2.1,0.7c-0.4,0-1,0-1.6-0.1l-0.3-0.9l1.6,0.1c0.8,0,1.4-0.2,1.6-0.5
					c0.2-0.3,0.3-1.2,0.4-2.6h-4.1c-0.1,0.4-0.3,0.7-0.4,1.1c-0.7,1.3-2.3,2.3-4.9,3.1l-0.7-0.8c2.3-0.7,3.8-1.5,4.5-2.5
					c0.2-0.3,0.3-0.5,0.4-0.8h-4.2V160h4.4c0.1-0.5,0.2-1,0.2-1.6H120.7z M123.5,154.3h-5.3l-0.2,0.2c0.8,0.7,1.6,1.3,2.6,1.8
					C121.7,155.7,122.7,155.1,123.5,154.3z"/>
				<path style="fill:#444444;" d="M137.5,165l-0.3-1l1.3,0c0.4,0,0.6-0.2,0.6-0.6v-9.7H130V165h-1v-12.2h11.2v10.9
					c0,0.9-0.4,1.3-1.2,1.3H137.5z M132.8,159.8c-0.5,1.4-1.1,2.5-1.8,3.5l-0.6-0.8c0.7-1,1.3-2.3,1.8-3.7c-0.7-0.9-1.3-1.7-2-2.5
					l0.6-0.6c0.5,0.5,1.1,1.2,1.7,2c0.3-1,0.5-2,0.7-3.2l0.9,0.2c-0.2,1.4-0.5,2.8-0.9,4c0.5,0.7,1.1,1.5,1.6,2.4l-0.7,0.7
					C133.7,161.2,133.2,160.5,132.8,159.8z M136.8,160.2c-0.6,1.4-1.2,2.5-2,3.5l-0.6-0.8c0.8-1.1,1.4-2.3,2-3.7
					c-0.6-1-1.3-1.8-1.9-2.6l0.6-0.6c0.5,0.6,1.1,1.3,1.6,2.1c0.3-1,0.5-2.2,0.7-3.4l1,0.2c-0.3,1.6-0.6,3-1,4.2
					c0.5,0.8,1.1,1.7,1.7,2.7l-0.7,0.7C137.8,161.7,137.3,160.9,136.8,160.2z"/>
				<path style="fill:#444444;" d="M145.2,165h-1v-7c-0.4,1.3-1,2.5-1.7,3.6l-0.4-1.1c1-1.3,1.7-2.9,2.1-4.6h-1.8v-1h1.9v-2.7h1v2.7
					h1.5v1h-1.5v0.8c0.6,0.7,1.2,1.4,1.8,2.2l0,0c1.2-0.5,2.3-1.1,3.2-1.7c-0.6-0.6-1.1-1.2-1.5-1.8c-0.4,0.5-0.8,0.9-1.2,1.3
					l-0.6-0.8c1-1,1.8-2.2,2.5-3.8l1,0.2c-0.1,0.4-0.3,0.7-0.5,1.1h3.9v0.8c-0.5,1.1-1.2,2.1-2.2,3c0.9,0.7,2.1,1.2,3.4,1.7
					l-0.4,0.9c-1.5-0.6-2.7-1.3-3.6-2.1c-1.1,0.8-2.4,1.5-3.9,2.1l-0.4-0.5l-0.2,0.3c-0.5-0.8-0.9-1.5-1.2-1.9V165z M153.8,165h-1
					v-0.6h-4v0.6h-1v-5.2h5.9V165z M152.8,163.5v-2.7h-4v2.7H152.8z M152.7,154.4h-3.4c-0.1,0.1-0.1,0.2-0.2,0.3
					c0.4,0.7,1,1.4,1.7,2C151.6,156,152.2,155.2,152.7,154.4z"/>
				<path style="fill:#444444;" d="M161.2,164.2h-1v-0.8h-2.5v1.2h-1v-10h1.3c0.3-0.8,0.5-1.6,0.6-2.4l1,0.1
					c-0.2,0.8-0.4,1.6-0.7,2.3h2.2V164.2z M160.2,158.5v-2.9h-2.5v2.9H160.2z M160.2,162.4v-3.1h-2.5v3.1H160.2z M168.2,163.3
					c-0.1,1.1-0.8,1.6-2,1.6c-0.3,0-0.8,0-1.4-0.1l-0.2-0.9c0.6,0,1.1,0,1.5,0c0.7,0,1-0.4,1.1-1.1c0.1-0.8,0.1-3.2,0.2-7.2h-3.8
					c-0.4,0.9-0.9,1.7-1.4,2.4l-0.6-0.8c1-1.4,1.6-3.1,2-5l1,0.1c-0.2,0.8-0.4,1.6-0.6,2.3h4.5C168.4,159.3,168.3,162.2,168.2,163.3
					z M165.9,160.9l-0.8,0.6c-0.6-0.9-1.3-2-2.3-3.1l0.8-0.5C164.6,159,165.4,160.1,165.9,160.9z"/>
				<path style="fill:#444444;" d="M176.9,152.2c1.8,1.8,3.8,3.3,6.1,4.4l-0.5,0.9c-2.3-1.1-4.3-2.6-5.9-4.3c-1.5,1.7-3.5,3.2-6,4.4
					l-0.5-0.9c2.5-1.2,4.5-2.7,6.1-4.4H176.9z M180.4,156.7v1H177v2.4h4v1h-4v2.6h5.3v1h-11.6v-1h5.3V161h-4.1v-1h4.1v-2.4h-3.4v-1
					H180.4z"/>
				<path style="fill:#444444;" d="M184.7,159l-0.6-0.8c1.3-1.4,2.2-3.2,2.7-5.6l1,0.2c-0.2,0.7-0.3,1.4-0.5,2h3v-2.5h1v2.5h4.6v1
					h-4.6v3.2h4.3v1h-4.3v3.6h5.5v1h-12.3v-1h5.8V160h-4.1v-1h4.1v-3.2h-3.4C186.3,157.1,185.6,158.1,184.7,159z"/>
				<path style="fill:#444444;" d="M204.9,152.2c1.5,1.7,3.5,3.1,6,4.2l-0.6,0.9c-2.5-1.1-4.4-2.5-5.8-4.1c-1.4,1.6-3.4,3-5.8,4.1
					l-0.5-0.9c2.6-1.2,4.6-2.6,6-4.2H204.9z M203.8,163.5h-1v-0.7h-2.3v1h-1v-5.6h4.2V163.5z M202.8,161.8v-2.7h-2.3v2.7H202.8z
					 M207.4,155.7v0.9h-5.8v-0.9H207.4z M207,163.6l-0.3-0.9l1.1,0c0.4,0,0.6-0.2,0.6-0.6v-3h-2.4v6.1h-1v-7h4.4v4.1
					c0,0.8-0.4,1.3-1.3,1.3H207z"/>
				<path style="fill:#444444;" d="M223.9,163.8c0,0.7-0.4,1.1-1.3,1.1h-1.8l-0.3-1c0.6,0,1.2,0,1.8,0c0.4,0,0.6-0.2,0.6-0.6v-9.8
					h-8.5v4.6c0,2.7-0.5,5-1.4,6.7l-0.8-0.7c0.8-1.6,1.1-3.5,1.2-5.9v-5.7h10.5V163.8z M219.1,154.1v1.2h2.5v0.8h-2.5v1.4h3v0.9
					h-6.9v-0.9h3v-1.4h-2.5v-0.8h2.5v-1.2H219.1z M221.4,159.5v3.5h-5.6v-3.5H221.4z M220.4,160.3h-3.7v1.8h3.7V160.3z"/>
				<path style="fill:#444444;" d="M228.7,162.4c-0.5,1-1.1,1.9-1.8,2.6l-0.8-0.6c0.7-0.7,1.3-1.5,1.8-2.5L228.7,162.4z
					 M228.2,152.2v1.6h2.7v-1.5h1v1.5h0.8v0.9h-0.8v5.9h0.9v1h-6.6v-1h1v-5.9h-0.9v-0.9h0.9v-1.6H228.2z M228.2,154.8v1.4h2.7v-1.4
					H228.2z M230.9,158.4V157h-2.7v1.4H230.9z M230.9,160.7v-1.4h-2.7v1.4H230.9z M232.2,164.2c0.9-1.3,1.4-2.9,1.4-4.9v-6.6h4.6v11
					c0,0.8-0.4,1.2-1.2,1.2h-1.5l-0.3-1c0.5,0,1,0.1,1.4,0.1c0.4,0,0.5-0.2,0.5-0.6v-2.9h-2.7c-0.2,1.8-0.8,3.4-1.7,4.6l-0.8-0.7
					C232.1,164.3,232.1,164.3,232.2,164.2l-0.8,0.6c-0.4-0.7-0.9-1.5-1.5-2.3l0.8-0.5C231.3,162.8,231.8,163.6,232.2,164.2z
					 M234.6,159.2c0,0.1,0,0.2,0,0.4h2.7v-2.5h-2.6V159.2z M237.2,153.7h-2.6v2.5h2.6V153.7z"/>
				<path style="fill:#444444;" d="M241.1,155.6l-0.9-0.6c0.8-0.9,1.5-1.8,1.8-2.9l1,0.2c-0.1,0.3-0.2,0.6-0.3,0.9h3.7v0.9H244
					c0.3,0.4,0.6,0.8,0.8,1.2l-0.9,0.4c-0.3-0.5-0.6-1.1-0.9-1.6h-0.8C241.8,154.6,241.5,155.1,241.1,155.6z M252.4,158.6h-1v-1.7
					h-9.9v1.7h-1V156h5.5c-0.1-0.3-0.3-0.6-0.4-0.9l1-0.2l-0.1-0.1c0.7-0.8,1.1-1.8,1.5-2.8l1,0.2c-0.1,0.3-0.2,0.6-0.3,0.9h4v0.9
					h-2.5c0.3,0.4,0.5,0.8,0.7,1.1l-0.9,0.3c-0.3-0.5-0.5-1-0.9-1.4h-0.9c-0.3,0.5-0.5,0.9-0.9,1.3l-0.8-0.5
					c0.2,0.3,0.3,0.7,0.4,1.1h5.3V158.6z M250.4,160.5h-7v1h7.6v3.6h-1v-0.6h-6.6v0.6h-1v-7.3h8V160.5z M249.4,159.7v-1.1h-6v1.1
					H249.4z M250.1,163.6v-1.3h-6.6v1.3H250.1z"/>
				<path style="fill:#444444;" d="M255.8,157.4v-3.3h-1.7v-1h4.5v1h-1.7v3.3h1.5v1h-1.5v3.2c0.5-0.2,1-0.4,1.5-0.6v1
					c-1.3,0.5-2.7,1-4.2,1.3l-0.3-1c0.6-0.1,1.2-0.3,1.8-0.4v-3.5h-1.5v-1H255.8z M266.1,152.8v6.5h-2.9v1.7h3.1v1h-3.1v1.8h3.7v1
					h-8.4v-1h3.7v-1.8H259v-1h3.2v-1.7h-2.9v-6.5H266.1z M262.2,155.6v-1.9h-2v1.9H262.2z M262.2,156.4h-2v1.9h2V156.4z
					 M263.2,155.6h1.9v-1.9h-1.9V155.6z M265.1,156.4h-1.9v1.9h1.9V156.4z"/>
			</g>
		</g>
	</g>
	<g transform="translate(10 10)">
		<g style="enable-background:new    ;">
			<path style="fill:#00A4FF;" d="M101.8,12.3c-0.5,1.4-1.4,2.6-2.6,3.6L98.9,15c1-0.9,1.7-1.9,2.1-3.1L101.8,12.3z M101.9,15.7
				c-0.2,0.5-0.4,0.9-0.6,1.4v6.4h-0.8v-5.2c-0.3,0.4-0.7,0.8-1.1,1.2L99,18.6c1-1,1.7-2,2.1-3.3L101.9,15.7z M104.7,22
				c0.1-0.1,0.2-0.2,0.2-0.4v-2.3h-1.3v0.6c0,1.6-0.4,2.8-1.2,3.5l-0.7-0.6c0.7-0.7,1-1.7,1-3v-1.4h3v2.8c0.4-0.3,0.7-0.7,1.1-1
				l0.2,0.8c-0.6,0.7-1.3,1.2-2,1.7L104.7,22z M106.2,16.7v0.8h-3.9v-0.8H106.2z M104.7,11.9v2.9h0.9v-2.2h0.7v3h-4v-3h0.8v2.2h0.9
				v-2.9H104.7z M107.4,17c-0.2,0.6-0.5,1.1-0.7,1.6l-0.5-0.6c0.7-1.5,1.2-3.5,1.5-6.1l0.8,0.1c-0.1,0.7-0.2,1.3-0.3,1.9h2.4v0.8
				H110c-0.1,2.1-0.4,4-1,5.5c0.5,1,1,1.8,1.7,2.4l-0.5,0.8c-0.6-0.6-1.1-1.4-1.5-2.3c-0.5,0.9-1.1,1.7-1.8,2.3l-0.5-0.8
				c0.8-0.7,1.4-1.5,1.9-2.6C107.9,19.2,107.6,18.1,107.4,17z M107.8,15.7c0.2,1.3,0.5,2.5,0.8,3.5c0.4-1.3,0.6-2.7,0.6-4.3H108
				C107.9,15.1,107.8,15.4,107.8,15.7z"/>
			<path style="fill:#00A4FF;" d="M112.5,23.5l-0.7-0.6c0.5-1.1,0.8-2.6,0.8-4.4v-6.1h3.7v9.9c0,0.8-0.4,1.1-1.1,1.1h-1l-0.2-0.8
				c0.4,0,0.7,0.1,1,0.1c0.3,0,0.5-0.2,0.5-0.7v-2.9h-2C113.3,20.9,113,22.4,112.5,23.5z M115.5,13.3h-2v2.1h2V13.3z M113.4,18.4h2
				v-2.1h-2V18.4z M118.2,23.5h-0.9V12.5h5.1c0,1.6-0.1,2.6-0.2,3.1c-0.2,0.5-0.6,0.8-1.4,0.8h-1l-0.2-0.8c0.2,0,0.5,0,0.8,0
				c0.3,0,0.5,0,0.7-0.1c0.2,0,0.3-0.2,0.3-0.4c0.1-0.3,0.1-0.9,0.2-1.9h-3.4v3.8h4.3v0.8c-0.2,1.3-0.7,2.4-1.2,3.3
				c0.6,0.6,1.2,1,2,1.5l-0.5,0.8c-0.8-0.5-1.5-1-2.1-1.6c-0.6,0.6-1.2,1.2-2,1.6l-0.5-0.7c0.7-0.4,1.3-0.9,1.8-1.5
				c-0.8-1-1.4-2.1-1.6-3.3h-0.3V23.5z M120.7,20.6c0.5-0.8,0.8-1.6,1-2.6h-2.4C119.6,18.9,120,19.8,120.7,20.6z"/>
			<path style="fill:#00A4FF;" d="M129,12c-0.1,0.3-0.3,0.7-0.5,1h5.5v0.7c-0.8,0.9-1.8,1.7-3,2.4c1.4,0.6,3,1,4.8,1.2l-0.4,0.8
				c-2-0.2-3.8-0.7-5.3-1.5c-1.5,0.7-3.3,1.2-5.4,1.5l-0.4-0.9c1.8-0.3,3.4-0.7,4.8-1.2c-0.7-0.4-1.4-0.9-2-1.4
				c-0.5,0.4-1,0.8-1.6,1.2l-0.6-0.7c1.5-0.9,2.6-1.9,3.1-3.2L129,12z M130.2,17.5c0,0.5-0.1,1-0.1,1.4h4.4c0,2.1-0.2,3.4-0.6,3.8
				c-0.4,0.4-1,0.6-1.9,0.6c-0.4,0-0.9,0-1.5-0.1l-0.2-0.8l1.5,0.1c0.8,0,1.2-0.2,1.4-0.5c0.2-0.3,0.3-1.1,0.3-2.4h-3.7
				c-0.1,0.3-0.2,0.6-0.4,0.9c-0.6,1.1-2.1,2.1-4.4,2.8l-0.6-0.7c2.1-0.6,3.4-1.4,4.1-2.3c0.2-0.2,0.3-0.5,0.4-0.7h-3.8V19h4
				c0.1-0.5,0.2-0.9,0.2-1.4H130.2z M132.8,13.8h-4.8l-0.2,0.2c0.7,0.6,1.5,1.1,2.3,1.6C131.1,15.1,132,14.5,132.8,13.8z"/>
			<path style="fill:#00A4FF;" d="M139.9,17l-0.7,0.7c-0.5-0.6-1.2-1.3-2.1-1.9l0.6-0.6C138.6,15.7,139.3,16.3,139.9,17z
				 M140.2,18.9c-0.6,1.6-1.3,3.1-2,4.5l-0.9-0.4c0.8-1.4,1.5-2.9,2.1-4.4L140.2,18.9z M140.4,14l-0.7,0.7c-0.6-0.6-1.3-1.2-2.3-1.9
				l0.6-0.6C139,12.8,139.8,13.4,140.4,14z M148.3,17l-0.8,0.4c-0.2-0.4-0.4-0.7-0.5-1c-1.9,0.3-4,0.4-6.3,0.6l-0.2-0.8
				c0.8-0.4,1.8-1.8,3-4.3l0.9,0.3c-0.9,1.6-1.7,2.9-2.6,3.9c1.6-0.1,3.2-0.2,4.6-0.5c-0.4-0.7-0.8-1.3-1.2-1.9l0.8-0.4
				C146.9,14.5,147.6,15.7,148.3,17z M147.4,23.5h-0.9v-0.7h-4.4v0.7h-0.9v-5.4h6.2V23.5z M146.5,21.9V19h-4.4v2.9H146.5z"/>
			<path style="fill:#00A4FF;" d="M151.2,16.6v-3h-1.6v-0.9h4v0.9h-1.5v3h1.4v0.9h-1.4v2.9c0.5-0.2,0.9-0.3,1.4-0.5v0.9
				c-1.2,0.5-2.4,0.9-3.8,1.2l-0.2-0.9c0.6-0.1,1.1-0.2,1.7-0.4v-3.2h-1.4v-0.9H151.2z M160.5,12.4v5.8h-2.6v1.5h2.8v0.9h-2.8v1.6
				h3.3v0.9h-7.6v-0.9h3.4v-1.6h-2.9v-0.9h2.9v-1.5h-2.6v-5.8H160.5z M156.9,15v-1.7h-1.8V15H156.9z M156.9,15.8h-1.8v1.7h1.8V15.8z
				 M157.8,15h1.8v-1.7h-1.8V15z M159.6,15.8h-1.8v1.7h1.8V15.8z"/>
			<path style="fill:#00A4FF;" d="M173.1,12.5v0.9h-4.7v4.8h5.2V19h-5.2v4.5h-0.9V19h-5.1v-0.9h5.1v-4.8h-4.6v-0.9H173.1z
				 M165.8,17.1l-0.8,0.4c-0.4-1.1-0.9-2-1.4-2.9l0.8-0.4C164.9,15.1,165.4,16,165.8,17.1z M172.4,14.5c-0.4,1-0.9,2-1.5,2.9
				l-0.8-0.4c0.6-1,1.1-1.9,1.5-2.9L172.4,14.5z"/>
			<path style="fill:#00A4FF;" d="M175.3,16.1c1.1-0.4,2.5-1.8,4.1-4.2l0.9,0.3c-1.1,1.6-2.3,2.9-3.4,3.8c2.4-0.1,4.7-0.3,6.9-0.5
				c-0.5-0.7-1-1.3-1.5-1.9l0.8-0.4c1.1,1.3,2.1,2.7,3,4.2l-0.9,0.4c-0.3-0.5-0.6-1-0.9-1.5c-2.7,0.2-5.6,0.4-8.9,0.5L175.3,16.1z
				 M184.8,23.5h-0.9v-0.6h-6.6v0.6h-0.9v-5.3h8.4V23.5z M183.9,22v-2.9h-6.6V22H183.9z"/>
		</g>
	</g>
</g>
</svg>
