<?xml version="1.0" encoding="utf-8"?>
<!-- Generator: Adobe Illustrator 23.0.3, SVG Export Plug-In . SVG Version: 6.00 Build 0)  -->
<svg version="1.1" id="图层_1" xmlns="http://www.w3.org/2000/svg" xmlns:xlink="http://www.w3.org/1999/xlink" x="0px" y="0px"
	 width="830px" height="476px" viewBox="0 0 830 476" style="enable-background:new 0 0 830 476;" xml:space="preserve">
<g id="svgwrapper_svg">
	<g>
		<path style="fill:#00A4FF;" d="M820,0h-6v1h6V0L820,0z M810,0h-6v1h6V0L810,0z M800,0h-6v1h6V0L800,0z M790,0h-6v1h6V0L790,0z
			 M780,0h-6v1h6V0L780,0z M770,0h-6v1h6V0L770,0z M760,0h-6v1h6V0L760,0z M750,0h-6v1h6V0L750,0z M740,0h-6v1h6V0L740,0z M730,0h-6
			v1h6V0L730,0z M720,0h-6v1h6V0L720,0z M710,0h-6v1h6V0L710,0z M700,0h-6v1h6V0L700,0z M690,0h-6v1h6V0L690,0z M680,0h-6v1h6V0
			L680,0z M670,0h-6v1h6V0L670,0z M660,0h-6v1h6V0L660,0z M650,0h-6v1h6V0L650,0z M640,0h-6v1h6V0L640,0z M630,0h-6v1h6V0L630,0z
			 M620,0h-6v1h6V0L620,0z M610,0h-6v1h6V0L610,0z M600,0h-6v1h6V0L600,0z M590,0h-6v1h6V0L590,0z M580,0h-6v1h6V0L580,0z M570,0h-6
			v1h6V0L570,0z M560,0h-6v1h6V0L560,0z M550,0h-6v1h6V0L550,0z M540,0h-6v1h6V0L540,0z M530,0h-6v1h6V0L530,0z M520,0h-6v1h6V0
			L520,0z M510,0h-6v1h6V0L510,0z M500,0h-6v1h6V0L500,0z M490,0h-6v1h6V0L490,0z M480,0h-6v1h6V0L480,0z M470,0h-6v1h6V0L470,0z
			 M460,0h-6v1h6V0L460,0z M450,0h-6v1h6V0L450,0z M440,0h-6v1h6V0L440,0z M430,0h-6v1h6V0L430,0z M420,0h-6v1h6V0L420,0z M410,0h-6
			v1h6V0L410,0z M400,0h-6v1h6V0L400,0z M390,0h-6v1h6V0L390,0z M380,0h-6v1h6V0L380,0z M370,0h-6v1h6V0L370,0z M360,0h-6v1h6V0
			L360,0z M350,0h-6v1h6V0L350,0z M340,0h-6v1h6V0L340,0z M330,0h-6v1h6V0L330,0z M320,0h-6v1h6V0L320,0z M310,0h-6v1h6V0L310,0z
			 M300,0h-6v1h6V0L300,0z M290,0h-6v1h6V0L290,0z M280,0h-6v1h6V0L280,0z M270,0h-6v1h6V0L270,0z M260,0h-6v1h6V0L260,0z M250,0h-6
			v1h6V0L250,0z M240,0h-6v1h6V0L240,0z M230,0h-6v1h6V0L230,0z M220,0h-6v1h6V0L220,0z M210,0h-6v1h6V0L210,0z M200,0h-6v1h6V0
			L200,0z M190,0h-6v1h6V0L190,0z M180,0h-6v1h6V0L180,0z M170,0h-6v1h6V0L170,0z M160,0h-6v1h6V0L160,0z M150,0h-6v1h6V0L150,0z
			 M140,0h-6v1h6V0L140,0z M130,0h-6v1h6V0L130,0z M120,0h-6v1h6V0L120,0z M110,0h-6v1h6V0L110,0z M100,0h-6v1h6V0L100,0z M90,0h-6
			v1h6V0L90,0z M80,0h-6v1h6V0L80,0z M70,0h-6v1h6V0L70,0z M60,0h-6v1h6V0L60,0z M50,0h-6v1h6V0L50,0z M40,0h-6v1h6V0L40,0z M30,0
			h-6v1h6V0L30,0z M20,0h-6v1h6V0L20,0z M10,0H4v1h6V0L10,0z M1,0H0v6h1V0L1,0z M1,10H0v6h1V10L1,10z M1,20H0v6h1V20L1,20z M1,30H0
			v6h1V30L1,30z M1,40H0v6h1V40L1,40z M1,50H0v6h1V50L1,50z M1,60H0v6h1V60L1,60z M1,70H0v6h1V70L1,70z M1,80H0v6h1V80L1,80z M1,90
			H0v6h1V90L1,90z M1,100H0v6h1V100L1,100z M1,110H0v6h1V110L1,110z M1,120H0v6h1V120L1,120z M1,130H0v6h1V130L1,130z M1,140H0v6h1
			V140L1,140z M1,150H0v6h1V150L1,150z M1,160H0v6h1V160L1,160z M1,170H0v6h1V170L1,170z M1,180H0v6h1V180L1,180z M1,190H0v6h1V190
			L1,190z M1,200H0v6h1V200L1,200z M1,210H0v6h1V210L1,210z M1,220H0v6h1V220L1,220z M1,230H0v6h1V230L1,230z M1,240H0v6h1V240
			L1,240z M1,250H0v6h1V250L1,250z M1,260H0v6h1V260L1,260z M1,270H0v6h1V270L1,270z M1,280H0v6h1V280L1,280z M1,290H0v6h1V290
			L1,290z M1,300H0v6h1V300L1,300z M1,310H0v6h1V310L1,310z M1,320H0v6h1V320L1,320z M1,330H0v6h1V330L1,330z M1,340H0v6h1V340
			L1,340z M1,350H0v6h1V350L1,350z M1,360H0v6h1V360L1,360z M1,370H0v6h1V370L1,370z M1,380H0v6h1V380L1,380z M1,390H0v6h1V390
			L1,390z M1,400H0v6h1V400L1,400z M1,410H0v6h1V410L1,410z M1,420H0v6h1V420L1,420z M1,430H0v6h1V430L1,430z M1,440H0v6h1V440
			L1,440z M1,450H0v6h1V450L1,450z M1,460H0v6h1V460L1,460z M1,470H0v6h1V470L1,470z M10,475H4v1h6V475L10,475z M20,475h-6v1h6V475
			L20,475z M30,475h-6v1h6V475L30,475z M40,475h-6v1h6V475L40,475z M50,475h-6v1h6V475L50,475z M60,475h-6v1h6V475L60,475z M70,475
			h-6v1h6V475L70,475z M80,475h-6v1h6V475L80,475z M90,475h-6v1h6V475L90,475z M100,475h-6v1h6V475L100,475z M110,475h-6v1h6V475
			L110,475z M120,475h-6v1h6V475L120,475z M130,475h-6v1h6V475L130,475z M140,475h-6v1h6V475L140,475z M150,475h-6v1h6V475L150,475z
			 M160,475h-6v1h6V475L160,475z M170,475h-6v1h6V475L170,475z M180,475h-6v1h6V475L180,475z M190,475h-6v1h6V475L190,475z M200,475
			h-6v1h6V475L200,475z M210,475h-6v1h6V475L210,475z M220,475h-6v1h6V475L220,475z M230,475h-6v1h6V475L230,475z M240,475h-6v1h6
			V475L240,475z M250,475h-6v1h6V475L250,475z M260,475h-6v1h6V475L260,475z M270,475h-6v1h6V475L270,475z M280,475h-6v1h6V475
			L280,475z M290,475h-6v1h6V475L290,475z M300,475h-6v1h6V475L300,475z M310,475h-6v1h6V475L310,475z M320,475h-6v1h6V475L320,475z
			 M330,475h-6v1h6V475L330,475z M340,475h-6v1h6V475L340,475z M350,475h-6v1h6V475L350,475z M360,475h-6v1h6V475L360,475z M370,475
			h-6v1h6V475L370,475z M380,475h-6v1h6V475L380,475z M390,475h-6v1h6V475L390,475z M400,475h-6v1h6V475L400,475z M410,475h-6v1h6
			V475L410,475z M420,475h-6v1h6V475L420,475z M430,475h-6v1h6V475L430,475z M440,475h-6v1h6V475L440,475z M450,475h-6v1h6V475
			L450,475z M460,475h-6v1h6V475L460,475z M470,475h-6v1h6V475L470,475z M480,475h-6v1h6V475L480,475z M490,475h-6v1h6V475L490,475z
			 M500,475h-6v1h6V475L500,475z M510,475h-6v1h6V475L510,475z M520,475h-6v1h6V475L520,475z M530,475h-6v1h6V475L530,475z M540,475
			h-6v1h6V475L540,475z M550,475h-6v1h6V475L550,475z M560,475h-6v1h6V475L560,475z M570,475h-6v1h6V475L570,475z M580,475h-6v1h6
			V475L580,475z M590,475h-6v1h6V475L590,475z M600,475h-6v1h6V475L600,475z M610,475h-6v1h6V475L610,475z M620,475h-6v1h6V475
			L620,475z M630,475h-6v1h6V475L630,475z M640,475h-6v1h6V475L640,475z M650,475h-6v1h6V475L650,475z M660,475h-6v1h6V475L660,475z
			 M670,475h-6v1h6V475L670,475z M680,475h-6v1h6V475L680,475z M690,475h-6v1h6V475L690,475z M700,475h-6v1h6V475L700,475z M710,475
			h-6v1h6V475L710,475z M720,475h-6v1h6V475L720,475z M730,475h-6v1h6V475L730,475z M740,475h-6v1h6V475L740,475z M750,475h-6v1h6
			V475L750,475z M760,475h-6v1h6V475L760,475z M770,475h-6v1h6V475L770,475z M780,475h-6v1h6V475L780,475z M790,475h-6v1h6V475
			L790,475z M800,475h-6v1h6V475L800,475z M810,475h-6v1h6V475L810,475z M820,475h-6v1h6V475L820,475z M830,475h-6v1h6V475L830,475z
			 M830,466h-1v6h1V466L830,466z M830,456h-1v6h1V456L830,456z M830,446h-1v6h1V446L830,446z M830,436h-1v6h1V436L830,436z M830,426
			h-1v6h1V426L830,426z M830,416h-1v6h1V416L830,416z M830,406h-1v6h1V406L830,406z M830,396h-1v6h1V396L830,396z M830,386h-1v6h1
			V386L830,386z M830,376h-1v6h1V376L830,376z M830,366h-1v6h1V366L830,366z M830,356h-1v6h1V356L830,356z M830,346h-1v6h1V346
			L830,346z M830,336h-1v6h1V336L830,336z M830,326h-1v6h1V326L830,326z M830,316h-1v6h1V316L830,316z M830,306h-1v6h1V306L830,306z
			 M830,296h-1v6h1V296L830,296z M830,286h-1v6h1V286L830,286z M830,276h-1v6h1V276L830,276z M830,266h-1v6h1V266L830,266z M830,256
			h-1v6h1V256L830,256z M830,246h-1v6h1V246L830,246z M830,236h-1v6h1V236L830,236z M830,226h-1v6h1V226L830,226z M830,216h-1v6h1
			V216L830,216z M830,206h-1v6h1V206L830,206z M830,196h-1v6h1V196L830,196z M830,186h-1v6h1V186L830,186z M830,176h-1v6h1V176
			L830,176z M830,166h-1v6h1V166L830,166z M830,156h-1v6h1V156L830,156z M830,146h-1v6h1V146L830,146z M830,136h-1v6h1V136L830,136z
			 M830,126h-1v6h1V126L830,126z M830,116h-1v6h1V116L830,116z M830,106h-1v6h1V106L830,106z M830,96h-1v6h1V96L830,96z M830,86h-1
			v6h1V86L830,86z M830,76h-1v6h1V76L830,76z M830,66h-1v6h1V66L830,66z M830,56h-1v6h1V56L830,56z M830,46h-1v6h1V46L830,46z
			 M830,36h-1v6h1V36L830,36z M830,26h-1v6h1V26L830,26z M830,16h-1v6h1V16L830,16z M830,6h-1v6h1V6L830,6z M830,0h-6v1h5v1h1V0
			L830,0z"/>
	</g>
	<g>
		<g>
			<path style="fill:#00A4FF;" d="M23.7,13c-0.6,1.6-1.3,2.9-1.9,3.9c0.6-0.1,1.1-0.2,1.7-0.3c0.2-0.4,0.5-0.9,0.7-1.4l0.8,0.3
				c-1.1,2.1-2,3.6-2.8,4.5c0.9-0.2,1.8-0.5,2.7-0.9V20c-1.3,0.6-2.6,0.9-3.8,1.1l-0.3-0.8c0.2-0.1,0.3-0.2,0.4-0.3
				c0.5-0.5,1.1-1.4,1.8-2.6c-0.7,0.1-1.4,0.3-2.1,0.4L20.6,17c0.2-0.1,0.3-0.2,0.4-0.4c0.7-1.2,1.3-2.5,1.8-4L23.7,13z M24.8,22.3
				c-1.2,0.6-2.5,1.1-3.9,1.4l-0.1-0.9c1.5-0.3,2.9-0.8,4.1-1.4v0.9H24.8z M27.2,18.7c-0.1,1.6-0.3,2.8-0.6,3.5
				c-0.4,0.8-1,1.5-1.8,2l-0.6-0.7c0.7-0.5,1.3-1,1.6-1.7c0.3-0.7,0.5-1.7,0.5-3.1C26.3,18.7,27.2,18.7,27.2,18.7z M25.1,17.4
				c0.1,0,0.1-0.1,0.2-0.1c0.4-0.3,1-1.1,1.7-2.4h-2.2V14H28c-0.2-0.5-0.4-0.9-0.6-1.3l0.9-0.2c0.2,0.4,0.4,0.9,0.6,1.5h2.8v0.9
				h-3.9c-0.6,1.1-1,1.9-1.5,2.4c1.2-0.1,2.4-0.2,3.5-0.4c-0.3-0.4-0.6-0.8-0.9-1.2l0.7-0.4c0.9,1.1,1.5,2.1,2,2.9L31,18.6
				c-0.2-0.3-0.4-0.6-0.6-1c-1.6,0.3-3.3,0.4-5.1,0.6L25.1,17.4z M29.9,24c-0.8,0-1.1-0.4-1.1-1.1v-4.3h0.9v4.2
				c0,0.3,0.1,0.4,0.3,0.4h0.8c0.3,0,0.4-0.2,0.5-0.5c0.1-0.4,0.1-0.9,0.1-1.6l0.8,0.3c0,1.2-0.1,1.9-0.3,2.2
				c-0.2,0.3-0.5,0.4-1.1,0.4C30.8,24,29.9,24,29.9,24z"/>
			<path style="fill:#00A4FF;" d="M44.6,17.9v0.9H33.3v-0.9H44.6z"/>
			<path style="fill:#00A4FF;" d="M52,24c-0.8,0-1.5-0.1-2-0.2c-0.5-0.2-0.9-0.5-1.3-0.9c-0.2-0.2-0.3-0.3-0.5-0.3
				c-0.3,0-0.8,0.6-1.5,1.7L46,23.7c0.7-1.1,1.3-1.7,1.8-1.9V18H46v-0.8h2.7v4.7c0.1,0.1,0.2,0.2,0.3,0.3c0.3,0.4,0.6,0.6,1,0.8
				c0.4,0.2,0.9,0.3,1.7,0.3c0.7,0,1.5,0,2.4,0c0.6,0,1.2,0,1.9,0c0.6,0,1.1,0,1.4-0.1L57.1,24h-2.9C53.5,24,52.8,24,52,24z
				 M49,14.8l-0.6,0.6c-0.5-0.6-1.3-1.3-2.2-2l0.6-0.6C47.7,13.5,48.4,14.1,49,14.8z M57.1,16.3v0.9h-3.9c-0.7,1.8-1.3,3.1-1.9,3.8
				c1.6-0.2,3-0.4,4.1-0.7c-0.3-0.7-0.6-1.4-1-2l0.7-0.2c0.7,1.2,1.3,2.5,1.8,4l-0.8,0.2c-0.1-0.4-0.3-0.8-0.4-1.1
				c-1.4,0.3-3.2,0.6-5.5,0.8L50,21.1c0.5-0.2,1.3-1.5,2.3-4h-2.7v-0.9L57.1,16.3L57.1,16.3z M56.2,13.4v0.8h-5.8v-0.8H56.2z"/>
			<path style="fill:#00A4FF;" d="M62.9,22.6c-1.3,0.5-2.7,0.9-4.3,1.2l-0.1-0.9c1.7-0.3,3.1-0.7,4.4-1.1
				C62.9,21.8,62.9,22.6,62.9,22.6z M61.5,13c-0.6,1.6-1.2,2.9-1.8,3.9c0.5-0.1,1-0.2,1.6-0.3c0.2-0.5,0.5-1,0.7-1.5l0.8,0.3
				c-1.1,2.2-1.9,3.7-2.6,4.7c0.8-0.2,1.7-0.5,2.5-0.8v0.8c-1.2,0.5-2.4,0.9-3.6,1l-0.3-0.8c0.2-0.1,0.3-0.2,0.4-0.3
				c0.4-0.5,1-1.4,1.6-2.6c-0.7,0.1-1.3,0.3-2,0.4L58.6,17c0.1-0.1,0.3-0.2,0.4-0.3c0.6-1.2,1.2-2.5,1.6-4L61.5,13z M64.7,24.2h-0.9
				v-7.5c-0.4,0.6-0.7,1.2-1.1,1.7l-0.3-0.9c1-1.5,1.7-3.1,2.1-4.9l0.9,0.2c-0.2,0.7-0.4,1.3-0.6,2H67c-0.2-0.7-0.4-1.3-0.7-2
				l0.9-0.2c0.3,0.8,0.5,1.4,0.7,2.1l-0.3,0.1h2.3v0.9h-2v1.7h1.8v0.8h-1.8V20h1.8v0.8h-1.8v1.9H70v0.8h-5.4L64.7,24.2L64.7,24.2z
				 M64.7,15.7v1.7h2.2v-1.7H64.7z M64.7,20h2.2v-1.7h-2.2V20z M64.7,22.7h2.2v-1.9h-2.2V22.7z"/>
		</g>
	</g>
	<g>
		<g>
			<g>
				<rect x="464" y="243" style="opacity:0.6;fill:#BBBBBB;enable-background:new    ;" width="138" height="50"/>
				<g>
					<rect x="462.5" y="241.5" style="fill:#FFFFFF;" width="137" height="49"/>
					<path style="fill:#E5E5E5;" d="M599,242v48H463v-48H599 M600,241H462v50h138V241L600,241z"/>
				</g>
			</g>
			<g transform="translate(20 9)">
				<g style="enable-background:new    ;">
					<path style="fill:#444444;" d="M488.2,257.2c-0.1,0.3-0.2,0.5-0.3,0.8h2.9v0.8c-0.3,0.9-0.8,1.7-1.6,2.4c0.7,0.3,1.3,0.6,1.9,1
						l-0.5,0.8c-0.6-0.4-1.3-0.7-2.2-1.1c-0.9,0.6-2.1,1.2-3.5,1.6l-0.5-0.8c1.1-0.3,2.1-0.7,3-1.1c-0.6-0.3-1.3-0.5-1.9-0.8
						c0.4-0.6,0.7-1.2,1-1.8h-1.7v-1h2c0.1-0.3,0.2-0.6,0.3-0.9L488.2,257.2z M487.7,253.2v-2.7h0.9v2.7h2.5v0.9h-2.5v0.2
						c0.8,0.4,1.5,0.8,2.3,1.3l-0.5,0.8c-0.7-0.6-1.3-1-1.8-1.3v1.8h-0.9v-2.7c-0.5,1.1-1.3,2.1-2.5,2.9l-0.5-0.8
						c1.1-0.6,1.8-1.3,2.3-2.1h-2v-0.9h2.7V253.2z M486.9,252.6l-0.7,0.3c-0.3-0.7-0.6-1.3-0.9-1.8l0.8-0.3
						C486.4,251.4,486.6,252,486.9,252.6z M490,258.8h-2.4c-0.2,0.5-0.5,0.9-0.8,1.3c0.6,0.2,1.1,0.4,1.6,0.6
						C489.1,260.2,489.6,259.6,490,258.8z M491,251.1c-0.3,0.6-0.6,1.2-1.1,1.8l-0.7-0.4c0.4-0.6,0.8-1.2,1.1-1.8L491,251.1z
						 M492.5,255.9c-0.3,0.6-0.5,1.2-0.8,1.7l-0.6-0.8c0.8-1.6,1.4-3.7,1.7-6.3l1,0.2c-0.1,0.7-0.2,1.4-0.3,2h3.7v1h-0.9
						c-0.1,2.3-0.5,4.3-1.3,6c0.7,1.3,1.6,2.2,2.6,2.9l-0.5,0.8c-1-0.7-1.8-1.7-2.5-2.8c-0.7,1.1-1.5,2.1-2.6,2.8l-0.5-0.8
						c1.1-0.8,1.9-1.7,2.6-2.9C493.4,258.6,492.9,257.3,492.5,255.9z M493,254.4c0.4,1.6,0.8,3.1,1.4,4.2c0.5-1.4,0.8-3.1,0.9-5
						h-2.1L493,254.4z"/>
					<path style="fill:#444444;" d="M499.1,263.3l-0.2-1c0.4,0,0.7,0.1,1.1,0.1s0.5-0.2,0.5-0.6v-3.4c-0.6,0.2-1.1,0.4-1.7,0.6
						l-0.3-1c0.6-0.2,1.3-0.4,1.9-0.6v-3.2h-1.7v-1h1.7v-2.6h1v2.6h1.3v1h-1.3v2.8c0.4-0.2,0.9-0.4,1.3-0.6v1
						c-0.4,0.2-0.9,0.4-1.3,0.6v4.1c0,0.8-0.4,1.2-1.2,1.2L499.1,263.3L499.1,263.3z M502.8,263.4l-0.8-0.7c1-1.8,1.5-4.3,1.5-7.2
						v-4.4h7.4v3.4h-2.6v1.7h3v0.9h-3v1.7h2.4v4.6h-0.9v-0.7H506v0.7h-1v-4.6h2.3v-1.7h-2.9C504.3,259.5,503.8,261.6,502.8,263.4z
						 M504.6,254.5v1c0,0.2,0,0.4,0,0.7h2.8v-1.7L504.6,254.5L504.6,254.5z M504.6,252.1v1.6h5.4v-1.6H504.6z M509.7,261.8v-2.1
						h-3.8v2.1H509.7z"/>
					<path style="fill:#444444;" d="M517.9,251.4c-0.7,1.2-1.3,2.1-2,2.9c-0.7,0.8-1.6,1.6-2.8,2.4l-0.5-0.9c1-0.5,1.8-1.3,2.6-2.1
						c0.7-0.8,1.3-1.7,1.8-2.8L517.9,251.4z M514.7,257.1v-1h8.4c0,1.8-0.1,3.2-0.3,4.2c-0.1,1.1-0.4,1.8-0.7,2.2
						c-0.3,0.4-0.8,0.6-1.5,0.7H518l-0.3-1c0.8,0,1.6,0,2.3,0c0.8,0,1.2-0.3,1.5-1s0.4-2.1,0.5-4.3h-3.5c-0.3,1.5-0.8,2.7-1.4,3.6
						c-0.7,1-1.8,1.9-3.2,2.7l-0.6-0.8c1.3-0.7,2.3-1.5,2.9-2.3c0.6-0.8,1-1.9,1.3-3.2h-2.8V257.1z M525.3,255.8l-0.7,0.8
						c-2.2-1.4-3.7-3.2-4.5-5.4l0.9-0.5C521.8,252.8,523.3,254.5,525.3,255.8z"/>
					<path style="fill:#444444;" d="M529.9,263.4h-1v-7.2c-0.5,1.4-1.1,2.7-1.9,3.9l-0.4-1.1c1.1-1.4,1.8-3,2.3-4.7h-2v-1h2v-2.7h1
						v2.7h1.9v1h-1.9v0.8c0.7,0.7,1.3,1.5,2,2.3l-0.5,0.8c-0.6-0.9-1.1-1.6-1.5-2.1L529.9,263.4L529.9,263.4z M538.9,251.5
						c-1.6,0.6-3.4,0.9-5.3,1v2.5h5.7v1h-2.1v7.4h-1V256h-2.6v0.2c-0.1,3-0.8,5.4-2.1,7.1l-0.7-0.7c1.1-1.5,1.8-3.7,1.9-6.4v-4.5
						c2.2-0.1,4.1-0.4,5.8-1.1L538.9,251.5z"/>
				</g>
			</g>
		</g>
		<g>
			<g>
				<line style="fill:none;stroke:#989898;stroke-miterlimit:10;" x1="202" y1="267" x2="221" y2="267"/>
			</g>
		</g>
		<polygon style="fill:#989898;" points="456,264 460,267 456,270 		"/>
		<g>
			<g>
				<polyline style="fill:none;stroke:#989898;stroke-miterlimit:10;" points="243,194 221,194 221,341 243,341 				"/>
			</g>
			<polygon style="fill:#989898;" points="243,191 247,194 243,197 			"/>
			<polygon style="fill:#989898;" points="243,338 247,341 243,344 			"/>
		</g>
		<g>
			<g>
				<line style="fill:none;stroke:#989898;stroke-miterlimit:10;" x1="602" y1="267" x2="642" y2="267"/>
			</g>
		</g>
		<g>
			<g>
				<polyline style="fill:none;stroke:#989898;stroke-miterlimit:10;" points="639,113 617,113 617,405 639,405 				"/>
			</g>
			<polygon style="fill:#989898;" points="639,110 643,113 639,116 			"/>
			<polygon style="fill:#989898;" points="639,402 643,405 639,408 			"/>
		</g>
		<g>
			<g>
				<line style="fill:none;stroke:#989898;stroke-miterlimit:10;" x1="456" y1="267" x2="437" y2="267"/>
			</g>
		</g>
		<g>
			<polyline style="fill:none;stroke:#989898;stroke-miterlimit:10;" points="415,194 437,194 437,341 415,341 			"/>
		</g>
		<g>
			<rect x="20" y="168.1" style="fill:#CEE3FF;" width="182" height="197"/>
			<g>
				<g>
					<rect x="33" y="181.1" style="opacity:0.6;fill:#BBBBBB;enable-background:new    ;" width="158" height="50"/>
					<g>
						<rect x="31.5" y="179.6" style="fill:#FFFFFF;" width="157" height="49"/>
						<path style="fill:#E5E5E5;" d="M188,180.1v48H32v-48H188 M189,179.1H31v50h158V179.1L189,179.1z"/>
					</g>
				</g>
				<g transform="translate(20 9)">
					<g style="enable-background:new    ;">
						<path style="fill:#444444;" d="M85.1,190h5.1v1H79.8v3.1c-0.1,3.1-0.5,5.5-1.4,7.4l-0.8-0.7c0.8-1.6,1.2-3.8,1.2-6.7V190H84
							c-0.2-0.4-0.5-0.9-0.8-1.3l1.1-0.2C84.6,189,84.9,189.5,85.1,190z M85.9,199.9c0.9-2,1.6-4.4,2.3-7.4l1,0.3
							c-0.6,2.7-1.3,5-2.2,7.1h3v1h-9.9v-1L85.9,199.9L85.9,199.9z M83.1,198.4l-1,0.2c-0.4-1.8-0.9-3.5-1.4-5.1l0.9-0.3
							C82.2,194.7,82.7,196.4,83.1,198.4z M85.6,197.5l-1,0.2c-0.3-1.8-0.7-3.6-1.2-5.3l0.9-0.3C84.8,193.8,85.2,195.6,85.6,197.5z"
							/>
						<path style="fill:#444444;" d="M92.3,201.4l-0.8-0.7c0.9-1.2,1.4-2.8,1.4-4.7v-6.7h10.4v10.5c0,1-0.5,1.5-1.5,1.5h-1.6l-0.3-1
							c0.6,0,1.1,0.1,1.6,0.1s0.8-0.3,0.8-0.9v-2.4h-3.8v4.1h-1v-4.1h-3.6C93.8,198.7,93.2,200.2,92.3,201.4z M94,190.2v2.4h3.6
							v-2.4H94z M94,196h3.6v-2.5H94V196z M102.4,190.2h-3.8v2.4h3.8V190.2z M102.4,193.5h-3.8v2.5h3.8V193.5z"/>
					</g>
				</g>
			</g>
			<g>
				<g>
					<rect x="33" y="243.1" style="opacity:0.6;fill:#BBBBBB;enable-background:new    ;" width="158" height="50"/>
					<g>
						<rect x="31.5" y="241.6" style="fill:#FFFFFF;" width="157" height="49"/>
						<path style="fill:#E5E5E5;" d="M188,242.1v48H32v-48H188 M189,241.1H31v50h158V241.1L189,241.1z"/>
					</g>
				</g>
				<g transform="translate(20 9)">
					<g style="enable-background:new    ;">
						<path style="fill:#444444;" d="M61.7,251.3v1h-5.2v5.3h5.7v1h-5.7v5h-1v-5h-5.6v-1h5.6v-5.3h-5.1v-1H61.7z M53.6,256.4
							l-0.9,0.5c-0.5-1.2-1-2.3-1.5-3.2l0.9-0.5C52.6,254.1,53.1,255.2,53.6,256.4z M60.9,253.5c-0.4,1.1-1,2.2-1.7,3.2l-0.9-0.5
							c0.7-1.1,1.2-2.2,1.6-3.2L60.9,253.5z"/>
						<path style="fill:#444444;" d="M64.1,255.3c1.2-0.4,2.8-2,4.6-4.7l1,0.4c-1.3,1.8-2.5,3.2-3.8,4.3c2.7-0.1,5.2-0.3,7.6-0.5
							c-0.5-0.8-1.1-1.5-1.6-2.1l0.9-0.4c1.2,1.4,2.3,3,3.4,4.6l-1,0.5c-0.4-0.6-0.7-1.1-1-1.7c-3,0.3-6.2,0.5-9.9,0.6L64.1,255.3z
							 M74.7,263.5h-1v-0.7h-7.3v0.7h-1v-5.8h9.4L74.7,263.5L74.7,263.5z M73.6,261.9v-3.2h-7.3v3.2H73.6z"/>
						<path style="fill:#444444;" d="M85.6,259v1h-7.9v-1H85.6z M81.1,250.7l-0.2,1.9h8.5v1h-8.6l-0.2,2.3h7.9c0,3.8-0.3,6-0.8,6.6
							s-1.6,0.9-3.3,0.9c-0.4,0-0.9,0-1.4-0.1l-0.3-0.9c0.7,0.1,1.2,0.1,1.4,0.1c1.6,0,2.5-0.3,2.8-0.8c0.3-0.6,0.5-2.2,0.5-4.9h-8
							l0.7-6.1L81.1,250.7z"/>
						<path style="fill:#444444;" d="M98.5,250.6v2.5h5v6.6h-1v-0.9h-4v4.8h-1v-4.8h-4v0.9h-1v-6.6h5v-2.5H98.5z M97.5,257.8v-3.7
							h-4v3.7H97.5z M102.5,257.8v-3.7h-4v3.7H102.5z"/>
						<path style="fill:#444444;" d="M107.3,253v10.5h-1V253H107.3z M110.1,253.1l-0.9,0.5c-0.5-1-1.1-1.8-1.7-2.6l0.9-0.4
							C109,251.3,109.6,252.1,110.1,253.1z M114.6,254.5v6.5h-5.3v-6.5H114.6z M113.7,257.3v-1.9h-3.4v1.9H113.7z M113.7,258.2h-3.4
							v1.9h3.4V258.2z M115,263.4l-0.3-0.9h1.2c0.4,0,0.6-0.3,0.6-0.9v-9.3h-5.4v-0.9h6.4v10.5c0,1-0.5,1.5-1.4,1.5L115,263.4
							L115,263.4z"/>
						<path style="fill:#444444;" d="M123.6,251c-0.4,1.1-0.8,2.2-1.4,3.2v9.4h-1v-7.8c-0.4,0.6-0.9,1.2-1.5,1.8l-0.3-1.1
							c1.5-1.7,2.5-3.6,3.2-5.8L123.6,251z M126,251.6c-0.1,0.7-0.3,1.4-0.5,2h2.1v-2.9h1v2.9h3.2v1h-3.2v3.4h3.7v1h-3.7v4.5h-1V259
							h-4.1v-1h4.1v-3.4h-2.4c-0.4,0.9-0.8,1.8-1.3,2.5l-0.6-0.8c0.9-1.3,1.4-2.9,1.7-4.7L126,251.6z"/>
					</g>
				</g>
			</g>
			<g>
				<g>
					<rect x="33" y="305.1" style="opacity:0.6;fill:#BBBBBB;enable-background:new    ;" width="158" height="50"/>
					<g>
						<rect x="31.5" y="303.6" style="fill:#FFFFFF;" width="157" height="49"/>
						<path style="fill:#E5E5E5;" d="M188,304.1v48H32v-48H188 M189,303.1H31v50h158V303.1L189,303.1z"/>
					</g>
				</g>
				<g transform="translate(20 9)">
					<g style="enable-background:new    ;">
						<path style="fill:#444444;" d="M66.6,313.7v-1.1h1v1.1h4.8v-1.1h1v1.1h2.5v0.9h-2.5v4.6h2.7v0.9h-2.9c0.7,0.8,1.7,1.5,3.1,2
							l-0.4,0.9c-1.7-0.7-3-1.7-3.7-2.8h-4.4c-0.7,1.2-1.9,2.1-3.5,2.9l-0.5-0.9c1.4-0.5,2.4-1.2,3.1-2H64v-0.9h2.7v-4.6h-2.5v-0.9
							h2.4V313.7z M70.5,320.6v1.1h2.8v0.9h-2.8v1.5h4.8v0.9H64.6v-0.9h4.9v-1.5h-2.9v-0.9h2.9v-1.1H70.5z M72.4,315.6v-1h-4.8v1
							H72.4z M72.4,317.4v-1h-4.8v1H72.4z M72.4,319.2v-1h-4.8v1H72.4z"/>
						<path style="fill:#444444;" d="M77.8,314.4v-1h4.7v1h-2.1c-0.2,1.1-0.4,2.2-0.8,3.2h2.6v7.5h-0.9v-0.9h-1.5v1H79V319
							c-0.3,0.6-0.6,1.1-1,1.7l-0.5-0.9c1-1.6,1.7-3.4,2-5.4L77.8,314.4L77.8,314.4z M81.3,323.3v-4.8h-1.5v4.8H81.3z M88.7,313.9
							h0.9v4.6H87v5.3h2v-4h0.9v5.9H89v-0.9h-4.9v0.9h-0.9v-5.9h0.9v4H86v-5.3h-2.6v-4.6h0.9v3.7H86v-4.8h1v4.8h1.7V313.9z"/>
						<path style="fill:#444444;" d="M94.5,317v6.2c0.5-0.4,1.1-0.9,1.6-1.4l0.3,1.1c-0.9,0.8-1.8,1.6-2.8,2.2l-0.4-0.9
							c0.2-0.2,0.3-0.4,0.3-0.6v-5.5h-1.9v-1h2.9V317z M95.5,315l-0.7,0.7c-0.5-0.7-1.3-1.4-2.2-2.1l0.7-0.7
							C94.1,313.6,94.9,314.3,95.5,315z M103.2,318.6v0.9c-0.4,1.3-1.2,2.5-2.2,3.4c1,0.7,2.1,1.2,3.5,1.7l-0.5,0.9
							c-1.5-0.6-2.7-1.2-3.7-2c-1.1,0.8-2.5,1.5-4.1,2l-0.6-0.9c1.6-0.5,2.9-1.1,3.9-1.8c-1.1-1-1.8-2.1-2.2-3.3h-0.8v-1
							L103.2,318.6L103.2,318.6z M102.4,313.2v3c0,0.3,0.2,0.5,0.5,0.5h1.3v0.9h-1.5c-0.9,0-1.3-0.4-1.3-1.2v-2.3h-2.7v0.5
							c0,1.5-0.7,2.6-2.2,3.4l-0.7-0.8c1.2-0.6,1.8-1.5,1.8-2.6V313h4.8V313.2z M100.2,322.3c0.9-0.8,1.6-1.7,2-2.7h-4
							C98.7,320.6,99.3,321.5,100.2,322.3z"/>
						<path style="fill:#444444;" d="M108,314.6c-0.3-0.7-0.6-1.3-0.9-1.9l1-0.2c0.3,0.6,0.6,1.3,0.8,2.1h1.7v1h-2.8v1.9h2.5
							c0,3.6-0.1,5.7-0.2,6.6c-0.1,0.8-0.7,1.3-1.7,1.3c-0.1,0-0.4,0-0.7,0l-0.2-0.9c0.3,0,0.5,0.1,0.7,0.1c0.5,0,0.8-0.3,0.9-0.8
							c0.1-0.6,0.1-2.3,0.2-5.2h-1.6c-0.1,3.2-0.6,5.5-1.6,7l-0.7-0.7c0.9-1.4,1.3-3.7,1.4-6.8v-2.4h-1.1v-1h2.3V314.6z
							 M111.1,317.8l-0.7-0.8c0.9-1.1,1.6-2.6,2.1-4.5l0.9,0.2c-0.2,0.5-0.3,0.9-0.5,1.4h5v0.9h-5.4
							C112.2,316.2,111.7,317.1,111.1,317.8z M117.3,321.7c-0.1,0.5-0.6,0.8-1.4,0.8h-0.2l-0.3-0.9c0.2,0,0.4,0,0.6,0
							c0.3,0,0.4-0.2,0.4-0.4c0.1-0.3,0.1-1.3,0.1-3l-1.4,0.5v4.6h-0.9V319l-1.4,0.5v4c0,0.6,0.2,0.9,0.7,0.9h2.8
							c0.4,0,0.6-0.1,0.8-0.2c0.2-0.2,0.3-0.7,0.4-1.6l0.9,0.3c-0.1,1.2-0.3,1.9-0.6,2.1c-0.3,0.2-0.7,0.3-1.3,0.3h-3.3
							c-0.9,0-1.3-0.5-1.3-1.6V320l-1.1,0.4v-0.9l1.1-0.4v-2h0.9v1.6l1.4-0.5v-2.3h0.9v1.9l2.3-0.9
							C117.5,319.6,117.5,321.2,117.3,321.7z"/>
					</g>
				</g>
			</g>
		</g>
		<g>
			<g>
				<g>
					<rect x="646" y="39" style="opacity:0.6;fill:#BBBBBB;enable-background:new    ;" width="164" height="150"/>
					<g>
						<rect x="644.5" y="37.5" style="fill:#FFFFFF;" width="163" height="149"/>
						<path style="fill:#E5E5E5;" d="M807,38v148H645V38H807 M808,37H644v150h164V37L808,37z"/>
					</g>
				</g>
				<g transform="translate(20 9)">
					<g style="enable-background:new    ;">
						<path style="fill:#444444;" d="M691.6,51.3l-0.6-0.8c1.3-1,2.1-2.3,2.6-3.7l1,0.1c-0.2,0.6-0.4,1.1-0.7,1.7h2.7v-2h1v2h4.6v1
							h-4.6v2.3h5.6v1h-12.7v-1h6v-2.3h-3.3C692.8,50.1,692.3,50.7,691.6,51.3z M701.6,59.4h-1v-0.7h-7.1v0.7h-1v-5.2h9.1V59.4z
							 M700.6,57.7v-2.5h-7.1v2.5H700.6z"/>
						<path style="fill:#444444;" d="M706.7,47.1v-0.6h0.8v0.6h1.5v-0.6h0.8v0.6h1.7v0.7h-1.7v0.6H709v-0.6h-1.5v0.6h-0.7
							c0,0.1-0.1,0.2-0.1,0.3h4.4c0,1.6-0.1,2.6-0.3,3c-0.1,0.1-0.1,0.2-0.2,0.2l0.5-0.1c0.1,0.3,0.3,0.6,0.4,0.9h5.4v0.7H705v-0.7
							h5.7c-0.1-0.2-0.2-0.4-0.4-0.6c-0.2,0.1-0.4,0.1-0.6,0.1h-0.6L709,52h-2.8v-1.9h3v1.6h0.3c0.3,0,0.5-0.2,0.6-0.4
							c0.1-0.3,0.1-0.9,0.1-1.8h-3.8c-0.3,0.6-0.7,1.1-1.2,1.6l-0.5-0.7c0.7-0.5,1.1-1.2,1.3-2.1l0.7,0.1v-0.5H705v-0.7L706.7,47.1
							L706.7,47.1z M715.9,59.5h-1v-0.4h-7.7v0.4h-1v-2.7h9.7V59.5z M715.5,54.3v0.6h-8.8v-0.6H715.5z M715.5,55.5v0.6h-8.8v-0.6
							H715.5z M708.4,50.6h-1.5v0.8h1.5V50.6z M714.9,58.4v-0.9h-7.7v0.9H714.9z M711.7,50.3l-0.6-0.7c0.8-0.8,1.4-1.8,1.7-3.2
							l0.9,0.2c-0.1,0.3-0.1,0.5-0.2,0.8h3.3v0.8H716c-0.2,1-0.6,1.8-1.2,2.4c0.6,0.4,1.4,0.7,2.3,1l-0.5,0.8
							c-1-0.3-1.8-0.7-2.5-1.2c-0.7,0.5-1.5,0.9-2.5,1.1l-0.4-0.8c0.9-0.2,1.6-0.5,2.2-0.9c-0.4-0.4-0.8-0.9-1-1.3
							C712.3,49.7,712.1,50,711.7,50.3z M713.1,48.5c0.2,0.6,0.6,1.2,1.1,1.6c0.5-0.5,0.8-1.2,1-1.9h-2
							C713.2,48.3,713.1,48.4,713.1,48.5z"/>
					</g>
				</g>
			</g>
			<rect x="664" y="87" style="fill:#B9B9B9;" width="126" height="1"/>
			<g>
				<g>
					<path style="fill:#868686;" d="M678.3,100.5c1.5,1.7,3.3,3,5.3,4l-0.5,0.8c-2-1-3.7-2.4-5.1-4c-1.3,1.6-3,2.9-5.1,4l-0.5-0.8
						c2.1-1.1,3.9-2.4,5.3-4H678.3z M678.8,103.7v2.7h3.3v0.8h-3.3v3h4.1v0.8h-10v-0.8h1.8v-4.7h0.9v4.7h2.3v-6.5H678.8z"/>
					<path style="fill:#868686;" d="M689.1,100.6v9.5h1.7v-9.5h0.9v9.5h3.6v0.8h-10.6v-0.8h3.6v-9.5H689.1z M687.4,108.3l-0.8,0.2
						c-0.4-1.9-1-3.8-1.6-5.5l0.7-0.2C686.3,104.4,686.9,106.2,687.4,108.3z M695,103c-0.5,2.1-1.1,3.9-1.8,5.5l-0.8-0.3
						c0.7-1.4,1.3-3.2,1.8-5.4L695,103z"/>
					<path style="fill:#868686;" d="M699.2,100.9c-0.5,1.3-1.3,2.4-2.5,3.4l-0.3-0.8c0.9-0.9,1.6-1.8,2-2.9L699.2,100.9z
						 M699.2,104.1c-0.2,0.5-0.4,0.9-0.6,1.3v6.1h-0.8v-5c-0.3,0.4-0.7,0.8-1.1,1.1l-0.3-0.8c0.9-0.9,1.6-1.9,2-3.1L699.2,104.1z
						 M701.9,110c0.1-0.1,0.2-0.2,0.2-0.3v-2.2h-1.3v0.5c0,1.5-0.4,2.6-1.1,3.4l-0.6-0.6c0.6-0.6,1-1.6,1-2.8v-1.3h2.8v2.7
						c0.3-0.3,0.7-0.6,1-1l0.2,0.7c-0.6,0.6-1.2,1.2-1.9,1.6L701.9,110z M703.3,105v0.8h-3.7V105H703.3z M701.9,100.5v2.7h0.8v-2.1
						h0.7v2.8h-3.8v-2.8h0.7v2.1h0.8v-2.7H701.9z M704.4,105.2c-0.2,0.6-0.4,1.1-0.7,1.5l-0.5-0.6c0.7-1.4,1.2-3.3,1.4-5.8l0.8,0.1
						c-0.1,0.6-0.2,1.2-0.3,1.8h2.2v0.8h-0.5c0,2-0.3,3.8-0.9,5.2c0.4,1,1,1.8,1.6,2.3l-0.5,0.7c-0.6-0.6-1.1-1.3-1.5-2.2
						c-0.5,0.9-1,1.6-1.7,2.2l-0.5-0.7c0.7-0.6,1.3-1.5,1.8-2.5C704.9,107.4,704.6,106.4,704.4,105.2z M704.8,104
						c0.2,1.2,0.5,2.4,0.8,3.3c0.4-1.2,0.6-2.6,0.6-4.1H705C704.9,103.5,704.9,103.7,704.8,104z"/>
					<path style="fill:#868686;" d="M708.7,106.3l-0.3-0.9c1.2-1.5,2-3.1,2.6-5l0.8,0.4c-0.3,0.9-0.6,1.8-1.1,2.6v8.2h-0.9v-6.7
						C709.5,105.3,709.1,105.8,708.7,106.3z M715.4,102.1c-0.2-0.5-0.4-0.9-0.6-1.4l0.8-0.2c0.3,0.5,0.4,1,0.6,1.5l-0.5,0.2h3.8v0.8
						h-7.8v-0.8L715.4,102.1L715.4,102.1z M718.7,111.5h-0.8v-0.6h-4.4v0.6h-0.8v-4.2h6.1L718.7,111.5L718.7,111.5z M718.5,103.8
						v0.8h-5.7v-0.8H718.5z M718.5,105.5v0.8h-5.7v-0.8H718.5z M717.9,110v-1.9h-4.4v1.9H717.9z"/>
					<path style="fill:#868686;" d="M673.3,120.7l-0.6-0.6c0.6-1,1-2.1,1.3-3.6l0.8,0.2c-0.1,0.6-0.3,1.1-0.4,1.5h2.7v0.8h-1.2
						c0,0.9,0,1.6-0.1,2.4h1.4v0.8h-1.5c0,0.3-0.1,0.6-0.2,0.9l0,0c0.6,0.6,1.2,1.2,1.8,1.9l-0.5,0.8c-0.6-0.8-1.1-1.4-1.5-1.9
						c-0.4,1.3-1.1,2.3-2.1,3.2l-0.6-0.7c1-0.9,1.7-2,2-3.4c0.1-0.3,0.1-0.5,0.2-0.8h-2.1v-0.8h2.2c0.1-0.7,0.1-1.5,0.1-2.4h-0.9
						C673.9,119.7,673.6,120.2,673.3,120.7z M682.6,123.5c-0.3,1-0.6,1.9-1,2.7h2v0.8h-6.7v-0.8h3.9c0.4-0.8,0.7-1.8,1-3
						L682.6,123.5z M683.3,117.1v0.8h-6.1v-0.8H683.3z M682.7,119.1v3.7h-5v-3.7H682.7z M679.6,125.6l-0.8,0.2
						c-0.2-0.8-0.5-1.6-0.8-2.3l0.8-0.3C679.1,124,679.3,124.8,679.6,125.6z M681.9,119.9h-3.3v2.1h3.3V119.9z"/>
					<path style="fill:#868686;" d="M684.7,122.3l-0.3-0.9c1.2-1.5,2-3.1,2.6-5l0.8,0.4c-0.3,0.9-0.6,1.8-1.1,2.6v8.2h-0.9v-6.7
						C685.5,121.3,685.1,121.8,684.7,122.3z M691.4,118.1c-0.2-0.5-0.4-0.9-0.6-1.4l0.8-0.2c0.3,0.5,0.4,1,0.6,1.5l-0.5,0.2h3.8v0.8
						h-7.8v-0.8L691.4,118.1L691.4,118.1z M694.7,127.5h-0.8v-0.6h-4.4v0.6h-0.8v-4.2h6.1L694.7,127.5L694.7,127.5z M694.5,119.8
						v0.8h-5.7v-0.8H694.5z M694.5,121.5v0.8h-5.7v-0.8H694.5z M693.9,126v-1.9h-4.4v1.9H693.9z"/>
					<path style="fill:#868686;" d="M678.2,142.9h-0.8v-0.8h-3.6v0.8H673v-8.8h2.2v-1.7h0.8v1.7h2.2L678.2,142.9L678.2,142.9z
						 M675.2,137.7V135h-1.4v2.7H675.2z M675.2,141.4v-2.9h-1.4v2.9H675.2z M676,137.7h1.4V135H676V137.7z M677.4,141.4v-2.9H676
						v2.9H677.4z M683.1,133.1v0.6c-0.4,1.3-0.7,2.4-1.2,3.5c0.8,1.2,1.2,2.2,1.3,3c0,0.6-0.2,1.1-0.4,1.3c-0.3,0.3-0.9,0.4-1.9,0.4
						l-0.3-0.9c0.3,0,0.6,0.1,0.8,0.1c0.4,0,0.7-0.1,0.8-0.2c0.1-0.1,0.2-0.3,0.2-0.7c0-0.7-0.5-1.7-1.3-3c0.4-0.9,0.8-2.1,1.1-3.3
						h-2.1v9.6h-0.8v-10.4L683.1,133.1L683.1,133.1z"/>
					<path style="fill:#868686;" d="M688,132.8c-0.3,0.9-0.7,1.8-1.2,2.7v8h-0.9v-6.7c-0.4,0.5-0.8,1-1.3,1.5l-0.3-0.9
						c1.3-1.4,2.2-3.1,2.8-5L688,132.8z M690,133.3c-0.1,0.6-0.2,1.2-0.4,1.7h1.8v-2.5h0.9v2.5h2.8v0.8h-2.8v2.9h3.2v0.8h-3.2v3.9
						h-0.9v-3.9h-3.5v-0.8h3.5v-2.9h-2c-0.3,0.8-0.7,1.5-1.1,2.1l-0.6-0.7c0.7-1.1,1.2-2.5,1.5-4.1L690,133.3z"/>
					<path style="fill:#868686;" d="M674.9,148.6c-0.1,0.4-0.2,0.8-0.4,1.2h2.3v0.8h-2.6c-0.3,0.8-0.7,1.6-1.1,2.2l-0.7-0.4
						c0.8-1.2,1.3-2.5,1.7-4L674.9,148.6z M676.7,152.2v0.8h-1.3v1.5h1.7v0.8h-1.7v2.8c0.6-0.2,1.2-0.5,1.8-0.8l0.1,0.8
						c-0.8,0.4-1.7,0.8-2.8,1.1l-0.4-0.7c0.3-0.1,0.4-0.2,0.4-0.4v-2.7h-1.7v-0.8h1.7V153h-0.8v-0.8H676.7z M683.5,149.2v0.8h-2.1
						v8.2c0,0.7-0.4,1.1-1.1,1.1h-1.7l-0.2-0.8c0.6,0,1.1,0.1,1.6,0.1c0.3,0,0.5-0.2,0.5-0.5v-8h-3.1v-0.8h6.1V149.2z"/>
					<path style="fill:#868686;" d="M686.9,148.6c-0.1,0.4-0.2,0.8-0.4,1.2h2.3v0.8h-2.6c-0.3,0.8-0.7,1.6-1.1,2.2l-0.7-0.4
						c0.8-1.2,1.3-2.5,1.7-4L686.9,148.6z M688.7,152.2v0.8h-1.3v1.5h1.7v0.8h-1.7v2.8c0.6-0.2,1.2-0.5,1.8-0.8l0.1,0.8
						c-0.8,0.4-1.7,0.8-2.8,1.1l-0.4-0.7c0.3-0.1,0.4-0.2,0.4-0.4v-2.7h-1.7v-0.8h1.7V153h-0.8v-0.8H688.7z M695.5,149.2v0.8h-2.1
						v8.2c0,0.7-0.4,1.1-1.1,1.1h-1.7l-0.2-0.8c0.6,0,1.1,0.1,1.6,0.1c0.3,0,0.5-0.2,0.5-0.5v-8h-3.1v-0.8h6.1V149.2z"/>
					<path style="fill:#868686;" d="M673.1,168.1l1.5,5l1.4-5h0.9l1.4,5l1.5-5h1.1l-2.1,6.2H678l-1.4-5l-1.5,5h-0.9l-2.1-6.2H673.1z
						"/>
					<path style="fill:#868686;" d="M686.6,168.9c0.5,0.6,0.7,1.5,0.7,2.5h-4.9c0,0.7,0.2,1.2,0.6,1.6c0.3,0.4,0.8,0.6,1.4,0.6
						c0.5,0,0.9-0.1,1.2-0.4c0.3-0.2,0.5-0.5,0.6-1h1c-0.1,0.6-0.4,1.1-0.8,1.5c-0.5,0.5-1.2,0.7-2,0.7c-0.9,0-1.6-0.3-2.1-0.9
						c-0.6-0.6-0.8-1.4-0.8-2.4c0-0.9,0.3-1.7,0.8-2.3s1.2-1,2.1-1C685.4,167.9,686.1,168.2,686.6,168.9z M683,169.2
						c-0.3,0.4-0.5,0.8-0.6,1.5h3.9c-0.1-1.3-0.8-2-2-2C683.8,168.7,683.4,168.9,683,169.2z"/>
					<path style="fill:#868686;" d="M689.4,165.5v3.7c0.5-0.9,1.2-1.3,2.1-1.3c0.9,0,1.6,0.3,2.1,1c0.5,0.6,0.7,1.3,0.7,2.3
						c0,0.9-0.2,1.7-0.7,2.3s-1.2,1-2.1,1c-1,0-1.6-0.4-2.1-1.2v1h-0.9v-8.7h0.9V165.5z M689.9,169.4c-0.4,0.4-0.5,1-0.5,1.8v0.1
						c0,0.7,0.2,1.3,0.5,1.7c0.3,0.5,0.8,0.7,1.5,0.7s1.2-0.3,1.5-0.7s0.4-1,0.4-1.8c0-0.7-0.2-1.3-0.5-1.7
						c-0.3-0.5-0.9-0.7-1.5-0.7C690.7,168.7,690.2,168.9,689.9,169.4z"/>
					<path style="fill:#868686;" d="M696.5,165.5v3.5c0.2-0.4,0.5-0.7,0.9-0.9c0.3-0.2,0.7-0.3,1.1-0.3c0.7,0,1.3,0.2,1.7,0.6
						c0.4,0.4,0.6,1,0.6,1.8v3.9h-1v-3.8c0-0.6-0.1-1-0.4-1.3c-0.3-0.3-0.7-0.5-1.2-0.5s-0.9,0.2-1.2,0.6c-0.3,0.4-0.5,0.9-0.5,1.5
						v3.5h-1v-8.7L696.5,165.5L696.5,165.5z"/>
					<path style="fill:#868686;" d="M707.2,168.9c0.5,0.6,0.8,1.4,0.8,2.3c0,0.9-0.3,1.7-0.8,2.3c-0.6,0.6-1.3,1-2.2,1
						s-1.7-0.3-2.2-1c-0.5-0.6-0.8-1.4-0.8-2.3c0-0.9,0.3-1.7,0.8-2.3c0.6-0.6,1.3-1,2.2-1S706.6,168.2,707.2,168.9z M703.4,169.5
						c-0.3,0.5-0.5,1-0.5,1.7s0.2,1.2,0.5,1.7c0.4,0.5,0.9,0.8,1.5,0.8s1.2-0.3,1.5-0.8s0.5-1,0.5-1.7s-0.2-1.3-0.5-1.7
						c-0.4-0.5-0.9-0.8-1.5-0.8C704.3,168.7,703.8,169,703.4,169.5z"/>
					<path style="fill:#868686;" d="M714.2,168.9c0.5,0.6,0.8,1.4,0.8,2.3c0,0.9-0.3,1.7-0.8,2.3c-0.6,0.6-1.3,1-2.2,1
						s-1.7-0.3-2.2-1c-0.5-0.6-0.8-1.4-0.8-2.3c0-0.9,0.3-1.7,0.8-2.3c0.6-0.6,1.3-1,2.2-1S713.6,168.2,714.2,168.9z M710.4,169.5
						c-0.3,0.5-0.5,1-0.5,1.7s0.2,1.2,0.5,1.7c0.4,0.5,0.9,0.8,1.5,0.8s1.2-0.3,1.5-0.8s0.5-1,0.5-1.7s-0.2-1.3-0.5-1.7
						c-0.4-0.5-0.9-0.8-1.5-0.8C711.3,168.7,710.8,169,710.4,169.5z"/>
					<path style="fill:#868686;" d="M717.2,165.5v5.4l3.1-2.9h1.3l-2.7,2.5l3,3.7h-1.2l-2.4-3.1l-1,0.9v2.2h-1v-8.7L717.2,165.5
						L717.2,165.5z"/>
				</g>
				<g>
					<circle style="fill:#868686;" cx="665.5" cy="105.5" r="1.5"/>
				</g>
				<g>
					<circle style="fill:#868686;" cx="665.5" cy="121.5" r="1.5"/>
				</g>
				<g>
					<circle style="fill:#868686;" cx="665.5" cy="137.5" r="1.5"/>
				</g>
				<g>
					<circle style="fill:#868686;" cx="665.5" cy="153.5" r="1.5"/>
				</g>
				<g>
					<circle style="fill:#868686;" cx="665.5" cy="169.5" r="1.5"/>
				</g>
			</g>
		</g>
		<g>
			<g>
				<g>
					<rect x="646" y="201" style="opacity:0.6;fill:#BBBBBB;enable-background:new    ;" width="164" height="134"/>
					<g>
						<rect x="644.5" y="199.5" style="fill:#FFFFFF;" width="163" height="133"/>
						<path style="fill:#E5E5E5;" d="M807,200v132H645V200H807 M808,199H644v134h164V199L808,199z"/>
					</g>
				</g>
				<g transform="translate(20 9)">
					<g style="enable-background:new    ;">
						<path style="fill:#444444;" d="M677.9,211.3c0,1.4-0.2,2.7-0.5,4l-0.8-0.2c0.3-1.2,0.5-2.5,0.5-3.8H677.9z M679.6,208.6v12.7
							h-1v-12.7H679.6z M681.6,214l-0.8,0.2c-0.3-1-0.6-2.1-1-3l0.8-0.2C681,211.8,681.3,212.9,681.6,214z M684.1,210.7v-2.1h1v2.1
							h3v4.2h1.1v1h-3.8c0.9,1.9,2.3,3.4,4.1,4.6l-0.7,0.8c-1.9-1.3-3.3-2.9-4.2-4.9c-0.6,2.2-1.9,3.9-3.7,4.9l-0.6-0.8
							c1.8-1,3-2.5,3.5-4.6h-2.7v-1h2.9c0.1-0.6,0.2-1.3,0.2-2.1v-1.2h-2.5v-0.9H684.1z M685.1,212.6c0,0.8-0.1,1.6-0.2,2.3h2.2
							v-3.3h-2V212.6z"/>
						<path style="fill:#444444;" d="M697.4,221.1c-0.9,0-1.6-0.1-2.2-0.3c-0.6-0.2-1.1-0.5-1.5-1c-0.2-0.2-0.4-0.3-0.5-0.3
							c-0.3,0-0.9,0.6-1.6,1.9l-0.8-0.7c0.7-1.2,1.4-1.9,1.9-2.1v-4.3h-2v-0.9h2.9v5.2c0.1,0.1,0.2,0.2,0.4,0.3
							c0.3,0.4,0.7,0.7,1.1,0.9c0.4,0.2,1.1,0.3,1.9,0.3c0.7,0,1.7,0,2.8,0c0.7,0,1.3,0,2,0s1.2,0,1.6-0.1l-0.3,1h-3.2
							C699.2,221.1,698.3,221.1,697.4,221.1z M694.2,211l-0.7,0.7c-0.6-0.7-1.4-1.4-2.4-2.2l0.7-0.7
							C692.7,209.5,693.5,210.2,694.2,211z M698.5,209.7v-1.1h0.9v1.1h3.5v0.9h-3.5v1.2h3.1v3.6h-3.1v4.3h-0.9v-3.9
							c-0.7,1.2-1.8,2.3-3.3,3.2l-0.6-0.8c1.5-0.8,2.6-1.7,3.3-2.8h-2.4v-3.6h3.1v-1.2H695v-0.9H698.5z M698.5,212.7h-2.1v1.8h2.1
							V212.7z M701.6,212.7h-2.1v1.8h2.1V212.7z M703.1,218.2l-0.7,0.7c-0.6-0.8-1.4-1.6-2.5-2.5l0.7-0.6
							C701.6,216.6,702.4,217.4,703.1,218.2z"/>
						<path style="fill:#444444;" d="M704.9,221.3l-0.2-1c0.4,0,0.8,0.1,1.2,0.1s0.6-0.2,0.6-0.5v-3.3c-0.5,0.2-1,0.4-1.5,0.6
							l-0.2-1c0.6-0.2,1.2-0.3,1.8-0.6v-3.3h-1.5v-1h1.5v-2.6h1v2.6h1.2v1h-1.2v2.9c0.5-0.2,0.9-0.4,1.4-0.7v1
							c-0.4,0.2-0.9,0.5-1.4,0.7v4c0,0.8-0.4,1.2-1.2,1.2L704.9,221.3L704.9,221.3z M712.2,208.6v12.8h-1v-3.1h-2.8v-0.9h2.8V215h-2
							v-1h2v-2.3H709v-0.9h2.2v-2.2H712.2z M714.9,208.6v2.2h2.4v0.9h-2.4v2.3h2.1v0.9h-2.1v2.4h2.5v0.9h-2.5v3.1h-1v-12.8h1V208.6z
							"/>
						<path style="fill:#444444;" d="M724.5,209.8v-1.3h1v1.3h5.3v0.9h-4.3c1.1,1,2.7,1.8,4.9,2.4L731,214c-2.5-0.9-4.3-2-5.3-3.3
							h-0.1v2.6h-1v-2.6h-0.1c-1.1,1.3-2.9,2.5-5.3,3.3l-0.5-0.9c2.2-0.6,3.9-1.5,5-2.5h-4.3v-0.9h5.1V209.8z M731,220.1v0.9h-12
							v-0.9H731z M729.2,213.8v5.2h-8.4v-5.2H729.2z M728.2,216v-1.3h-6.4v1.3H728.2z M728.2,216.8h-6.4v1.2h6.4V216.8z"/>
					</g>
				</g>
			</g>
			<rect x="664" y="249" style="fill:#B9B9B9;" width="126" height="1"/>
			<g>
				<g>
					<path style="fill:#868686;" d="M681.8,273.4h-0.9v-0.9h-5.7v0.9h-0.9V263h7.4v10.4H681.8z M680.9,267.2v-3.4h-5.7v3.4H680.9z
						 M680.9,271.7V268h-5.7v3.6h5.7V271.7z"/>
					<path style="fill:#868686;" d="M686.5,269.2c-0.3,1.4-0.7,2.6-1.2,3.6l-0.7-0.5c0.5-1,0.8-2.1,1.1-3.3L686.5,269.2z
						 M690.4,262.4v1.6h4.7v0.8h-4.7v1.8h3.9v0.8h-8.7v-0.8h3.9v-1.8h-4.7V264h4.7v-1.6H690.4z M688.6,273.2c-0.8,0-1.2-0.4-1.2-1.3
						v-3.3h0.9v3.2c0,0.4,0.2,0.6,0.6,0.6h2.6c0.3,0,0.5-0.1,0.6-0.3c0.2-0.2,0.3-0.8,0.3-1.8l0.8,0.3c-0.1,1.2-0.3,2-0.5,2.2
						s-0.6,0.3-1.1,0.3L688.6,273.2L688.6,273.2z M691.3,270.7l-0.8,0.3c-0.3-0.9-0.7-1.7-1.1-2.4l0.8-0.3
						C690.7,269.1,691,269.8,691.3,270.7z M695.4,272l-0.8,0.3c-0.5-1.3-1-2.5-1.5-3.5l0.8-0.3C694.5,269.7,695,270.8,695.4,272z"/>
					<path style="fill:#868686;" d="M700.4,262.5v5.2c0,2.6-1,4.6-2.9,5.8l-0.6-0.6c1.8-1.1,2.7-2.8,2.7-5.2v-5.2L700.4,262.5
						L700.4,262.5z M697.9,263.6v5.9H697v-5.9H697.9z M706.9,263.4v9.8H706v-0.7h-5.2v-0.9h5.2v-3.4h-4.7v-0.8h4.7v-3.2h-5v-0.8
						H706.9z"/>
					<path style="fill:#868686;" d="M711.3,262.8c-0.6,1.5-1.2,2.8-1.7,3.7c0.5-0.1,1-0.1,1.5-0.2l0.7-1.4l0.8,0.3
						c-1.1,2.1-1.9,3.6-2.6,4.5c0.8-0.2,1.6-0.4,2.4-0.7v0.7c-1.2,0.5-2.3,0.8-3.4,0.9l-0.2-0.8c0.2-0.1,0.3-0.1,0.4-0.3
						c0.4-0.5,1-1.3,1.6-2.5l-1.9,0.3l-0.2-0.8c0.1-0.1,0.3-0.2,0.4-0.3c0.6-1.1,1.1-2.3,1.5-3.7L711.3,262.8z M712.4,271.9
						c-1.1,0.4-2.3,0.8-3.7,1.1l-0.1-0.8c1.5-0.3,2.7-0.6,3.8-1.1V271.9z M717,273.4l-0.2-0.8h1c0.3,0,0.5-0.2,0.5-0.5v-6.9h-1.8
						c0,0.5-0.1,1-0.2,1.4c0.7,1.3,1.3,2.4,1.7,3.4l-0.7,0.5c-0.3-0.9-0.8-1.8-1.3-2.9c-0.3,1.2-0.8,2.1-1.5,3L714,270
						c0.7-0.9,1.2-2,1.4-3.3c0.1-0.4,0.1-0.9,0.2-1.4h-1.8v8.2H713v-9.1h2.7c0-0.6,0-1.3,0-2h0.8c0,0.7,0,1.4,0,2h2.6v7.9
						c0,0.7-0.3,1.1-1,1.1L717,273.4L717,273.4z"/>
					<path style="fill:#868686;" d="M723.5,271.8c0.4,0.4,0.7,0.8,1,1.2l-0.6,0.5c-0.3-0.4-0.6-0.8-1-1.2c-0.4-0.5-0.9-0.9-1.3-1.2
						l0.5-0.5C722.5,270.9,723,271.3,723.5,271.8z"/>
					<path style="fill:#868686;" d="M735.5,268c0.4-1.1,0.7-2.3,0.8-3.5H733v-0.8h4.1v0.6c-0.1,1.6-0.4,3.1-1,4.5
						c0.5,0.7,1,1.4,1.4,2l-0.6,0.6c-0.4-0.6-0.8-1.2-1.2-1.8c-0.7,1.2-1.5,2.2-2.7,3.1l-0.5-0.8c1.1-0.9,2-1.9,2.6-3.1
						c-0.7-0.9-1.4-1.8-2.3-2.8l0.6-0.5C734.2,266.4,734.9,267.2,735.5,268z M740.2,269.7l-0.7,0.5c-0.5-0.8-1.1-1.7-1.8-2.6
						l0.7-0.5C739.2,268,739.8,268.9,740.2,269.7z M741.2,264.8v-2.4h0.9v2.4h1.3v0.8h-1.3v6.6c0,0.8-0.4,1.2-1.2,1.2H739l-0.2-0.9
						c0.6,0,1.2,0.1,1.8,0.1c0.4,0,0.7-0.2,0.7-0.6v-6.4h-3.5v-0.8L741.2,264.8L741.2,264.8z"/>
					<path style="fill:#868686;" d="M745.2,272.5c0.2-0.1,0.3-0.3,0.3-0.5v-9.3h0.9v3.3h3.1v0.8h-3.1v5.4c1.1-0.2,2.1-0.5,3.1-0.9
						l0.2,0.8c-1.3,0.4-2.7,0.8-4.3,1.1L745.2,272.5z M751.2,271.8c0,0.3,0.2,0.5,0.5,0.5h1.8c0.2,0,0.4-0.1,0.6-0.2
						c0.2-0.2,0.3-0.9,0.4-2.1l0.8,0.3c-0.1,1.4-0.3,2.2-0.5,2.5c-0.2,0.2-0.6,0.4-1,0.4h-2.3c-0.8,0-1.2-0.4-1.2-1.2v-9.3h0.9v3.8
						c1.2-0.3,2.3-0.8,3.4-1.4l0.5,0.7c-1.4,0.7-2.7,1.2-3.9,1.5V271.8z"/>
					<path style="fill:#868686;" d="M675.6,285.7c0-0.3,0-0.8,0-1.3h0.9c0,0.6,0,1.1,0,1.3h3.2v-1.3h0.9v1.3h3v0.8h-3v2.9h-0.9v-2.9
						h-3.3c-0.3,1.4-1.2,2.4-2.7,2.9l-0.5-0.7c1.3-0.4,2-1.1,2.3-2.2h-3v-0.8L675.6,285.7L675.6,285.7z M681.6,281.8h-6.9v0.8
						c0,0.4,0.2,0.6,0.6,0.6h6.3c0.3,0,0.4-0.1,0.5-0.2s0.1-0.5,0.2-1l0.8,0.3c0,0.6-0.1,0.9-0.2,1.2c-0.2,0.4-0.5,0.5-1,0.6H675
						c-0.8,0-1.2-0.4-1.2-1.1v-3.9h7.7L681.6,281.8L681.6,281.8z M680.7,281v-1.3h-6v1.3H680.7z"/>
					<path style="fill:#868686;" d="M690.4,278.4v1.8h1.5c0.4-0.5,0.7-1.1,1-1.7l0.8,0.3c-0.3,0.5-0.6,1-0.9,1.4h2.1v2.4H694V281
						h-8.2v1.6H685v-2.4h2c-0.2-0.5-0.5-0.9-0.8-1.3l0.8-0.3c0.3,0.4,0.6,1,0.9,1.6h1.7v-1.8H690.4z M686.9,284.6V282h6.2v2.6h-2.7
						v1h3.8v2.2c0,0.7-0.4,1.1-1.1,1.1h-1L692,288h0.9c0.3,0,0.5-0.2,0.5-0.5v-1.2h-3v3.1h-0.9v-3.1h-2.9v2.5h-0.9v-3.3h3.8v-1h-2.6
						V284.6z M692.3,282.7h-4.5v1.2h4.5V282.7z"/>
					<path style="fill:#868686;" d="M698.2,280.8v-2.3h0.9v2.3h1.2v0.8h-1.2v0.6c0.5,0.5,1,1.1,1.5,1.8l-0.5,0.7
						c-0.4-0.7-0.7-1.2-1-1.7v6.3h-0.9v-5.9c-0.4,1.2-0.9,2.3-1.5,3.3l-0.4-0.9c0.8-1.2,1.5-2.6,1.8-4.2h-1.5v-0.8L698.2,280.8
						L698.2,280.8z M700.6,283.2l-0.5-0.7c1.4-1,2.5-2.4,3.3-4h0.8c0.6,1.5,1.8,2.8,3.3,4l-0.5,0.7c-0.5-0.4-1-0.8-1.4-1.2v0.7H702
						V282C701.6,282.5,701.1,282.9,700.6,283.2z M704.6,288.3c0.5-1.3,0.9-2.9,1.3-4.7l0.8,0.2c-0.3,1.7-0.8,3.2-1.3,4.5h1.9v0.8
						h-6.9v-0.8H704.6z M702.7,287.4l-0.8,0.2c-0.2-1.2-0.5-2.3-0.9-3.4l0.7-0.3C702.1,284.9,702.4,286,702.7,287.4z M703.9,279.3
						c-0.5,1-1.1,1.9-1.8,2.6h3.6C704.9,281.2,704.3,280.3,703.9,279.3z M704.5,286.8l-0.8,0.2c-0.2-1.2-0.5-2.3-0.8-3.3l0.7-0.2
						C704,284.4,704.2,285.5,704.5,286.8z"/>
					<path style="fill:#868686;" d="M710.7,283.4l-0.6,0.6c-0.4-0.5-1-1.1-1.7-1.7l0.6-0.6C709.8,282.2,710.3,282.8,710.7,283.4z
						 M710.9,285.2c-0.5,1.5-1,2.8-1.5,4.1l-0.8-0.3c0.6-1.3,1.1-2.7,1.6-4.1L710.9,285.2z M711,280.3l-0.6,0.6
						c-0.4-0.5-1-1-1.7-1.6l0.6-0.6C710,279.3,710.5,279.8,711,280.3z M713.8,280.6v3.8c0,1.4-0.2,2.5-0.6,3.3
						c-0.4,0.7-1,1.3-1.9,1.8l-0.5-0.7c0.9-0.4,1.5-0.9,1.8-1.6s0.5-1.6,0.5-2.7v-3.8L713.8,280.6L713.8,280.6z M715.5,286.4h-0.8
						v-6.6h-2.5v6.6h-0.8V279h4L715.5,286.4L715.5,286.4z M716,288.9l-0.6,0.6c-0.4-0.6-1-1.3-1.8-2l0.5-0.5
						C714.9,287.6,715.5,288.2,716,288.9z M717.2,279.5v7.5h-0.8v-7.5H717.2z M716.8,289.4l-0.2-0.8c0.4,0,0.8,0.1,1.2,0.1
						c0.3,0,0.4-0.2,0.4-0.5v-9.6h0.8v9.8c0,0.7-0.3,1-0.9,1H716.8z"/>
					<path style="fill:#868686;" d="M673.3,305.5l-0.5-0.7c2.2-0.6,3.8-1.4,4.7-2.3c0.1-0.2,0.3-0.3,0.4-0.5h-5v-0.8h5.4
						c0.3-0.7,0.5-1.6,0.5-2.5v-1.4h0.8v1.4c0,0.9-0.2,1.8-0.4,2.5h3.9v0.8h-4.2c-0.1,0.2-0.2,0.4-0.3,0.5c1.7,0.7,3.3,1.5,4.7,2.4
						l-0.5,0.7c-1.5-1-3.1-1.8-4.7-2.5C677.1,304.1,675.5,304.9,673.3,305.5z M682.9,298H682v-1.5h-8.1v1.5h-0.8v-2.3h4.6
						c-0.1-0.4-0.3-0.8-0.5-1.1l0.9-0.1c0.2,0.4,0.3,0.8,0.5,1.2h4.3V298z M676.9,300.1l-0.4,0.7c-0.8-0.6-1.6-1-2.4-1.4l0.4-0.6
						C675.4,299.1,676.2,299.6,676.9,300.1z M678.1,298.4l-0.4,0.7c-0.8-0.6-1.6-1.1-2.5-1.4l0.4-0.6
						C676.5,297.4,677.3,297.9,678.1,298.4z"/>
					<path style="fill:#868686;" d="M688.4,304.2h-0.8v-0.8h-1.8v1.1H685v-9.1h3.5L688.4,304.2L688.4,304.2z M687.6,298.9v-2.7h-1.8
						v2.7H687.6z M687.6,302.6v-2.9h-1.8v2.9H687.6z M690.8,305.3l-0.2-0.8c0.7,0,1.4,0,2,0c0.3,0,0.5-0.2,0.5-0.6v-6.5H689v-0.8
						h4.1v-2.1h0.9v2.1h1.5v0.8H694v6.7c0,0.8-0.4,1.1-1.1,1.1L690.8,305.3L690.8,305.3z M691.9,301.9l-0.7,0.5
						c-0.4-0.9-1-1.9-1.7-3l0.7-0.4C690.9,300.1,691.5,301.1,691.9,301.9z"/>
					<path style="fill:#868686;" d="M705.1,294.6c-0.3,0.9-0.6,1.6-1.1,2.3h2.5v0.8h-4v0.6c0,0.6-0.1,1.2-0.2,1.7h4.9v0.8h-4.4
						c0.6,1.6,2.1,2.9,4.7,3.8l-0.5,0.8c-2.6-1.1-4.3-2.5-4.9-4.3c-0.2,0.7-0.5,1.3-0.9,1.8c-0.8,1.1-2.1,1.9-4,2.5l-0.5-0.8
						c1.8-0.6,3.1-1.4,3.8-2.3c0.3-0.4,0.5-0.9,0.7-1.4h-4.3V300h4.5c0.1-0.5,0.2-1.1,0.2-1.7v-0.6h-4V297h5.5
						c0.5-0.7,0.9-1.5,1.2-2.6L705.1,294.6z M701.1,296.6l-0.8,0.4c-0.4-0.8-0.9-1.5-1.4-2.1l0.8-0.4
						C700.2,295.1,700.7,295.8,701.1,296.6z"/>
					<path style="fill:#868686;" d="M713.3,295v0.8h-0.8v6.6c0.3-0.1,0.5-0.2,0.8-0.3v0.8c-0.3,0.1-0.5,0.2-0.8,0.2v2.4h-0.8v-2.1
						c-1,0.2-1.9,0.5-3,0.7l-0.2-0.8l0.8-0.1v-7.4h-0.7V295H713.3z M711.7,297.5v-1.8h-1.6v1.8H711.7z M711.7,300v-1.7h-1.6v1.7
						H711.7z M711.7,302.6v-1.8h-1.6v2.1C710.7,302.8,711.2,302.7,711.7,302.6z M716.5,297.1c0.5-0.8,0.9-1.7,1.2-2.6l0.8,0.3
						c-0.4,0.9-0.7,1.7-1.1,2.3h1.8v0.8h-2.5v0.4c0,0.6,0,1.2-0.1,1.7h2.8v0.8h-2.5c0.3,1.3,1.2,2.7,2.7,4l-0.6,0.6
						c-1.4-1.4-2.2-2.7-2.6-4.1c-0.5,1.8-1.4,3.2-2.8,4.1l-0.5-0.7c1.3-0.8,2.2-2.2,2.6-4h-2.3V300h2.4c0-0.5,0.1-1,0.1-1.5v-0.6
						h-2.4v-0.8H716.5z M715.8,296.4l-0.6,0.4c-0.3-0.6-0.6-1.2-1.1-1.9l0.7-0.4C715.2,295.3,715.6,295.9,715.8,296.4z"/>
					<path style="fill:#868686;" d="M725.1,295.2c-0.6,1-1.1,1.8-1.7,2.4c-0.6,0.7-1.4,1.4-2.4,2.1l-0.5-0.8
						c0.8-0.5,1.6-1.1,2.2-1.8c0.6-0.7,1.1-1.5,1.6-2.4L725.1,295.2z M722.3,300.1v-0.8h7.2c0,1.5-0.1,2.7-0.2,3.6
						c-0.1,0.9-0.3,1.6-0.6,1.9s-0.7,0.5-1.3,0.6h-2.2l-0.2-0.9c0.7,0,1.4,0,2,0s1.1-0.3,1.3-0.8c0.2-0.6,0.3-1.8,0.4-3.7h-3
						c-0.3,1.3-0.7,2.4-1.2,3.1c-0.6,0.9-1.5,1.6-2.8,2.3l-0.6-0.7c1.1-0.6,1.9-1.3,2.5-2c0.5-0.7,0.9-1.6,1.1-2.7h-2.4V300.1z
						 M731.4,298.9l-0.6,0.7c-1.9-1.2-3.2-2.7-3.9-4.6l0.7-0.4C728.4,296.4,729.6,297.9,731.4,298.9z"/>
					<path style="fill:#868686;" d="M735.3,305.4h-0.9v-6.1c-0.4,1.2-0.9,2.3-1.6,3.3l-0.4-0.9c0.9-1.2,1.6-2.5,1.9-4h-1.7v-0.8h1.8
						v-2.4h0.9v2.4h1.6v0.8h-1.6v0.6c0.6,0.6,1.1,1.2,1.7,2l-0.5,0.7c-0.5-0.7-0.9-1.3-1.3-1.8L735.3,305.4L735.3,305.4z M743,295.3
						c-1.4,0.5-2.9,0.8-4.6,0.9v2.2h4.9v0.8h-1.8v6.3h-0.9v-6.3h-2.2v0.1c-0.1,2.6-0.7,4.6-1.8,6.1l-0.6-0.6c1-1.3,1.5-3.1,1.6-5.5
						v-3.9c1.8,0,3.5-0.3,5-0.9L743,295.3z"/>
					<path style="fill:#868686;" d="M682,321.5h-0.9v-0.7h-6.3v0.7H674v-9.6h2.6c0.3-0.5,0.5-1,0.6-1.5l0.9,0.1
						c-0.1,0.5-0.3,0.9-0.6,1.3h4.6L682,321.5L682,321.5z M681.2,314.5v-1.8h-6.3v1.8H681.2z M681.2,317.1v-1.8h-6.3v1.8H681.2z
						 M681.2,319.9v-2h-6.3v2H681.2z"/>
					<path style="fill:#868686;" d="M687,314.9v0.1c-0.1,2.7-0.7,4.8-1.8,6.4l-0.6-0.6c1-1.4,1.5-3.3,1.6-5.7v-3.7
						c3,0,5.7-0.3,8.1-0.8l0.4,0.7c-2.3,0.4-4.8,0.7-7.6,0.8v2h7.2v0.8c-0.5,1.5-1.3,2.9-2.5,4c1,0.7,2.3,1.4,3.7,1.9l-0.5,0.8
						c-1.6-0.6-2.9-1.3-3.9-2.1c-1.1,0.9-2.5,1.6-4.1,2.1l-0.5-0.7c1.5-0.5,2.8-1.2,3.9-2c-1.3-1.1-2.1-2.4-2.6-3.9L687,314.9
						L687,314.9z M693.4,314.9h-4.7c0.4,1.3,1.2,2.4,2.4,3.4C692.1,317.3,692.9,316.2,693.4,314.9z"/>
					<path style="fill:#868686;" d="M697,315.8l-0.5-0.7c0.8-1.1,1.3-2.7,1.6-4.6l0.8,0.1c-0.1,0.6-0.2,1.2-0.4,1.8h2.2v0.7
						c-0.3,0.7-0.6,1.3-1,1.8l-0.6-0.5c0.3-0.4,0.5-0.8,0.7-1.2h-1.5C697.9,314.3,697.5,315.1,697,315.8z M699,314.9v5.2
						c0.5-0.3,1-0.6,1.5-1.1l0.2,0.8c-0.7,0.6-1.5,1.1-2.4,1.4l-0.3-0.7c0.2-0.1,0.3-0.3,0.3-0.5v-5.1L699,314.9L699,314.9z
						 M704.3,317v1.2c0,0.9-0.3,1.6-0.9,2.2c-0.5,0.5-1.4,0.9-2.6,1.2l-0.5-0.7c1.2-0.2,2-0.6,2.4-1s0.6-1,0.7-1.7V317H704.3z
						 M703.6,311.1v-0.7h0.8v0.7h2.3v2.4h-2.3v0.8h2.9v0.7h-6.6v-0.7h2.9v-0.8h-2.2v-2.4H703.6z M706.6,319.3h-0.8v-2.8h-3.6v2.8
						h-0.8v-3.6h5.2L706.6,319.3L706.6,319.3z M703.6,311.8h-1.5v1h1.5V311.8z M707.4,320.8l-0.5,0.7c-0.8-0.6-1.7-1.1-2.5-1.5
						l0.4-0.6C705.8,319.8,706.6,320.2,707.4,320.8z M705.9,311.8h-1.5v1h1.5V311.8z"/>
					<path style="fill:#868686;" d="M717.2,314.8v0.8c-0.8,0.5-1.7,1-2.7,1.5v0.6h4.6v0.8h-4.6v2c0,0.6-0.3,1-1,1H712l-0.2-0.8
						c0.4,0,0.9,0,1.4,0c0.3,0,0.4-0.2,0.4-0.5v-1.7h-4.9v-0.8h4.9v-1c1-0.4,1.8-0.8,2.3-1.1h-5.2v-0.8H717.2z M719.1,315.6h-0.9
						v-1.9h-8.4v1.9H709v-2.7h6.9c0.5-0.8,1-1.6,1.4-2.5l0.9,0.3c-0.4,0.9-0.9,1.6-1.3,2.2h2.3v2.7H719.1z M711.9,312.5l-0.7,0.4
						c-0.4-0.7-0.8-1.3-1.3-1.9l0.8-0.4C711.1,311.2,711.5,311.8,711.9,312.5z M714.7,312.3l-0.8,0.4c-0.4-0.7-0.7-1.4-1.2-2
						l0.8-0.4C713.9,311,714.3,311.6,714.7,312.3z"/>
					<path style="fill:#868686;" d="M727.9,316.9c-1.7,1.1-3.8,2-6.3,2.8l-0.3-0.8c2.5-0.8,4.6-1.7,6.4-2.8L727.9,316.9z
						 M726.2,320.6c0.7,0,1.3,0,2,0c0.4,0,0.6-0.2,0.8-0.5s0.3-1.1,0.3-2.4c0-0.8,0-2.7,0.1-5.7h-7.8v-0.8h8.7
						c-0.1,4-0.1,6.3-0.2,7.1c0,1.2-0.2,2-0.4,2.4s-0.7,0.6-1.3,0.6c-0.5,0-1.2,0-1.9,0L726.2,320.6z M725.4,315.5l-0.6,0.6
						c-0.6-0.7-1.5-1.5-2.5-2.3l0.6-0.6C723.9,314,724.7,314.7,725.4,315.5z"/>
				</g>
				<g>
					<circle style="fill:#868686;" cx="665.5" cy="267.5" r="1.5"/>
				</g>
				<g>
					<circle style="fill:#868686;" cx="665.5" cy="283.5" r="1.5"/>
				</g>
				<g>
					<circle style="fill:#868686;" cx="665.5" cy="299.5" r="1.5"/>
				</g>
				<g>
					<circle style="fill:#868686;" cx="665.5" cy="315.5" r="1.5"/>
				</g>
			</g>
		</g>
		<g>
			<g>
				<g>
					<rect x="646" y="347" style="opacity:0.6;fill:#BBBBBB;enable-background:new    ;" width="164" height="118"/>
					<g>
						<rect x="644.5" y="345.5" style="fill:#FFFFFF;" width="163" height="117"/>
						<path style="fill:#E5E5E5;" d="M807,346v116H645V346H807 M808,345H644v118h164V345L808,345z"/>
					</g>
				</g>
				<g transform="translate(20 9)">
					<g style="enable-background:new    ;">
						<path style="fill:#444444;" d="M687.7,367.4h-1v-0.9h-7.4v0.9h-1v-11.2h3c0.3-0.6,0.5-1.1,0.7-1.7l1,0.1
							c-0.2,0.6-0.4,1.1-0.7,1.6h5.4V367.4z M686.7,359.3v-2.1h-7.4v2.1H686.7z M686.7,362.3v-2.1h-7.4v2.1H686.7z M686.7,365.6
							v-2.3h-7.4v2.3H686.7z"/>
						<path style="fill:#444444;" d="M696.9,359.3v1h-3.2c-0.6,2.1-1.1,3.6-1.5,4.6c1.1-0.2,2.2-0.5,3.3-1c-0.4-0.8-0.7-1.4-1.1-2.1
							l0.9-0.4c0.7,1.2,1.3,2.5,1.9,3.9l-0.9,0.4c-0.1-0.4-0.3-0.7-0.4-1c-1.5,0.5-3.1,1-4.8,1.3l-0.2-1c0.1,0,0.2-0.1,0.2-0.1
							c0.4-0.6,1-2.1,1.7-4.7h-1.9v-1h6V359.3z M696.3,355.5v1h-5.1v-1H696.3z M700,354.6v2.8h3.1c0,4.4-0.1,7.1-0.2,8.1
							c-0.1,1.1-0.8,1.7-2,1.7c-0.2,0-0.6,0-1.2,0l-0.2-0.9c0.5,0,1,0.1,1.3,0.1c0.7,0,1.1-0.4,1.2-1.2c0.1-0.7,0.1-3,0.2-6.8H700
							v0.2c0,4-1,7-2.9,8.9l-0.8-0.7c1.8-1.7,2.6-4.4,2.7-8.2v-0.2h-1.9v-1h1.9v-2.8H700z"/>
						<path style="fill:#444444;" d="M707.5,358.8v5.8c0.3-0.3,0.7-0.6,1.1-1l0.3,1c-0.7,0.7-1.4,1.3-2.2,1.9l-0.4-0.9
							c0.2-0.2,0.3-0.3,0.3-0.6v-5.3h-1.9v-1h2.8V358.8z M708.5,356.8l-0.7,0.7c-0.6-0.7-1.3-1.4-2.2-2.1l0.7-0.7
							C707.2,355.4,707.9,356.1,708.5,356.8z M716.9,366.1c0,0.8-0.4,1.2-1.3,1.2h-1.3l-0.2-0.9c0.5,0,0.9,0,1.3,0
							c0.4,0,0.6-0.2,0.6-0.7V356h-5.7v6.8c0,1.9-0.4,3.4-1.2,4.6l-0.7-0.7c0.7-1,1-2.3,1-3.9v-7.7h7.6L716.9,366.1L716.9,366.1z
							 M712.6,357.7v-1.1h1v1.1h1.6v0.8h-1.6v1.3h1.9v0.8h-4.7v-0.8h1.8v-1.3H711v-0.8H712.6z M715,361.7v3.6h-3.7v-3.6H715z
							 M714.1,362.5h-2v1.9h2V362.5z"/>
						<path style="fill:#444444;" d="M721.5,356.8V356h-2.8v-0.8h2.8v-0.7h0.9v0.7h2.6v0.8h-2.6v0.8h2.3v2.4h-2.3v0.2
							c0.8,0.3,1.7,0.7,2.5,1.1l-0.5,0.8c-0.8-0.5-1.5-1-2-1.2v1.4h-0.9V360c-0.8,0.7-1.7,1.3-2.5,1.7l-0.4-0.8c1-0.3,2-0.9,3-1.6
							h-2.2v-2.4h2.1V356.8z M719.5,362.9V362h11.1v0.9h-5.1v1.2h4.3v0.9h-4.3v1.2h5.8v0.9h-12.4v-0.9h2.2v-2.6h0.9v2.6h2.5v-3.3
							L719.5,362.9L719.5,362.9z M721.5,357.5h-1.4v1.1h1.4V357.5z M723.9,357.5h-1.4v1.1h1.4V357.5z M726.1,358
							c-0.2,0.3-0.4,0.5-0.6,0.8l-0.6-0.7c0.9-1,1.5-2.1,1.8-3.5l0.9,0.1c-0.1,0.4-0.2,0.8-0.3,1.1h3.8v0.9h-0.8
							c-0.2,1.3-0.6,2.3-1.3,3.1l-0.1,0.1c0.7,0.4,1.5,0.8,2.4,1.1l-0.5,0.8c-1-0.3-1.8-0.7-2.5-1.3c-0.7,0.5-1.6,0.9-2.7,1.2
							l-0.4-0.8c1-0.3,1.7-0.6,2.3-1C726.9,359.2,726.4,358.6,726.1,358z M726.6,357.1c0.4,0.8,0.9,1.5,1.6,2l0.1-0.1
							c0.5-0.6,0.9-1.5,1.1-2.5h-2.5C726.8,356.8,726.7,357,726.6,357.1z"/>
					</g>
				</g>
			</g>
			<rect x="664" y="395" style="fill:#B9B9B9;" width="126" height="1"/>
			<g>
				<g>
					<path style="fill:#868686;" d="M676.5,414.1c-0.4,0.2-0.9,0.4-1.3,0.6v3.6c0,0.7-0.4,1.1-1.1,1.1H673l-0.2-0.8c0.3,0,0.7,0,1,0
						s0.5-0.2,0.5-0.5v-3c-0.5,0.2-1.1,0.4-1.6,0.6l-0.2-0.9c0.6-0.2,1.2-0.3,1.8-0.6v-2.7h-1.6v-0.8h1.6v-2.2h0.9v2.2h1.3v0.8h-1.3
						v2.4c0.5-0.2,0.9-0.4,1.3-0.7V414.1z M681,410.2h2.4v0.8H678v2.6c0,2.4-0.6,4.4-1.8,5.8l-0.7-0.6c1-1.3,1.5-3,1.6-5.2v-3.5h2.9
						c-0.2-0.6-0.4-1.1-0.7-1.6l0.9-0.1C680.6,408.9,680.8,409.5,681,410.2z"/>
					<path style="fill:#868686;" d="M690.3,412.2c1,1.2,2.7,2.3,5,3.2l-0.5,0.7c-0.5-0.2-0.9-0.4-1.3-0.6v3.9h-0.8V419h-5.4v0.5
						h-0.8v-4c-0.5,0.2-1,0.4-1.5,0.6l-0.5-0.7c2.2-0.8,3.9-1.9,5.1-3.2L690.3,412.2L690.3,412.2z M689.1,411.3
						c-1,0.9-2.3,1.7-3.8,2.3l-0.5-0.7c1.5-0.6,2.7-1.3,3.7-2.2L689.1,411.3z M690.5,409.5h4.4v2.1h-0.8v-1.3H686v1.4h-0.8v-2.2h4.6
						c-0.1-0.3-0.3-0.6-0.4-0.9l0.9-0.2C690.3,408.7,690.4,409.1,690.5,409.5z M693.4,415.5c-1.5-0.7-2.6-1.6-3.4-2.5
						c-1,1-2.1,1.8-3.4,2.5H693.4z M692.7,418.2v-1.9h-5.4v1.9H692.7z M695,413l-0.6,0.6c-0.9-0.7-2.1-1.5-3.6-2.3l0.6-0.5
						C692.8,411.5,694.1,412.3,695,413z"/>
					<path style="fill:#868686;" d="M699.5,417.8c0.4,0.4,0.7,0.8,1,1.2l-0.6,0.5c-0.3-0.4-0.6-0.8-1-1.2c-0.4-0.5-0.9-0.9-1.3-1.2
						l0.5-0.5C698.5,416.9,699,417.3,699.5,417.8z"/>
					<path style="fill:#868686;" d="M711.3,408.8c-0.6,1.6-1.1,2.8-1.7,3.7c0.5-0.1,1-0.2,1.5-0.3c0.2-0.4,0.4-0.8,0.6-1.2l0.8,0.3
						c-1,2-1.8,3.5-2.4,4.3c0.7-0.2,1.4-0.4,2-0.7v0.8c-1.1,0.4-2.1,0.7-3.1,0.9l-0.2-0.8c0.2-0.1,0.3-0.2,0.4-0.3
						c0.4-0.5,0.9-1.3,1.5-2.5c-0.6,0.1-1.2,0.2-1.9,0.3l-0.2-0.8c0.1-0.1,0.3-0.2,0.4-0.3c0.6-1.1,1.1-2.4,1.5-3.8L711.3,408.8z
						 M712.4,417.9c-1,0.5-2.2,0.8-3.5,1.1l-0.1-0.9c1.4-0.3,2.6-0.6,3.7-1.1v0.9H712.4z M712.3,415.2l-0.3-0.9
						c0.8-1,1.5-2.2,1.8-3.5l0.7,0.3c-0.2,0.6-0.4,1.1-0.6,1.6v6.6h-0.8V414C713,414.5,712.7,414.9,712.3,415.2z M719.2,411.1h-0.8
						v-0.9h-5.2v1.1h-0.8v-1.8h3c-0.1-0.3-0.3-0.6-0.4-0.9l0.9-0.1c0.1,0.3,0.3,0.7,0.4,1h2.9L719.2,411.1L719.2,411.1z
						 M719.1,411.4v0.8h-1.6l-0.3,1.1h1.8v6.1h-0.8v-0.6h-2.3v0.6h-0.8v-6.1h1.3l0.2-1.1H715v-0.8H719.1z M718.1,415.6V414h-2.3v1.6
						H718.1z M718.1,418.1v-1.7h-2.3v1.7H718.1z"/>
					<path style="fill:#868686;" d="M726.3,412.2c1,1.2,2.7,2.3,5,3.2l-0.5,0.7c-0.5-0.2-0.9-0.4-1.3-0.6v3.9h-0.8V419h-5.4v0.5
						h-0.8v-4c-0.5,0.2-1,0.4-1.5,0.6l-0.5-0.7c2.2-0.8,3.9-1.9,5.1-3.2L726.3,412.2L726.3,412.2z M725.1,411.3
						c-1,0.9-2.3,1.7-3.8,2.3l-0.5-0.7c1.5-0.6,2.7-1.3,3.7-2.2L725.1,411.3z M726.5,409.5h4.4v2.1h-0.8v-1.3H722v1.4h-0.8v-2.2h4.6
						c-0.1-0.3-0.3-0.6-0.4-0.9l0.9-0.2C726.3,408.7,726.4,409.1,726.5,409.5z M729.4,415.5c-1.5-0.7-2.6-1.6-3.4-2.5
						c-1,1-2.1,1.8-3.4,2.5H729.4z M728.7,418.2v-1.9h-5.4v1.9H728.7z M731,413l-0.6,0.6c-0.9-0.7-2.1-1.5-3.6-2.3l0.6-0.5
						C728.8,411.5,730.1,412.3,731,413z"/>
					<path style="fill:#868686;" d="M682.8,435.3H682v-0.5h-8v0.5h-0.8v-10.1h9.6V435.3z M682,434v-8h-8v8H682z M680.3,427.8v4.3
						h-4.6v-4.3H680.3z M679.5,428.6h-3v2.8h3V428.6z"/>
					<path style="fill:#868686;" d="M687.2,429.3l-0.6,0.6c-0.5-0.6-1.2-1.2-2.1-1.9l0.6-0.6C686,428.1,686.7,428.7,687.2,429.3z
						 M687.3,430.9c-0.6,1.6-1.2,3-1.8,4.4l-0.8-0.4c0.7-1.4,1.4-2.9,1.9-4.4L687.3,430.9z M687.4,426.4l-0.6,0.6
						c-0.5-0.6-1.2-1.2-2.1-1.8l0.6-0.6C686.2,425.2,686.9,425.8,687.4,426.4z M691.3,430.5c-0.3,0.6-0.7,1.2-1.2,1.7v2.2
						c0.6-0.2,1.2-0.4,1.8-0.6l0.1,0.7c-0.8,0.3-1.7,0.6-2.8,0.9l-0.2-0.7c0.2-0.1,0.3-0.2,0.3-0.4v-1.4c-0.5,0.4-1.1,0.8-1.8,1.2
						l-0.4-0.7c1.5-0.7,2.7-1.6,3.4-2.7c-0.7,0.1-1.3,0.1-2,0.2l-0.2-0.7c0.1,0,0.2-0.1,0.3-0.1c0.6-0.3,1.4-1.2,2.4-2.5l0.7,0.3
						c-0.8,1-1.5,1.7-2.1,2.2c1.1-0.1,2.1-0.2,3.1-0.3c-0.3-0.4-0.6-0.7-1-1.1l0.6-0.4c0.9,0.9,1.5,1.7,2,2.4l-0.6,0.4
						c-0.2-0.2-0.3-0.5-0.5-0.7c-0.4,0.1-0.8,0.1-1.2,0.2c0.2,0.7,0.4,1.4,0.8,2c0.5-0.3,1-0.8,1.5-1.3l0.6,0.6
						c-0.5,0.6-1.1,1-1.7,1.3c0.6,0.7,1.3,1.2,2.2,1.7l-0.5,0.7C693.1,434.2,691.8,432.6,691.3,430.5L691.3,430.5z M690.4,426.8
						c-0.6,0.9-1.5,1.6-2.4,2.3l-0.5-0.6c0.9-0.6,1.7-1.3,2.3-2.1L690.4,426.8z M691.1,425.4c-0.2-0.3-0.3-0.6-0.5-0.9l0.9-0.1
						c0.2,0.3,0.3,0.7,0.5,1.1h3v0.8h-7v-0.8h3.1V425.4z M695.2,428.5l-0.6,0.6c-0.6-0.7-1.4-1.5-2.5-2.3l0.6-0.5
						C693.6,427,694.5,427.7,695.2,428.5z"/>
					<path style="fill:#868686;" d="M682,451.5h-0.9v-0.7h-6.3v0.7H674v-9.6h2.6c0.3-0.5,0.5-1,0.6-1.5l0.9,0.1
						c-0.1,0.5-0.3,0.9-0.6,1.3h4.6L682,451.5L682,451.5z M681.2,444.5v-1.8h-6.3v1.8H681.2z M681.2,447.1v-1.8h-6.3v1.8H681.2z
						 M681.2,449.9v-2h-6.3v2H681.2z"/>
					<path style="fill:#868686;" d="M693.5,444v0.8h-3v2.1h3.6v0.8h-3.6v2.5c0.8,0.1,1.8,0.2,3,0.2c0.6,0,1.2,0,1.9-0.1l-0.2,0.9
						h-1.3c-2.4,0-4.2-0.2-5.2-0.7c-0.8-0.4-1.4-0.9-1.9-1.7c-0.5,1-1,1.9-1.7,2.6l-0.6-0.7c1.2-1.2,1.9-2.9,2.3-4.9l0.8,0.1
						c-0.1,0.7-0.3,1.4-0.6,2.1c0.6,1,1.3,1.7,2.2,2c0.1,0,0.2,0.1,0.3,0.1v-5.2h-3.1V444H693.5z M694.9,444.2h-0.8v-1.8H686v1.8
						h-0.8v-2.6h4.6c-0.2-0.4-0.4-0.8-0.6-1.2l0.9-0.1c0.2,0.4,0.4,0.8,0.6,1.3h4.4v2.6H694.9z"/>
					<path style="fill:#868686;" d="M706.1,441.2c-0.5,2.8-1.6,5.1-3.3,6.8c1.3,1.1,2.9,2,4.7,2.6l-0.5,0.8
						c-1.8-0.7-3.4-1.6-4.8-2.8c-1.4,1.2-3,2.1-5,2.8l-0.5-0.8c1.9-0.6,3.5-1.5,4.8-2.6c-1.6-1.5-2.8-3.3-3.7-5.5l0.8-0.4
						c0.8,2.1,2,3.9,3.5,5.3c1.6-1.7,2.7-3.8,3.2-6.4L706.1,441.2z M703,443.3l-0.8,0.4c-0.6-1.1-1.3-2-2-2.9l0.8-0.4
						C701.8,441.3,702.5,442.3,703,443.3z"/>
					<path style="fill:#868686;" d="M713.9,444.5v0.8h-2.8c-0.5,1.8-0.9,3.1-1.3,3.9c0.9-0.2,1.9-0.5,2.8-0.8
						c-0.3-0.6-0.6-1.2-0.9-1.8l0.7-0.4c0.6,1,1.1,2.1,1.6,3.4l-0.7,0.4c-0.1-0.3-0.2-0.6-0.4-0.9c-1.3,0.5-2.7,0.8-4.1,1.1
						l-0.2-0.8c0.1,0,0.1,0,0.2-0.1c0.4-0.5,0.8-1.8,1.4-4h-1.7v-0.8L713.9,444.5L713.9,444.5z M713.4,441.3v0.8h-4.3v-0.8H713.4z
						 M716.5,440.5v2.4h2.6c0,3.8-0.1,6.1-0.2,7c-0.1,1-0.7,1.5-1.7,1.5c-0.2,0-0.6,0-1.1,0l-0.2-0.8c0.4,0,0.8,0,1.1,0
						c0.6,0,0.9-0.3,1-1c0.1-0.6,0.1-2.6,0.1-5.8h-1.8v0.1c0,3.5-0.9,6-2.5,7.6l-0.6-0.6c1.5-1.5,2.3-3.8,2.3-7v-0.1h-1.6V443h1.6
						v-2.4h1V440.5z"/>
					<path style="fill:#868686;" d="M720.7,446.2l-0.3-0.9c1.3-1.4,2.2-3,2.8-4.8l0.8,0.4c-0.3,0.9-0.7,1.8-1.2,2.6v8H722v-6.7
						C721.6,445.2,721.2,445.7,720.7,446.2z M723.9,446l-0.6-0.7c1.1-1.2,1.9-2.9,2.6-4.9l0.9,0.2c-0.2,0.6-0.4,1.1-0.6,1.6h5.2v0.9
						h-4v2h3.5v0.8h-3.5v2h3.6v0.8h-3.6v2.8h-0.9V443h-0.6C725.3,444.2,724.6,445.2,723.9,446z"/>
				</g>
				<g>
					<circle style="fill:#868686;" cx="665.5" cy="413.5" r="1.5"/>
				</g>
				<g>
					<circle style="fill:#868686;" cx="665.5" cy="429.5" r="1.5"/>
				</g>
				<g>
					<circle style="fill:#868686;" cx="665.5" cy="445.5" r="1.5"/>
				</g>
			</g>
		</g>
		<g>
			<g>
				<g>
					<rect x="251" y="120" style="opacity:0.6;fill:#BBBBBB;enable-background:new    ;" width="164" height="150"/>
					<g>
						<rect x="249.5" y="118.5" style="fill:#FFFFFF;" width="163" height="149"/>
						<path style="fill:#E5E5E5;" d="M412,119v148H250V119H412 M413,118H249v150h164V118L413,118z"/>
					</g>
				</g>
				<g transform="translate(20 9)">
					<g style="enable-background:new    ;">
						<path style="fill:#444444;" d="M306.8,139h1.5v0.9h-12.7V139h1.6v-3.9h9.6V139z M297.6,128.2v5.7h-1v-5.7H297.6z M300,139v-3
							h-1.9v3H300z M300.5,127.5v6.9h-1v-6.9C299.5,127.5,300.5,127.5,300.5,127.5z M303,139v-3h-2v3H303z M301.8,133l-0.6-0.8
							c1-1.2,1.7-2.8,2-4.8l1,0.2c-0.1,0.6-0.2,1.1-0.4,1.6h4.2v1h-4.5C303,131.3,302.5,132.3,301.8,133z M305.9,139v-3H304v3H305.9
							z M306.7,133.6l-0.8,0.6c-0.4-0.8-1-1.6-1.7-2.6l0.8-0.5C305.7,132.1,306.3,132.9,306.7,133.6z"/>
						<path style="fill:#444444;" d="M310.1,140.3l-0.2-1c0.4,0,0.7,0.1,1.1,0.1s0.5-0.2,0.5-0.5v-3.4c-0.6,0.2-1.1,0.4-1.7,0.6
							l-0.3-1c0.7-0.2,1.3-0.4,1.9-0.6v-3.1h-1.7v-1h1.7v-2.7h1v2.7h1.2v1h-1.2v2.7c0.4-0.2,0.8-0.4,1.2-0.6v1
							c-0.4,0.2-0.8,0.4-1.2,0.6v4.1c0,0.8-0.4,1.2-1.2,1.2h-1.1V140.3z M314.4,135.9V135h7.5v0.9h-3.2v3.1h3.7v1h-8.6v-1h3.8v-3.1
							H314.4z M318.7,129.1h3.3v2.6h-0.9V130h-5.9v1.7h-1v-2.6h3.5c-0.2-0.6-0.5-1.1-0.7-1.5l1-0.2
							C318.3,127.9,318.5,128.5,318.7,129.1z M317.6,131.2c-0.6,1.4-1.5,2.5-2.5,3.2l-0.7-0.6c1.1-0.7,1.8-1.7,2.4-2.9L317.6,131.2z
							 M321.8,133.8l-0.9,0.4c-0.7-1.1-1.4-2.2-2.3-3.1l0.9-0.4C320.3,131.7,321.1,132.8,321.8,133.8z"/>
					</g>
				</g>
			</g>
			<rect x="269" y="168" style="fill:#B9B9B9;" width="126" height="1"/>
			<g>
				<g>
					<path style="fill:#868686;" d="M280.1,198.4v-0.9h0.8v0.9h4.1v-0.9h0.8v0.9h2.1v0.7h-2.1v4h2.3v0.8h-2.5
						c0.6,0.7,1.5,1.3,2.7,1.7l-0.3,0.7c-1.5-0.6-2.5-1.4-3.2-2.4H281c-0.6,1-1.6,1.8-3,2.5l-0.4-0.7c1.2-0.5,2.1-1,2.6-1.7h-2.5
						v-0.8h2.3v-4h-2v-0.7h2.1V198.4z M283.4,204.3v1h2.4v0.8h-2.4v1.3h4.1v0.8h-9.2v-0.8h4.2V206H280v-0.8h2.5v-1h0.9V204.3z
						 M285.1,200v-0.9H281v0.9H285.1z M285.1,201.5v-0.9H281v0.9H285.1z M285.1,203.1v-0.9H281v0.9H285.1z"/>
					<path style="fill:#868686;" d="M289.7,199v-0.8h4v0.8h-1.8c-0.2,1-0.4,1.9-0.7,2.7h2.2v6.4h-0.7v-0.8h-1.3v0.9h-0.8v-5.3
						c-0.3,0.5-0.5,1-0.8,1.4l-0.5-0.7c0.9-1.4,1.4-2.9,1.7-4.7h-1.3V199z M292.7,206.6v-4.1h-1.3v4.1H292.7z M299,198.5h0.8v3.9
						h-2.3v4.5h1.7v-3.4h0.8v5h-0.8v-0.8H295v0.8h-0.8v-5h0.8v3.4h1.7v-4.5h-2.2v-3.9h0.8v3.1h1.4v-4.1h0.8v4.1h1.5L299,198.5
						L299,198.5z"/>
					<path style="fill:#868686;" d="M304,201.2v5.3c0.4-0.4,0.9-0.8,1.4-1.2l0.2,0.9c-0.8,0.7-1.6,1.3-2.4,1.9l-0.3-0.8
						c0.2-0.2,0.3-0.3,0.3-0.5V202h-1.7v-0.8H304z M304.8,199.5l-0.6,0.6c-0.5-0.6-1.1-1.2-1.9-1.8l0.6-0.6
						C303.7,198.3,304.3,198.9,304.8,199.5z M311.5,202.6v0.8c-0.4,1.1-1,2.1-1.9,2.9c0.8,0.6,1.8,1.1,3,1.5l-0.5,0.7
						c-1.2-0.5-2.3-1.1-3.1-1.7c-1,0.7-2.1,1.3-3.6,1.7l-0.5-0.7c1.3-0.4,2.4-0.9,3.3-1.5c-0.9-0.8-1.5-1.8-1.9-2.8h-0.7v-0.8
						L311.5,202.6L311.5,202.6z M310.8,197.9v2.6c0,0.3,0.2,0.5,0.5,0.5h1.1v0.8H311c-0.7,0-1.1-0.4-1.1-1.1v-2h-2.3v0.4
						c0,1.3-0.6,2.3-1.8,3l-0.6-0.7c1-0.5,1.6-1.2,1.6-2.2v-1.3H310.8z M308.9,205.7c0.8-0.7,1.3-1.4,1.7-2.3h-3.4
						C307.6,204.3,308.1,205.1,308.9,205.7z"/>
					<path style="fill:#868686;" d="M315.6,199.2c-0.2-0.6-0.5-1.1-0.8-1.6l0.9-0.2c0.2,0.5,0.5,1.1,0.7,1.8h1.5v0.8h-2.4v1.7h2.1
						c0,3-0.1,4.9-0.2,5.6c-0.1,0.7-0.6,1.1-1.4,1.1c-0.1,0-0.3,0-0.6,0l-0.2-0.8c0.2,0,0.4,0,0.6,0c0.4,0,0.7-0.2,0.8-0.6
						c0.1-0.5,0.1-2,0.1-4.5h-1.4c-0.1,2.7-0.5,4.7-1.3,6l-0.6-0.6c0.8-1.2,1.2-3.2,1.2-5.8V200h-0.9v-0.8H315.6z M318.2,201.9
						l-0.6-0.7c0.7-1,1.3-2.2,1.8-3.8l0.8,0.2c-0.1,0.4-0.3,0.8-0.4,1.2h4.3v0.8h-4.6C319.2,200.5,318.7,201.2,318.2,201.9z
						 M323.6,205.2c-0.1,0.5-0.5,0.7-1.2,0.7h-0.2l-0.2-0.7c0.2,0,0.4,0,0.5,0c0.2,0,0.3-0.1,0.4-0.4c0-0.2,0.1-1.1,0.1-2.6
						l-1.2,0.4v4H321V203l-1.2,0.4v3.4c0,0.5,0.2,0.8,0.6,0.8h2.4c0.3,0,0.5-0.1,0.7-0.2c0.2-0.2,0.3-0.6,0.3-1.4l0.7,0.2
						c-0.1,1-0.3,1.6-0.5,1.8s-0.6,0.3-1.1,0.3h-2.8c-0.7,0-1.1-0.5-1.1-1.4v-3.3l-0.9,0.3v-0.8l0.9-0.3v-1.7h0.8v1.4l1.2-0.4v-1.9
						h0.8v1.6l2-0.7C323.7,203.4,323.7,204.8,323.6,205.2z"/>
					<path style="fill:#868686;" d="M283.3,217.2c1,1.2,2.7,2.3,5,3.2l-0.5,0.7c-0.5-0.2-0.9-0.4-1.3-0.6v3.9h-0.8V224h-5.4v0.5
						h-0.8v-4c-0.5,0.2-1,0.4-1.5,0.6l-0.5-0.7c2.2-0.8,3.9-1.9,5.1-3.2L283.3,217.2L283.3,217.2z M282.1,216.3
						c-1,0.9-2.3,1.7-3.8,2.3l-0.5-0.7c1.5-0.6,2.7-1.3,3.7-2.2L282.1,216.3z M283.5,214.5h4.4v2.1h-0.8v-1.3H279v1.4h-0.8v-2.2h4.6
						c-0.1-0.3-0.3-0.6-0.4-0.9l0.9-0.2C283.3,213.7,283.4,214.1,283.5,214.5z M286.4,220.5c-1.5-0.7-2.6-1.6-3.4-2.5
						c-1,1-2.1,1.8-3.4,2.5H286.4z M285.7,223.2v-1.9h-5.4v1.9H285.7z M288,218l-0.6,0.6c-0.9-0.7-2.1-1.5-3.6-2.3l0.6-0.5
						C285.8,216.5,287.1,217.3,288,218z"/>
					<path style="fill:#868686;" d="M293.7,218c0.2-0.3,0.4-0.6,0.6-1l0.8,0.1c-0.1,0.3-0.3,0.6-0.4,0.9h3.1
						c-0.2-0.3-0.3-0.6-0.5-0.8l0.7-0.2c0.3,0.3,0.5,0.7,0.7,1.1h1.7v0.8H297c0.8,0.7,1.9,1.3,3.5,1.7l-0.3,0.7
						c-0.3-0.1-0.6-0.2-0.8-0.3v3.5h-0.8V224h-2.2v0.5h-0.8v-3.8h3.2c-1.2-0.5-2-1.2-2.6-1.9h-2c-0.7,0.8-1.6,1.4-2.7,1.9h3v3.8
						h-0.8V224h-2.1v0.5h-0.8V221c-0.3,0.1-0.6,0.2-1,0.3l-0.4-0.7c1.5-0.5,2.7-1,3.5-1.8h-3.3V218H293.7z M294.3,213.9v2.9h-3.7
						v-2.9H294.3z M293.5,214.7h-2.1v1.4h2.1V214.7z M293.7,223.2v-1.8h-2.1v1.8H293.7z M299.4,213.9v2.9h-3.7v-2.9H299.4z
						 M298.6,223.2v-1.8h-2.2v1.8H298.6z M298.6,214.7h-2.2v1.4h2.2V214.7z"/>
					<path style="fill:#868686;" d="M311.1,223.3h1.3v0.8h-10.9v-0.8h1.3V220h8.2v3.3H311.1z M303.2,214v4.9h-0.9V214H303.2z
						 M305.3,223.3v-2.5h-1.6v2.5H305.3z M305.7,213.4v5.9h-0.9v-5.9H305.7z M307.8,223.3v-2.5h-1.7v2.5H307.8z M306.8,218.2
						l-0.6-0.7c0.9-1,1.4-2.4,1.7-4.1l0.9,0.2c-0.1,0.5-0.2,0.9-0.3,1.4h3.6v0.8h-3.9C307.9,216.7,307.4,217.5,306.8,218.2z
						 M310.3,223.3v-2.5h-1.6v2.5H310.3z M311,218.7l-0.7,0.5c-0.4-0.7-0.8-1.4-1.5-2.2l0.7-0.4C310.2,217.4,310.6,218.1,311,218.7z
						"/>
					<path style="fill:#868686;" d="M313.9,224.4l-0.2-0.8c0.3,0,0.6,0,0.9,0s0.5-0.2,0.5-0.5v-3c-0.5,0.2-1,0.3-1.4,0.5l-0.2-0.9
						c0.6-0.1,1.1-0.3,1.7-0.5v-2.7h-1.5v-0.8h1.5v-2.3h0.9v2.3h1v0.8h-1v2.3c0.4-0.2,0.7-0.3,1-0.5v0.9c-0.3,0.2-0.7,0.3-1,0.5v3.5
						c0,0.7-0.4,1-1.1,1h-1.1V224.4z M317.6,220.6v-0.8h6.4v0.8h-2.7v2.6h3.2v0.8h-7.3v-0.8h3.3v-2.6H317.6z M321.3,214.8h2.8v2.3
						h-0.8v-1.5h-5v1.5h-0.8v-2.3h3c-0.2-0.5-0.4-0.9-0.6-1.3l0.9-0.1C321,213.8,321.2,214.3,321.3,214.8z M320.4,216.6
						c-0.6,1.2-1.3,2.1-2.2,2.7l-0.6-0.5c0.9-0.6,1.6-1.5,2-2.5L320.4,216.6z M323.9,218.9l-0.8,0.4c-0.6-1-1.2-1.9-2-2.6l0.7-0.3
						C322.7,217.1,323.3,217.9,323.9,218.9z"/>
					<path style="fill:#868686;" d="M283.4,229.4v2.2h4.3v5.6h-0.9v-0.8h-3.4v4.1h-0.9v-4.1h-3.4v0.8h-0.9v-5.6h4.3v-2.2H283.4z
						 M282.6,235.6v-3.2h-3.4v3.2H282.6z M286.9,235.6v-3.2h-3.4v3.2H286.9z"/>
					<path style="fill:#868686;" d="M291,231.5v9h-0.8v-9H291z M293.4,231.5l-0.8,0.4c-0.5-0.8-0.9-1.6-1.5-2.2l0.8-0.3
						C292.5,230,293,230.7,293.4,231.5z M297.2,232.7v5.6h-4.6v-5.6H297.2z M296.4,235.1v-1.6h-2.9v1.6H296.4z M296.4,235.9h-2.9
						v1.6h2.9V235.9z M297.6,240.4l-0.2-0.8h1c0.4,0,0.6-0.3,0.6-0.7v-8h-4.7v-0.8h5.5v9c0,0.8-0.4,1.3-1.2,1.3H297.6z"/>
					<path style="fill:#868686;" d="M305,229.8c-0.3,0.9-0.7,1.8-1.2,2.7v8h-0.9v-6.7c-0.4,0.5-0.8,1-1.3,1.5l-0.3-0.9
						c1.3-1.4,2.2-3.1,2.8-5L305,229.8z M307,230.3c-0.1,0.6-0.2,1.2-0.4,1.7h1.8v-2.5h0.9v2.5h2.8v0.8h-2.8v2.9h3.2v0.8h-3.2v3.9
						h-0.9v-3.9h-3.5v-0.8h3.5v-2.9h-2c-0.3,0.8-0.7,1.5-1.1,2.1l-0.6-0.7c0.7-1.1,1.2-2.5,1.5-4.1L307,230.3z"/>
					<path style="fill:#868686;" d="M323.1,239.3h1.3v0.8h-10.9v-0.8h1.3V236h8.2v3.3H323.1z M315.2,230v4.9h-0.9V230H315.2z
						 M317.3,239.3v-2.5h-1.6v2.5H317.3z M317.7,229.4v5.9h-0.9v-5.9H317.7z M319.8,239.3v-2.5h-1.7v2.5H319.8z M318.8,234.2
						l-0.6-0.7c0.9-1,1.4-2.4,1.7-4.1l0.9,0.2c-0.1,0.5-0.2,0.9-0.3,1.4h3.6v0.8h-3.9C319.9,232.7,319.4,233.5,318.8,234.2z
						 M322.3,239.3v-2.5h-1.6v2.5H322.3z M323,234.7l-0.7,0.5c-0.4-0.7-0.8-1.4-1.5-2.2l0.7-0.4C322.2,233.4,322.6,234.1,323,234.7z
						"/>
					<path style="fill:#868686;" d="M325.9,240.4l-0.2-0.8c0.3,0,0.6,0,0.9,0s0.5-0.2,0.5-0.5v-3c-0.5,0.2-1,0.3-1.4,0.5l-0.2-0.9
						c0.6-0.1,1.1-0.3,1.7-0.5v-2.7h-1.5v-0.8h1.5v-2.3h0.9v2.3h1v0.8h-1v2.3c0.4-0.2,0.7-0.3,1-0.5v0.9c-0.3,0.2-0.7,0.3-1,0.5v3.5
						c0,0.7-0.4,1-1.1,1h-1.1V240.4z M329.6,236.6v-0.8h6.4v0.8h-2.7v2.6h3.2v0.8h-7.3v-0.8h3.3v-2.6H329.6z M333.3,230.8h2.8v2.3
						h-0.8v-1.5h-5v1.5h-0.8v-2.3h3c-0.2-0.5-0.4-0.9-0.6-1.3l0.9-0.1C333,229.8,333.2,230.3,333.3,230.8z M332.4,232.6
						c-0.6,1.2-1.3,2.1-2.2,2.7l-0.6-0.5c0.9-0.6,1.6-1.5,2-2.5L332.4,232.6z M335.9,234.9l-0.8,0.4c-0.6-1-1.2-1.9-2-2.6l0.7-0.3
						C334.7,233.1,335.3,233.9,335.9,234.9z"/>
					<path style="fill:#868686;" d="M287,256.5h-0.9v-0.7h-6.3v0.7H279v-9.6h2.6c0.3-0.5,0.5-1,0.6-1.5l0.9,0.1
						c-0.1,0.5-0.3,0.9-0.6,1.3h4.6v9.7H287z M286.2,249.5v-1.8h-6.3v1.8H286.2z M286.2,252.1v-1.8h-6.3v1.8H286.2z M286.2,254.9v-2
						h-6.3v2H286.2z"/>
					<path style="fill:#868686;" d="M298.5,249v0.8h-3v2.1h3.6v0.8h-3.6v2.5c0.8,0.1,1.8,0.2,3,0.2c0.6,0,1.2,0,1.9-0.1l-0.2,0.9
						h-1.3c-2.4,0-4.2-0.2-5.2-0.7c-0.8-0.4-1.4-0.9-1.9-1.7c-0.5,1-1,1.9-1.7,2.6l-0.6-0.7c1.2-1.2,1.9-2.9,2.3-4.9l0.8,0.1
						c-0.1,0.7-0.3,1.4-0.6,2.1c0.6,1,1.3,1.7,2.2,2c0.1,0,0.2,0.1,0.3,0.1v-5.2h-3.1V249H298.5z M299.9,249.2h-0.8v-1.8H291v1.8
						h-0.8v-2.6h4.6c-0.2-0.4-0.4-0.8-0.6-1.2l0.9-0.1c0.2,0.4,0.4,0.8,0.6,1.3h4.4v2.6H299.9z"/>
					<path style="fill:#868686;" d="M311.1,246.2c-0.5,2.8-1.6,5.1-3.3,6.8c1.3,1.1,2.9,2,4.7,2.6l-0.5,0.8
						c-1.8-0.7-3.4-1.6-4.8-2.8c-1.4,1.2-3,2.1-5,2.8l-0.5-0.8c1.9-0.6,3.5-1.5,4.8-2.6c-1.6-1.5-2.8-3.3-3.7-5.5l0.8-0.4
						c0.8,2.1,2,3.9,3.5,5.3c1.6-1.7,2.7-3.8,3.2-6.4L311.1,246.2z M308,248.3l-0.8,0.4c-0.6-1.1-1.3-2-2-2.9l0.8-0.4
						C306.8,246.3,307.5,247.3,308,248.3z"/>
					<path style="fill:#868686;" d="M323.1,255.3h1.3v0.8h-10.9v-0.8h1.3V252h8.2v3.3H323.1z M315.2,246v4.9h-0.9V246H315.2z
						 M317.3,255.3v-2.5h-1.6v2.5H317.3z M317.7,245.4v5.9h-0.9v-5.9H317.7z M319.8,255.3v-2.5h-1.7v2.5H319.8z M318.8,250.2
						l-0.6-0.7c0.9-1,1.4-2.4,1.7-4.1l0.9,0.2c-0.1,0.5-0.2,0.9-0.3,1.4h3.6v0.8h-3.9C319.9,248.7,319.4,249.5,318.8,250.2z
						 M322.3,255.3v-2.5h-1.6v2.5H322.3z M323,250.7l-0.7,0.5c-0.4-0.7-0.8-1.4-1.5-2.2l0.7-0.4C322.2,249.4,322.6,250.1,323,250.7z
						"/>
					<path style="fill:#868686;" d="M325.9,256.4l-0.2-0.8c0.3,0,0.6,0,0.9,0s0.5-0.2,0.5-0.5v-3c-0.5,0.2-1,0.3-1.4,0.5l-0.2-0.9
						c0.6-0.1,1.1-0.3,1.7-0.5v-2.7h-1.5v-0.8h1.5v-2.3h0.9v2.3h1v0.8h-1v2.3c0.4-0.2,0.7-0.3,1-0.5v0.9c-0.3,0.2-0.7,0.3-1,0.5v3.5
						c0,0.7-0.4,1-1.1,1h-1.1V256.4z M329.6,252.6v-0.8h6.4v0.8h-2.7v2.6h3.2v0.8h-7.3v-0.8h3.3v-2.6L329.6,252.6L329.6,252.6z
						 M333.3,246.8h2.8v2.3h-0.8v-1.5h-5v1.5h-0.8v-2.3h3c-0.2-0.5-0.4-0.9-0.6-1.3l0.9-0.1C333,245.8,333.2,246.3,333.3,246.8z
						 M332.4,248.6c-0.6,1.2-1.3,2.1-2.2,2.7l-0.6-0.5c0.9-0.6,1.6-1.5,2-2.5L332.4,248.6z M335.9,250.9l-0.8,0.4
						c-0.6-1-1.2-1.9-2-2.6l0.7-0.3C334.7,249.1,335.3,249.9,335.9,250.9z"/>
				</g>
				<g>
					<circle style="fill:#868686;" cx="270.5" cy="186.5" r="1.5"/>
				</g>
				<g>
					<circle style="fill:#868686;" cx="270.5" cy="202.5" r="1.5"/>
				</g>
				<g>
					<circle style="fill:#868686;" cx="270.5" cy="218.5" r="1.5"/>
				</g>
				<g>
					<circle style="fill:#868686;" cx="270.5" cy="234.5" r="1.5"/>
				</g>
				<g>
					<circle style="fill:#868686;" cx="270.5" cy="250.5" r="1.5"/>
				</g>
			</g>
		</g>
		<g>
			<g>
				<g>
					<rect x="251" y="283" style="opacity:0.6;fill:#BBBBBB;enable-background:new    ;" width="164" height="118"/>
					<g>
						<rect x="249.5" y="281.5" style="fill:#FFFFFF;" width="163" height="117"/>
						<path style="fill:#E5E5E5;" d="M412,282v116H250V282H412 M413,281H249v118h164V281L413,281z"/>
					</g>
				</g>
				<g transform="translate(20 9)">
					<g style="enable-background:new    ;">
						<path style="fill:#444444;" d="M306.5,303.3h-1v-1.1h-6.6v1.1h-1v-12.2h8.7v12.2H306.5z M305.4,296.1v-4h-6.6v4H305.4z
							 M305.4,301.3v-4.2h-6.6v4.2H305.4z"/>
						<path style="fill:#444444;" d="M312,298.4c-0.3,1.6-0.8,3-1.4,4.2l-0.9-0.5c0.6-1.2,1-2.5,1.2-3.9L312,298.4z M316.5,290.5
							v1.8h5.5v1h-5.5v2.2h4.6v1H311v-1h4.5v-2.2H310v-1h5.5v-1.8H316.5z M314.4,303.1c-0.9,0-1.4-0.5-1.4-1.5v-3.9h1v3.7
							c0,0.5,0.2,0.7,0.7,0.7h3c0.3,0,0.5-0.1,0.7-0.3c0.2-0.2,0.3-0.9,0.4-2.1l1,0.3c-0.1,1.4-0.3,2.3-0.6,2.6
							c-0.3,0.3-0.7,0.4-1.2,0.4L314.4,303.1L314.4,303.1z M317.6,300.2l-0.9,0.4c-0.4-1.1-0.8-2-1.3-2.8l1-0.3
							C316.8,298.3,317.2,299.2,317.6,300.2z M322.4,301.7l-0.9,0.4c-0.5-1.5-1.1-2.9-1.8-4l0.9-0.3
							C321.3,299,321.9,300.3,322.4,301.7z"/>
					</g>
				</g>
			</g>
			<rect x="269" y="331" style="fill:#B9B9B9;" width="126" height="1"/>
			<g>
				<g>
					<path style="fill:#868686;" d="M283.3,348.2c1,1.2,2.7,2.3,5,3.2l-0.5,0.7c-0.5-0.2-0.9-0.4-1.3-0.6v3.9h-0.8V355h-5.4v0.5
						h-0.8v-4c-0.5,0.2-1,0.4-1.5,0.6l-0.5-0.7c2.2-0.8,3.9-1.9,5.1-3.2L283.3,348.2L283.3,348.2z M282.1,347.3
						c-1,0.9-2.3,1.7-3.8,2.3l-0.5-0.7c1.5-0.6,2.7-1.3,3.7-2.2L282.1,347.3z M283.5,345.5h4.4v2.1h-0.8v-1.3H279v1.4h-0.8v-2.2h4.6
						c-0.1-0.3-0.3-0.6-0.4-0.9l0.9-0.2C283.3,344.7,283.4,345.1,283.5,345.5z M286.4,351.5c-1.5-0.7-2.6-1.6-3.4-2.5
						c-1,1-2.1,1.8-3.4,2.5H286.4z M285.7,354.2v-1.9h-5.4v1.9H285.7z M288,349l-0.6,0.6c-0.9-0.7-2.1-1.5-3.6-2.3l0.6-0.5
						C285.8,347.5,287.1,348.3,288,349z"/>
					<path style="fill:#868686;" d="M293.7,349c0.2-0.3,0.4-0.6,0.6-1l0.8,0.1c-0.1,0.3-0.3,0.6-0.4,0.9h3.1
						c-0.2-0.3-0.3-0.6-0.5-0.8l0.7-0.2c0.3,0.3,0.5,0.7,0.7,1.1h1.7v0.8H297c0.8,0.7,1.9,1.3,3.5,1.7l-0.3,0.7
						c-0.3-0.1-0.6-0.2-0.8-0.3v3.5h-0.8V355h-2.2v0.5h-0.8v-3.8h3.2c-1.2-0.5-2-1.2-2.6-1.9h-2c-0.7,0.8-1.6,1.4-2.7,1.9h3v3.8
						h-0.8V355h-2.1v0.5h-0.8V352c-0.3,0.1-0.6,0.2-1,0.3l-0.4-0.7c1.5-0.5,2.7-1,3.5-1.8h-3.3V349H293.7z M294.3,344.9v2.9h-3.7
						v-2.9H294.3z M293.5,345.7h-2.1v1.4h2.1V345.7z M293.7,354.2v-1.8h-2.1v1.8H293.7z M299.4,344.9v2.9h-3.7v-2.9H299.4z
						 M298.6,354.2v-1.8h-2.2v1.8H298.6z M298.6,345.7h-2.2v1.4h2.2V345.7z"/>
					<path style="fill:#868686;" d="M310.8,355.4h-0.9v-0.9h-5.7v0.9h-0.9V345h7.4v10.4H310.8z M309.9,349.2v-3.4h-5.7v3.4H309.9z
						 M309.9,353.7V350h-5.7v3.6h5.7V353.7z"/>
					<path style="fill:#868686;" d="M315.5,351.2c-0.3,1.4-0.7,2.6-1.2,3.6l-0.7-0.5c0.5-1,0.8-2.1,1.1-3.3L315.5,351.2z
						 M319.4,344.4v1.6h4.7v0.8h-4.7v1.8h3.9v0.8h-8.7v-0.8h3.9v-1.8h-4.7V346h4.7v-1.6H319.4z M317.6,355.2c-0.8,0-1.2-0.4-1.2-1.3
						v-3.3h0.9v3.2c0,0.4,0.2,0.6,0.6,0.6h2.6c0.3,0,0.5-0.1,0.6-0.3c0.2-0.2,0.3-0.8,0.3-1.8l0.8,0.3c-0.1,1.2-0.3,2-0.5,2.2
						s-0.6,0.3-1.1,0.3L317.6,355.2L317.6,355.2z M320.3,352.7l-0.8,0.3c-0.3-0.9-0.7-1.7-1.1-2.4l0.8-0.3
						C319.7,351.1,320,351.8,320.3,352.7z M324.4,354l-0.8,0.3c-0.5-1.3-1-2.5-1.5-3.5l0.8-0.3C323.5,351.7,324,352.8,324.4,354z"/>
					<path style="fill:#868686;" d="M283.9,361.6h4.4v0.8h-8.9v2.7c0,2.6-0.5,4.7-1.2,6.3l-0.7-0.6c0.7-1.4,1-3.3,1.1-5.7v-3.5h4.4
						c-0.2-0.4-0.4-0.7-0.6-1.1l0.9-0.2C283.5,360.7,283.8,361.2,283.9,361.6z M284.7,370.1c0.7-1.7,1.4-3.8,1.9-6.3l0.9,0.2
						c-0.5,2.3-1.1,4.3-1.9,6.1h2.5v0.8h-8.5v-0.8L284.7,370.1L284.7,370.1z M282.3,368.8l-0.8,0.2c-0.3-1.5-0.7-3-1.2-4.4l0.8-0.2
						C281.5,365.7,281.9,367.1,282.3,368.8z M284.4,368.1l-0.8,0.2c-0.3-1.6-0.6-3.1-1-4.5l0.8-0.2
						C283.7,364.8,284.1,366.4,284.4,368.1z"/>
					<path style="fill:#868686;" d="M290.2,371.4l-0.7-0.6c0.8-1.1,1.2-2.4,1.2-4.1V361h8.9v9c0,0.8-0.4,1.3-1.3,1.3H297l-0.2-0.9
						c0.5,0,0.9,0,1.3,0s0.7-0.3,0.7-0.8v-2.1h-3.3v3.5h-0.9v-3.5h-3.1C291.4,369.1,290.9,370.4,290.2,371.4z M291.6,361.8v2.1h3
						v-2.1H291.6z M291.6,366.8h3v-2.1h-3V366.8z M298.8,361.8h-3.3v2.1h3.3V361.8z M298.8,364.7h-3.3v2.1h3.3V364.7z"/>
					<path style="fill:#868686;" d="M306.7,362.5c-0.3-0.6-0.7-1.2-1.2-1.8l0.9-0.3c0.5,0.6,0.9,1.3,1.2,2.1h4.6v0.9h-1.9
						c-0.6,1.9-1.5,3.5-2.7,4.8c1.3,1.1,2.9,2,4.8,2.7l-0.5,0.7c-2-0.7-3.6-1.7-4.9-2.8c-1.4,1.3-3.1,2.2-5.1,2.8l-0.5-0.8
						c2-0.5,3.7-1.4,5-2.6c-1.4-1.4-2.4-3-2.9-4.8h-1.8v-0.9L306.7,362.5L306.7,362.5z M307.1,367.6c1.1-1.2,1.8-2.6,2.4-4.2h-5
						C305,365,305.9,366.4,307.1,367.6z"/>
					<path style="fill:#868686;" d="M317,360.8c-0.3,0.9-0.7,1.8-1.2,2.7v8h-0.9v-6.7c-0.4,0.5-0.8,1-1.3,1.5l-0.3-0.9
						c1.3-1.4,2.2-3.1,2.8-5L317,360.8z M319,361.3c-0.1,0.6-0.2,1.2-0.4,1.7h1.8v-2.5h0.9v2.5h2.8v0.8h-2.8v2.9h3.2v0.8h-3.2v3.9
						h-0.9v-3.9h-3.5v-0.8h3.5v-2.9h-2c-0.3,0.8-0.7,1.5-1.1,2.1l-0.6-0.7c0.7-1.1,1.2-2.5,1.5-4.1L319,361.3z"/>
					<path style="fill:#868686;" d="M334.8,371.4h-0.9v-0.9h-5.7v0.9h-0.9V361h7.4v10.4H334.8z M333.9,365.2v-3.4h-5.7v3.4H333.9z
						 M333.9,369.7V366h-5.7v3.6h5.7V369.7z"/>
					<path style="fill:#868686;" d="M339.5,367.2c-0.3,1.4-0.7,2.6-1.2,3.6l-0.7-0.5c0.5-1,0.8-2.1,1.1-3.3L339.5,367.2z
						 M343.4,360.4v1.6h4.7v0.8h-4.7v1.8h3.9v0.8h-8.7v-0.8h3.9v-1.8h-4.7V362h4.7v-1.6H343.4z M341.6,371.2c-0.8,0-1.2-0.4-1.2-1.3
						v-3.3h0.9v3.2c0,0.4,0.2,0.6,0.6,0.6h2.6c0.3,0,0.5-0.1,0.6-0.3c0.2-0.2,0.3-0.8,0.3-1.8l0.8,0.3c-0.1,1.2-0.3,2-0.5,2.2
						s-0.6,0.3-1.1,0.3L341.6,371.2L341.6,371.2z M344.3,368.7l-0.8,0.3c-0.3-0.9-0.7-1.7-1.1-2.4l0.8-0.3
						C343.7,367.1,344,367.8,344.3,368.7z M348.4,370l-0.8,0.3c-0.5-1.3-1-2.5-1.5-3.5l0.8-0.3C347.5,367.7,348,368.8,348.4,370z"/>
					<path style="fill:#868686;" d="M287.9,377v0.8h-4.5v4.5h4.9v0.8h-4.9v4.2h-0.9v-4.2h-4.8v-0.8h4.8v-4.5h-4.3V377H287.9z
						 M280.9,381.4l-0.8,0.4c-0.4-1-0.8-1.9-1.3-2.7l0.8-0.4C280.1,379.5,280.5,380.4,280.9,381.4z M287.2,378.9
						c-0.4,0.9-0.8,1.9-1.4,2.8l-0.8-0.4c0.6-0.9,1.1-1.8,1.4-2.8L287.2,378.9z"/>
					<path style="fill:#868686;" d="M290,380.4c1.1-0.4,2.4-1.7,3.9-4l0.9,0.3c-1.1,1.5-2.2,2.8-3.3,3.6c2.3-0.1,4.5-0.3,6.5-0.4
						c-0.5-0.6-0.9-1.3-1.4-1.8l0.8-0.4c1,1.2,2,2.5,2.9,4l-0.8,0.4c-0.3-0.5-0.6-1-0.9-1.4c-2.5,0.2-5.3,0.4-8.5,0.5L290,380.4z
						 M299,387.5h-0.9v-0.6h-6.3v0.6H291v-5h8V387.5z M298.1,386.1v-2.7h-6.3v2.7H298.1z"/>
					<path style="fill:#868686;" d="M310.8,387.4h-0.9v-0.9h-5.7v0.9h-0.9V377h7.4v10.4H310.8z M309.9,381.2v-3.4h-5.7v3.4H309.9z
						 M309.9,385.7V382h-5.7v3.6h5.7V385.7z"/>
					<path style="fill:#868686;" d="M315.5,383.2c-0.3,1.4-0.7,2.6-1.2,3.6l-0.7-0.5c0.5-1,0.8-2.1,1.1-3.3L315.5,383.2z
						 M319.4,376.4v1.6h4.7v0.8h-4.7v1.8h3.9v0.8h-8.7v-0.8h3.9v-1.8h-4.7V378h4.7v-1.6H319.4z M317.6,387.2c-0.8,0-1.2-0.4-1.2-1.3
						v-3.3h0.9v3.2c0,0.4,0.2,0.6,0.6,0.6h2.6c0.3,0,0.5-0.1,0.6-0.3c0.2-0.2,0.3-0.8,0.3-1.8l0.8,0.3c-0.1,1.2-0.3,2-0.5,2.2
						s-0.6,0.3-1.1,0.3L317.6,387.2L317.6,387.2z M320.3,384.7l-0.8,0.3c-0.3-0.9-0.7-1.7-1.1-2.4l0.8-0.3
						C319.7,383.1,320,383.8,320.3,384.7z M324.4,386l-0.8,0.3c-0.5-1.3-1-2.5-1.5-3.5l0.8-0.3C323.5,383.7,324,384.8,324.4,386z"/>
				</g>
				<g>
					<circle style="fill:#868686;" cx="270.5" cy="349.5" r="1.5"/>
				</g>
				<g>
					<circle style="fill:#868686;" cx="270.5" cy="365.5" r="1.5"/>
				</g>
				<g>
					<circle style="fill:#868686;" cx="270.5" cy="381.5" r="1.5"/>
				</g>
			</g>
		</g>
		<polygon style="fill:#989898;" points="639,264 643,267 639,270 		"/>
	</g>
</g>
<g>
	<path style="fill:#868686;" d="M283.7,190.7c1.3-0.6,2.4-1.4,3.1-2.5h-3.5c-1.1,0.5-2.3,0.9-3.8,1.1l-0.5-0.8
		c2.6-0.3,4.5-1.1,5.8-2.4l0.7,0.4c-0.3,0.3-0.6,0.6-0.9,0.8h3.3v0.7c-1.7,2.8-4.9,4.3-9.5,4.4l-0.3-0.8c1.9,0,3.5-0.2,4.8-0.7
		c-0.4-0.5-0.8-1-1.3-1.5l0.8-0.4C282.8,189.7,283.3,190.2,283.7,190.7z M283.6,182.1c-0.2,0.2-0.4,0.5-0.7,0.7h3.4v0.7
		c-1.3,2.3-3.7,3.6-7.2,3.9l-0.4-0.8c1.1-0.1,2-0.2,2.9-0.5c-0.4-0.5-0.8-0.9-1.2-1.2l0.8-0.4c0.4,0.4,0.8,0.8,1.2,1.3
		c1.2-0.5,2.2-1.3,2.9-2.2h-3.5c-0.9,0.6-2,1-3.3,1.3L278,184c2.1-0.4,3.7-1.2,4.8-2.3L283.6,182.1z"/>
	<path style="fill:#868686;" d="M293.6,191.2c-1.2,0.5-2.5,0.8-4.1,1.1l-0.1-0.9c1.6-0.3,3-0.6,4.2-1.1V191.2z M292.3,182
		c-0.6,1.5-1.1,2.8-1.7,3.7c0.5-0.1,1-0.2,1.5-0.3c0.2-0.5,0.4-0.9,0.7-1.4l0.8,0.3c-1,2.1-1.8,3.5-2.5,4.4c0.8-0.2,1.6-0.5,2.4-0.8
		v0.8c-1.2,0.5-2.3,0.8-3.4,1l-0.2-0.8c0.2-0.1,0.3-0.1,0.4-0.2c0.4-0.5,0.9-1.3,1.5-2.5c-0.6,0.1-1.3,0.2-1.9,0.3l-0.2-0.8
		c0.1-0.1,0.3-0.2,0.4-0.3c0.6-1.1,1.1-2.4,1.6-3.8L292.3,182z M295.3,192.7h-0.8v-7.1c-0.3,0.6-0.7,1.1-1.1,1.6l-0.3-0.9
		c0.9-1.4,1.6-3,2-4.6l0.8,0.2c-0.2,0.6-0.4,1.3-0.6,1.9h2.2c-0.2-0.6-0.4-1.3-0.7-1.9l0.8-0.2c0.3,0.7,0.5,1.4,0.6,2l-0.3,0.1h2.2
		v0.8h-1.9v1.6h1.7v0.8h-1.7v1.6h1.7v0.8h-1.7v1.8h2.1v0.8h-5.1V192.7z M295.3,184.6v1.6h2.1v-1.6H295.3z M295.3,188.7h2.1V187h-2.1
		V188.7z M295.3,191.3h2.1v-1.8h-2.1V191.3z"/>
	<path style="fill:#868686;" d="M303.3,186.6c0,2.5-0.5,4.6-1.3,6.1l-0.6-0.6c0.7-1.3,1.1-3.2,1.1-5.5v-3.9h4.6
		c-0.1-0.3-0.3-0.6-0.5-0.9l0.9-0.1c0.1,0.3,0.3,0.6,0.4,1h4.1v0.8h-8.7v1.4h2v-1h0.8v1h3.2v-1h0.8v1h1.8v0.8h-1.8v1.9h-4.9v-1.9h-2
		V186.6z M311,188.3v0.6c-0.7,0.8-1.5,1.5-2.5,2.1c1.1,0.5,2.3,0.8,3.8,1l-0.4,0.7c-1.7-0.3-3.1-0.7-4.2-1.3c-1.2,0.6-2.6,1-4.2,1.3
		l-0.4-0.8c1.4-0.2,2.6-0.5,3.7-1c-0.9-0.6-1.6-1.2-2.2-2H304v-0.7H311z M307.7,190.7c0.8-0.4,1.6-1,2.2-1.6h-4.3
		C306.2,189.7,306.9,190.2,307.7,190.7z M306.2,186.8h3.2v-1.1h-3.2V186.8z"/>
	<path style="fill:#868686;" d="M323,191.6h1.3v0.8h-10.9v-0.8h1.3v-3.3h8.2V191.6z M315.1,182.3v4.9h-0.9v-4.9H315.1z M317.2,191.6
		V189h-1.6v2.5H317.2z M317.6,181.7v5.9h-0.9v-5.9H317.6z M319.7,191.6V189H318v2.5H319.7z M318.7,186.4l-0.6-0.7
		c0.9-1,1.4-2.4,1.7-4.1l0.9,0.2c-0.1,0.5-0.2,0.9-0.3,1.4h3.6v0.8h-3.9C319.7,185,319.3,185.8,318.7,186.4z M322.2,191.6V189h-1.6
		v2.5H322.2z M322.9,187l-0.7,0.5c-0.4-0.7-0.8-1.4-1.5-2.2l0.7-0.4C322,185.6,322.5,186.3,322.9,187z"/>
	<path style="fill:#868686;" d="M325.8,192.6l-0.2-0.8c0.3,0,0.6,0,0.9,0c0.3,0,0.5-0.2,0.5-0.5v-3c-0.5,0.2-1,0.3-1.4,0.5l-0.2-0.9
		c0.6-0.1,1.1-0.3,1.7-0.5v-2.7h-1.5V184h1.5v-2.3h0.9v2.3h1v0.8h-1v2.3c0.4-0.2,0.7-0.3,1-0.5v0.9c-0.3,0.2-0.7,0.3-1,0.5v3.5
		c0,0.7-0.4,1-1.1,1H325.8z M329.5,188.9v-0.8h6.4v0.8h-2.7v2.6h3.2v0.8H329v-0.8h3.3v-2.6H329.5z M333.2,183.1h2.8v2.3h-0.8v-1.5
		h-5v1.5h-0.8v-2.3h3c-0.2-0.5-0.4-0.9-0.6-1.3l0.9-0.1C332.8,182,333,182.5,333.2,183.1z M332.3,184.9c-0.6,1.2-1.3,2.1-2.2,2.7
		l-0.6-0.5c0.9-0.6,1.6-1.5,2-2.5L332.3,184.9z M335.8,187.1l-0.8,0.4c-0.6-1-1.2-1.9-2-2.6l0.7-0.3
		C334.6,185.3,335.2,186.2,335.8,187.1z"/>
</g>
</svg>
