<?xml version="1.0" encoding="utf-8"?>
<!-- Generator: Adobe Illustrator 23.0.3, SVG Export Plug-In . SVG Version: 6.00 Build 0)  -->
<svg version="1.1" xmlns="http://www.w3.org/2000/svg" xmlns:xlink="http://www.w3.org/1999/xlink" x="0px" y="0px" width="830px"
	 height="476px" viewBox="0 0 830 476" style="enable-background:new 0 0 830 476;" xml:space="preserve">
<g id="图层_2">
</g>
<g id="svgwrapper_svg">
	<rect x="66" y="180" style="fill:#CEE3FF;" width="410" height="287"/>
	<g transform="translate(0 0)">
		<g style="enable-background:new    ;">
			<path style="fill:#878787;" d="M491.6,307.4v-2.2h0.9v2.2h4.7v0.8h-3.9c0.8,1.9,2.2,3.6,4.3,5.1l-0.6,0.7
				c-2.1-1.7-3.6-3.7-4.4-5.9h-0.1v4.7h2.6v0.8h-2.6v2.5h-0.9v-2.5h-2.5v-0.8h2.5v-4.7h-0.1c-0.9,2.4-2.4,4.4-4.5,6l-0.5-0.8
				c2-1.3,3.5-3.1,4.3-5.2h-3.9v-0.8H491.6z"/>
			<path style="fill:#878787;" d="M490.2,327.9c-1.1,0.5-2.3,0.9-3.6,1.3l-0.2-0.9c0.5-0.1,1-0.2,1.5-0.4v-4.3h-1.4v-0.8h1.4v-3.1
				h0.9v3.1h1.2v0.8h-1.2v4c0.5-0.2,1-0.4,1.4-0.6V327.9z M496.9,326.3c-0.1,0.5-0.6,0.8-1.5,0.8h-0.1l-0.2-0.9c0.2,0,0.3,0,0.5,0
				c0.3,0,0.5-0.1,0.6-0.4c0.1-0.3,0.1-1.2,0.1-2.8l-1.8,0.5v4.5h-0.8v-4.3l-1.8,0.5v4.7c0,0.4,0.2,0.6,0.6,0.6h3.4
				c0.3,0,0.4-0.1,0.5-0.2c0.1-0.2,0.2-0.8,0.3-1.8l0.8,0.3c-0.1,1.2-0.2,1.9-0.5,2.2c-0.2,0.2-0.5,0.3-1,0.3h-3.8
				c-0.8,0-1.2-0.4-1.2-1.2v-4.6l-1,0.3v-0.8l1-0.3v-2.9h0.8v2.7l1.8-0.5v-3.4h0.8v3.1l2.6-0.8C497.1,324.3,497,325.8,496.9,326.3z"
				/>
		</g>
	</g>
	<g transform="translate(0 0)">
		<g style="enable-background:new    ;">
			<path style="fill:#878787;" d="M541.6,312.5c0-0.3,0-0.8,0-1.3h0.9c0,0.6,0,1.1,0,1.3h3.2v-1.3h0.9v1.3h3v0.8h-3v2.9h-0.9v-2.9
				h-3.3c-0.3,1.4-1.2,2.4-2.7,2.9l-0.5-0.7c1.3-0.4,2-1.1,2.3-2.2h-3v-0.8H541.6z M547.6,308.5h-6.9v0.8c0,0.4,0.2,0.6,0.6,0.6h6.3
				c0.3,0,0.4-0.1,0.5-0.2c0.1-0.1,0.1-0.5,0.2-1l0.8,0.3c0,0.6-0.1,0.9-0.2,1.2c-0.2,0.4-0.5,0.5-1,0.6H541c-0.8,0-1.2-0.4-1.2-1.1
				v-3.9h7.7V308.5z M546.7,307.7v-1.3h-6v1.3H546.7z"/>
			<path style="fill:#878787;" d="M542.2,327.9c-1.1,0.5-2.3,0.9-3.6,1.3l-0.2-0.9c0.5-0.1,1-0.2,1.5-0.4v-4.3h-1.4v-0.8h1.4v-3.1
				h0.9v3.1h1.2v0.8h-1.2v4c0.5-0.2,1-0.4,1.4-0.6V327.9z M548.9,326.3c-0.1,0.5-0.6,0.8-1.5,0.8h-0.1l-0.2-0.9c0.2,0,0.3,0,0.5,0
				c0.3,0,0.5-0.1,0.6-0.4c0.1-0.3,0.1-1.2,0.1-2.8l-1.8,0.5v4.5h-0.8v-4.3l-1.8,0.5v4.7c0,0.4,0.2,0.6,0.6,0.6h3.4
				c0.3,0,0.4-0.1,0.5-0.2c0.1-0.2,0.2-0.8,0.3-1.8l0.8,0.3c-0.1,1.2-0.2,1.9-0.5,2.2c-0.2,0.2-0.5,0.3-1,0.3h-3.8
				c-0.8,0-1.2-0.4-1.2-1.2v-4.6l-1,0.3v-0.8l1-0.3v-2.9h0.8v2.7l1.8-0.5v-3.4h0.8v3.1l2.6-0.8C549.1,324.3,549,325.8,548.9,326.3z"
				/>
		</g>
	</g>
	<g>
		<rect x="76" y="215" style="fill:#EAEBEC;" width="180" height="242"/>
	</g>
	<g>
		<g>
			<path style="fill:#444444;" d="M84.3,227.9v-1h5.3c-0.2-0.7-0.5-1.5-0.9-2.1l1-0.3c0.4,0.8,0.6,1.5,0.8,2.2l-0.5,0.2h5.8v1h-5.2
				v3.3h4.5v0.9h-4.5v3.8h5.7v1H83.8v-1h5.7v-3.8H85v-0.9h4.5v-3.3H84.3z"/>
			<path style="fill:#444444;" d="M100.5,231.2c-0.1,0.3-0.2,0.5-0.3,0.8h2.9v0.8c-0.3,0.9-0.8,1.7-1.6,2.4c0.7,0.3,1.3,0.6,1.9,1
				l-0.5,0.8c-0.6-0.4-1.3-0.7-2.2-1.1c-0.9,0.6-2.1,1.2-3.5,1.6l-0.5-0.8c1.1-0.3,2.1-0.7,3-1.1c-0.6-0.3-1.3-0.5-1.9-0.8
				c0.4-0.6,0.7-1.2,1-1.8h-1.7V232h2c0.1-0.3,0.2-0.6,0.3-0.9L100.5,231.2z M100,227.2v-2.7h0.9v2.7h2.5v0.9h-2.5v0.2
				c0.8,0.4,1.5,0.8,2.3,1.3l-0.5,0.8c-0.7-0.6-1.3-1-1.8-1.3v1.8H100v-2.7c-0.5,1.1-1.3,2.1-2.5,2.9l-0.5-0.8
				c1.1-0.6,1.8-1.3,2.3-2.1h-2v-0.9H100z M99.2,226.6l-0.7,0.3c-0.3-0.7-0.6-1.3-0.9-1.8l0.8-0.3C98.7,225.4,98.9,226,99.2,226.6z
				 M102.3,232.8h-2.4c-0.2,0.5-0.5,0.9-0.8,1.3c0.6,0.2,1.1,0.4,1.6,0.6C101.4,234.2,101.9,233.6,102.3,232.8z M103.3,225.1
				c-0.3,0.6-0.6,1.2-1.1,1.8l-0.7-0.4c0.4-0.6,0.8-1.2,1.1-1.8L103.3,225.1z M104.9,229.9c-0.3,0.6-0.5,1.2-0.8,1.7l-0.6-0.8
				c0.8-1.6,1.4-3.7,1.7-6.3l1,0.2c-0.1,0.7-0.2,1.4-0.3,2h3.7v1h-0.9c-0.1,2.3-0.5,4.3-1.3,6c0.7,1.3,1.6,2.2,2.6,2.9l-0.5,0.8
				c-1-0.7-1.8-1.7-2.5-2.8c-0.7,1.1-1.5,2.1-2.6,2.8l-0.5-0.8c1.1-0.8,1.9-1.7,2.6-2.9C105.7,232.6,105.2,231.3,104.9,229.9z
				 M105.3,228.4c0.4,1.6,0.8,3.1,1.4,4.2c0.5-1.4,0.8-3.1,0.9-5h-2.1L105.3,228.4z"/>
			<path style="fill:#444444;" d="M110.7,237.3l-0.2-1c0.4,0,0.7,0.1,1.1,0.1c0.4,0,0.5-0.2,0.5-0.6v-3.4c-0.6,0.2-1.1,0.4-1.7,0.6
				l-0.3-1c0.6-0.2,1.3-0.4,1.9-0.6v-3.2h-1.7v-1h1.7v-2.6h1v2.6h1.3v1h-1.3v2.8c0.4-0.2,0.9-0.4,1.3-0.6v1
				c-0.4,0.2-0.9,0.4-1.3,0.6v4.1c0,0.8-0.4,1.2-1.2,1.2H110.7z M114.5,237.4l-0.8-0.7c1-1.8,1.5-4.3,1.5-7.2v-4.4h7.4v3.4H120v1.7
				h3v0.9h-3v1.7h2.4v4.6h-0.9v-0.7h-3.8v0.7h-0.9v-4.6h2.3v-1.7h-2.9C115.9,233.5,115.4,235.6,114.5,237.4z M116.2,228.5v1
				c0,0.2,0,0.4,0,0.7h2.8v-1.7H116.2z M116.2,226.1v1.6h5.4v-1.6H116.2z M121.4,235.8v-2.1h-3.8v2.1H121.4z"/>
			<path style="fill:#444444;" d="M130.5,224.5v2.5h5v6.6h-1v-0.9h-4v4.8h-1v-4.8h-4v0.9h-1V227h5v-2.5H130.5z M129.4,231.7V228h-4
				v3.7H129.4z M134.5,231.7V228h-4v3.7H134.5z"/>
			<path style="fill:#444444;" d="M139.4,229.2c-0.4,2.4-1,4.5-1.7,6.2l-0.9-0.5c0.7-1.8,1.2-3.7,1.6-5.9L139.4,229.2z M141.9,236.9
				c-1,0-1.5-0.5-1.5-1.4v-8h1v7.8c0,0.4,0.3,0.6,0.8,0.6h2.6c0.3,0,0.6-0.1,0.7-0.4c0.2-0.3,0.3-1.3,0.4-3l1,0.3
				c-0.1,1.9-0.3,3.1-0.6,3.5c-0.3,0.4-0.7,0.5-1.2,0.5H141.9z M145.3,228.2l-0.8,0.6c-0.7-1.1-1.7-2.3-3-3.6l0.8-0.5
				C143.7,226,144.7,227.2,145.3,228.2z M149.8,234.4l-0.9,0.4c-0.7-2.2-1.5-4.2-2.4-5.9l1-0.3C148.3,230.4,149.1,232.3,149.8,234.4
				z"/>
		</g>
	</g>
	<g>
		<g>
			<path style="fill:#878787;" d="M210.2,227.4l-3.9,3.7l4.4,4.9h-1.3l-3.8-4.3l-1.3,1.3v3h-1v-8.6h1v4.5l4.6-4.5H210.2z"/>
			<path style="fill:#878787;" d="M216.4,228c0.5,0.4,0.7,0.9,0.7,1.6c0,0.5-0.1,0.8-0.3,1.2c-0.2,0.3-0.6,0.6-1,0.7v0
				c0.4,0.1,0.8,0.4,1.1,0.7c0.3,0.4,0.5,0.9,0.5,1.4c0,0.8-0.3,1.4-0.8,1.8c-0.6,0.5-1.3,0.7-2.3,0.7c-1,0-1.8-0.2-2.3-0.7
				c-0.5-0.5-0.8-1.1-0.8-1.8c0-0.6,0.2-1,0.5-1.4c0.3-0.4,0.7-0.6,1.1-0.7v0c-0.5-0.2-0.8-0.4-1-0.7c-0.2-0.3-0.3-0.7-0.3-1.2
				c0-0.6,0.2-1.2,0.7-1.6c0.5-0.5,1.2-0.7,2.1-0.7C215.2,227.3,215.9,227.5,216.4,228z M212.7,232.4c-0.4,0.3-0.5,0.7-0.5,1.2
				c0,0.5,0.2,0.9,0.5,1.2c0.4,0.3,0.9,0.5,1.6,0.5c0.7,0,1.2-0.2,1.6-0.5c0.3-0.3,0.5-0.7,0.5-1.2c0-0.5-0.2-0.9-0.5-1.2
				c-0.4-0.3-0.9-0.5-1.6-0.5C213.6,231.9,213.1,232,212.7,232.4z M212.9,228.5c-0.3,0.3-0.4,0.6-0.4,1c0,0.4,0.1,0.8,0.4,1.1
				c0.3,0.3,0.8,0.5,1.5,0.5c0.7,0,1.2-0.2,1.5-0.5c0.3-0.3,0.4-0.6,0.4-1.1c0-0.4-0.2-0.8-0.4-1c-0.3-0.3-0.8-0.5-1.4-0.5
				C213.7,228.1,213.2,228.2,212.9,228.5z"/>
			<path style="fill:#878787;" d="M223.4,231.6h-0.9c-0.1-0.4-0.2-0.7-0.5-0.8c-0.3-0.2-0.6-0.3-1.1-0.3c-0.4,0-0.8,0.1-1,0.2
				c-0.3,0.2-0.4,0.4-0.4,0.6c0,0.3,0.2,0.5,0.5,0.7c0.2,0.1,0.7,0.2,1.3,0.4c0.7,0.2,1.3,0.4,1.6,0.6c0.5,0.3,0.7,0.7,0.7,1.3
				c0,1.3-0.9,1.9-2.6,1.9c-1.6,0-2.5-0.7-2.7-2.1h0.9c0.1,0.5,0.3,0.8,0.5,1.1c0.3,0.2,0.7,0.3,1.2,0.3c1.1,0,1.7-0.4,1.7-1.1
				c0-0.3-0.2-0.6-0.6-0.8c-0.2-0.1-0.6-0.2-1.3-0.4c-0.7-0.2-1.2-0.4-1.5-0.6c-0.5-0.3-0.7-0.7-0.7-1.2c0-0.5,0.2-0.9,0.7-1.2
				c0.4-0.3,1-0.5,1.7-0.5C222.4,229.6,223.3,230.3,223.4,231.6z"/>
			<path style="fill:#878787;" d="M225,230.2l-0.5-0.7c1.1-1,1.9-2.1,2.4-3.4l0.8,0.2c-0.1,0.3-0.3,0.6-0.4,0.9h2.6
				c-0.2-0.4-0.3-0.7-0.5-1l0.9-0.1c0.2,0.3,0.3,0.7,0.5,1.2h3.9v0.7h-3.8v0.8h3.4v0.7h-3.4v0.8h3.4v0.7h-3.4v0.9h4v0.7H226v-3.4
				C225.7,229.5,225.4,229.9,225,230.2z M224.8,234.3v-0.8h4.8v-0.6h0.9v0.6h4.7v0.8h-3.6c0.8,0.8,2.1,1.4,3.8,1.8l-0.4,0.8
				c-2-0.7-3.4-1.5-4.2-2.6h-0.2v2.9h-0.9v-2.9h-0.2c-0.8,1-2.2,1.9-4.2,2.7l-0.5-0.7c1.8-0.6,3.1-1.2,3.8-1.9H224.8z M229.9,228
				h-3.1l-0.1,0.1v0.7h3.1V228z M229.9,229.5h-3.1v0.8h3.1V229.5z M229.9,231h-3.1v0.9h3.1V231z"/>
			<path style="fill:#878787;" d="M238.7,231.7c-0.1,0.4-0.2,0.8-0.4,1.2h3.1v4.3h-0.8v-0.7h-1.9v0.7h-0.8v-3.6
				c-0.3,0.7-0.7,1.3-1.2,1.8l-0.5-0.7c0.7-0.7,1.2-1.7,1.5-3H237v-0.7h1.1c0.1-0.4,0.2-0.9,0.2-1.4h-1.6v-0.8h1.7
				c0-0.5,0-0.9,0.1-1.4h-1.4v-0.7h4.1v2.1h0.7v0.8h-0.7v2.1H238.7z M240.7,235.6v-2h-1.9v2H240.7z M238.9,230.9h1.5v-1.4h-1.3
				C239,230.1,239,230.5,238.9,230.9z M239.2,228.8h1.2v-1.4h-1.2C239.2,227.9,239.2,228.4,239.2,228.8z M242.2,229.3v-0.8h1.4
				c-0.3-0.7-0.7-1.4-1-1.9l0.7-0.3c0.4,0.6,0.7,1.2,1,1.9l-0.7,0.3h1.4c0.3-0.7,0.6-1.5,0.9-2.4l0.8,0.3c-0.3,0.8-0.5,1.5-0.9,2.1
				h1.3v0.8h-2v1.7h1.7v0.8h-1.7v1.7h2.3v0.8h-2.3v2.8h-0.9v-2.8h-2.2v-0.8h2.2v-1.7h-1.9v-0.8h1.9v-1.7H242.2z"/>
		</g>
	</g>
	<g>
		<g>
			<path style="fill:#00A4FF;" d="M82.2,191.1v0.9h-0.9v7.7c0.3-0.1,0.6-0.2,0.9-0.3v1c-0.3,0.1-0.6,0.2-0.9,0.3v2.8h-1V201
				c-1.1,0.3-2.3,0.5-3.5,0.8l-0.3-1l0.9-0.1v-8.6h-0.9v-0.9H82.2z M80.3,194.1v-2.1h-1.9v2.1H80.3z M80.3,197v-2h-1.9v2H80.3z
				 M80.3,200V198h-1.9v2.5C79.1,200.3,79.7,200.2,80.3,200z M85.9,193.6c0.5-0.9,1-1.9,1.4-3l0.9,0.3c-0.4,1.1-0.8,1.9-1.3,2.7H89
				v1h-2.9v0.4c0,0.7,0,1.4-0.1,2h3.2v1h-2.9c0.3,1.5,1.4,3.1,3.1,4.7l-0.7,0.7c-1.6-1.6-2.6-3.2-3-4.7c-0.5,2.2-1.6,3.8-3.2,4.8
				l-0.6-0.8c1.6-1,2.6-2.5,3-4.7h-2.7v-1h2.8c0.1-0.6,0.1-1.1,0.1-1.8v-0.6h-2.7v-1H85.9z M85.1,192.9l-0.8,0.5
				c-0.3-0.7-0.8-1.4-1.3-2.2l0.8-0.5C84.4,191.5,84.8,192.2,85.1,192.9z"/>
			<path style="fill:#00A4FF;" d="M93.6,192.3v-1.6h1v1.6h2.5v1h-2.5v1.8h2.2v1h-2.2v0.3c0,0.6-0.1,1.1-0.1,1.7h2.6v1h-2.8
				c-0.4,1.8-1.3,3.2-2.7,4.1l-0.8-0.7c1.2-0.8,2-2,2.4-3.5h-2.5v-1h2.7c0.1-0.5,0.1-1.1,0.1-1.7v-0.3h-2.4v-1h2.4v-1.8H91v-1H93.6z
				 M103,191.2v0.8c-0.5,1.4-1,2.8-1.6,4c1.2,1.3,1.8,2.3,1.8,3.2c0,0.9-0.2,1.5-0.6,1.9c-0.4,0.4-1.2,0.5-2.4,0.5l-0.3-1.1
				c0.4,0,0.7,0.1,1,0.1c0.6,0,0.9-0.1,1.1-0.3c0.1-0.2,0.2-0.6,0.2-1.1c0-0.8-0.6-1.9-1.8-3.2c0.5-1.1,1-2.4,1.5-3.9h-2.8v11.3h-1
				v-12.2H103z"/>
			<path style="fill:#00A4FF;" d="M105.2,195.2l-0.6-0.8c1.2-1.1,2.2-2.4,2.8-4l0.9,0.2c-0.1,0.4-0.3,0.7-0.5,1.1h3
				c-0.2-0.4-0.4-0.8-0.6-1.2l1-0.2c0.2,0.4,0.4,0.9,0.6,1.4h4.5v0.8h-4.5v1h3.9v0.8h-3.9v0.9h3.9v0.8h-3.9v1h4.7v0.9h-10.3V194
				C106,194.5,105.6,194.9,105.2,195.2z M105,200v-0.9h5.6v-0.7h1v0.7h5.5v0.9h-4.2c1,0.9,2.4,1.6,4.4,2.1l-0.4,0.9
				c-2.3-0.8-4-1.8-4.9-3h-0.3v3.4h-1V200h-0.3c-0.9,1.2-2.5,2.2-4.9,3.1l-0.5-0.9c2.2-0.7,3.6-1.4,4.5-2.2H105z M110.9,192.7h-3.6
				l-0.1,0.1v0.8h3.6V192.7z M110.9,194.4h-3.6v0.9h3.6V194.4z M110.9,196.1h-3.6v1h3.6V196.1z"/>
			<path style="fill:#00A4FF;" d="M121.2,196.9c-0.1,0.5-0.3,0.9-0.4,1.4h3.7v5h-0.9v-0.8h-2.2v0.8h-0.9v-4.2
				c-0.4,0.8-0.8,1.5-1.4,2.1l-0.5-0.8c0.8-0.9,1.3-2,1.7-3.5h-1.1v-0.9h1.3c0.1-0.5,0.2-1,0.2-1.6h-1.9v-0.9h2
				c0-0.5,0.1-1.1,0.1-1.6h-1.6v-0.9h4.8v2.5h0.8v0.9h-0.8v2.5H121.2z M123.5,201.6v-2.4h-2.2v2.4H123.5z M121.4,196.1h1.8v-1.6
				h-1.5C121.5,195.1,121.5,195.6,121.4,196.1z M121.7,193.6h1.4V192h-1.4C121.8,192.5,121.7,193.1,121.7,193.6z M125.2,194.2v-1
				h1.7c-0.4-0.8-0.8-1.6-1.2-2.2l0.9-0.4c0.4,0.7,0.8,1.4,1.2,2.2l-0.8,0.4h1.6c0.4-0.9,0.8-1.8,1.1-2.7l1,0.3
				c-0.3,0.9-0.6,1.7-1,2.4h1.6v1h-2.3v2h2v0.9h-2v2h2.6v1h-2.6v3.2h-1v-3.2h-2.6v-1h2.6v-2h-2.2v-0.9h2.2v-2H125.2z"/>
		</g>
	</g>
	<g>
		<g>
			<rect x="88" y="319" style="opacity:0.6;fill:#BBBBBB;enable-background:new    ;" width="158" height="50"/>
			<g>
				<rect x="86.5" y="317.5" style="fill:#FFFFFF;" width="157" height="49"/>
				<path style="fill:#E5E5E5;" d="M243,318v48H87v-48H243 M244,317H86v50h158V317L244,317z"/>
			</g>
		</g>
		<g transform="translate(20 9)">
			<g style="enable-background:new    ;">
				<path style="fill:#444444;" d="M133.2,327.9h5.1v1h-10.4v3.1c-0.1,3.1-0.5,5.5-1.4,7.4l-0.8-0.7c0.8-1.6,1.2-3.8,1.2-6.7v-4.1
					h5.2c-0.2-0.4-0.5-0.9-0.8-1.3l1.1-0.2C132.7,326.9,133,327.4,133.2,327.9z M134,337.8c0.9-2,1.6-4.4,2.3-7.4l1,0.3
					c-0.6,2.7-1.3,5-2.2,7.1h3v1h-9.9v-1H134z M131.2,336.3l-1,0.2c-0.4-1.8-0.9-3.5-1.4-5.1l0.9-0.3
					C130.3,332.6,130.8,334.3,131.2,336.3z M133.7,335.4l-1,0.2c-0.3-1.8-0.7-3.6-1.2-5.3l0.9-0.3
					C132.9,331.7,133.3,333.4,133.7,335.4z"/>
				<path style="fill:#444444;" d="M140.4,339.3l-0.8-0.7c0.9-1.2,1.4-2.8,1.4-4.7v-6.7h10.4v10.5c0,1-0.5,1.5-1.5,1.5h-1.6l-0.3-1
					c0.6,0,1.1,0.1,1.6,0.1c0.5,0,0.8-0.3,0.8-0.9v-2.4h-3.8v4.1h-1v-4.1H142C141.8,336.6,141.3,338.1,140.4,339.3z M142.1,328.1
					v2.4h3.6v-2.4H142.1z M142.1,333.9h3.6v-2.5h-3.6V333.9z M150.5,328.1h-3.8v2.4h3.8V328.1z M150.5,331.4h-3.8v2.5h3.8V331.4z"/>
				<path style="fill:#444444;" d="M163,328l3.9,10h-1.2l-1.1-2.8H160L159,338h-1.2l3.9-10H163z M164.3,334.2l-1.9-5h-0.1l-1.9,5
					H164.3z"/>
			</g>
		</g>
	</g>
	<g>
		<g>
			<rect x="118" y="251" style="opacity:0.6;fill:#BBBBBB;enable-background:new    ;" width="98" height="40"/>
			<g>
				<rect x="116.5" y="249.5" style="fill:#FFFFFF;" width="97" height="39"/>
				<path style="fill:#E5E5E5;" d="M213,250v38h-96v-38H213 M214,249h-98v40h98V249L214,249z"/>
			</g>
		</g>
		<g transform="translate(20 9)">
			<g style="enable-background:new    ;">
				<path style="fill:#444444;" d="M139.3,255v9h5.8v1h-6.9v-10H139.3z"/>
				<path style="fill:#444444;" d="M150.9,255c0.9,0,1.7,0.2,2.2,0.7c0.5,0.4,0.8,1.1,0.8,1.8c0,0.6-0.2,1.1-0.4,1.5
					c-0.3,0.4-0.7,0.6-1.2,0.8c0.7,0.1,1.2,0.4,1.5,0.8c0.4,0.4,0.6,1,0.6,1.6c0,1-0.4,1.7-1,2.2c-0.6,0.4-1.4,0.6-2.4,0.6h-4.4v-10
					H150.9z M147.5,259.4h3c0.7,0,1.2-0.2,1.6-0.4c0.4-0.3,0.6-0.7,0.6-1.3c0-0.6-0.2-1-0.5-1.3c-0.4-0.3-0.9-0.4-1.6-0.4h-3.1
					V259.4z M147.5,264h3.2c0.7,0,1.2-0.1,1.7-0.4c0.5-0.3,0.7-0.8,0.7-1.4s-0.2-1.1-0.6-1.4c-0.4-0.3-1-0.4-1.8-0.4h-3.2V264z"/>
			</g>
		</g>
	</g>
	<g>
		<g>
			<rect x="88" y="397" style="opacity:0.6;fill:#BBBBBB;enable-background:new    ;" width="158" height="50"/>
			<g>
				<rect x="86.5" y="395.5" style="fill:#FFFFFF;" width="157" height="49"/>
				<path style="fill:#E5E5E5;" d="M243,396v48H87v-48H243 M244,395H86v50h158V395L244,395z"/>
			</g>
		</g>
		<g transform="translate(20 9)">
			<g style="enable-background:new    ;">
				<path style="fill:#444444;" d="M133,405.9h5.1v1h-10.4v3.1c-0.1,3.1-0.5,5.5-1.4,7.4l-0.8-0.7c0.8-1.6,1.2-3.8,1.2-6.7v-4.1h5.2
					c-0.2-0.4-0.5-0.9-0.8-1.3l1.1-0.2C132.6,404.9,132.8,405.4,133,405.9z M133.9,415.8c0.9-2,1.6-4.4,2.3-7.4l1,0.3
					c-0.6,2.7-1.3,5-2.2,7.1h3v1h-9.9v-1H133.9z M131.1,414.3l-1,0.2c-0.4-1.8-0.9-3.5-1.4-5.1l0.9-0.3
					C130.1,410.6,130.6,412.3,131.1,414.3z M133.6,413.4l-1,0.2c-0.3-1.8-0.7-3.6-1.2-5.3l0.9-0.3
					C132.8,409.7,133.2,411.4,133.6,413.4z"/>
				<path style="fill:#444444;" d="M140.3,417.3l-0.8-0.7c0.9-1.2,1.4-2.8,1.4-4.7v-6.7h10.4v10.5c0,1-0.5,1.5-1.5,1.5h-1.6l-0.3-1
					c0.6,0,1.1,0.1,1.6,0.1c0.5,0,0.8-0.3,0.8-0.9v-2.4h-3.8v4.1h-1v-4.1h-3.6C141.7,414.6,141.2,416.1,140.3,417.3z M141.9,406.1
					v2.4h3.6v-2.4H141.9z M141.9,411.9h3.6v-2.5h-3.6V411.9z M150.3,406.1h-3.8v2.4h3.8V406.1z M150.3,409.4h-3.8v2.5h3.8V409.4z"/>
				<path style="fill:#444444;" d="M163.1,406c0.9,0,1.7,0.2,2.2,0.7c0.5,0.4,0.8,1.1,0.8,1.8c0,0.6-0.2,1.1-0.4,1.5
					c-0.3,0.4-0.7,0.6-1.2,0.8c0.7,0.1,1.2,0.4,1.5,0.8c0.4,0.4,0.6,1,0.6,1.6c0,1-0.4,1.7-1,2.2c-0.6,0.4-1.4,0.6-2.4,0.6h-4.4v-10
					H163.1z M159.7,410.4h3c0.7,0,1.2-0.2,1.6-0.4c0.4-0.3,0.6-0.7,0.6-1.3c0-0.6-0.2-1-0.5-1.3s-0.9-0.4-1.6-0.4h-3.1V410.4z
					 M159.7,415h3.2c0.7,0,1.2-0.1,1.7-0.4c0.5-0.3,0.7-0.8,0.7-1.4s-0.2-1.1-0.6-1.4c-0.4-0.3-1-0.4-1.8-0.4h-3.2V415z"/>
			</g>
		</g>
	</g>
	<g>
		<polygon style="fill:#989898;" points="169,389 166,393 163,389 		"/>
		<g>
			<g>
				<line style="fill:none;stroke:#989898;stroke-miterlimit:10;" x1="166" y1="389" x2="166" y2="369"/>
			</g>
		</g>
	</g>
	<g>
		<polygon style="fill:#989898;" points="169,311 166,315 163,311 		"/>
		<g>
			<g>
				<line style="fill:none;stroke:#989898;stroke-miterlimit:10;" x1="166" y1="311" x2="166" y2="291"/>
			</g>
		</g>
	</g>
	<g>
		<rect x="286" y="215" style="fill:#EAEBEC;" width="180" height="242"/>
	</g>
	<g>
		<g>
			<path style="fill:#444444;" d="M297.2,230.7c0.4-1.3,0.7-2.8,0.9-4.3H294v-1h5.1v0.8c-0.1,2-0.5,3.9-1.1,5.5
				c0.6,0.9,1.2,1.8,1.7,2.7l-0.8,0.8c-0.4-0.8-0.9-1.6-1.4-2.4c-0.8,1.6-1.8,3-3.2,4.1l-0.7-0.8c1.4-1.2,2.4-2.7,3.2-4.3
				c-0.8-1.1-1.7-2.3-2.7-3.5l0.7-0.7C295.7,228.6,296.5,229.7,297.2,230.7z M305.7,225.4v0.9c-0.3,2.3-1.1,4.4-2.3,6.4
				c0.8,1.3,1.8,2.5,3,3.8l-0.7,0.8c-1.2-1.2-2.2-2.4-2.9-3.7c-0.9,1.3-2,2.5-3.2,3.7l-0.7-0.8c1.3-1.2,2.5-2.5,3.4-3.8
				c-1.1-2-1.7-4.1-1.8-6.3h-0.5v-1H305.7z M302.8,231.7c1-1.7,1.6-3.5,1.9-5.4h-3.4C301.4,228.2,301.9,230,302.8,231.7z"/>
			<path style="fill:#444444;" d="M310.2,230.2l-0.7,0.7c-0.6-0.7-1.4-1.4-2.4-2.1l0.7-0.7C308.7,228.8,309.5,229.5,310.2,230.2z
				 M310.3,232.2c-0.6,1.8-1.3,3.5-2,5.1l-1-0.4c0.8-1.6,1.5-3.3,2.1-5L310.3,232.2z M310.5,226.6l-0.7,0.7
				c-0.6-0.6-1.4-1.2-2.4-1.9l0.7-0.7C309,225.4,309.8,226,310.5,226.6z M314.6,228.6v-2.2c-1.1,0.1-2.2,0.2-3.4,0.2l-0.3-0.9
				c3.1,0,5.6-0.4,7.6-1l0.5,0.9c-1,0.3-2.1,0.6-3.4,0.8v2.3h4v1h-4v2.2h3.2v5.6h-1v-0.7h-5.3v0.8h-1v-5.6h3.1v-2.2h-4v-1H314.6z
				 M317.8,235.7v-3h-5.3v3H317.8z"/>
			<path style="fill:#444444;" d="M323.9,231.2c-0.1,0.3-0.2,0.5-0.3,0.8h2.9v0.8c-0.3,0.9-0.8,1.7-1.6,2.4c0.7,0.3,1.3,0.6,1.9,1
				l-0.5,0.8c-0.6-0.4-1.3-0.7-2.2-1.1c-0.9,0.6-2.1,1.2-3.5,1.6l-0.5-0.8c1.1-0.3,2.1-0.7,3-1.1c-0.6-0.3-1.3-0.5-1.9-0.8
				c0.4-0.6,0.7-1.2,1-1.8h-1.7V232h2c0.1-0.3,0.2-0.6,0.3-0.9L323.9,231.2z M323.3,227.2v-2.7h0.9v2.7h2.5v0.9h-2.5v0.2
				c0.8,0.4,1.5,0.8,2.3,1.3l-0.5,0.8c-0.7-0.6-1.3-1-1.8-1.3v1.8h-0.9v-2.7c-0.5,1.1-1.3,2.1-2.5,2.9l-0.5-0.8
				c1.1-0.6,1.8-1.3,2.3-2.1h-2v-0.9H323.3z M322.5,226.6l-0.7,0.3c-0.3-0.7-0.6-1.3-0.9-1.8l0.8-0.3
				C322,225.4,322.3,226,322.5,226.6z M325.6,232.8h-2.4c-0.2,0.5-0.5,0.9-0.8,1.3c0.6,0.2,1.1,0.4,1.6,0.6
				C324.7,234.2,325.3,233.6,325.6,232.8z M326.6,225.1c-0.3,0.6-0.6,1.2-1.1,1.8l-0.7-0.4c0.4-0.6,0.8-1.2,1.1-1.8L326.6,225.1z
				 M328.2,229.9c-0.3,0.6-0.5,1.2-0.8,1.7l-0.6-0.8c0.8-1.6,1.4-3.7,1.7-6.3l1,0.2c-0.1,0.7-0.2,1.4-0.3,2h3.7v1h-0.9
				c-0.1,2.3-0.5,4.3-1.3,6c0.7,1.3,1.6,2.2,2.6,2.9l-0.5,0.8c-1-0.7-1.8-1.7-2.5-2.8c-0.7,1.1-1.5,2.1-2.6,2.8l-0.5-0.8
				c1.1-0.8,1.9-1.7,2.6-2.9C329,232.6,328.6,231.3,328.2,229.9z M328.7,228.4c0.4,1.6,0.8,3.1,1.4,4.2c0.5-1.4,0.8-3.1,0.9-5h-2.1
				L328.7,228.4z"/>
			<path style="fill:#444444;" d="M334,237.3l-0.2-1c0.4,0,0.7,0.1,1.1,0.1c0.4,0,0.5-0.2,0.5-0.6v-3.4c-0.6,0.2-1.1,0.4-1.7,0.6
				l-0.3-1c0.6-0.2,1.3-0.4,1.9-0.6v-3.2h-1.7v-1h1.7v-2.6h1v2.6h1.3v1h-1.3v2.8c0.4-0.2,0.9-0.4,1.3-0.6v1
				c-0.4,0.2-0.9,0.4-1.3,0.6v4.1c0,0.8-0.4,1.2-1.2,1.2H334z M337.8,237.4l-0.8-0.7c1-1.8,1.5-4.3,1.5-7.2v-4.4h7.4v3.4h-2.6v1.7h3
				v0.9h-3v1.7h2.4v4.6h-0.9v-0.7h-3.8v0.7h-0.9v-4.6h2.3v-1.7h-2.9C339.3,233.5,338.7,235.6,337.8,237.4z M339.5,228.5v1
				c0,0.2,0,0.4,0,0.7h2.8v-1.7H339.5z M339.5,226.1v1.6h5.4v-1.6H339.5z M344.7,235.8v-2.1h-3.8v2.1H344.7z"/>
			<path style="fill:#444444;" d="M353.8,224.5v2.5h5v6.6h-1v-0.9h-4v4.8h-1v-4.8h-4v0.9h-1V227h5v-2.5H353.8z M352.7,231.7V228h-4
				v3.7H352.7z M357.8,231.7V228h-4v3.7H357.8z"/>
			<path style="fill:#444444;" d="M362.7,229.2c-0.4,2.4-1,4.5-1.7,6.2l-0.9-0.5c0.7-1.8,1.2-3.7,1.6-5.9L362.7,229.2z M365.2,236.9
				c-1,0-1.5-0.5-1.5-1.4v-8h1v7.8c0,0.4,0.3,0.6,0.8,0.6h2.6c0.3,0,0.6-0.1,0.7-0.4c0.2-0.3,0.3-1.3,0.4-3l1,0.3
				c-0.1,1.9-0.3,3.1-0.6,3.5c-0.3,0.4-0.7,0.5-1.2,0.5H365.2z M368.7,228.2l-0.8,0.6c-0.7-1.1-1.7-2.3-3-3.6l0.8-0.5
				C367,226,368,227.2,368.7,228.2z M373.1,234.4l-0.9,0.4c-0.7-2.2-1.5-4.2-2.4-5.9l1-0.3C371.6,230.4,372.4,232.3,373.1,234.4z"/>
		</g>
	</g>
	<g>
		<g>
			<rect x="298" y="319" style="opacity:0.6;fill:#BBBBBB;enable-background:new    ;" width="158" height="50"/>
			<g>
				<rect x="296.5" y="317.5" style="fill:#FFFFFF;" width="157" height="49"/>
				<path style="fill:#E5E5E5;" d="M453,318v48H297v-48H453 M454,317H296v50h158V317L454,317z"/>
			</g>
		</g>
		<g transform="translate(20 9)">
			<g style="enable-background:new    ;">
				<path style="fill:#444444;" d="M343.2,327.9h5.1v1h-10.4v3.1c-0.1,3.1-0.5,5.5-1.4,7.4l-0.8-0.7c0.8-1.6,1.2-3.8,1.2-6.7v-4.1
					h5.2c-0.2-0.4-0.5-0.9-0.8-1.3l1.1-0.2C342.7,326.9,343,327.4,343.2,327.9z M344,337.8c0.9-2,1.6-4.4,2.3-7.4l1,0.3
					c-0.6,2.7-1.3,5-2.2,7.1h3v1h-9.9v-1H344z M341.2,336.3l-1,0.2c-0.4-1.8-0.9-3.5-1.4-5.1l0.9-0.3
					C340.3,332.6,340.8,334.3,341.2,336.3z M343.7,335.4l-1,0.2c-0.3-1.8-0.7-3.6-1.2-5.3l0.9-0.3
					C342.9,331.7,343.3,333.4,343.7,335.4z"/>
				<path style="fill:#444444;" d="M350.4,339.3l-0.8-0.7c0.9-1.2,1.4-2.8,1.4-4.7v-6.7h10.4v10.5c0,1-0.5,1.5-1.5,1.5h-1.6l-0.3-1
					c0.6,0,1.1,0.1,1.6,0.1c0.5,0,0.8-0.3,0.8-0.9v-2.4h-3.8v4.1h-1v-4.1H352C351.8,336.6,351.3,338.1,350.4,339.3z M352.1,328.1
					v2.4h3.6v-2.4H352.1z M352.1,333.9h3.6v-2.5h-3.6V333.9z M360.5,328.1h-3.8v2.4h3.8V328.1z M360.5,331.4h-3.8v2.5h3.8V331.4z"/>
				<path style="fill:#444444;" d="M373,328l3.9,10h-1.2l-1.1-2.8H370L369,338h-1.2l3.9-10H373z M374.3,334.2l-1.9-5h-0.1l-1.9,5
					H374.3z"/>
			</g>
		</g>
	</g>
	<g>
		<g>
			<rect x="328" y="251" style="opacity:0.6;fill:#BBBBBB;enable-background:new    ;" width="98" height="40"/>
			<g>
				<rect x="326.5" y="249.5" style="fill:#FFFFFF;" width="97" height="39"/>
				<path style="fill:#E5E5E5;" d="M423,250v38h-96v-38H423 M424,249h-98v40h98V249L424,249z"/>
			</g>
		</g>
		<g transform="translate(20 9)">
			<g style="enable-background:new    ;">
				<path style="fill:#444444;" d="M349.3,255v9h5.8v1h-6.9v-10H349.3z"/>
				<path style="fill:#444444;" d="M360.9,255c0.9,0,1.7,0.2,2.2,0.7c0.5,0.4,0.8,1.1,0.8,1.8c0,0.6-0.2,1.1-0.4,1.5
					c-0.3,0.4-0.7,0.6-1.2,0.8c0.7,0.1,1.2,0.4,1.5,0.8c0.4,0.4,0.6,1,0.6,1.6c0,1-0.4,1.7-1,2.2c-0.6,0.4-1.4,0.6-2.4,0.6h-4.4v-10
					H360.9z M357.5,259.4h3c0.7,0,1.2-0.2,1.6-0.4c0.4-0.3,0.6-0.7,0.6-1.3c0-0.6-0.2-1-0.5-1.3c-0.4-0.3-0.9-0.4-1.6-0.4h-3.1
					V259.4z M357.5,264h3.2c0.7,0,1.2-0.1,1.7-0.4c0.5-0.3,0.7-0.8,0.7-1.4s-0.2-1.1-0.6-1.4c-0.4-0.3-1-0.4-1.8-0.4h-3.2V264z"/>
			</g>
		</g>
	</g>
	<g>
		<g>
			<rect x="298" y="397" style="opacity:0.6;fill:#BBBBBB;enable-background:new    ;" width="158" height="50"/>
			<g>
				<rect x="296.5" y="395.5" style="fill:#FFFFFF;" width="157" height="49"/>
				<path style="fill:#E5E5E5;" d="M453,396v48H297v-48H453 M454,395H296v50h158V395L454,395z"/>
			</g>
		</g>
		<g transform="translate(20 9)">
			<g style="enable-background:new    ;">
				<path style="fill:#444444;" d="M343,405.9h5.1v1h-10.4v3.1c-0.1,3.1-0.5,5.5-1.4,7.4l-0.8-0.7c0.8-1.6,1.2-3.8,1.2-6.7v-4.1h5.2
					c-0.2-0.4-0.5-0.9-0.8-1.3l1.1-0.2C342.6,404.9,342.8,405.4,343,405.9z M343.9,415.8c0.9-2,1.6-4.4,2.3-7.4l1,0.3
					c-0.6,2.7-1.3,5-2.2,7.1h3v1h-9.9v-1H343.9z M341.1,414.3l-1,0.2c-0.4-1.8-0.9-3.5-1.4-5.1l0.9-0.3
					C340.1,410.6,340.6,412.3,341.1,414.3z M343.6,413.4l-1,0.2c-0.3-1.8-0.7-3.6-1.2-5.3l0.9-0.3
					C342.8,409.7,343.2,411.4,343.6,413.4z"/>
				<path style="fill:#444444;" d="M350.3,417.3l-0.8-0.7c0.9-1.2,1.4-2.8,1.4-4.7v-6.7h10.4v10.5c0,1-0.5,1.5-1.5,1.5h-1.6l-0.3-1
					c0.6,0,1.1,0.1,1.6,0.1c0.5,0,0.8-0.3,0.8-0.9v-2.4h-3.8v4.1h-1v-4.1h-3.6C351.7,414.6,351.2,416.1,350.3,417.3z M351.9,406.1
					v2.4h3.6v-2.4H351.9z M351.9,411.9h3.6v-2.5h-3.6V411.9z M360.3,406.1h-3.8v2.4h3.8V406.1z M360.3,409.4h-3.8v2.5h3.8V409.4z"/>
				<path style="fill:#444444;" d="M373.1,406c0.9,0,1.7,0.2,2.2,0.7c0.5,0.4,0.8,1.1,0.8,1.8c0,0.6-0.2,1.1-0.4,1.5
					c-0.3,0.4-0.7,0.6-1.2,0.8c0.7,0.1,1.2,0.4,1.5,0.8c0.4,0.4,0.6,1,0.6,1.6c0,1-0.4,1.7-1,2.2c-0.6,0.4-1.4,0.6-2.4,0.6h-4.4v-10
					H373.1z M369.7,410.4h3c0.7,0,1.2-0.2,1.6-0.4c0.4-0.3,0.6-0.7,0.6-1.3c0-0.6-0.2-1-0.5-1.3s-0.9-0.4-1.6-0.4h-3.1V410.4z
					 M369.7,415h3.2c0.7,0,1.2-0.1,1.7-0.4c0.5-0.3,0.7-0.8,0.7-1.4s-0.2-1.1-0.6-1.4c-0.4-0.3-1-0.4-1.8-0.4h-3.2V415z"/>
			</g>
		</g>
	</g>
	<g>
		<polygon style="fill:#989898;" points="379,389 376,393 373,389 		"/>
		<g>
			<g>
				<line style="fill:none;stroke:#989898;stroke-miterlimit:10;" x1="376" y1="389" x2="376" y2="369"/>
			</g>
		</g>
	</g>
	<g>
		<polygon style="fill:#989898;" points="379,311 376,315 373,311 		"/>
		<g>
			<g>
				<line style="fill:none;stroke:#989898;stroke-miterlimit:10;" x1="376" y1="311" x2="376" y2="291"/>
			</g>
		</g>
	</g>
	<g>
		<polygon style="fill:#989898;" points="379,83 376,87 373,83 		"/>
		<g>
			<g>
				<line style="fill:none;stroke:#989898;stroke-miterlimit:10;" x1="376" y1="83" x2="376" y2="59"/>
			</g>
		</g>
	</g>
	<g>
		<rect x="560" y="215" style="fill:#EAEBEC;" width="180" height="242"/>
	</g>
	<g>
		<g>
			<path style="fill:#444444;" d="M575.4,230.4c0.6,2.7,2.5,4.7,5.7,6l-0.6,0.8c-2.9-1.3-4.7-3-5.5-5.2c-0.9,2.1-2.7,3.8-5.6,5.2
				l-0.6-0.8c3.6-1.7,5.5-4,5.6-6.8c0-0.7,0-1.2,0-1.6h1C575.5,228.9,575.5,229.7,575.4,230.4z M580.7,229.2h-1v-2.1h-9.4v2.1h-1
				v-3.1h5.1c-0.2-0.5-0.3-1-0.5-1.4l1-0.2c0.2,0.5,0.3,1,0.5,1.6h5.3V229.2z M572.5,229.8c-0.6,1.3-1.3,2.5-2.1,3.5l-0.8-0.6
				c0.8-0.9,1.4-2.1,2-3.4L572.5,229.8z M579.8,229.8c-0.5,1.3-1.1,2.4-1.8,3.3l-0.8-0.6c0.6-0.9,1.2-2,1.7-3.2L579.8,229.8z"/>
			<path style="fill:#444444;" d="M587.4,224.6c-0.2,0.3-0.4,0.6-0.7,0.9h5.7v0.8c-0.9,1.1-1.9,2-3.2,2.7c1.5,0.6,3.3,1.1,5.4,1.4
				l-0.4,0.9c-2.3-0.4-4.3-0.9-5.9-1.7c-1.7,0.9-3.7,1.5-6,1.8l-0.4-0.9c2.1-0.3,3.9-0.8,5.5-1.5c-0.8-0.5-1.6-1.1-2.2-1.8
				c-0.6,0.6-1.3,1.1-2,1.5l-0.6-0.8c1.6-0.9,2.9-2.1,3.9-3.6L587.4,224.6z M592.7,237.4h-1v-0.6h-6.9v0.6h-1v-6.1h8.8V237.4z
				 M587.8,233.6v-1.5h-3v1.5H587.8z M587.8,235.9v-1.5h-3v1.5H587.8z M588.3,228.6c1.1-0.6,2.1-1.3,2.9-2.1h-5.2l-0.3,0.3
				C586.5,227.4,587.3,228,588.3,228.6z M588.8,233.6h3v-1.5h-3V233.6z M591.8,235.9v-1.5h-3v1.5H591.8z"/>
			<path style="fill:#444444;" d="M598.9,231.2c-0.1,0.3-0.2,0.5-0.3,0.8h2.9v0.8c-0.3,0.9-0.8,1.7-1.6,2.4c0.7,0.3,1.3,0.6,1.9,1
				l-0.5,0.8c-0.6-0.4-1.3-0.7-2.2-1.1c-0.9,0.6-2.1,1.2-3.5,1.6l-0.5-0.8c1.1-0.3,2.1-0.7,3-1.1c-0.6-0.3-1.3-0.5-1.9-0.8
				c0.4-0.6,0.7-1.2,1-1.8h-1.7V232h2c0.1-0.3,0.2-0.6,0.3-0.9L598.9,231.2z M598.3,227.2v-2.7h0.9v2.7h2.5v0.9h-2.5v0.2
				c0.8,0.4,1.5,0.8,2.3,1.3l-0.5,0.8c-0.7-0.6-1.3-1-1.8-1.3v1.8h-0.9v-2.7c-0.5,1.1-1.3,2.1-2.5,2.9l-0.5-0.8
				c1.1-0.6,1.8-1.3,2.3-2.1h-2v-0.9H598.3z M597.5,226.6l-0.7,0.3c-0.3-0.7-0.6-1.3-0.9-1.8l0.8-0.3
				C597,225.4,597.3,226,597.5,226.6z M600.6,232.8h-2.4c-0.2,0.5-0.5,0.9-0.8,1.3c0.6,0.2,1.1,0.4,1.6,0.6
				C599.7,234.2,600.3,233.6,600.6,232.8z M601.6,225.1c-0.3,0.6-0.6,1.2-1.1,1.8l-0.7-0.4c0.4-0.6,0.8-1.2,1.1-1.8L601.6,225.1z
				 M603.2,229.9c-0.3,0.6-0.5,1.2-0.8,1.7l-0.6-0.8c0.8-1.6,1.4-3.7,1.7-6.3l1,0.2c-0.1,0.7-0.2,1.4-0.3,2h3.7v1h-0.9
				c-0.1,2.3-0.5,4.3-1.3,6c0.7,1.3,1.6,2.2,2.6,2.9l-0.5,0.8c-1-0.7-1.8-1.7-2.5-2.8c-0.7,1.1-1.5,2.1-2.6,2.8l-0.5-0.8
				c1.1-0.8,1.9-1.7,2.6-2.9C604,232.6,603.6,231.3,603.2,229.9z M603.7,228.4c0.4,1.6,0.8,3.1,1.4,4.2c0.5-1.4,0.8-3.1,0.9-5h-2.1
				L603.7,228.4z"/>
			<path style="fill:#444444;" d="M609,237.3l-0.2-1c0.4,0,0.7,0.1,1.1,0.1c0.4,0,0.5-0.2,0.5-0.6v-3.4c-0.6,0.2-1.1,0.4-1.7,0.6
				l-0.3-1c0.6-0.2,1.3-0.4,1.9-0.6v-3.2h-1.7v-1h1.7v-2.6h1v2.6h1.3v1h-1.3v2.8c0.4-0.2,0.9-0.4,1.3-0.6v1
				c-0.4,0.2-0.9,0.4-1.3,0.6v4.1c0,0.8-0.4,1.2-1.2,1.2H609z M612.8,237.4l-0.8-0.7c1-1.8,1.5-4.3,1.5-7.2v-4.4h7.4v3.4h-2.6v1.7h3
				v0.9h-3v1.7h2.4v4.6h-0.9v-0.7h-3.8v0.7h-0.9v-4.6h2.3v-1.7h-2.9C614.3,233.5,613.7,235.6,612.8,237.4z M614.5,228.5v1
				c0,0.2,0,0.4,0,0.7h2.8v-1.7H614.5z M614.5,226.1v1.6h5.4v-1.6H614.5z M619.7,235.8v-2.1h-3.8v2.1H619.7z"/>
			<path style="fill:#444444;" d="M628.8,224.5v2.5h5v6.6h-1v-0.9h-4v4.8h-1v-4.8h-4v0.9h-1V227h5v-2.5H628.8z M627.7,231.7V228h-4
				v3.7H627.7z M632.8,231.7V228h-4v3.7H632.8z"/>
			<path style="fill:#444444;" d="M637.7,229.2c-0.4,2.4-1,4.5-1.7,6.2l-0.9-0.5c0.7-1.8,1.2-3.7,1.6-5.9L637.7,229.2z M640.2,236.9
				c-1,0-1.5-0.5-1.5-1.4v-8h1v7.8c0,0.4,0.3,0.6,0.8,0.6h2.6c0.3,0,0.6-0.1,0.7-0.4c0.2-0.3,0.3-1.3,0.4-3l1,0.3
				c-0.1,1.9-0.3,3.1-0.6,3.5c-0.3,0.4-0.7,0.5-1.2,0.5H640.2z M643.7,228.2l-0.8,0.6c-0.7-1.1-1.7-2.3-3-3.6l0.8-0.5
				C642,226,643,227.2,643.7,228.2z M648.1,234.4l-0.9,0.4c-0.7-2.2-1.5-4.2-2.4-5.9l1-0.3C646.6,230.4,647.4,232.3,648.1,234.4z"/>
		</g>
	</g>
	<g>
		<g>
			<rect x="572" y="319" style="opacity:0.6;fill:#BBBBBB;enable-background:new    ;" width="158" height="50"/>
			<g>
				<rect x="570.5" y="317.5" style="fill:#FFFFFF;" width="157" height="49"/>
				<path style="fill:#E5E5E5;" d="M727,318v48H571v-48H727 M728,317H570v50h158V317L728,317z"/>
			</g>
		</g>
		<g transform="translate(20 9)">
			<g style="enable-background:new    ;">
				<path style="fill:#444444;" d="M617.2,327.9h5.1v1h-10.4v3.1c-0.1,3.1-0.5,5.5-1.4,7.4l-0.8-0.7c0.8-1.6,1.2-3.8,1.2-6.7v-4.1
					h5.2c-0.2-0.4-0.5-0.9-0.8-1.3l1.1-0.2C616.7,326.9,617,327.4,617.2,327.9z M618,337.8c0.9-2,1.6-4.4,2.3-7.4l1,0.3
					c-0.6,2.7-1.3,5-2.2,7.1h3v1h-9.9v-1H618z M615.2,336.3l-1,0.2c-0.4-1.8-0.9-3.5-1.4-5.1l0.9-0.3
					C614.3,332.6,614.8,334.3,615.2,336.3z M617.7,335.4l-1,0.2c-0.3-1.8-0.7-3.6-1.2-5.3l0.9-0.3
					C616.9,331.7,617.3,333.4,617.7,335.4z"/>
				<path style="fill:#444444;" d="M624.4,339.3l-0.8-0.7c0.9-1.2,1.4-2.8,1.4-4.7v-6.7h10.4v10.5c0,1-0.5,1.5-1.5,1.5h-1.6l-0.3-1
					c0.6,0,1.1,0.1,1.6,0.1c0.5,0,0.8-0.3,0.8-0.9v-2.4h-3.8v4.1h-1v-4.1H626C625.8,336.6,625.3,338.1,624.4,339.3z M626.1,328.1
					v2.4h3.6v-2.4H626.1z M626.1,333.9h3.6v-2.5h-3.6V333.9z M634.5,328.1h-3.8v2.4h3.8V328.1z M634.5,331.4h-3.8v2.5h3.8V331.4z"/>
				<path style="fill:#444444;" d="M647,328l3.9,10h-1.2l-1.1-2.8H644L643,338h-1.2l3.9-10H647z M648.3,334.2l-1.9-5h-0.1l-1.9,5
					H648.3z"/>
			</g>
		</g>
	</g>
	<g>
		<g>
			<rect x="602" y="251" style="opacity:0.6;fill:#BBBBBB;enable-background:new    ;" width="98" height="40"/>
			<g>
				<rect x="600.5" y="249.5" style="fill:#FFFFFF;" width="97" height="39"/>
				<path style="fill:#E5E5E5;" d="M697,250v38h-96v-38H697 M698,249h-98v40h98V249L698,249z"/>
			</g>
		</g>
		<g transform="translate(20 9)">
			<g style="enable-background:new    ;">
				<path style="fill:#444444;" d="M623.3,255v9h5.8v1h-6.9v-10H623.3z"/>
				<path style="fill:#444444;" d="M634.9,255c0.9,0,1.7,0.2,2.2,0.7c0.5,0.4,0.8,1.1,0.8,1.8c0,0.6-0.2,1.1-0.4,1.5
					c-0.3,0.4-0.7,0.6-1.2,0.8c0.7,0.1,1.2,0.4,1.5,0.8c0.4,0.4,0.6,1,0.6,1.6c0,1-0.4,1.7-1,2.2c-0.6,0.4-1.4,0.6-2.4,0.6h-4.4v-10
					H634.9z M631.5,259.4h3c0.7,0,1.2-0.2,1.6-0.4c0.4-0.3,0.6-0.7,0.6-1.3c0-0.6-0.2-1-0.5-1.3c-0.4-0.3-0.9-0.4-1.6-0.4h-3.1
					V259.4z M631.5,264h3.2c0.7,0,1.2-0.1,1.7-0.4c0.5-0.3,0.7-0.8,0.7-1.4s-0.2-1.1-0.6-1.4c-0.4-0.3-1-0.4-1.8-0.4h-3.2V264z"/>
			</g>
		</g>
	</g>
	<g>
		<g>
			<rect x="572" y="397" style="opacity:0.6;fill:#BBBBBB;enable-background:new    ;" width="158" height="50"/>
			<g>
				<rect x="570.5" y="395.5" style="fill:#FFFFFF;" width="157" height="49"/>
				<path style="fill:#E5E5E5;" d="M727,396v48H571v-48H727 M728,395H570v50h158V395L728,395z"/>
			</g>
		</g>
		<g transform="translate(20 9)">
			<g style="enable-background:new    ;">
				<path style="fill:#444444;" d="M617,405.9h5.1v1h-10.4v3.1c-0.1,3.1-0.5,5.5-1.4,7.4l-0.8-0.7c0.8-1.6,1.2-3.8,1.2-6.7v-4.1h5.2
					c-0.2-0.4-0.5-0.9-0.8-1.3l1.1-0.2C616.6,404.9,616.8,405.4,617,405.9z M617.9,415.8c0.9-2,1.6-4.4,2.3-7.4l1,0.3
					c-0.6,2.7-1.3,5-2.2,7.1h3v1h-9.9v-1H617.9z M615.1,414.3l-1,0.2c-0.4-1.8-0.9-3.5-1.4-5.1l0.9-0.3
					C614.1,410.6,614.6,412.3,615.1,414.3z M617.6,413.4l-1,0.2c-0.3-1.8-0.7-3.6-1.2-5.3l0.9-0.3
					C616.8,409.7,617.2,411.4,617.6,413.4z"/>
				<path style="fill:#444444;" d="M624.3,417.3l-0.8-0.7c0.9-1.2,1.4-2.8,1.4-4.7v-6.7h10.4v10.5c0,1-0.5,1.5-1.5,1.5h-1.6l-0.3-1
					c0.6,0,1.1,0.1,1.6,0.1c0.5,0,0.8-0.3,0.8-0.9v-2.4h-3.8v4.1h-1v-4.1h-3.6C625.7,414.6,625.2,416.1,624.3,417.3z M625.9,406.1
					v2.4h3.6v-2.4H625.9z M625.9,411.9h3.6v-2.5h-3.6V411.9z M634.3,406.1h-3.8v2.4h3.8V406.1z M634.3,409.4h-3.8v2.5h3.8V409.4z"/>
				<path style="fill:#444444;" d="M647.1,406c0.9,0,1.7,0.2,2.2,0.7c0.5,0.4,0.8,1.1,0.8,1.8c0,0.6-0.2,1.1-0.4,1.5
					c-0.3,0.4-0.7,0.6-1.2,0.8c0.7,0.1,1.2,0.4,1.5,0.8c0.4,0.4,0.6,1,0.6,1.6c0,1-0.4,1.7-1,2.2c-0.6,0.4-1.4,0.6-2.4,0.6h-4.4v-10
					H647.1z M643.7,410.4h3c0.7,0,1.2-0.2,1.6-0.4c0.4-0.3,0.6-0.7,0.6-1.3c0-0.6-0.2-1-0.5-1.3s-0.9-0.4-1.6-0.4h-3.1V410.4z
					 M643.7,415h3.2c0.7,0,1.2-0.1,1.7-0.4c0.5-0.3,0.7-0.8,0.7-1.4s-0.2-1.1-0.6-1.4c-0.4-0.3-1-0.4-1.8-0.4h-3.2V415z"/>
			</g>
		</g>
	</g>
	<g>
		<polygon style="fill:#989898;" points="653,389 650,393 647,389 		"/>
		<g>
			<g>
				<line style="fill:none;stroke:#989898;stroke-miterlimit:10;" x1="650" y1="389" x2="650" y2="369"/>
			</g>
		</g>
	</g>
	<g>
		<polygon style="fill:#989898;" points="653,311 650,315 647,311 		"/>
		<g>
			<g>
				<line style="fill:none;stroke:#989898;stroke-miterlimit:10;" x1="650" y1="311" x2="650" y2="291"/>
			</g>
		</g>
	</g>
	
		<line style="fill-rule:evenodd;clip-rule:evenodd;fill:none;stroke:#878787;stroke-miterlimit:10;" x1="518" y1="457" x2="518" y2="215"/>
	<g>
		<polygon style="fill:#989898;" points="251,346 247,343 251,340 		"/>
		<polygon style="fill:#989898;" points="291,346 295,343 291,340 		"/>
		<g>
			<g>
				<line style="fill:none;stroke:#989898;stroke-miterlimit:10;" x1="250" y1="343" x2="292" y2="343"/>
			</g>
		</g>
	</g>
	<g>
		<polygon style="fill:#989898;" points="471,115 467,112 471,109 		"/>
		<polygon style="fill:#989898;" points="565,115 569,112 565,109 		"/>
		<g>
			<g>
				<line style="fill:none;stroke:#989898;stroke-miterlimit:10;" x1="470" y1="112" x2="566" y2="112"/>
			</g>
		</g>
	</g>
	<g>
		<polygon style="fill:#989898;" points="251,424 247,421 251,418 		"/>
		<polygon style="fill:#989898;" points="291,424 295,421 291,418 		"/>
		<g>
			<g>
				<line style="fill:none;stroke:#989898;stroke-miterlimit:10;" x1="250" y1="421" x2="292" y2="421"/>
			</g>
		</g>
	</g>
	<g>
		<g>
			<rect x="288" y="88" style="opacity:0.6;fill:#BBBBBB;enable-background:new    ;" width="178" height="50"/>
			<g>
				<rect x="286.5" y="86.5" style="fill:#FFFFFF;" width="177" height="49"/>
				<path style="fill:#E5E5E5;" d="M463,87v48H287V87H463 M464,86H286v50h178V86L464,86z"/>
			</g>
		</g>
		<g transform="translate(20 9)">
			<g style="enable-background:new    ;">
				<path style="fill:#444444;" d="M287.4,95.6c1.8,1.8,3.8,3.3,6.1,4.4l-0.5,0.9c-2.3-1.1-4.3-2.6-6-4.3c-1.5,1.7-3.5,3.2-6,4.4
					l-0.5-0.9c2.5-1.2,4.5-2.7,6.1-4.4H287.4z M290.9,100v1h-3.4v2.4h4v1h-4v2.6h5.3v1h-11.7v-1h5.3v-2.6h-4.1v-1h4.1V101h-3.4v-1
					H290.9z"/>
				<path style="fill:#444444;" d="M297.3,100.7h9.3c0,3.5-0.1,5.6-0.2,6.4c-0.1,0.8-0.7,1.2-1.7,1.2c-0.4,0-1,0-1.8,0l-0.2-0.9
					c0.7,0,1.4,0,1.9,0c0.5,0,0.8-0.2,0.9-0.7c0.1-0.6,0.1-2.3,0.2-5.1h-8.4c0,2.6-0.7,4.8-1.9,6.7l-0.8-0.7c1.1-1.6,1.7-3.6,1.7-6
					v-5.5h9.6v3.4h-8.7V100.7z M297.3,97.1v1.5h7.7v-1.5H297.3z M303.6,102.9v3.5h-4.9v-3.5H303.6z M302.7,103.8h-3.1v1.8h3.1V103.8
					z"/>
				<path style="fill:#444444;" d="M319.8,105.5h-1v-5.4h-6.9v5.5h-1v-6.1c-0.4,0.3-0.9,0.6-1.3,0.9l-0.6-0.8c1.7-1,3.1-2.4,4.2-4.1
					l1,0.2c-0.2,0.3-0.4,0.7-0.6,1h4.6v0.7c-0.5,0.7-1,1.2-1.5,1.7h3.1V105.5z M315.8,100.9v1.9c-0.1,1.5-0.5,2.7-1.5,3.6
					c-0.9,0.8-2.4,1.5-4.4,1.9l-0.5-0.9c2-0.4,3.4-1,4.2-1.8c0.7-0.8,1.1-1.7,1.2-2.9v-1.9H315.8z M317,97.6h-4.1
					c-0.5,0.6-1,1.1-1.5,1.5h4.2C316,98.7,316.5,98.2,317,97.6z M321.1,107.6l-0.6,0.9c-1.6-1.1-3.3-1.9-5-2.5l0.5-0.8
					C317.9,105.8,319.6,106.6,321.1,107.6z"/>
				<path style="fill:#444444;" d="M326.3,96.7v-1.2h1v1.2h2.5v0.9h-2.5v1.3h3.4c-0.1-1.1-0.1-2.2-0.1-3.4h1c0,1.3,0,2.4,0.1,3.4
					h3.5v0.9h-3.5c0.1,1.2,0.2,2.3,0.4,3.1c0.1,0.4,0.2,0.8,0.3,1.1c0.5-1,0.9-2.2,1.2-3.5l0.9,0.4c-0.4,1.8-1,3.2-1.7,4.4
					c0.1,0.3,0.2,0.6,0.4,0.9c0.4,0.7,0.7,1,0.9,1c0.2,0,0.4-0.8,0.6-2.2l0.9,0.5c-0.3,1.9-0.7,2.8-1.3,2.8c-0.5,0-1-0.4-1.5-1.3
					c-0.2-0.2-0.3-0.5-0.4-0.8c-0.7,1-1.6,1.7-2.5,2.2l-0.5-0.8c1-0.6,1.9-1.4,2.6-2.5c-0.2-0.6-0.4-1.3-0.5-2
					c-0.2-0.9-0.4-2-0.4-3.3h-7.9v-0.9h3.5v-1.3h-2.7v-0.9H326.3z M329.8,106.4c-0.7,0.1-1.4,0.2-2.2,0.3v1.7h-1v-1.6
					c-1,0.1-2.1,0.2-3.2,0.3l-0.1-0.9c1.2-0.1,2.3-0.2,3.3-0.2v-1.2h-2.7l-0.2-0.8c0.4-0.5,0.8-1.1,1.1-1.8h-1.5v-0.9h1.9
					c0.1-0.3,0.3-0.7,0.4-1.1l1,0.2c-0.1,0.3-0.2,0.6-0.3,0.9h3.7v0.9h-4.1c-0.3,0.6-0.6,1.2-1,1.7h1.8v-1.1h1v1.1h2.1v0.9h-2.1v1.1
					c0.8-0.1,1.5-0.2,2.2-0.3V106.4z M334.6,97.7l-0.8,0.5c-0.4-0.6-0.9-1.3-1.6-2.1l0.8-0.5C333.7,96.5,334.2,97.1,334.6,97.7z"/>
				<path style="fill:#444444;" d="M338.2,99.3v-3.7h1v3.7h1.4v1h-1.4v4.7c0.7-0.2,1.3-0.4,2-0.7v1.1c-1.4,0.5-2.8,1-4.4,1.3
					l-0.3-1.1c0.6-0.1,1.1-0.2,1.7-0.4v-5h-1.5v-1H338.2z M344.4,95.6c-0.2,0.7-0.4,1.4-0.6,2.1h5.1c0,4.8-0.1,7.8-0.3,8.9
					c-0.2,1.1-0.8,1.7-2.1,1.7c-0.4,0-1,0-1.9-0.1l-0.3-1c0.8,0,1.4,0.1,2,0.1c0.7,0,1.1-0.4,1.3-1.1c0.1-0.8,0.2-3.3,0.2-7.6h-4.6
					c-0.5,1-1.1,1.9-1.8,2.7l-0.7-0.9c1.2-1.4,2-3.1,2.4-5.1L344.4,95.6z M346.8,104c-1.2,0.8-2.7,1.6-4.5,2.2l-0.4-1
					c1.8-0.6,3.3-1.3,4.6-2.2L346.8,104z M346,102.1l-0.7,0.7c-0.5-0.6-1.3-1.3-2.2-2l0.6-0.6C344.6,100.8,345.4,101.4,346,102.1z"
					/>
				<path style="fill:#444444;" d="M354,99.7c-0.3,0.6-0.6,1.3-1,1.9v6.9h-0.9v-5.7c-0.4,0.4-0.8,0.8-1.3,1.2l-0.3-0.9
					c1.2-1.1,2.1-2.3,2.7-3.7L354,99.7z M353.9,96c-0.6,1.5-1.6,2.8-3,4l-0.3-1c1.1-1,1.9-2.1,2.4-3.4L353.9,96z M354.3,99l-0.6-0.7
					c1-0.7,1.8-1.7,2.5-2.8l1,0.2c-0.2,0.3-0.3,0.6-0.5,0.8h2.2v0.7c-0.3,0.5-0.6,0.9-0.9,1.3h1.6v5h-2.1c0,0.4,0,0.7-0.1,1h2.7v0.9
					h-2.9l-0.1,0.2c1,0.5,1.8,1,2.6,1.7l-0.5,0.8c-0.8-0.7-1.6-1.3-2.4-1.8c-0.4,0.8-1.2,1.5-2.3,2l-0.6-0.7c1.1-0.5,1.9-1.2,2.2-2
					l0.1-0.2H354v-0.9h2.5c0.1-0.3,0.1-0.7,0.1-1h-2.1v-4.6L354.3,99z M357.8,97.3H356c-0.3,0.4-0.7,0.8-1.1,1.1h2
					C357.3,98.1,357.6,97.7,357.8,97.3z M356.6,100.6v-1.4h-1.3v1.4H356.6z M356.6,101.3h-1.3v1.4h1.3V101.3z M357.4,100.6h1.3v-1.4
					h-1.3V100.6z M358.7,101.3h-1.3v1.4h1.3V101.3z M360.3,108.3l-0.2-0.9c0.3,0,0.6,0.1,0.8,0.1c0.3,0,0.5-0.2,0.5-0.5v-6h-1.5v-1
					h3.5v1h-1.1v6.2c0,0.7-0.4,1.1-1.1,1.1H360.3z M363.2,96.5v0.9h-3.1v-0.9H363.2z"/>
				<path style="fill:#444444;" d="M367.6,99.9v6.2c0.5-0.4,1.1-0.9,1.6-1.4l0.3,1.1c-0.9,0.8-1.8,1.6-2.8,2.2l-0.4-0.9
					c0.2-0.2,0.3-0.4,0.3-0.6v-5.5h-1.9v-1H367.6z M368.5,97.9l-0.7,0.7c-0.5-0.7-1.3-1.4-2.2-2.1l0.7-0.7
					C367.1,96.5,367.9,97.2,368.5,97.9z M376.3,101.5v0.9c-0.4,1.3-1.2,2.5-2.2,3.4c1,0.7,2.1,1.2,3.5,1.7l-0.5,0.9
					c-1.5-0.6-2.7-1.2-3.7-2c-1.1,0.8-2.5,1.5-4.1,2l-0.6-0.9c1.6-0.5,2.9-1.1,3.9-1.8c-1.1-1-1.8-2.1-2.2-3.3h-0.8v-1H376.3z
					 M375.4,96.1v3c0,0.3,0.2,0.5,0.5,0.5h1.3v0.9h-1.5c-0.9,0-1.3-0.4-1.3-1.2v-2.3h-2.7v0.5c0,1.5-0.7,2.6-2.2,3.4l-0.7-0.8
					c1.2-0.6,1.8-1.5,1.8-2.6v-1.6H375.4z M373.3,105.2c0.9-0.8,1.6-1.7,2-2.7h-4C371.7,103.5,372.3,104.4,373.3,105.2z"/>
				<path style="fill:#444444;" d="M384.1,95.6c-0.2,0.3-0.4,0.6-0.7,0.9h5.7v0.8c-0.9,1.1-1.9,2-3.2,2.7c1.5,0.6,3.3,1.1,5.4,1.4
					l-0.4,0.9c-2.3-0.3-4.3-0.9-5.9-1.7c-1.7,0.9-3.7,1.5-6,1.8l-0.4-0.9c2.1-0.3,3.9-0.8,5.5-1.5c-0.8-0.5-1.6-1.1-2.2-1.8
					c-0.6,0.6-1.3,1.1-2,1.5l-0.6-0.8c1.6-0.9,2.9-2.1,3.9-3.6L384.1,95.6z M389.4,108.4h-1v-0.6h-6.9v0.6h-1v-6.1h8.8V108.4z
					 M384.5,104.6v-1.5h-3v1.5H384.5z M384.5,106.9v-1.5h-3v1.5H384.5z M385,99.6c1.1-0.6,2.1-1.3,2.9-2.1h-5.2l-0.3,0.3
					C383.2,98.4,384,99,385,99.6z M385.5,104.6h3v-1.5h-3V104.6z M388.5,106.9v-1.5h-3v1.5H388.5z"/>
				<path style="fill:#444444;" d="M401.8,107c-0.2-0.3-0.4-0.5-0.5-0.8c-0.8,1-1.7,1.7-2.6,2.3l-0.5-0.9c1-0.6,1.9-1.4,2.7-2.5
					c-0.2-0.5-0.3-1.1-0.5-1.7c-0.3-1.4-0.5-3.1-0.5-5h-7v-1h7v-1.8h1v1.8h2.1c-0.2-0.5-0.5-1-0.8-1.4l1-0.2c0.3,0.5,0.5,1,0.7,1.6
					h1.4v1h-4.4c0,1.7,0.2,3.2,0.4,4.5c0.1,0.4,0.2,0.8,0.3,1.2c0.8-1.3,1.4-2.8,2-4.6l0.9,0.5c-0.7,2.1-1.5,3.9-2.5,5.3
					c0.1,0.3,0.3,0.6,0.4,0.9c0.5,0.7,0.9,1.1,1.3,1.1c0.3,0,0.6-0.8,0.9-2.4l0.9,0.6c-0.4,1.9-0.9,2.9-1.6,2.9
					C403.1,108.3,402.4,107.9,401.8,107z M399.1,105.9c-1.9,0.5-3.9,0.9-6,1.3l-0.3-1c2.2-0.3,4.3-0.7,6.3-1.3V105.9z M398.6,99.8
					v4.3h-5.1v-4.3H398.6z M397.6,100.8h-3.1v2.4h3.1V100.8z"/>
				<path style="fill:#444444;" d="M407.5,108.4l-0.8-0.7c0.6-1.3,0.8-2.9,0.9-4.8v-6.7h4.1v10.9c0,0.8-0.4,1.3-1.2,1.3h-1.1
					l-0.2-0.9c0.4,0,0.7,0.1,1.1,0.1c0.3,0,0.5-0.3,0.5-0.8v-3.2h-2.3C408.5,105.6,408.1,107.2,407.5,108.4z M410.8,97.1h-2.3v2.4
					h2.3V97.1z M408.5,102.7h2.3v-2.3h-2.3V102.7z M413.9,108.4h-1V96.1h5.7c0,1.7-0.1,2.9-0.3,3.4c-0.2,0.6-0.7,0.9-1.6,0.9h-1.1
					l-0.3-0.9c0.2,0,0.5,0,0.9,0c0.3,0,0.6,0,0.7-0.1c0.2-0.1,0.3-0.2,0.4-0.4c0.1-0.3,0.2-1,0.2-2.1h-3.7v4.2h4.8v0.9
					c-0.3,1.4-0.7,2.7-1.4,3.7c0.6,0.6,1.4,1.2,2.2,1.7l-0.5,0.9c-0.9-0.5-1.7-1.1-2.3-1.7c-0.6,0.7-1.3,1.3-2.2,1.7l-0.5-0.8
					c0.8-0.4,1.5-1,2-1.7c-0.9-1.1-1.5-2.3-1.8-3.7h-0.3V108.4z M416.6,105.1c0.5-0.8,0.9-1.8,1.1-2.9h-2.7
					C415.4,103.3,415.9,104.3,416.6,105.1z"/>
				<path style="fill:#444444;" d="M425.8,95.7c-0.2,0.4-0.3,0.7-0.5,1.1h6.1v0.8c-0.9,1-2,1.9-3.3,2.6c1.6,0.7,3.3,1.1,5.3,1.3
					l-0.5,0.9c-2.2-0.3-4.2-0.8-5.9-1.7c-1.7,0.8-3.7,1.4-6,1.7l-0.5-1c2-0.3,3.8-0.7,5.4-1.3c-0.8-0.5-1.5-1-2.2-1.6
					c-0.5,0.5-1.1,0.9-1.8,1.3l-0.6-0.8c1.7-1,2.8-2.1,3.4-3.5L425.8,95.7z M427.2,101.7c0,0.6-0.1,1.1-0.1,1.6h4.9
					c0,2.4-0.2,3.8-0.6,4.2s-1.1,0.7-2.1,0.7c-0.4,0-1,0-1.6-0.1l-0.3-0.9l1.7,0.1c0.8,0,1.4-0.2,1.6-0.5c0.2-0.3,0.3-1.2,0.4-2.6
					h-4.1c-0.1,0.4-0.3,0.7-0.4,1.1c-0.7,1.3-2.4,2.3-4.9,3.1l-0.7-0.8c2.3-0.7,3.8-1.5,4.6-2.5c0.2-0.3,0.3-0.5,0.4-0.8h-4.2v-0.9
					h4.5c0.1-0.5,0.2-1,0.2-1.6H427.2z M430,97.7h-5.4l-0.2,0.2c0.8,0.7,1.7,1.3,2.6,1.8C428.2,99.1,429.1,98.4,430,97.7z"/>
			</g>
		</g>
	</g>
	<g>
		<g>
			<rect x="288" y="9" style="opacity:0.6;fill:#BBBBBB;enable-background:new    ;" width="178" height="50"/>
			<g>
				<rect x="286.5" y="7.5" style="fill:#FFFFFF;" width="177" height="49"/>
				<path style="fill:#E5E5E5;" d="M463,8v48H287V8H463 M464,7H286v50h178V7L464,7z"/>
			</g>
		</g>
		<g>
			<g>
				<path style="fill:#444444;" d="M391.2,27.9c-0.2,0.3-0.4,0.6-0.6,0.9h5.2v0.8c-0.6,0.8-1.4,1.5-2.5,2.1c1.5,0.6,3.2,1,5.1,1.1
					l-0.2,0.9c-2.2-0.2-4.2-0.7-6-1.5c-1.7,0.8-3.7,1.3-6.3,1.8l-0.4-0.9c2.3-0.4,4.1-0.8,5.6-1.4c-0.7-0.4-1.4-0.9-2-1.4
					c-0.5,0.5-1.1,0.9-1.8,1.3l-0.6-0.8c1.4-0.8,2.5-1.8,3.4-3.2L391.2,27.9z M397.7,29.1h-1v-1.7h-9.3v1.7h-1v-2.6h5.1
					c-0.2-0.4-0.3-0.7-0.5-1l1.1-0.2c0.2,0.3,0.3,0.7,0.5,1.1h5.2V29.1z M396.1,38.3h-1v-0.6h-6v0.6h-1v-4.4h8V38.3z M395.1,36.8v-2
					h-6v2H395.1z M394.5,29.7h-4.7l0,0c0.7,0.6,1.6,1.1,2.4,1.6C393.2,30.8,394,30.2,394.5,29.7z"/>
				<path style="fill:#444444;" d="M400.2,38.3l-0.7-0.7c1.1-1.6,1.7-3.6,1.7-6.1v-4.4h4.6c-0.3-0.6-0.5-1.1-0.8-1.6l1.1-0.2
					c0.3,0.5,0.5,1.1,0.8,1.8h4.4v4.7h-9C402.1,34.3,401.5,36.5,400.2,38.3z M402.2,28.1v2.7h8v-2.7H402.2z"/>
			</g>
			<rect x="343" y="16" style="opacity:0.15;fill:#FFFFFF;" width="32" height="32"/>
			<g>
				<path style="fill:#878787;" d="M355,21c2.2,0,4,1.8,4,4s-1.8,4-4,4s-4-1.8-4-4S352.8,21,355,21 M355,19c-3.3,0-6,2.7-6,6
					s2.7,6,6,6s6-2.7,6-6S358.3,19,355,19L355,19z"/>
			</g>
			<g>
				<path style="fill:#878787;" d="M359,35c3.3,0,6,2.7,6,6v1h-20v-1c0-3.3,2.7-6,6-6H359 M359,33h-8c-4.4,0-8,3.6-8,8v3h24v-3
					C367,36.6,363.4,33,359,33L359,33z"/>
			</g>
			<path style="fill:#878787;" d="M368,33h-3c0.8,0.6,1.4,1.2,2,2h1c2.2,0,4,1.8,4,4v1h-3.1c0,0.3,0.1,0.7,0.1,1v1h5v-3
				C374,35.7,371.3,33,368,33z"/>
			<path style="fill:#878787;" d="M364,20c-0.8,0-1.6,0.2-2.3,0.6c0.4,0.6,0.7,1.2,0.9,1.8c0.4-0.2,0.9-0.4,1.4-0.4c1.7,0,3,1.3,3,3
				s-1.3,3-3,3c-0.5,0-1-0.1-1.4-0.4c-0.2,0.6-0.5,1.2-0.9,1.8c0.7,0.4,1.5,0.6,2.3,0.6c2.8,0,5-2.2,5-5S366.8,20,364,20z"/>
		</g>
	</g>
	<g>
		<g>
			<rect x="572" y="88" style="opacity:0.6;fill:#BBBBBB;enable-background:new    ;" width="158" height="50"/>
			<g>
				<rect x="570.5" y="86.5" style="fill:#FFFFFF;" width="157" height="49"/>
				<path style="fill:#E5E5E5;" d="M727,87v48H571V87H727 M728,86H570v50h158V86L728,86z"/>
			</g>
		</g>
		<g transform="translate(20 9)">
			<g style="enable-background:new    ;">
				<path style="fill:#444444;" d="M604.1,99.3v-3.7h1v3.7h1.3v1h-1.3v4.2c0.4-0.2,0.9-0.4,1.3-0.6v1c-1.1,0.6-2.3,1.1-3.6,1.5
					l-0.3-1c0.5-0.1,1-0.3,1.5-0.4v-4.6h-1.4v-1H604.1z M610.7,105.5c-1.4,0.5-2.9,1-4.5,1.3l-0.2-1c1.6-0.3,3.2-0.7,4.7-1.3V105.5z
					 M611.4,97.5c0-0.6,0-1.2,0-1.9h1c0,0.7,0,1.3,0,1.9h1.4c-0.2-0.5-0.4-1-0.6-1.4l0.9-0.2c0.2,0.5,0.4,1,0.5,1.6h0.7v1h-2.9
					c0,2.2,0.1,3.9,0.3,5.3c0.5-1.2,1-2.5,1.3-4.1l0.9,0.4c-0.5,2.1-1.1,3.9-1.9,5.3c0.3,1.3,0.6,2,1,2.1c0.3,0,0.5-0.7,0.8-2.1
					l0.8,0.6c-0.4,1.7-1,2.5-1.6,2.5c-0.5,0-0.9-0.4-1.2-1.1c-0.1-0.3-0.3-0.6-0.4-1c-0.7,0.9-1.5,1.6-2.3,2.1l-0.6-0.8
					c1-0.6,1.9-1.5,2.7-2.6c-0.1-0.4-0.1-0.8-0.2-1.2c-0.2-1.4-0.3-3.2-0.3-5.4h-5v-1H611.4z M610.6,99.8v4H607v-4H610.6z
					 M609.7,100.6h-1.8v2.3h1.8V100.6z"/>
				<path style="fill:#444444;" d="M621,108.4h-1v-4.9c-0.9,0.3-1.8,0.5-2.8,0.8l-0.5-1c2.4-0.5,4.4-1.1,6.1-2
					c-0.6-0.5-1.5-1.1-2.5-1.7l0.9-0.5c1.1,0.7,1.9,1.2,2.5,1.8c1.4-0.9,2.5-1.8,3.1-3h-5.2c-1,0.9-2.2,1.7-3.6,2.4l-0.7-0.9
					c2.4-1,4-2.3,4.8-3.8l1.1,0.1c-0.2,0.4-0.5,0.8-0.8,1.2h5.5v0.9c-1,1.9-2.8,3.5-5.4,4.7h5.8v5.9h-1v-0.8H621V108.4z
					 M627.2,103.4H621v3.2h6.3V103.4z"/>
				<path style="fill:#444444;" d="M631.6,99l-0.9-0.6c0.8-0.9,1.5-1.8,1.8-2.9l1,0.2c-0.1,0.3-0.2,0.6-0.4,0.9h3.8v0.9h-2.4
					c0.3,0.4,0.6,0.8,0.8,1.2l-0.9,0.4c-0.3-0.5-0.6-1.1-0.9-1.6h-0.8C632.4,98,632,98.5,631.6,99z M642.9,101.9h-1v-1.7H632v1.7h-1
					v-2.5h5.5c-0.1-0.3-0.3-0.6-0.4-0.9l1-0.2l-0.1-0.1c0.7-0.8,1.1-1.8,1.5-2.8l1,0.2c-0.1,0.3-0.2,0.6-0.3,0.9h4v0.9h-2.5
					c0.3,0.4,0.5,0.8,0.7,1.1l-0.9,0.3c-0.3-0.5-0.5-1-0.9-1.4h-0.9c-0.3,0.5-0.5,0.9-0.9,1.3l-0.8-0.5c0.2,0.3,0.3,0.7,0.4,1.1h5.3
					V101.9z M641,103.8h-7v1h7.6v3.6h-1v-0.6H634v0.6h-1v-7.3h8V103.8z M640,103v-1.1h-6v1.1H640z M640.7,106.9v-1.3H634v1.3H640.7z
					"/>
				<path style="fill:#444444;" d="M646.4,100.8v-3.3h-1.7v-1h4.5v1h-1.7v3.3h1.5v1h-1.5v3.2c0.5-0.2,1-0.4,1.5-0.6v1
					c-1.3,0.5-2.7,1-4.2,1.3l-0.3-1c0.6-0.1,1.2-0.3,1.8-0.4v-3.5h-1.5v-1H646.4z M656.7,96.1v6.5h-2.9v1.7h3.2v1h-3.2v1.8h3.7v1
					H649v-1h3.8v-1.8h-3.2v-1h3.2v-1.7h-2.9v-6.5H656.7z M652.8,98.9V97h-2v1.9H652.8z M652.8,99.8h-2v1.9h2V99.8z M653.8,98.9h1.9
					V97h-1.9V98.9z M655.7,99.8h-1.9v1.9h1.9V99.8z"/>
			</g>
		</g>
	</g>
	<g>
		<g>
			<g>
				<line style="fill:none;stroke:#989898;stroke-miterlimit:10;" x1="376" y1="138" x2="376" y2="245"/>
			</g>
		</g>
		<g>
			<polyline style="fill:none;stroke:#989898;stroke-miterlimit:10;" points="651,242 651,161 165,161 165,242 			"/>
		</g>
		<polygon style="fill:#989898;" points="654,242 651,246 648,242 		"/>
		<polygon style="fill:#989898;" points="168,242 165,246 162,242 		"/>
		<polygon style="fill:#989898;" points="379,242 376,246 373,242 		"/>
	</g>
	<g transform="translate(0 0)">
		<g style="enable-background:new    ;">
			<path style="fill:#878787;" d="M251.6,328.5c0.4-1.2,0.6-2.4,0.7-3.7h-3.5v-0.8h4.3v0.7c-0.1,1.8-0.4,3.3-0.9,4.7
				c0.5,0.8,1,1.5,1.5,2.3l-0.7,0.7c-0.4-0.7-0.8-1.3-1.2-2c-0.7,1.4-1.6,2.5-2.7,3.6l-0.6-0.7c1.2-1,2.1-2.3,2.7-3.7
				c-0.7-1-1.5-2-2.3-3l0.6-0.6C250.3,326.7,251,327.6,251.6,328.5z M258.9,323.9v0.8c-0.3,1.9-0.9,3.8-2,5.5
				c0.7,1.1,1.5,2.2,2.6,3.2l-0.6,0.7c-1-1-1.8-2.1-2.5-3.1c-0.8,1.1-1.7,2.1-2.8,3.1l-0.6-0.7c1.2-1,2.1-2.1,2.9-3.2
				c-0.9-1.8-1.5-3.6-1.6-5.4h-0.4v-0.8H258.9z M256.4,329.3c0.8-1.4,1.4-3,1.6-4.6h-2.9C255.2,326.3,255.6,327.9,256.4,329.3z"/>
			<path style="fill:#878787;" d="M263.3,328l-0.6,0.6c-0.5-0.6-1.2-1.2-2.1-1.8l0.6-0.6C262.1,326.8,262.8,327.4,263.3,328z
				 M263.4,329.7c-0.5,1.5-1.1,3-1.7,4.3l-0.9-0.4c0.7-1.4,1.3-2.8,1.8-4.3L263.4,329.7z M263.6,325l-0.6,0.6c-0.5-0.5-1.2-1-2-1.6
				l0.6-0.6C262.3,323.9,263,324.4,263.6,325z M267.1,326.7v-1.9c-0.9,0.1-1.9,0.1-2.9,0.1l-0.3-0.8c2.6,0,4.8-0.3,6.5-0.9l0.4,0.7
				c-0.8,0.3-1.8,0.5-2.9,0.7v2h3.5v0.8H268v1.9h2.7v4.8h-0.9v-0.6h-4.5v0.7h-0.9v-4.8h2.6v-1.9h-3.4v-0.8H267.1z M269.8,332.7v-2.5
				h-4.5v2.5H269.8z"/>
			<path style="fill:#878787;" d="M275.1,327.7h1.3c0.3-0.7,0.6-1.4,0.9-2.1l0.8,0.3c-0.3,0.7-0.5,1.3-0.8,1.8h1.5v0.8h-6v-0.8h1.6
				c-0.2-0.6-0.5-1.2-0.8-1.7l0.8-0.3C274.5,326.2,274.8,326.9,275.1,327.7z M275.2,324.4c-0.1-0.4-0.3-0.8-0.4-1.1l0.9-0.2
				c0.1,0.4,0.3,0.8,0.4,1.2h2.4v0.8h-5.7v-0.8H275.2z M278.1,334.1h-0.9v-0.7h-3.1v0.7h-0.9v-4.5h4.8V334.1z M277.2,332.6v-2.2
				h-3.1v2.2H277.2z M283.1,323.7v0.6c-0.4,1.3-0.8,2.4-1.2,3.5c0.9,1.1,1.4,2.1,1.4,2.8c0,0.7-0.2,1.3-0.5,1.5
				c-0.3,0.3-1,0.4-2,0.4l-0.3-0.9c0.3,0,0.6,0,0.8,0c0.4,0,0.7-0.1,0.8-0.3c0.1-0.2,0.2-0.4,0.2-0.9c0-0.7-0.5-1.6-1.4-2.8
				c0.4-0.9,0.8-2.1,1.2-3.4H280v9.7h-0.8v-10.5H283.1z"/>
			<path style="fill:#878787;" d="M294.2,323.6v2.3H290v0.8h2.6v0.7H290v0.9h1.5c0.9-0.6,1.8-1.2,2.4-2l0.7,0.4
				c-0.6,0.6-1.2,1.2-1.9,1.6h2.5v0.7h-3.8c-0.6,0.3-1.3,0.6-2,0.9h4.2v4.4h-0.9v-0.5h-5.1v0.5H287v-3.6c-0.6,0.1-1.2,0.3-1.9,0.4
				l-0.5-0.7c2.1-0.2,3.9-0.7,5.4-1.3h-5.4v-0.7h4.5v-0.9h-3.1v-0.7h3.1v-0.8h-3.5v-2.3H294.2z M288.3,324.3h-1.8v1h1.8V324.3z
				 M292.9,330.6h-5.1v0.9h5.1V330.6z M287.8,333h5.1v-0.9h-5.1V333z M290.8,324.3h-1.7v1h1.7V324.3z M293.4,324.3h-1.8v1h1.8V324.3
				z"/>
		</g>
	</g>
	<g transform="translate(0 0)">
		<g style="enable-background:new    ;">
			<path style="fill:#878787;" d="M251.6,404.5c0.4-1.2,0.6-2.4,0.7-3.7h-3.5v-0.8h4.3v0.7c-0.1,1.8-0.4,3.3-0.9,4.7
				c0.5,0.8,1,1.5,1.5,2.3l-0.7,0.7c-0.4-0.7-0.8-1.3-1.2-2c-0.7,1.4-1.6,2.5-2.7,3.6l-0.6-0.7c1.2-1,2.1-2.3,2.7-3.7
				c-0.7-1-1.5-2-2.3-3l0.6-0.6C250.3,402.7,251,403.6,251.6,404.5z M258.9,399.9v0.8c-0.3,1.9-0.9,3.8-2,5.5
				c0.7,1.1,1.5,2.2,2.6,3.2l-0.6,0.7c-1-1-1.8-2.1-2.5-3.1c-0.8,1.1-1.7,2.1-2.8,3.1l-0.6-0.7c1.2-1,2.1-2.1,2.9-3.2
				c-0.9-1.8-1.5-3.6-1.6-5.4h-0.4v-0.8H258.9z M256.4,405.3c0.8-1.4,1.4-3,1.6-4.6h-2.9C255.2,402.3,255.6,403.9,256.4,405.3z"/>
			<path style="fill:#878787;" d="M263.3,404l-0.6,0.6c-0.5-0.6-1.2-1.2-2.1-1.8l0.6-0.6C262.1,402.8,262.8,403.4,263.3,404z
				 M263.4,405.7c-0.5,1.5-1.1,3-1.7,4.3l-0.9-0.4c0.7-1.4,1.3-2.8,1.8-4.3L263.4,405.7z M263.6,401l-0.6,0.6c-0.5-0.5-1.2-1-2-1.6
				l0.6-0.6C262.3,399.9,263,400.4,263.6,401z M267.1,402.7v-1.9c-0.9,0.1-1.9,0.1-2.9,0.1l-0.3-0.8c2.6,0,4.8-0.3,6.5-0.9l0.4,0.7
				c-0.8,0.3-1.8,0.5-2.9,0.7v2h3.5v0.8H268v1.9h2.7v4.8h-0.9v-0.6h-4.5v0.7h-0.9v-4.8h2.6v-1.9h-3.4v-0.8H267.1z M269.8,408.7v-2.5
				h-4.5v2.5H269.8z"/>
			<path style="fill:#878787;" d="M275.1,403.7h1.3c0.3-0.7,0.6-1.4,0.9-2.1l0.8,0.3c-0.3,0.7-0.5,1.3-0.8,1.8h1.5v0.8h-6v-0.8h1.6
				c-0.2-0.6-0.5-1.2-0.8-1.7l0.8-0.3C274.5,402.2,274.8,402.9,275.1,403.7z M275.2,400.4c-0.1-0.4-0.3-0.8-0.4-1.1l0.9-0.2
				c0.1,0.4,0.3,0.8,0.4,1.2h2.4v0.8h-5.7v-0.8H275.2z M278.1,410.1h-0.9v-0.7h-3.1v0.7h-0.9v-4.5h4.8V410.1z M277.2,408.6v-2.2
				h-3.1v2.2H277.2z M283.1,399.7v0.6c-0.4,1.3-0.8,2.4-1.2,3.5c0.9,1.1,1.4,2.1,1.4,2.8c0,0.7-0.2,1.3-0.5,1.5
				c-0.3,0.3-1,0.4-2,0.4l-0.3-0.9c0.3,0,0.6,0,0.8,0c0.4,0,0.7-0.1,0.8-0.3c0.1-0.2,0.2-0.4,0.2-0.9c0-0.7-0.5-1.6-1.4-2.8
				c0.4-0.9,0.8-2.1,1.2-3.4H280v9.7h-0.8v-10.5H283.1z"/>
			<path style="fill:#878787;" d="M294.2,399.6v2.3H290v0.8h2.6v0.7H290v0.9h1.5c0.9-0.6,1.8-1.2,2.4-2l0.7,0.4
				c-0.6,0.6-1.2,1.2-1.9,1.6h2.5v0.7h-3.8c-0.6,0.3-1.3,0.6-2,0.9h4.2v4.4h-0.9v-0.5h-5.1v0.5H287v-3.6c-0.6,0.1-1.2,0.3-1.9,0.4
				l-0.5-0.7c2.1-0.2,3.9-0.7,5.4-1.3h-5.4v-0.7h4.5v-0.9h-3.1v-0.7h3.1v-0.8h-3.5v-2.3H294.2z M288.3,400.3h-1.8v1h1.8V400.3z
				 M292.9,406.6h-5.1v0.9h5.1V406.6z M287.8,409h5.1v-0.9h-5.1V409z M290.8,400.3h-1.7v1h1.7V400.3z M293.4,400.3h-1.8v1h1.8V400.3
				z"/>
		</g>
	</g>
	<g>
		<g>
			<path style="fill:#878787;" d="M421.2,227.4l-3.9,3.7l4.4,4.9h-1.3l-3.8-4.3l-1.3,1.3v3h-1v-8.6h1v4.5l4.6-4.5H421.2z"/>
			<path style="fill:#878787;" d="M427.4,228c0.5,0.4,0.7,0.9,0.7,1.6c0,0.5-0.1,0.8-0.3,1.2c-0.2,0.3-0.6,0.6-1,0.7v0
				c0.4,0.1,0.8,0.4,1.1,0.7c0.3,0.4,0.5,0.9,0.5,1.4c0,0.8-0.3,1.4-0.8,1.8c-0.6,0.5-1.3,0.7-2.3,0.7c-1,0-1.8-0.2-2.3-0.7
				c-0.5-0.5-0.8-1.1-0.8-1.8c0-0.6,0.2-1,0.5-1.4c0.3-0.4,0.7-0.6,1.1-0.7v0c-0.5-0.2-0.8-0.4-1-0.7c-0.2-0.3-0.3-0.7-0.3-1.2
				c0-0.6,0.2-1.2,0.7-1.6c0.5-0.5,1.2-0.7,2.1-0.7C426.2,227.3,426.9,227.5,427.4,228z M423.7,232.4c-0.4,0.3-0.5,0.7-0.5,1.2
				c0,0.5,0.2,0.9,0.5,1.2c0.4,0.3,0.9,0.5,1.6,0.5s1.2-0.2,1.6-0.5c0.3-0.3,0.5-0.7,0.5-1.2c0-0.5-0.2-0.9-0.5-1.2
				c-0.4-0.3-0.9-0.5-1.6-0.5C424.6,231.9,424.1,232,423.7,232.4z M423.9,228.5c-0.3,0.3-0.4,0.6-0.4,1c0,0.4,0.1,0.8,0.4,1.1
				c0.3,0.3,0.8,0.5,1.5,0.5c0.7,0,1.2-0.2,1.5-0.5c0.3-0.3,0.4-0.6,0.4-1.1c0-0.4-0.2-0.8-0.4-1c-0.3-0.3-0.8-0.5-1.4-0.5
				C424.7,228.1,424.2,228.2,423.9,228.5z"/>
			<path style="fill:#878787;" d="M434.4,231.6h-0.9c-0.1-0.4-0.2-0.7-0.5-0.8c-0.3-0.2-0.6-0.3-1.1-0.3c-0.4,0-0.8,0.1-1,0.2
				c-0.3,0.2-0.4,0.4-0.4,0.6c0,0.3,0.2,0.5,0.5,0.7c0.2,0.1,0.7,0.2,1.3,0.4c0.7,0.2,1.3,0.4,1.6,0.6c0.5,0.3,0.7,0.7,0.7,1.3
				c0,1.3-0.9,1.9-2.6,1.9c-1.6,0-2.5-0.7-2.7-2.1h0.9c0.1,0.5,0.3,0.8,0.5,1.1c0.3,0.2,0.7,0.3,1.2,0.3c1.1,0,1.7-0.4,1.7-1.1
				c0-0.3-0.2-0.6-0.6-0.8c-0.2-0.1-0.6-0.2-1.3-0.4c-0.7-0.2-1.2-0.4-1.5-0.6c-0.5-0.3-0.7-0.7-0.7-1.2c0-0.5,0.2-0.9,0.7-1.2
				c0.4-0.3,1-0.5,1.7-0.5C433.4,229.6,434.3,230.3,434.4,231.6z"/>
			<path style="fill:#878787;" d="M436,230.2l-0.5-0.7c1.1-1,1.9-2.1,2.4-3.4l0.8,0.2c-0.1,0.3-0.3,0.6-0.4,0.9h2.6
				c-0.2-0.4-0.3-0.7-0.5-1l0.9-0.1c0.2,0.3,0.3,0.7,0.5,1.2h3.9v0.7h-3.8v0.8h3.4v0.7h-3.4v0.8h3.4v0.7h-3.4v0.9h4v0.7H437v-3.4
				C436.7,229.5,436.4,229.9,436,230.2z M435.8,234.3v-0.8h4.8v-0.6h0.9v0.6h4.7v0.8h-3.6c0.8,0.8,2.1,1.4,3.8,1.8l-0.4,0.8
				c-2-0.7-3.4-1.5-4.2-2.6h-0.2v2.9h-0.9v-2.9h-0.2c-0.8,1-2.2,1.9-4.2,2.7l-0.5-0.7c1.8-0.6,3.1-1.2,3.8-1.9H435.8z M440.9,228
				h-3.1l-0.1,0.1v0.7h3.1V228z M440.9,229.5h-3.1v0.8h3.1V229.5z M440.9,231h-3.1v0.9h3.1V231z"/>
			<path style="fill:#878787;" d="M449.7,231.7c-0.1,0.4-0.2,0.8-0.4,1.2h3.1v4.3h-0.8v-0.7h-1.9v0.7h-0.8v-3.6
				c-0.3,0.7-0.7,1.3-1.2,1.8l-0.5-0.7c0.7-0.7,1.2-1.7,1.5-3H448v-0.7h1.1c0.1-0.4,0.2-0.9,0.2-1.4h-1.6v-0.8h1.7
				c0-0.5,0-0.9,0.1-1.4h-1.4v-0.7h4.1v2.1h0.7v0.8h-0.7v2.1H449.7z M451.7,235.6v-2h-1.9v2H451.7z M449.9,230.9h1.5v-1.4h-1.3
				C450,230.1,450,230.5,449.9,230.9z M450.2,228.8h1.2v-1.4h-1.2C450.2,227.9,450.2,228.4,450.2,228.8z M453.2,229.3v-0.8h1.4
				c-0.3-0.7-0.7-1.4-1-1.9l0.7-0.3c0.4,0.6,0.7,1.2,1,1.9l-0.7,0.3h1.4c0.3-0.7,0.6-1.5,0.9-2.4l0.8,0.3c-0.3,0.8-0.5,1.5-0.9,2.1
				h1.3v0.8h-2v1.7h1.7v0.8h-1.7v1.7h2.3v0.8h-2.3v2.8h-0.9v-2.8h-2.2v-0.8h2.2v-1.7h-1.9v-0.8h1.9v-1.7H453.2z"/>
		</g>
	</g>
	<g>
		<g>
			<path style="fill:#878787;" d="M694.2,227.4l-3.9,3.7l4.4,4.9h-1.3l-3.8-4.3l-1.3,1.3v3h-1v-8.6h1v4.5l4.6-4.5H694.2z"/>
			<path style="fill:#878787;" d="M700.4,228c0.5,0.4,0.7,0.9,0.7,1.6c0,0.5-0.1,0.8-0.3,1.2c-0.2,0.3-0.6,0.6-1,0.7v0
				c0.4,0.1,0.8,0.4,1.1,0.7c0.3,0.4,0.5,0.9,0.5,1.4c0,0.8-0.3,1.4-0.8,1.8c-0.6,0.5-1.3,0.7-2.3,0.7c-1,0-1.8-0.2-2.3-0.7
				c-0.5-0.5-0.8-1.1-0.8-1.8c0-0.6,0.2-1,0.5-1.4c0.3-0.4,0.7-0.6,1.1-0.7v0c-0.5-0.2-0.8-0.4-1-0.7c-0.2-0.3-0.3-0.7-0.3-1.2
				c0-0.6,0.2-1.2,0.7-1.6c0.5-0.5,1.2-0.7,2.1-0.7C699.2,227.3,699.9,227.5,700.4,228z M696.7,232.4c-0.4,0.3-0.5,0.7-0.5,1.2
				c0,0.5,0.2,0.9,0.5,1.2c0.4,0.3,0.9,0.5,1.6,0.5s1.2-0.2,1.6-0.5c0.3-0.3,0.5-0.7,0.5-1.2c0-0.5-0.2-0.9-0.5-1.2
				c-0.4-0.3-0.9-0.5-1.6-0.5C697.6,231.9,697.1,232,696.7,232.4z M696.9,228.5c-0.3,0.3-0.4,0.6-0.4,1c0,0.4,0.1,0.8,0.4,1.1
				c0.3,0.3,0.8,0.5,1.5,0.5c0.7,0,1.2-0.2,1.5-0.5c0.3-0.3,0.4-0.6,0.4-1.1c0-0.4-0.2-0.8-0.4-1c-0.3-0.3-0.8-0.5-1.4-0.5
				C697.7,228.1,697.2,228.2,696.9,228.5z"/>
			<path style="fill:#878787;" d="M707.4,231.6h-0.9c-0.1-0.4-0.2-0.7-0.5-0.8c-0.3-0.2-0.6-0.3-1.1-0.3c-0.4,0-0.8,0.1-1,0.2
				c-0.3,0.2-0.4,0.4-0.4,0.6c0,0.3,0.2,0.5,0.5,0.7c0.2,0.1,0.7,0.2,1.3,0.4c0.7,0.2,1.3,0.4,1.6,0.6c0.5,0.3,0.7,0.7,0.7,1.3
				c0,1.3-0.9,1.9-2.6,1.9c-1.6,0-2.5-0.7-2.7-2.1h0.9c0.1,0.5,0.3,0.8,0.5,1.1c0.3,0.2,0.7,0.3,1.2,0.3c1.1,0,1.7-0.4,1.7-1.1
				c0-0.3-0.2-0.6-0.6-0.8c-0.2-0.1-0.6-0.2-1.3-0.4c-0.7-0.2-1.2-0.4-1.5-0.6c-0.5-0.3-0.7-0.7-0.7-1.2c0-0.5,0.2-0.9,0.7-1.2
				c0.4-0.3,1-0.5,1.7-0.5C706.4,229.6,707.3,230.3,707.4,231.6z"/>
			<path style="fill:#878787;" d="M709,230.2l-0.5-0.7c1.1-1,1.9-2.1,2.4-3.4l0.8,0.2c-0.1,0.3-0.3,0.6-0.4,0.9h2.6
				c-0.2-0.4-0.3-0.7-0.5-1l0.9-0.1c0.2,0.3,0.3,0.7,0.5,1.2h3.9v0.7h-3.8v0.8h3.4v0.7h-3.4v0.8h3.4v0.7h-3.4v0.9h4v0.7H710v-3.4
				C709.7,229.5,709.4,229.9,709,230.2z M708.8,234.3v-0.8h4.8v-0.6h0.9v0.6h4.7v0.8h-3.6c0.8,0.8,2.1,1.4,3.8,1.8l-0.4,0.8
				c-2-0.7-3.4-1.5-4.2-2.6h-0.2v2.9h-0.9v-2.9h-0.2c-0.8,1-2.2,1.9-4.2,2.7l-0.5-0.7c1.8-0.6,3.1-1.2,3.8-1.9H708.8z M713.9,228
				h-3.1l-0.1,0.1v0.7h3.1V228z M713.9,229.5h-3.1v0.8h3.1V229.5z M713.9,231h-3.1v0.9h3.1V231z"/>
			<path style="fill:#878787;" d="M722.7,231.7c-0.1,0.4-0.2,0.8-0.4,1.2h3.1v4.3h-0.8v-0.7h-1.9v0.7h-0.8v-3.6
				c-0.3,0.7-0.7,1.3-1.2,1.8l-0.5-0.7c0.7-0.7,1.2-1.7,1.5-3H721v-0.7h1.1c0.1-0.4,0.2-0.9,0.2-1.4h-1.6v-0.8h1.7
				c0-0.5,0-0.9,0.1-1.4h-1.4v-0.7h4.1v2.1h0.7v0.8h-0.7v2.1H722.7z M724.7,235.6v-2h-1.9v2H724.7z M722.9,230.9h1.5v-1.4h-1.3
				C723,230.1,723,230.5,722.9,230.9z M723.2,228.8h1.2v-1.4h-1.2C723.2,227.9,723.2,228.4,723.2,228.8z M726.2,229.3v-0.8h1.4
				c-0.3-0.7-0.7-1.4-1-1.9l0.7-0.3c0.4,0.6,0.7,1.2,1,1.9l-0.7,0.3h1.4c0.3-0.7,0.6-1.5,0.9-2.4l0.8,0.3c-0.3,0.8-0.5,1.5-0.9,2.1
				h1.3v0.8h-2v1.7h1.7v0.8h-1.7v1.7h2.3v0.8h-2.3v2.8h-0.9v-2.8h-2.2v-0.8h2.2v-1.7h-1.9v-0.8h1.9v-1.7H726.2z"/>
		</g>
	</g>
</g>
</svg>
